<?xml version="1.0" encoding="UTF-8" standalone="no"?>
<!DOCTYPE svg PUBLIC "-//W3C//DTD SVG 1.1//EN"
 "http://www.w3.org/Graphics/SVG/1.1/DTD/svg11.dtd">
<!-- Generated by graphviz version 2.43.0 (0)
 -->
<!-- Title: ConfigParser::toMonitorConfig Pages: 1 -->
<svg width="474pt" height="121pt"
 viewBox="0.00 0.00 474.00 121.41" xmlns="http://www.w3.org/2000/svg" xmlns:xlink="http://www.w3.org/1999/xlink">
<g id="graph0" class="graph" transform="scale(1 1) rotate(0) translate(4 117.41)">
<title>ConfigParser::toMonitorConfig</title>
<polygon fill="white" stroke="transparent" points="-4,4 -4,-117.41 470,-117.41 470,4 -4,4"/>
<!-- Node1 -->
<g id="node1" class="node">
<title>Node1</title>
<g id="a_node1"><a xlink:title="Converts loaded parameters to a MonitorConfig struct.">
<polygon fill="#bfbfbf" stroke="black" points="0,-57.5 0,-76.5 161,-76.5 161,-57.5 0,-57.5"/>
<text text-anchor="middle" x="80.5" y="-64.5" font-family="Helvetica,sans-Serif" font-size="10.00">ConfigParser::toMonitorConfig</text>
</a>
</g>
</g>
<!-- Node2 -->
<g id="node2" class="node">
<title>Node2</title>
<g id="a_node2"><a xlink:href="classConfigParser.html#a5e10151c9663b93869b1bc07db0053e7" target="_top" xlink:title="Gets a string value for a given key.">
<polygon fill="white" stroke="black" points="367,-57.5 367,-76.5 466,-76.5 466,-57.5 367,-57.5"/>
<text text-anchor="middle" x="416.5" y="-64.5" font-family="Helvetica,sans-Serif" font-size="10.00">ConfigParser::get</text>
</a>
</g>
</g>
<!-- Node1&#45;&gt;Node2 -->
<g id="edge1" class="edge">
<title>Node1&#45;&gt;Node2</title>
<path fill="none" stroke="midnightblue" d="M103.55,-76.59C126.41,-85.98 163.44,-99.62 197,-105 255.81,-114.43 272.77,-117.49 331,-105 352.17,-100.46 374.43,-90.19 390.79,-81.47"/>
<polygon fill="midnightblue" stroke="midnightblue" points="392.62,-84.46 399.69,-76.57 389.24,-78.33 392.62,-84.46"/>
</g>
<!-- Node3 -->
<g id="node3" class="node">
<title>Node3</title>
<g id="a_node3"><a xlink:href="classConfigParser.html#aaee708b5d56ede07e9109986ef096125" target="_top" xlink:title="Gets a boolean value for a given key.">
<polygon fill="white" stroke="black" points="203.5,-76.5 203.5,-95.5 324.5,-95.5 324.5,-76.5 203.5,-76.5"/>
<text text-anchor="middle" x="264" y="-83.5" font-family="Helvetica,sans-Serif" font-size="10.00">ConfigParser::getBool</text>
</a>
</g>
</g>
<!-- Node1&#45;&gt;Node3 -->
<g id="edge2" class="edge">
<title>Node1&#45;&gt;Node3</title>
<path fill="none" stroke="midnightblue" d="M161.11,-75.33C171.86,-76.46 182.83,-77.61 193.39,-78.71"/>
<polygon fill="midnightblue" stroke="midnightblue" points="193.06,-82.2 203.37,-79.76 193.79,-75.24 193.06,-82.2"/>
</g>
<!-- Node4 -->
<g id="node4" class="node">
<title>Node4</title>
<g id="a_node4"><a xlink:href="classConfigParser.html#a7ecd8fa23a2651c59bae6b865725b59b" target="_top" xlink:title="Gets a double value for a given key.">
<polygon fill="white" stroke="black" points="197,-38.5 197,-57.5 331,-57.5 331,-38.5 197,-38.5"/>
<text text-anchor="middle" x="264" y="-45.5" font-family="Helvetica,sans-Serif" font-size="10.00">ConfigParser::getDouble</text>
</a>
</g>
</g>
<!-- Node1&#45;&gt;Node4 -->
<g id="edge4" class="edge">
<title>Node1&#45;&gt;Node4</title>
<path fill="none" stroke="midnightblue" d="M161.11,-58.67C169.57,-57.78 178.17,-56.88 186.59,-56"/>
<polygon fill="midnightblue" stroke="midnightblue" points="187.19,-59.46 196.77,-54.93 186.46,-52.49 187.19,-59.46"/>
</g>
<!-- Node5 -->
<g id="node5" class="node">
<title>Node5</title>
<g id="a_node5"><a xlink:href="classConfigParser.html#ae5d32c782f74de2f881c0ebc5aeaf3a5" target="_top" xlink:title="Gets an integer value for a given key.">
<polygon fill="white" stroke="black" points="208,-0.5 208,-19.5 320,-19.5 320,-0.5 208,-0.5"/>
<text text-anchor="middle" x="264" y="-7.5" font-family="Helvetica,sans-Serif" font-size="10.00">ConfigParser::getInt</text>
</a>
</g>
</g>
<!-- Node1&#45;&gt;Node5 -->
<g id="edge6" class="edge">
<title>Node1&#45;&gt;Node5</title>
<path fill="none" stroke="midnightblue" d="M109.41,-57.49C132.75,-49.62 166.94,-38.27 197,-29 204.21,-26.78 211.89,-24.49 219.36,-22.31"/>
<polygon fill="midnightblue" stroke="midnightblue" points="220.38,-25.66 229.01,-19.52 218.43,-18.94 220.38,-25.66"/>
</g>
<!-- Node3&#45;&gt;Node2 -->
<g id="edge3" class="edge">
<title>Node3&#45;&gt;Node2</title>
<path fill="none" stroke="midnightblue" d="M324.91,-78.44C335.37,-77.12 346.23,-75.75 356.65,-74.43"/>
<polygon fill="midnightblue" stroke="midnightblue" points="357.41,-77.86 366.9,-73.14 356.54,-70.92 357.41,-77.86"/>
</g>
<!-- Node4&#45;&gt;Node2 -->
<g id="edge5" class="edge">
<title>Node4&#45;&gt;Node2</title>
<path fill="none" stroke="midnightblue" d="M331.01,-56.33C339.55,-57.41 348.24,-58.51 356.65,-59.57"/>
<polygon fill="midnightblue" stroke="midnightblue" points="356.37,-63.06 366.73,-60.84 357.25,-56.12 356.37,-63.06"/>
</g>
<!-- Node5&#45;&gt;Node2 -->
<g id="edge7" class="edge">
<title>Node5&#45;&gt;Node2</title>
<path fill="none" stroke="midnightblue" d="M301.61,-19.54C311.26,-22.32 321.6,-25.55 331,-29 350.01,-35.97 370.75,-45.27 386.93,-52.93"/>
<polygon fill="midnightblue" stroke="midnightblue" points="385.83,-56.28 396.36,-57.45 388.85,-49.97 385.83,-56.28"/>
</g>
</g>
</svg>
