<?xml version="1.0" encoding="UTF-8" standalone="no"?>
<!DOCTYPE svg PUBLIC "-//W3C//DTD SVG 1.1//EN"
 "http://www.w3.org/Graphics/SVG/1.1/DTD/svg11.dtd">
<!-- Generated by graphviz version 2.43.0 (0)
 -->
<!-- Title: Initializer::parseConfig Pages: 1 -->
<svg width="636pt" height="161pt"
 viewBox="0.00 0.00 636.00 161.00" xmlns="http://www.w3.org/2000/svg" xmlns:xlink="http://www.w3.org/1999/xlink">
<g id="graph0" class="graph" transform="scale(1 1) rotate(0) translate(4 157)">
<title>Initializer::parseConfig</title>
<polygon fill="white" stroke="transparent" points="-4,4 -4,-157 632,-157 632,4 -4,4"/>
<!-- Node1 -->
<g id="node1" class="node">
<title>Node1</title>
<g id="a_node1"><a xlink:title="Parses the configuration file and returns a MonitorConfig object.">
<polygon fill="#bfbfbf" stroke="black" points="0,-95.5 0,-114.5 126,-114.5 126,-95.5 0,-95.5"/>
<text text-anchor="middle" x="63" y="-102.5" font-family="Helvetica,sans-Serif" font-size="10.00">Initializer::parseConfig</text>
</a>
</g>
</g>
<!-- Node2 -->
<g id="node2" class="node">
<title>Node2</title>
<g id="a_node2"><a xlink:href="classConfigParser.html#a715ade3c05d0589a4c002d0c2267c3dc" target="_top" xlink:title="Loads configuration parameters from a file.">
<polygon fill="white" stroke="black" points="190.5,-133.5 190.5,-152.5 294.5,-152.5 294.5,-133.5 190.5,-133.5"/>
<text text-anchor="middle" x="242.5" y="-140.5" font-family="Helvetica,sans-Serif" font-size="10.00">ConfigParser::load</text>
</a>
</g>
</g>
<!-- Node1&#45;&gt;Node2 -->
<g id="edge1" class="edge">
<title>Node1&#45;&gt;Node2</title>
<path fill="none" stroke="midnightblue" d="M108.79,-114.59C132.53,-119.67 161.88,-125.96 186.94,-131.32"/>
<polygon fill="midnightblue" stroke="midnightblue" points="186.52,-134.81 197.03,-133.48 187.99,-127.96 186.52,-134.81"/>
</g>
<!-- Node3 -->
<g id="node3" class="node">
<title>Node3</title>
<g id="a_node3"><a xlink:href="classConfigParser.html#af1bfcf1ded3a672012fb3a24c2f41f39" target="_top" xlink:title="Prints the loaded configuration to the log.">
<polygon fill="white" stroke="black" points="174,-95.5 174,-114.5 311,-114.5 311,-95.5 174,-95.5"/>
<text text-anchor="middle" x="242.5" y="-102.5" font-family="Helvetica,sans-Serif" font-size="10.00">ConfigParser::printConfig</text>
</a>
</g>
</g>
<!-- Node1&#45;&gt;Node3 -->
<g id="edge2" class="edge">
<title>Node1&#45;&gt;Node3</title>
<path fill="none" stroke="midnightblue" d="M126.08,-105C138.23,-105 151.11,-105 163.7,-105"/>
<polygon fill="midnightblue" stroke="midnightblue" points="163.71,-108.5 173.71,-105 163.71,-101.5 163.71,-108.5"/>
</g>
<!-- Node4 -->
<g id="node4" class="node">
<title>Node4</title>
<g id="a_node4"><a xlink:href="classConfigParser.html#a98620e3bc1a71887f39cdb0a8a8acd26" target="_top" xlink:title="Converts loaded parameters to a MonitorConfig struct.">
<polygon fill="white" stroke="black" points="162,-57.5 162,-76.5 323,-76.5 323,-57.5 162,-57.5"/>
<text text-anchor="middle" x="242.5" y="-64.5" font-family="Helvetica,sans-Serif" font-size="10.00">ConfigParser::toMonitorConfig</text>
</a>
</g>
</g>
<!-- Node1&#45;&gt;Node4 -->
<g id="edge3" class="edge">
<title>Node1&#45;&gt;Node4</title>
<path fill="none" stroke="midnightblue" d="M108.79,-95.41C132.53,-90.33 161.88,-84.04 186.94,-78.68"/>
<polygon fill="midnightblue" stroke="midnightblue" points="187.99,-82.04 197.03,-76.52 186.52,-75.19 187.99,-82.04"/>
</g>
<!-- Node5 -->
<g id="node5" class="node">
<title>Node5</title>
<g id="a_node5"><a xlink:href="classConfigParser.html#a5e10151c9663b93869b1bc07db0053e7" target="_top" xlink:title="Gets a string value for a given key.">
<polygon fill="white" stroke="black" points="529,-57.5 529,-76.5 628,-76.5 628,-57.5 529,-57.5"/>
<text text-anchor="middle" x="578.5" y="-64.5" font-family="Helvetica,sans-Serif" font-size="10.00">ConfigParser::get</text>
</a>
</g>
</g>
<!-- Node4&#45;&gt;Node5 -->
<g id="edge4" class="edge">
<title>Node4&#45;&gt;Node5</title>
<path fill="none" stroke="midnightblue" d="M292.01,-76.54C302.38,-79.15 313.17,-82.3 323,-86 339.93,-92.38 341.44,-100.65 359,-105 416.81,-119.32 434.77,-117.49 493,-105 514.17,-100.46 536.43,-90.19 552.79,-81.47"/>
<polygon fill="midnightblue" stroke="midnightblue" points="554.62,-84.46 561.69,-76.57 551.24,-78.33 554.62,-84.46"/>
</g>
<!-- Node6 -->
<g id="node6" class="node">
<title>Node6</title>
<g id="a_node6"><a xlink:href="classConfigParser.html#aaee708b5d56ede07e9109986ef096125" target="_top" xlink:title="Gets a boolean value for a given key.">
<polygon fill="white" stroke="black" points="365.5,-76.5 365.5,-95.5 486.5,-95.5 486.5,-76.5 365.5,-76.5"/>
<text text-anchor="middle" x="426" y="-83.5" font-family="Helvetica,sans-Serif" font-size="10.00">ConfigParser::getBool</text>
</a>
</g>
</g>
<!-- Node4&#45;&gt;Node6 -->
<g id="edge5" class="edge">
<title>Node4&#45;&gt;Node6</title>
<path fill="none" stroke="midnightblue" d="M323.11,-75.33C333.86,-76.46 344.83,-77.61 355.39,-78.71"/>
<polygon fill="midnightblue" stroke="midnightblue" points="355.06,-82.2 365.37,-79.76 355.79,-75.24 355.06,-82.2"/>
</g>
<!-- Node7 -->
<g id="node7" class="node">
<title>Node7</title>
<g id="a_node7"><a xlink:href="classConfigParser.html#a7ecd8fa23a2651c59bae6b865725b59b" target="_top" xlink:title="Gets a double value for a given key.">
<polygon fill="white" stroke="black" points="359,-38.5 359,-57.5 493,-57.5 493,-38.5 359,-38.5"/>
<text text-anchor="middle" x="426" y="-45.5" font-family="Helvetica,sans-Serif" font-size="10.00">ConfigParser::getDouble</text>
</a>
</g>
</g>
<!-- Node4&#45;&gt;Node7 -->
<g id="edge7" class="edge">
<title>Node4&#45;&gt;Node7</title>
<path fill="none" stroke="midnightblue" d="M323.11,-58.67C331.57,-57.78 340.17,-56.88 348.59,-56"/>
<polygon fill="midnightblue" stroke="midnightblue" points="349.19,-59.46 358.77,-54.93 348.46,-52.49 349.19,-59.46"/>
</g>
<!-- Node8 -->
<g id="node8" class="node">
<title>Node8</title>
<g id="a_node8"><a xlink:href="classConfigParser.html#ae5d32c782f74de2f881c0ebc5aeaf3a5" target="_top" xlink:title="Gets an integer value for a given key.">
<polygon fill="white" stroke="black" points="370,-0.5 370,-19.5 482,-19.5 482,-0.5 370,-0.5"/>
<text text-anchor="middle" x="426" y="-7.5" font-family="Helvetica,sans-Serif" font-size="10.00">ConfigParser::getInt</text>
</a>
</g>
</g>
<!-- Node4&#45;&gt;Node8 -->
<g id="edge9" class="edge">
<title>Node4&#45;&gt;Node8</title>
<path fill="none" stroke="midnightblue" d="M271.41,-57.49C294.75,-49.62 328.94,-38.27 359,-29 366.21,-26.78 373.89,-24.49 381.36,-22.31"/>
<polygon fill="midnightblue" stroke="midnightblue" points="382.38,-25.66 391.01,-19.52 380.43,-18.94 382.38,-25.66"/>
</g>
<!-- Node6&#45;&gt;Node5 -->
<g id="edge6" class="edge">
<title>Node6&#45;&gt;Node5</title>
<path fill="none" stroke="midnightblue" d="M486.91,-78.44C497.37,-77.12 508.23,-75.75 518.65,-74.43"/>
<polygon fill="midnightblue" stroke="midnightblue" points="519.41,-77.86 528.9,-73.14 518.54,-70.92 519.41,-77.86"/>
</g>
<!-- Node7&#45;&gt;Node5 -->
<g id="edge8" class="edge">
<title>Node7&#45;&gt;Node5</title>
<path fill="none" stroke="midnightblue" d="M493.01,-56.33C501.55,-57.41 510.24,-58.51 518.65,-59.57"/>
<polygon fill="midnightblue" stroke="midnightblue" points="518.37,-63.06 528.73,-60.84 519.25,-56.12 518.37,-63.06"/>
</g>
<!-- Node8&#45;&gt;Node5 -->
<g id="edge10" class="edge">
<title>Node8&#45;&gt;Node5</title>
<path fill="none" stroke="midnightblue" d="M463.61,-19.54C473.26,-22.32 483.6,-25.55 493,-29 512.01,-35.97 532.75,-45.27 548.93,-52.93"/>
<polygon fill="midnightblue" stroke="midnightblue" points="547.83,-56.28 558.36,-57.45 550.85,-49.97 547.83,-56.28"/>
</g>
</g>
</svg>
