<?xml version="1.0" encoding="UTF-8" standalone="no"?>
<!DOCTYPE svg PUBLIC "-//W3C//DTD SVG 1.1//EN"
 "http://www.w3.org/Graphics/SVG/1.1/DTD/svg11.dtd">
<!-- Generated by graphviz version 2.43.0 (0)
 -->
<!-- Title: IDatabaseInterface::insertBatch Pages: 1 -->
<svg width="589pt" height="159pt"
 viewBox="0.00 0.00 589.00 159.00" xmlns="http://www.w3.org/2000/svg" xmlns:xlink="http://www.w3.org/1999/xlink">
<g id="graph0" class="graph" transform="scale(1 1) rotate(0) translate(4 155)">
<title>IDatabaseInterface::insertBatch</title>
<polygon fill="white" stroke="transparent" points="-4,4 -4,-155 585,-155 585,4 -4,4"/>
<!-- Node1 -->
<g id="node1" class="node">
<title>Node1</title>
<g id="a_node1"><a xlink:title="Insert a batch of metrics for a container.">
<polygon fill="#bfbfbf" stroke="black" points="471,-71.5 471,-101.5 581,-101.5 581,-71.5 471,-71.5"/>
<text text-anchor="start" x="479" y="-89.5" font-family="Helvetica,sans-Serif" font-size="10.00">IDatabaseInterface</text>
<text text-anchor="middle" x="526" y="-78.5" font-family="Helvetica,sans-Serif" font-size="10.00">::insertBatch</text>
</a>
</g>
</g>
<!-- Node2 -->
<g id="node2" class="node">
<title>Node2</title>
<g id="a_node2"><a xlink:href="classResourceThreadPool.html#abc537653319086744ca546aecdbabf46" target="_top" xlink:title="Flushes all metric buffers to the database.">
<polygon fill="white" stroke="black" points="319,-71.5 319,-101.5 435,-101.5 435,-71.5 319,-71.5"/>
<text text-anchor="start" x="327" y="-89.5" font-family="Helvetica,sans-Serif" font-size="10.00">ResourceThreadPool</text>
<text text-anchor="middle" x="377" y="-78.5" font-family="Helvetica,sans-Serif" font-size="10.00">::flushAllBuffers</text>
</a>
</g>
</g>
<!-- Node1&#45;&gt;Node2 -->
<g id="edge1" class="edge">
<title>Node1&#45;&gt;Node2</title>
<path fill="none" stroke="midnightblue" d="M460.47,-86.5C452,-86.5 443.38,-86.5 435.05,-86.5"/>
<polygon fill="midnightblue" stroke="midnightblue" points="460.68,-90 470.68,-86.5 460.68,-83 460.68,-90"/>
</g>
<!-- Node3 -->
<g id="node3" class="node">
<title>Node3</title>
<g id="a_node3"><a xlink:href="classResourceThreadPool.html#a0795466eeecdbed227e6faa9d0c0f7ac" target="_top" xlink:title="Adds a container to the thread pool for monitoring.">
<polygon fill="white" stroke="black" points="167,-120.5 167,-150.5 283,-150.5 283,-120.5 167,-120.5"/>
<text text-anchor="start" x="175" y="-138.5" font-family="Helvetica,sans-Serif" font-size="10.00">ResourceThreadPool</text>
<text text-anchor="middle" x="225" y="-127.5" font-family="Helvetica,sans-Serif" font-size="10.00">::addContainer</text>
</a>
</g>
</g>
<!-- Node2&#45;&gt;Node3 -->
<g id="edge2" class="edge">
<title>Node2&#45;&gt;Node3</title>
<path fill="none" stroke="midnightblue" d="M320.1,-104.76C304.28,-109.93 287.25,-115.49 272.08,-120.45"/>
<polygon fill="midnightblue" stroke="midnightblue" points="321.35,-108.03 329.77,-101.6 319.18,-101.38 321.35,-108.03"/>
</g>
<!-- Node4 -->
<g id="node4" class="node">
<title>Node4</title>
<g id="a_node4"><a xlink:href="classResourceThreadPool.html#ab3fec67194eab02147ae7cd7a87d86cf" target="_top" xlink:title="Removes a container from the thread pool.">
<polygon fill="white" stroke="black" points="167,-71.5 167,-101.5 283,-101.5 283,-71.5 167,-71.5"/>
<text text-anchor="start" x="175" y="-89.5" font-family="Helvetica,sans-Serif" font-size="10.00">ResourceThreadPool</text>
<text text-anchor="middle" x="225" y="-78.5" font-family="Helvetica,sans-Serif" font-size="10.00">::removeContainer</text>
</a>
</g>
</g>
<!-- Node2&#45;&gt;Node4 -->
<g id="edge3" class="edge">
<title>Node2&#45;&gt;Node4</title>
<path fill="none" stroke="midnightblue" d="M308.69,-86.5C300.27,-86.5 291.72,-86.5 283.47,-86.5"/>
<polygon fill="midnightblue" stroke="midnightblue" points="308.86,-90 318.86,-86.5 308.86,-83 308.86,-90"/>
</g>
<!-- Node5 -->
<g id="node5" class="node">
<title>Node5</title>
<g id="a_node5"><a xlink:href="classResourceThreadPool.html#a3e77793eacec2e53588c114068c494f6" target="_top" xlink:title="Stops all worker threads and flushes buffers.">
<polygon fill="white" stroke="black" points="167,-22.5 167,-52.5 283,-52.5 283,-22.5 167,-22.5"/>
<text text-anchor="start" x="175" y="-40.5" font-family="Helvetica,sans-Serif" font-size="10.00">ResourceThreadPool</text>
<text text-anchor="middle" x="225" y="-29.5" font-family="Helvetica,sans-Serif" font-size="10.00">::stop</text>
</a>
</g>
</g>
<!-- Node2&#45;&gt;Node5 -->
<g id="edge4" class="edge">
<title>Node2&#45;&gt;Node5</title>
<path fill="none" stroke="midnightblue" d="M320.1,-68.24C304.28,-63.07 287.25,-57.51 272.08,-52.55"/>
<polygon fill="midnightblue" stroke="midnightblue" points="319.18,-71.62 329.77,-71.4 321.35,-64.97 319.18,-71.62"/>
</g>
<!-- Node6 -->
<g id="node6" class="node">
<title>Node6</title>
<g id="a_node6"><a xlink:href="main_8cpp.html#a0ddf1224851353fc92bfbff6f499fa97" target="_top" xlink:title="Main entry point for the Container Monitor application.">
<polygon fill="white" stroke="black" points="45,-50 45,-69 86,-69 86,-50 45,-50"/>
<text text-anchor="middle" x="65.5" y="-57" font-family="Helvetica,sans-Serif" font-size="10.00">main</text>
</a>
</g>
</g>
<!-- Node5&#45;&gt;Node6 -->
<g id="edge5" class="edge">
<title>Node5&#45;&gt;Node6</title>
<path fill="none" stroke="midnightblue" d="M156.66,-46.91C131.19,-50.46 104.09,-54.25 86.33,-56.73"/>
<polygon fill="midnightblue" stroke="midnightblue" points="157.27,-50.35 166.69,-45.5 156.31,-43.42 157.27,-50.35"/>
</g>
<!-- Node7 -->
<g id="node7" class="node">
<title>Node7</title>
<g id="a_node7"><a xlink:href="classResourceThreadPool.html#acd8ec1d827c84498c6adcb937773f4a9" target="_top" xlink:title="Destructor. Ensures all threads are stopped and buffers flushed.">
<polygon fill="white" stroke="black" points="0,-0.5 0,-30.5 131,-30.5 131,-0.5 0,-0.5"/>
<text text-anchor="start" x="8" y="-18.5" font-family="Helvetica,sans-Serif" font-size="10.00">ResourceThreadPool</text>
<text text-anchor="middle" x="65.5" y="-7.5" font-family="Helvetica,sans-Serif" font-size="10.00">::~ResourceThreadPool</text>
</a>
</g>
</g>
<!-- Node5&#45;&gt;Node7 -->
<g id="edge6" class="edge">
<title>Node5&#45;&gt;Node7</title>
<path fill="none" stroke="midnightblue" d="M156.56,-28.08C148.16,-26.91 139.59,-25.71 131.23,-24.54"/>
<polygon fill="midnightblue" stroke="midnightblue" points="156.31,-31.58 166.69,-29.5 157.27,-24.65 156.31,-31.58"/>
</g>
</g>
</svg>
