<?xml version="1.0" encoding="UTF-8" standalone="no"?>
<!DOCTYPE svg PUBLIC "-//W3C//DTD SVG 1.1//EN"
 "http://www.w3.org/Graphics/SVG/1.1/DTD/svg11.dtd">
<!-- Generated by graphviz version 2.43.0 (0)
 -->
<!-- Title: MetricsReader::readUintFromFile Pages: 1 -->
<svg width="572pt" height="78pt"
 viewBox="0.00 0.00 572.00 77.50" xmlns="http://www.w3.org/2000/svg" xmlns:xlink="http://www.w3.org/1999/xlink">
<g id="graph0" class="graph" transform="scale(1 1) rotate(0) translate(4 73.5)">
<title>MetricsReader::readUintFromFile</title>
<polygon fill="white" stroke="transparent" points="-4,4 -4,-73.5 568,-73.5 568,4 -4,4"/>
<!-- Node1 -->
<g id="node1" class="node">
<title>Node1</title>
<g id="a_node1"><a xlink:title="Reads an unsigned integer value from a file.">
<polygon fill="#bfbfbf" stroke="black" points="387,-22.5 387,-41.5 564,-41.5 564,-22.5 387,-22.5"/>
<text text-anchor="middle" x="475.5" y="-29.5" font-family="Helvetica,sans-Serif" font-size="10.00">MetricsReader::readUintFromFile</text>
</a>
</g>
</g>
<!-- Node2 -->
<g id="node2" class="node">
<title>Node2</title>
<g id="a_node2"><a xlink:href="classMetricsReader.html#a17af94e249caadeca1140344d0cd39e1" target="_top" xlink:title="Gets the container&#39;s memory usage in megabytes.">
<polygon fill="white" stroke="black" points="202,-39 202,-69 351,-69 351,-39 202,-39"/>
<text text-anchor="start" x="210" y="-57" font-family="Helvetica,sans-Serif" font-size="10.00">MetricsReader::getMemory</text>
<text text-anchor="middle" x="276.5" y="-46" font-family="Helvetica,sans-Serif" font-size="10.00">Usage</text>
</a>
</g>
</g>
<!-- Node1&#45;&gt;Node2 -->
<g id="edge1" class="edge">
<title>Node1&#45;&gt;Node2</title>
<path fill="none" stroke="midnightblue" d="M379.08,-42.66C369.69,-43.7 360.27,-44.76 351.15,-45.78"/>
<polygon fill="midnightblue" stroke="midnightblue" points="379.69,-46.11 389.24,-41.52 378.91,-39.15 379.69,-46.11"/>
</g>
<!-- Node4 -->
<g id="node4" class="node">
<title>Node4</title>
<g id="a_node4"><a xlink:href="classMetricsReader.html#a89b92f11cac797c023cbaf8d62dc2715" target="_top" xlink:title="Gets the container&#39;s current pids count.">
<polygon fill="white" stroke="black" points="212,-0.5 212,-19.5 341,-19.5 341,-0.5 212,-0.5"/>
<text text-anchor="middle" x="276.5" y="-7.5" font-family="Helvetica,sans-Serif" font-size="10.00">MetricsReader::getPids</text>
</a>
</g>
</g>
<!-- Node1&#45;&gt;Node4 -->
<g id="edge3" class="edge">
<title>Node1&#45;&gt;Node4</title>
<path fill="none" stroke="midnightblue" d="M378.99,-21.33C366.17,-19.9 353.29,-18.46 341.21,-17.11"/>
<polygon fill="midnightblue" stroke="midnightblue" points="378.91,-24.85 389.24,-22.48 379.69,-17.89 378.91,-24.85"/>
</g>
<!-- Node3 -->
<g id="node3" class="node">
<title>Node3</title>
<g id="a_node3"><a xlink:href="classMetricsReader.html#a804cf4e44e14d976b2c2e6f083c22d63" target="_top" xlink:title="Gets the container&#39;s memory usage as a percentage of its limit.">
<polygon fill="white" stroke="black" points="8.5,-39 8.5,-69 157.5,-69 157.5,-39 8.5,-39"/>
<text text-anchor="start" x="16.5" y="-57" font-family="Helvetica,sans-Serif" font-size="10.00">MetricsReader::getMemory</text>
<text text-anchor="middle" x="83" y="-46" font-family="Helvetica,sans-Serif" font-size="10.00">UsagePercent</text>
</a>
</g>
</g>
<!-- Node2&#45;&gt;Node3 -->
<g id="edge2" class="edge">
<title>Node2&#45;&gt;Node3</title>
<path fill="none" stroke="midnightblue" d="M191.49,-54C180.24,-54 168.78,-54 157.73,-54"/>
<polygon fill="midnightblue" stroke="midnightblue" points="191.74,-57.5 201.74,-54 191.73,-50.5 191.74,-57.5"/>
</g>
<!-- Node5 -->
<g id="node5" class="node">
<title>Node5</title>
<g id="a_node5"><a xlink:href="classMetricsReader.html#ad094288f500d2394f3091a9ca1327163" target="_top" xlink:title="Gets the container&#39;s pids usage as a percentage of its limit.">
<polygon fill="white" stroke="black" points="0,-0.5 0,-19.5 166,-19.5 166,-0.5 0,-0.5"/>
<text text-anchor="middle" x="83" y="-7.5" font-family="Helvetica,sans-Serif" font-size="10.00">MetricsReader::getPidsPercent</text>
</a>
</g>
</g>
<!-- Node4&#45;&gt;Node5 -->
<g id="edge4" class="edge">
<title>Node4&#45;&gt;Node5</title>
<path fill="none" stroke="midnightblue" d="M201.85,-10C190.15,-10 177.97,-10 166.09,-10"/>
<polygon fill="midnightblue" stroke="midnightblue" points="202,-13.5 212,-10 202,-6.5 202,-13.5"/>
</g>
</g>
</svg>
