<?xml version="1.0" encoding="UTF-8" standalone="no"?>
<!DOCTYPE svg PUBLIC "-//W3C//DTD SVG 1.1//EN"
 "http://www.w3.org/Graphics/SVG/1.1/DTD/svg11.dtd">
<!-- Generated by graphviz version 2.43.0 (0)
 -->
<!-- Title: IContainerRuntimePathFactory Pages: 1 -->
<svg width="199pt" height="171pt"
 viewBox="0.00 0.00 199.00 171.00" xmlns="http://www.w3.org/2000/svg" xmlns:xlink="http://www.w3.org/1999/xlink">
<g id="graph0" class="graph" transform="scale(1 1) rotate(0) translate(4 167)">
<title>IContainerRuntimePathFactory</title>
<polygon fill="white" stroke="transparent" points="-4,4 -4,-167 195,-167 195,4 -4,4"/>
<!-- Node1 -->
<g id="node1" class="node">
<title>Node1</title>
<g id="a_node1"><a xlink:title="Interface for container runtime resource path factories.">
<polygon fill="#bfbfbf" stroke="black" points="0,-94.5 0,-162.5 191,-162.5 191,-94.5 0,-94.5"/>
<text text-anchor="middle" x="95.5" y="-150.5" font-family="Helvetica,sans-Serif" font-size="10.00">IContainerRuntimePathFactory</text>
<polyline fill="none" stroke="black" points="0,-143.5 191,-143.5 "/>
<text text-anchor="middle" x="95.5" y="-131.5" font-family="Helvetica,sans-Serif" font-size="10.00"> </text>
<polyline fill="none" stroke="black" points="0,-124.5 191,-124.5 "/>
<text text-anchor="start" x="8" y="-112.5" font-family="Helvetica,sans-Serif" font-size="10.00">+ ~IContainerRuntimePathFactory()</text>
<text text-anchor="start" x="8" y="-101.5" font-family="Helvetica,sans-Serif" font-size="10.00">+ getPaths()</text>
</a>
</g>
</g>
<!-- Node2 -->
<g id="node2" class="node">
<title>Node2</title>
<g id="a_node2"><a xlink:href="classDockerCgroupV1PathFactory.html" target="_top" xlink:title="Factory for generating Docker cgroup v1 resource file paths.">
<polygon fill="white" stroke="black" points="18.5,-0.5 18.5,-57.5 172.5,-57.5 172.5,-0.5 18.5,-0.5"/>
<text text-anchor="middle" x="95.5" y="-45.5" font-family="Helvetica,sans-Serif" font-size="10.00">DockerCgroupV1PathFactory</text>
<polyline fill="none" stroke="black" points="18.5,-38.5 172.5,-38.5 "/>
<text text-anchor="middle" x="95.5" y="-26.5" font-family="Helvetica,sans-Serif" font-size="10.00"> </text>
<polyline fill="none" stroke="black" points="18.5,-19.5 172.5,-19.5 "/>
<text text-anchor="start" x="26.5" y="-7.5" font-family="Helvetica,sans-Serif" font-size="10.00">+ getPaths()</text>
</a>
</g>
</g>
<!-- Node1&#45;&gt;Node2 -->
<g id="edge1" class="edge">
<title>Node1&#45;&gt;Node2</title>
<path fill="none" stroke="midnightblue" d="M95.5,-84.45C95.5,-75.4 95.5,-66.09 95.5,-57.78"/>
<polygon fill="none" stroke="midnightblue" points="92,-84.49 95.5,-94.49 99,-84.49 92,-84.49"/>
</g>
</g>
</svg>
