<?xml version="1.0" encoding="UTF-8" standalone="no"?>
<!DOCTYPE svg PUBLIC "-//W3C//DTD SVG 1.1//EN"
 "http://www.w3.org/Graphics/SVG/1.1/DTD/svg11.dtd">
<!-- Generated by graphviz version 2.43.0 (0)
 -->
<!-- Title: LiveMetricAggregator::stop Pages: 1 -->
<svg width="302pt" height="78pt"
 viewBox="0.00 0.00 302.00 77.50" xmlns="http://www.w3.org/2000/svg" xmlns:xlink="http://www.w3.org/1999/xlink">
<g id="graph0" class="graph" transform="scale(1 1) rotate(0) translate(4 73.5)">
<title>LiveMetricAggregator::stop</title>
<polygon fill="white" stroke="transparent" points="-4,4 -4,-73.5 298,-73.5 298,4 -4,4"/>
<!-- Node1 -->
<g id="node1" class="node">
<title>Node1</title>
<g id="a_node1"><a xlink:title="Stops the aggregator thread.">
<polygon fill="#bfbfbf" stroke="black" points="172,-22.5 172,-52.5 294,-52.5 294,-22.5 172,-22.5"/>
<text text-anchor="start" x="180" y="-40.5" font-family="Helvetica,sans-Serif" font-size="10.00">LiveMetricAggregator</text>
<text text-anchor="middle" x="233" y="-29.5" font-family="Helvetica,sans-Serif" font-size="10.00">::stop</text>
</a>
</g>
</g>
<!-- Node2 -->
<g id="node2" class="node">
<title>Node2</title>
<g id="a_node2"><a xlink:href="main_8cpp.html#a0ddf1224851353fc92bfbff6f499fa97" target="_top" xlink:title="Main entry point for the Container Monitor application.">
<polygon fill="white" stroke="black" points="47.5,-50 47.5,-69 88.5,-69 88.5,-50 47.5,-50"/>
<text text-anchor="middle" x="68" y="-57" font-family="Helvetica,sans-Serif" font-size="10.00">main</text>
</a>
</g>
</g>
<!-- Node1&#45;&gt;Node2 -->
<g id="edge1" class="edge">
<title>Node1&#45;&gt;Node2</title>
<path fill="none" stroke="midnightblue" d="M161.65,-46.99C134.99,-50.59 106.71,-54.41 88.51,-56.87"/>
<polygon fill="midnightblue" stroke="midnightblue" points="162.33,-50.44 171.77,-45.63 161.39,-43.5 162.33,-50.44"/>
</g>
<!-- Node3 -->
<g id="node3" class="node">
<title>Node3</title>
<g id="a_node3"><a xlink:href="classLiveMetricAggregator.html#a10cec1ab0574c85ec272c0c0d838ae49" target="_top" xlink:title="Destructor. Ensures the worker thread is stopped.">
<polygon fill="white" stroke="black" points="0,-0.5 0,-30.5 136,-30.5 136,-0.5 0,-0.5"/>
<text text-anchor="start" x="8" y="-18.5" font-family="Helvetica,sans-Serif" font-size="10.00">LiveMetricAggregator</text>
<text text-anchor="middle" x="68" y="-7.5" font-family="Helvetica,sans-Serif" font-size="10.00">::~LiveMetricAggregator</text>
</a>
</g>
</g>
<!-- Node1&#45;&gt;Node3 -->
<g id="edge2" class="edge">
<title>Node1&#45;&gt;Node3</title>
<path fill="none" stroke="midnightblue" d="M161.85,-28.03C153.31,-26.88 144.61,-25.71 136.12,-24.56"/>
<polygon fill="midnightblue" stroke="midnightblue" points="161.39,-31.5 171.77,-29.37 162.33,-24.56 161.39,-31.5"/>
</g>
</g>
</svg>
