<?xml version="1.0" encoding="UTF-8" standalone="no"?>
<!DOCTYPE svg PUBLIC "-//W3C//DTD SVG 1.1//EN"
 "http://www.w3.org/Graphics/SVG/1.1/DTD/svg11.dtd">
<!-- Generated by graphviz version 2.43.0 (0)
 -->
<!-- Title: MonitorDashboard::stop Pages: 1 -->
<svg width="293pt" height="78pt"
 viewBox="0.00 0.00 293.00 77.50" xmlns="http://www.w3.org/2000/svg" xmlns:xlink="http://www.w3.org/1999/xlink">
<g id="graph0" class="graph" transform="scale(1 1) rotate(0) translate(4 73.5)">
<title>MonitorDashboard::stop</title>
<polygon fill="white" stroke="transparent" points="-4,4 -4,-73.5 289,-73.5 289,4 -4,4"/>
<!-- Node1 -->
<g id="node1" class="node">
<title>Node1</title>
<g id="a_node1"><a xlink:title="Stops the dashboard UI thread.">
<polygon fill="#bfbfbf" stroke="black" points="151,-28 151,-47 285,-47 285,-28 151,-28"/>
<text text-anchor="middle" x="218" y="-35" font-family="Helvetica,sans-Serif" font-size="10.00">MonitorDashboard::stop</text>
</a>
</g>
</g>
<!-- Node2 -->
<g id="node2" class="node">
<title>Node2</title>
<g id="a_node2"><a xlink:href="main_8cpp.html#a0ddf1224851353fc92bfbff6f499fa97" target="_top" xlink:title="Main entry point for the Container Monitor application.">
<polygon fill="white" stroke="black" points="37,-50 37,-69 78,-69 78,-50 37,-50"/>
<text text-anchor="middle" x="57.5" y="-57" font-family="Helvetica,sans-Serif" font-size="10.00">main</text>
</a>
</g>
</g>
<!-- Node1&#45;&gt;Node2 -->
<g id="edge1" class="edge">
<title>Node1&#45;&gt;Node2</title>
<path fill="none" stroke="midnightblue" d="M140.53,-48.11C117.5,-51.31 94.17,-54.55 78.3,-56.75"/>
<polygon fill="midnightblue" stroke="midnightblue" points="141.28,-51.54 150.7,-46.7 140.31,-44.61 141.28,-51.54"/>
</g>
<!-- Node3 -->
<g id="node3" class="node">
<title>Node3</title>
<g id="a_node3"><a xlink:href="classMonitorDashboard.html#a8279c37dd0df959d92407c579a8faaef" target="_top" xlink:title="Destructor. Ensures the UI thread is stopped.">
<polygon fill="white" stroke="black" points="0,-0.5 0,-30.5 115,-30.5 115,-0.5 0,-0.5"/>
<text text-anchor="start" x="8" y="-18.5" font-family="Helvetica,sans-Serif" font-size="10.00">MonitorDashboard::</text>
<text text-anchor="middle" x="57.5" y="-7.5" font-family="Helvetica,sans-Serif" font-size="10.00">~MonitorDashboard</text>
</a>
</g>
</g>
<!-- Node1&#45;&gt;Node3 -->
<g id="edge2" class="edge">
<title>Node1&#45;&gt;Node3</title>
<path fill="none" stroke="midnightblue" d="M140.75,-26.92C132.24,-25.74 123.69,-24.55 115.48,-23.41"/>
<polygon fill="midnightblue" stroke="midnightblue" points="140.31,-30.39 150.7,-28.3 141.28,-23.46 140.31,-30.39"/>
</g>
</g>
</svg>
