<?xml version="1.0" encoding="UTF-8" standalone="no"?>
<!DOCTYPE svg PUBLIC "-//W3C//DTD SVG 1.1//EN"
 "http://www.w3.org/Graphics/SVG/1.1/DTD/svg11.dtd">
<!-- Generated by graphviz version 2.43.0 (0)
 -->
<!-- Title: MetricsReader::getPidsPercent Pages: 1 -->
<svg width="552pt" height="28pt"
 viewBox="0.00 0.00 552.00 28.00" xmlns="http://www.w3.org/2000/svg" xmlns:xlink="http://www.w3.org/1999/xlink">
<g id="graph0" class="graph" transform="scale(1 1) rotate(0) translate(4 24)">
<title>MetricsReader::getPidsPercent</title>
<polygon fill="white" stroke="transparent" points="-4,4 -4,-24 548,-24 548,4 -4,4"/>
<!-- Node1 -->
<g id="node1" class="node">
<title>Node1</title>
<g id="a_node1"><a xlink:title="Gets the container&#39;s pids usage as a percentage of its limit.">
<polygon fill="#bfbfbf" stroke="black" points="0,-0.5 0,-19.5 166,-19.5 166,-0.5 0,-0.5"/>
<text text-anchor="middle" x="83" y="-7.5" font-family="Helvetica,sans-Serif" font-size="10.00">MetricsReader::getPidsPercent</text>
</a>
</g>
</g>
<!-- Node2 -->
<g id="node2" class="node">
<title>Node2</title>
<g id="a_node2"><a xlink:href="classMetricsReader.html#a89b92f11cac797c023cbaf8d62dc2715" target="_top" xlink:title="Gets the container&#39;s current pids count.">
<polygon fill="white" stroke="black" points="202,-0.5 202,-19.5 331,-19.5 331,-0.5 202,-0.5"/>
<text text-anchor="middle" x="266.5" y="-7.5" font-family="Helvetica,sans-Serif" font-size="10.00">MetricsReader::getPids</text>
</a>
</g>
</g>
<!-- Node1&#45;&gt;Node2 -->
<g id="edge1" class="edge">
<title>Node1&#45;&gt;Node2</title>
<path fill="none" stroke="midnightblue" d="M166.25,-10C174.72,-10 183.29,-10 191.66,-10"/>
<polygon fill="midnightblue" stroke="midnightblue" points="191.75,-13.5 201.75,-10 191.75,-6.5 191.75,-13.5"/>
</g>
<!-- Node3 -->
<g id="node3" class="node">
<title>Node3</title>
<g id="a_node3"><a xlink:href="classMetricsReader.html#af6269f2cc44ba8904b6630d47302aa7b" target="_top" xlink:title="Reads an unsigned integer value from a file.">
<polygon fill="white" stroke="black" points="367,-0.5 367,-19.5 544,-19.5 544,-0.5 367,-0.5"/>
<text text-anchor="middle" x="455.5" y="-7.5" font-family="Helvetica,sans-Serif" font-size="10.00">MetricsReader::readUintFromFile</text>
</a>
</g>
</g>
<!-- Node2&#45;&gt;Node3 -->
<g id="edge2" class="edge">
<title>Node2&#45;&gt;Node3</title>
<path fill="none" stroke="midnightblue" d="M331.07,-10C339.37,-10 348.01,-10 356.71,-10"/>
<polygon fill="midnightblue" stroke="midnightblue" points="356.92,-13.5 366.92,-10 356.92,-6.5 356.92,-13.5"/>
</g>
</g>
</svg>
