<?xml version="1.0" encoding="UTF-8" standalone="no"?>
<!DOCTYPE svg PUBLIC "-//W3C//DTD SVG 1.1//EN"
 "http://www.w3.org/Graphics/SVG/1.1/DTD/svg11.dtd">
<!-- Generated by graphviz version 2.43.0 (0)
 -->
<!-- Title: EventQueue::shutdown Pages: 1 -->
<svg width="509pt" height="28pt"
 viewBox="0.00 0.00 509.00 28.00" xmlns="http://www.w3.org/2000/svg" xmlns:xlink="http://www.w3.org/1999/xlink">
<g id="graph0" class="graph" transform="scale(1 1) rotate(0) translate(4 24)">
<title>EventQueue::shutdown</title>
<polygon fill="white" stroke="transparent" points="-4,4 -4,-24 505,-24 505,4 -4,4"/>
<!-- Node1 -->
<g id="node1" class="node">
<title>Node1</title>
<g id="a_node1"><a xlink:title="Signals shutdown and wakes all waiting threads.">
<polygon fill="#bfbfbf" stroke="black" points="372,-0.5 372,-19.5 501,-19.5 501,-0.5 372,-0.5"/>
<text text-anchor="middle" x="436.5" y="-7.5" font-family="Helvetica,sans-Serif" font-size="10.00">EventQueue::shutdown</text>
</a>
</g>
</g>
<!-- Node2 -->
<g id="node2" class="node">
<title>Node2</title>
<g id="a_node2"><a xlink:href="classEventProcessor.html#a993b6891ef36dfd09ee17acb45d95a02" target="_top" xlink:title="Stops the event processor thread.">
<polygon fill="white" stroke="black" points="217,-0.5 217,-19.5 336,-19.5 336,-0.5 217,-0.5"/>
<text text-anchor="middle" x="276.5" y="-7.5" font-family="Helvetica,sans-Serif" font-size="10.00">EventProcessor::stop</text>
</a>
</g>
</g>
<!-- Node1&#45;&gt;Node2 -->
<g id="edge1" class="edge">
<title>Node1&#45;&gt;Node2</title>
<path fill="none" stroke="midnightblue" d="M361.43,-10C352.96,-10 344.41,-10 336.19,-10"/>
<polygon fill="midnightblue" stroke="midnightblue" points="361.69,-13.5 371.69,-10 361.69,-6.5 361.69,-13.5"/>
</g>
<!-- Node3 -->
<g id="node3" class="node">
<title>Node3</title>
<g id="a_node3"><a xlink:href="classEventProcessor.html#af30a066c911c3841d35854c900743b9e" target="_top" xlink:title="Destructor. Ensures the worker thread is stopped.">
<polygon fill="white" stroke="black" points="0,-0.5 0,-19.5 181,-19.5 181,-0.5 0,-0.5"/>
<text text-anchor="middle" x="90.5" y="-7.5" font-family="Helvetica,sans-Serif" font-size="10.00">EventProcessor::~EventProcessor</text>
</a>
</g>
</g>
<!-- Node2&#45;&gt;Node3 -->
<g id="edge2" class="edge">
<title>Node2&#45;&gt;Node3</title>
<path fill="none" stroke="midnightblue" d="M206.75,-10C198.4,-10 189.78,-10 181.19,-10"/>
<polygon fill="midnightblue" stroke="midnightblue" points="206.78,-13.5 216.78,-10 206.78,-6.5 206.78,-13.5"/>
</g>
</g>
</svg>
