<?xml version="1.0" encoding="UTF-8" standalone="no"?>
<!DOCTYPE svg PUBLIC "-//W3C//DTD SVG 1.1//EN"
 "http://www.w3.org/Graphics/SVG/1.1/DTD/svg11.dtd">
<!-- Generated by graphviz version 2.43.0 (0)
 -->
<!-- Title: ConfigParser::getBool Pages: 1 -->
<svg width="565pt" height="28pt"
 viewBox="0.00 0.00 565.00 28.00" xmlns="http://www.w3.org/2000/svg" xmlns:xlink="http://www.w3.org/1999/xlink">
<g id="graph0" class="graph" transform="scale(1 1) rotate(0) translate(4 24)">
<title>ConfigParser::getBool</title>
<polygon fill="white" stroke="transparent" points="-4,4 -4,-24 561,-24 561,4 -4,4"/>
<!-- Node1 -->
<g id="node1" class="node">
<title>Node1</title>
<g id="a_node1"><a xlink:title="Gets a boolean value for a given key.">
<polygon fill="#bfbfbf" stroke="black" points="436,-0.5 436,-19.5 557,-19.5 557,-0.5 436,-0.5"/>
<text text-anchor="middle" x="496.5" y="-7.5" font-family="Helvetica,sans-Serif" font-size="10.00">ConfigParser::getBool</text>
</a>
</g>
</g>
<!-- Node2 -->
<g id="node2" class="node">
<title>Node2</title>
<g id="a_node2"><a xlink:href="classConfigParser.html#a98620e3bc1a71887f39cdb0a8a8acd26" target="_top" xlink:title="Converts loaded parameters to a MonitorConfig struct.">
<polygon fill="white" stroke="black" points="239,-0.5 239,-19.5 400,-19.5 400,-0.5 239,-0.5"/>
<text text-anchor="middle" x="319.5" y="-7.5" font-family="Helvetica,sans-Serif" font-size="10.00">ConfigParser::toMonitorConfig</text>
</a>
</g>
</g>
<!-- Node1&#45;&gt;Node2 -->
<g id="edge1" class="edge">
<title>Node1&#45;&gt;Node2</title>
<path fill="none" stroke="midnightblue" d="M425.65,-10C417.24,-10 408.61,-10 400.08,-10"/>
<polygon fill="midnightblue" stroke="midnightblue" points="425.76,-13.5 435.76,-10 425.76,-6.5 425.76,-13.5"/>
</g>
<!-- Node3 -->
<g id="node3" class="node">
<title>Node3</title>
<g id="a_node3"><a xlink:href="classInitializer.html#a0816edd9f2d054417497a4d11fdf518b" target="_top" xlink:title="Parses the configuration file and returns a MonitorConfig object.">
<polygon fill="white" stroke="black" points="77,-0.5 77,-19.5 203,-19.5 203,-0.5 77,-0.5"/>
<text text-anchor="middle" x="140" y="-7.5" font-family="Helvetica,sans-Serif" font-size="10.00">Initializer::parseConfig</text>
</a>
</g>
</g>
<!-- Node2&#45;&gt;Node3 -->
<g id="edge2" class="edge">
<title>Node2&#45;&gt;Node3</title>
<path fill="none" stroke="midnightblue" d="M228.69,-10C220.04,-10 211.4,-10 203.11,-10"/>
<polygon fill="midnightblue" stroke="midnightblue" points="228.84,-13.5 238.84,-10 228.84,-6.5 228.84,-13.5"/>
</g>
<!-- Node4 -->
<g id="node4" class="node">
<title>Node4</title>
<g id="a_node4"><a xlink:href="main_8cpp.html#a0ddf1224851353fc92bfbff6f499fa97" target="_top" xlink:title="Main entry point for the Container Monitor application.">
<polygon fill="white" stroke="black" points="0,-0.5 0,-19.5 41,-19.5 41,-0.5 0,-0.5"/>
<text text-anchor="middle" x="20.5" y="-7.5" font-family="Helvetica,sans-Serif" font-size="10.00">main</text>
</a>
</g>
</g>
<!-- Node3&#45;&gt;Node4 -->
<g id="edge3" class="edge">
<title>Node3&#45;&gt;Node4</title>
<path fill="none" stroke="midnightblue" d="M66.55,-10C57.23,-10 48.4,-10 41.06,-10"/>
<polygon fill="midnightblue" stroke="midnightblue" points="66.81,-13.5 76.81,-10 66.81,-6.5 66.81,-13.5"/>
</g>
</g>
</svg>
