<?xml version="1.0" encoding="UTF-8" standalone="no"?>
<!DOCTYPE svg PUBLIC "-//W3C//DTD SVG 1.1//EN"
 "http://www.w3.org/Graphics/SVG/1.1/DTD/svg11.dtd">
<!-- Generated by graphviz version 2.43.0 (0)
 -->
<!-- Title: ConfigParser::get Pages: 1 -->
<svg width="713pt" height="142pt"
 viewBox="0.00 0.00 713.00 142.00" xmlns="http://www.w3.org/2000/svg" xmlns:xlink="http://www.w3.org/1999/xlink">
<g id="graph0" class="graph" transform="scale(1 1) rotate(0) translate(4 138)">
<title>ConfigParser::get</title>
<polygon fill="white" stroke="transparent" points="-4,4 -4,-138 709,-138 709,4 -4,4"/>
<!-- Node1 -->
<g id="node1" class="node">
<title>Node1</title>
<g id="a_node1"><a xlink:title="Gets a string value for a given key.">
<polygon fill="#bfbfbf" stroke="black" points="606,-57.5 606,-76.5 705,-76.5 705,-57.5 606,-57.5"/>
<text text-anchor="middle" x="655.5" y="-64.5" font-family="Helvetica,sans-Serif" font-size="10.00">ConfigParser::get</text>
</a>
</g>
</g>
<!-- Node2 -->
<g id="node2" class="node">
<title>Node2</title>
<g id="a_node2"><a xlink:href="classConfigParser.html#aaee708b5d56ede07e9109986ef096125" target="_top" xlink:title="Gets a boolean value for a given key.">
<polygon fill="white" stroke="black" points="442.5,-114.5 442.5,-133.5 563.5,-133.5 563.5,-114.5 442.5,-114.5"/>
<text text-anchor="middle" x="503" y="-121.5" font-family="Helvetica,sans-Serif" font-size="10.00">ConfigParser::getBool</text>
</a>
</g>
</g>
<!-- Node1&#45;&gt;Node2 -->
<g id="edge1" class="edge">
<title>Node1&#45;&gt;Node2</title>
<path fill="none" stroke="midnightblue" d="M620.86,-80.35C605.4,-86.43 586.8,-93.66 570,-100 557.11,-104.86 542.74,-110.11 530.71,-114.45"/>
<polygon fill="midnightblue" stroke="midnightblue" points="622.5,-83.46 630.52,-76.54 619.93,-76.95 622.5,-83.46"/>
</g>
<!-- Node3 -->
<g id="node3" class="node">
<title>Node3</title>
<g id="a_node3"><a xlink:href="classConfigParser.html#a98620e3bc1a71887f39cdb0a8a8acd26" target="_top" xlink:title="Converts loaded parameters to a MonitorConfig struct.">
<polygon fill="white" stroke="black" points="239,-57.5 239,-76.5 400,-76.5 400,-57.5 239,-57.5"/>
<text text-anchor="middle" x="319.5" y="-64.5" font-family="Helvetica,sans-Serif" font-size="10.00">ConfigParser::toMonitorConfig</text>
</a>
</g>
</g>
<!-- Node1&#45;&gt;Node3 -->
<g id="edge9" class="edge">
<title>Node1&#45;&gt;Node3</title>
<path fill="none" stroke="midnightblue" d="M595.78,-67C541.47,-67 460.29,-67 400.15,-67"/>
<polygon fill="midnightblue" stroke="midnightblue" points="595.93,-70.5 605.93,-67 595.93,-63.5 595.93,-70.5"/>
</g>
<!-- Node6 -->
<g id="node6" class="node">
<title>Node6</title>
<g id="a_node6"><a xlink:href="classConfigParser.html#a7ecd8fa23a2651c59bae6b865725b59b" target="_top" xlink:title="Gets a double value for a given key.">
<polygon fill="white" stroke="black" points="436,-38.5 436,-57.5 570,-57.5 570,-38.5 436,-38.5"/>
<text text-anchor="middle" x="503" y="-45.5" font-family="Helvetica,sans-Serif" font-size="10.00">ConfigParser::getDouble</text>
</a>
</g>
</g>
<!-- Node1&#45;&gt;Node6 -->
<g id="edge5" class="edge">
<title>Node1&#45;&gt;Node6</title>
<path fill="none" stroke="midnightblue" d="M595.61,-59.57C587.26,-58.51 578.61,-57.42 570.13,-56.35"/>
<polygon fill="midnightblue" stroke="midnightblue" points="595.28,-63.05 605.64,-60.83 596.15,-56.11 595.28,-63.05"/>
</g>
<!-- Node7 -->
<g id="node7" class="node">
<title>Node7</title>
<g id="a_node7"><a xlink:href="classConfigParser.html#ae5d32c782f74de2f881c0ebc5aeaf3a5" target="_top" xlink:title="Gets an integer value for a given key.">
<polygon fill="white" stroke="black" points="447,-0.5 447,-19.5 559,-19.5 559,-0.5 447,-0.5"/>
<text text-anchor="middle" x="503" y="-7.5" font-family="Helvetica,sans-Serif" font-size="10.00">ConfigParser::getInt</text>
</a>
</g>
</g>
<!-- Node1&#45;&gt;Node7 -->
<g id="edge7" class="edge">
<title>Node1&#45;&gt;Node7</title>
<path fill="none" stroke="midnightblue" d="M625.93,-52.93C609.75,-45.27 589.01,-35.97 570,-29 560.6,-25.55 550.26,-22.32 540.61,-19.54"/>
<polygon fill="midnightblue" stroke="midnightblue" points="624.83,-56.28 635.36,-57.45 627.85,-49.97 624.83,-56.28"/>
</g>
<!-- Node2&#45;&gt;Node3 -->
<g id="edge2" class="edge">
<title>Node2&#45;&gt;Node3</title>
<path fill="none" stroke="midnightblue" d="M461.7,-111.34C428.24,-100.84 381.38,-86.12 350.98,-76.57"/>
<polygon fill="midnightblue" stroke="midnightblue" points="461.03,-114.8 471.62,-114.46 463.13,-108.12 461.03,-114.8"/>
</g>
<!-- Node4 -->
<g id="node4" class="node">
<title>Node4</title>
<g id="a_node4"><a xlink:href="classInitializer.html#a0816edd9f2d054417497a4d11fdf518b" target="_top" xlink:title="Parses the configuration file and returns a MonitorConfig object.">
<polygon fill="white" stroke="black" points="77,-57.5 77,-76.5 203,-76.5 203,-57.5 77,-57.5"/>
<text text-anchor="middle" x="140" y="-64.5" font-family="Helvetica,sans-Serif" font-size="10.00">Initializer::parseConfig</text>
</a>
</g>
</g>
<!-- Node3&#45;&gt;Node4 -->
<g id="edge3" class="edge">
<title>Node3&#45;&gt;Node4</title>
<path fill="none" stroke="midnightblue" d="M228.69,-67C220.04,-67 211.4,-67 203.11,-67"/>
<polygon fill="midnightblue" stroke="midnightblue" points="228.84,-70.5 238.84,-67 228.84,-63.5 228.84,-70.5"/>
</g>
<!-- Node5 -->
<g id="node5" class="node">
<title>Node5</title>
<g id="a_node5"><a xlink:href="main_8cpp.html#a0ddf1224851353fc92bfbff6f499fa97" target="_top" xlink:title="Main entry point for the Container Monitor application.">
<polygon fill="white" stroke="black" points="0,-57.5 0,-76.5 41,-76.5 41,-57.5 0,-57.5"/>
<text text-anchor="middle" x="20.5" y="-64.5" font-family="Helvetica,sans-Serif" font-size="10.00">main</text>
</a>
</g>
</g>
<!-- Node4&#45;&gt;Node5 -->
<g id="edge4" class="edge">
<title>Node4&#45;&gt;Node5</title>
<path fill="none" stroke="midnightblue" d="M66.55,-67C57.23,-67 48.4,-67 41.06,-67"/>
<polygon fill="midnightblue" stroke="midnightblue" points="66.81,-70.5 76.81,-67 66.81,-63.5 66.81,-70.5"/>
</g>
<!-- Node6&#45;&gt;Node3 -->
<g id="edge6" class="edge">
<title>Node6&#45;&gt;Node3</title>
<path fill="none" stroke="midnightblue" d="M426.01,-55.96C417.44,-56.85 408.69,-57.77 400.08,-58.67"/>
<polygon fill="midnightblue" stroke="midnightblue" points="426.38,-59.44 435.96,-54.91 425.65,-52.47 426.38,-59.44"/>
</g>
<!-- Node7&#45;&gt;Node3 -->
<g id="edge8" class="edge">
<title>Node7&#45;&gt;Node3</title>
<path fill="none" stroke="midnightblue" d="M458.36,-22.31C450.89,-24.49 443.21,-26.78 436,-29 405.94,-38.27 371.75,-49.62 348.41,-57.49"/>
<polygon fill="midnightblue" stroke="midnightblue" points="459.38,-25.66 468.01,-19.52 457.43,-18.94 459.38,-25.66"/>
</g>
</g>
</svg>
