<?xml version="1.0" encoding="UTF-8" standalone="no"?>
<!DOCTYPE svg PUBLIC "-//W3C//DTD SVG 1.1//EN"
 "http://www.w3.org/Graphics/SVG/1.1/DTD/svg11.dtd">
<!-- Generated by graphviz version 2.43.0 (0)
 -->
<!-- Title: ResourceThreadPool::stop Pages: 1 -->
<svg width="291pt" height="78pt"
 viewBox="0.00 0.00 291.00 77.50" xmlns="http://www.w3.org/2000/svg" xmlns:xlink="http://www.w3.org/1999/xlink">
<g id="graph0" class="graph" transform="scale(1 1) rotate(0) translate(4 73.5)">
<title>ResourceThreadPool::stop</title>
<polygon fill="white" stroke="transparent" points="-4,4 -4,-73.5 287,-73.5 287,4 -4,4"/>
<!-- Node1 -->
<g id="node1" class="node">
<title>Node1</title>
<g id="a_node1"><a xlink:title="Stops all worker threads and flushes buffers.">
<polygon fill="#bfbfbf" stroke="black" points="167,-22.5 167,-52.5 283,-52.5 283,-22.5 167,-22.5"/>
<text text-anchor="start" x="175" y="-40.5" font-family="Helvetica,sans-Serif" font-size="10.00">ResourceThreadPool</text>
<text text-anchor="middle" x="225" y="-29.5" font-family="Helvetica,sans-Serif" font-size="10.00">::stop</text>
</a>
</g>
</g>
<!-- Node2 -->
<g id="node2" class="node">
<title>Node2</title>
<g id="a_node2"><a xlink:href="main_8cpp.html#a0ddf1224851353fc92bfbff6f499fa97" target="_top" xlink:title="Main entry point for the Container Monitor application.">
<polygon fill="white" stroke="black" points="45,-50 45,-69 86,-69 86,-50 45,-50"/>
<text text-anchor="middle" x="65.5" y="-57" font-family="Helvetica,sans-Serif" font-size="10.00">main</text>
</a>
</g>
</g>
<!-- Node1&#45;&gt;Node2 -->
<g id="edge1" class="edge">
<title>Node1&#45;&gt;Node2</title>
<path fill="none" stroke="midnightblue" d="M156.66,-46.91C131.19,-50.46 104.09,-54.25 86.33,-56.73"/>
<polygon fill="midnightblue" stroke="midnightblue" points="157.27,-50.35 166.69,-45.5 156.31,-43.42 157.27,-50.35"/>
</g>
<!-- Node3 -->
<g id="node3" class="node">
<title>Node3</title>
<g id="a_node3"><a xlink:href="classResourceThreadPool.html#acd8ec1d827c84498c6adcb937773f4a9" target="_top" xlink:title="Destructor. Ensures all threads are stopped and buffers flushed.">
<polygon fill="white" stroke="black" points="0,-0.5 0,-30.5 131,-30.5 131,-0.5 0,-0.5"/>
<text text-anchor="start" x="8" y="-18.5" font-family="Helvetica,sans-Serif" font-size="10.00">ResourceThreadPool</text>
<text text-anchor="middle" x="65.5" y="-7.5" font-family="Helvetica,sans-Serif" font-size="10.00">::~ResourceThreadPool</text>
</a>
</g>
</g>
<!-- Node1&#45;&gt;Node3 -->
<g id="edge2" class="edge">
<title>Node1&#45;&gt;Node3</title>
<path fill="none" stroke="midnightblue" d="M156.56,-28.08C148.16,-26.91 139.59,-25.71 131.23,-24.54"/>
<polygon fill="midnightblue" stroke="midnightblue" points="156.31,-31.58 166.69,-29.5 157.27,-24.65 156.31,-31.58"/>
</g>
</g>
</svg>
