<?xml version="1.0" encoding="UTF-8" standalone="no"?>
<!DOCTYPE svg PUBLIC "-//W3C//DTD SVG 1.1//EN"
 "http://www.w3.org/Graphics/SVG/1.1/DTD/svg11.dtd">
<!-- Generated by graphviz version 2.43.0 (0)
 -->
<!-- Title: ResourceThreadPool::~ResourceThreadPool Pages: 1 -->
<svg width="589pt" height="39pt"
 viewBox="0.00 0.00 589.00 39.00" xmlns="http://www.w3.org/2000/svg" xmlns:xlink="http://www.w3.org/1999/xlink">
<g id="graph0" class="graph" transform="scale(1 1) rotate(0) translate(4 35)">
<title>ResourceThreadPool::~ResourceThreadPool</title>
<polygon fill="white" stroke="transparent" points="-4,4 -4,-35 585,-35 585,4 -4,4"/>
<!-- Node1 -->
<g id="node1" class="node">
<title>Node1</title>
<g id="a_node1"><a xlink:title="Destructor. Ensures all threads are stopped and buffers flushed.">
<polygon fill="#bfbfbf" stroke="black" points="0,-0.5 0,-30.5 131,-30.5 131,-0.5 0,-0.5"/>
<text text-anchor="start" x="8" y="-18.5" font-family="Helvetica,sans-Serif" font-size="10.00">ResourceThreadPool</text>
<text text-anchor="middle" x="65.5" y="-7.5" font-family="Helvetica,sans-Serif" font-size="10.00">::~ResourceThreadPool</text>
</a>
</g>
</g>
<!-- Node2 -->
<g id="node2" class="node">
<title>Node2</title>
<g id="a_node2"><a xlink:href="classResourceThreadPool.html#a3e77793eacec2e53588c114068c494f6" target="_top" xlink:title="Stops all worker threads and flushes buffers.">
<polygon fill="white" stroke="black" points="167,-0.5 167,-30.5 283,-30.5 283,-0.5 167,-0.5"/>
<text text-anchor="start" x="175" y="-18.5" font-family="Helvetica,sans-Serif" font-size="10.00">ResourceThreadPool</text>
<text text-anchor="middle" x="225" y="-7.5" font-family="Helvetica,sans-Serif" font-size="10.00">::stop</text>
</a>
</g>
</g>
<!-- Node1&#45;&gt;Node2 -->
<g id="edge1" class="edge">
<title>Node1&#45;&gt;Node2</title>
<path fill="none" stroke="midnightblue" d="M131.02,-15.5C139.47,-15.5 148.15,-15.5 156.65,-15.5"/>
<polygon fill="midnightblue" stroke="midnightblue" points="156.91,-19 166.91,-15.5 156.91,-12 156.91,-19"/>
</g>
<!-- Node3 -->
<g id="node3" class="node">
<title>Node3</title>
<g id="a_node3"><a xlink:href="classResourceThreadPool.html#abc537653319086744ca546aecdbabf46" target="_top" xlink:title="Flushes all metric buffers to the database.">
<polygon fill="white" stroke="black" points="319,-0.5 319,-30.5 435,-30.5 435,-0.5 319,-0.5"/>
<text text-anchor="start" x="327" y="-18.5" font-family="Helvetica,sans-Serif" font-size="10.00">ResourceThreadPool</text>
<text text-anchor="middle" x="377" y="-7.5" font-family="Helvetica,sans-Serif" font-size="10.00">::flushAllBuffers</text>
</a>
</g>
</g>
<!-- Node2&#45;&gt;Node3 -->
<g id="edge2" class="edge">
<title>Node2&#45;&gt;Node3</title>
<path fill="none" stroke="midnightblue" d="M283.14,-15.5C291.38,-15.5 299.92,-15.5 308.34,-15.5"/>
<polygon fill="midnightblue" stroke="midnightblue" points="308.53,-19 318.53,-15.5 308.53,-12 308.53,-19"/>
</g>
<!-- Node4 -->
<g id="node4" class="node">
<title>Node4</title>
<g id="a_node4"><a xlink:href="classIDatabaseInterface.html#a199124b634381e618bf28ae09152b41f" target="_top" xlink:title="Insert a batch of metrics for a container.">
<polygon fill="white" stroke="black" points="471,-0.5 471,-30.5 581,-30.5 581,-0.5 471,-0.5"/>
<text text-anchor="start" x="479" y="-18.5" font-family="Helvetica,sans-Serif" font-size="10.00">IDatabaseInterface</text>
<text text-anchor="middle" x="526" y="-7.5" font-family="Helvetica,sans-Serif" font-size="10.00">::insertBatch</text>
</a>
</g>
</g>
<!-- Node3&#45;&gt;Node4 -->
<g id="edge3" class="edge">
<title>Node3&#45;&gt;Node4</title>
<path fill="none" stroke="midnightblue" d="M435.25,-15.5C443.51,-15.5 452.05,-15.5 460.43,-15.5"/>
<polygon fill="midnightblue" stroke="midnightblue" points="460.55,-19 470.55,-15.5 460.55,-12 460.55,-19"/>
</g>
</g>
</svg>
