<?xml version="1.0" encoding="UTF-8" standalone="no"?>
<!DOCTYPE svg PUBLIC "-//W3C//DTD SVG 1.1//EN"
 "http://www.w3.org/Graphics/SVG/1.1/DTD/svg11.dtd">
<!-- Generated by graphviz version 2.43.0 (0)
 -->
<!-- Title: ResourceThreadPool::addContainer Pages: 1 -->
<svg width="422pt" height="88pt"
 viewBox="0.00 0.00 422.00 88.00" xmlns="http://www.w3.org/2000/svg" xmlns:xlink="http://www.w3.org/1999/xlink">
<g id="graph0" class="graph" transform="scale(1 1) rotate(0) translate(4 84)">
<title>ResourceThreadPool::addContainer</title>
<polygon fill="white" stroke="transparent" points="-4,4 -4,-84 418,-84 418,4 -4,4"/>
<!-- Node1 -->
<g id="node1" class="node">
<title>Node1</title>
<g id="a_node1"><a xlink:title="Adds a container to the thread pool for monitoring.">
<polygon fill="#bfbfbf" stroke="black" points="0,-24.5 0,-54.5 116,-54.5 116,-24.5 0,-24.5"/>
<text text-anchor="start" x="8" y="-42.5" font-family="Helvetica,sans-Serif" font-size="10.00">ResourceThreadPool</text>
<text text-anchor="middle" x="58" y="-31.5" font-family="Helvetica,sans-Serif" font-size="10.00">::addContainer</text>
</a>
</g>
</g>
<!-- Node2 -->
<g id="node2" class="node">
<title>Node2</title>
<g id="a_node2"><a xlink:href="classResourceThreadPool.html#abc537653319086744ca546aecdbabf46" target="_top" xlink:title="Flushes all metric buffers to the database.">
<polygon fill="white" stroke="black" points="152,-49.5 152,-79.5 268,-79.5 268,-49.5 152,-49.5"/>
<text text-anchor="start" x="160" y="-67.5" font-family="Helvetica,sans-Serif" font-size="10.00">ResourceThreadPool</text>
<text text-anchor="middle" x="210" y="-56.5" font-family="Helvetica,sans-Serif" font-size="10.00">::flushAllBuffers</text>
</a>
</g>
</g>
<!-- Node1&#45;&gt;Node2 -->
<g id="edge1" class="edge">
<title>Node1&#45;&gt;Node2</title>
<path fill="none" stroke="midnightblue" d="M116.14,-49.02C124.47,-50.41 133.11,-51.85 141.62,-53.27"/>
<polygon fill="midnightblue" stroke="midnightblue" points="141.09,-56.73 151.53,-54.92 142.24,-49.82 141.09,-56.73"/>
</g>
<!-- Node4 -->
<g id="node4" class="node">
<title>Node4</title>
<g id="a_node4"><a xlink:href="classIDatabaseInterface.html#aa4b43c762af709d3374326f73f24bd3e" target="_top" xlink:title="Retrieve container information by name.">
<polygon fill="white" stroke="black" points="155,-0.5 155,-30.5 265,-30.5 265,-0.5 155,-0.5"/>
<text text-anchor="start" x="163" y="-18.5" font-family="Helvetica,sans-Serif" font-size="10.00">IDatabaseInterface</text>
<text text-anchor="middle" x="210" y="-7.5" font-family="Helvetica,sans-Serif" font-size="10.00">::getContainer</text>
</a>
</g>
</g>
<!-- Node1&#45;&gt;Node4 -->
<g id="edge3" class="edge">
<title>Node1&#45;&gt;Node4</title>
<path fill="none" stroke="midnightblue" d="M116.14,-30.36C125.6,-28.84 135.47,-27.27 145.08,-25.73"/>
<polygon fill="midnightblue" stroke="midnightblue" points="145.67,-29.18 154.99,-24.14 144.56,-22.27 145.67,-29.18"/>
</g>
<!-- Node3 -->
<g id="node3" class="node">
<title>Node3</title>
<g id="a_node3"><a xlink:href="classIDatabaseInterface.html#a199124b634381e618bf28ae09152b41f" target="_top" xlink:title="Insert a batch of metrics for a container.">
<polygon fill="white" stroke="black" points="304,-49.5 304,-79.5 414,-79.5 414,-49.5 304,-49.5"/>
<text text-anchor="start" x="312" y="-67.5" font-family="Helvetica,sans-Serif" font-size="10.00">IDatabaseInterface</text>
<text text-anchor="middle" x="359" y="-56.5" font-family="Helvetica,sans-Serif" font-size="10.00">::insertBatch</text>
</a>
</g>
</g>
<!-- Node2&#45;&gt;Node3 -->
<g id="edge2" class="edge">
<title>Node2&#45;&gt;Node3</title>
<path fill="none" stroke="midnightblue" d="M268.25,-64.5C276.51,-64.5 285.05,-64.5 293.43,-64.5"/>
<polygon fill="midnightblue" stroke="midnightblue" points="293.55,-68 303.55,-64.5 293.55,-61 293.55,-68"/>
</g>
</g>
</svg>
