<?xml version="1.0" encoding="UTF-8" standalone="no"?>
<!DOCTYPE svg PUBLIC "-//W3C//DTD SVG 1.1//EN"
 "http://www.w3.org/Graphics/SVG/1.1/DTD/svg11.dtd">
<!-- Generated by graphviz version 2.43.0 (0)
 -->
<!-- Title: utils/inc/common.hpp Pages: 1 -->
<svg width="2125pt" height="329pt"
 viewBox="0.00 0.00 2124.50 329.00" xmlns="http://www.w3.org/2000/svg" xmlns:xlink="http://www.w3.org/1999/xlink">
<g id="graph0" class="graph" transform="scale(1 1) rotate(0) translate(4 325)">
<title>utils/inc/common.hpp</title>
<polygon fill="white" stroke="transparent" points="-4,4 -4,-325 2120.5,-325 2120.5,4 -4,4"/>
<!-- Node1 -->
<g id="node1" class="node">
<title>Node1</title>
<g id="a_node1"><a xlink:title="Common data structures, constants, and configuration for container monitoring.">
<polygon fill="#bfbfbf" stroke="black" points="1051.5,-301.5 1051.5,-320.5 1173.5,-320.5 1173.5,-301.5 1051.5,-301.5"/>
<text text-anchor="middle" x="1112.5" y="-308.5" font-family="Helvetica,sans-Serif" font-size="10.00">utils/inc/common.hpp</text>
</a>
</g>
</g>
<!-- Node2 -->
<g id="node2" class="node">
<title>Node2</title>
<g id="a_node2"><a xlink:href="live__metric__aggregator_8cpp.html" target="_top" xlink:title="Implements the LiveMetricAggregator class for real&#45;time container metrics aggregation.">
<polygon fill="white" stroke="black" points="1315.5,-151 1315.5,-181 1447.5,-181 1447.5,-151 1315.5,-151"/>
<text text-anchor="start" x="1323.5" y="-169" font-family="Helvetica,sans-Serif" font-size="10.00">analysis/src/live_metric</text>
<text text-anchor="middle" x="1381.5" y="-158" font-family="Helvetica,sans-Serif" font-size="10.00">_aggregator.cpp</text>
</a>
</g>
</g>
<!-- Node1&#45;&gt;Node2 -->
<g id="edge1" class="edge">
<title>Node1&#45;&gt;Node2</title>
<path fill="none" stroke="midnightblue" d="M1184.12,-304.02C1221.39,-298.27 1266.37,-287.03 1301.5,-265 1335.55,-243.65 1361.8,-202.75 1374,-181.15"/>
<polygon fill="midnightblue" stroke="midnightblue" points="1183.23,-300.61 1173.83,-305.5 1184.23,-307.54 1183.23,-300.61"/>
</g>
<!-- Node3 -->
<g id="node3" class="node">
<title>Node3</title>
<g id="a_node3"><a xlink:href="container__runtime__factory__interface_8hpp.html" target="_top" xlink:title="Declares the interface for container runtime path factories.">
<polygon fill="white" stroke="black" points="186,-223.5 186,-264.5 335,-264.5 335,-223.5 186,-223.5"/>
<text text-anchor="start" x="194" y="-252.5" font-family="Helvetica,sans-Serif" font-size="10.00">container_runtime/inc</text>
<text text-anchor="start" x="194" y="-241.5" font-family="Helvetica,sans-Serif" font-size="10.00">/container_runtime_factory</text>
<text text-anchor="middle" x="260.5" y="-230.5" font-family="Helvetica,sans-Serif" font-size="10.00">_interface.hpp</text>
</a>
</g>
</g>
<!-- Node1&#45;&gt;Node3 -->
<g id="edge2" class="edge">
<title>Node1&#45;&gt;Node3</title>
<path fill="none" stroke="midnightblue" d="M1040.99,-309.7C905.3,-308.28 601.39,-300.94 348.5,-265 344.16,-264.38 339.71,-263.66 335.24,-262.87"/>
<polygon fill="midnightblue" stroke="midnightblue" points="1041.22,-313.21 1051.25,-309.8 1041.29,-306.21 1041.22,-313.21"/>
</g>
<!-- Node6 -->
<g id="node6" class="node">
<title>Node6</title>
<g id="a_node6"><a xlink:href="docker__cgroup__v1__path_8hpp.html" target="_top" xlink:title="Declares the DockerCgroupV1PathFactory for Docker cgroup v1 resource paths.">
<polygon fill="white" stroke="black" points="217,-151 217,-181 372,-181 372,-151 217,-151"/>
<text text-anchor="start" x="225" y="-169" font-family="Helvetica,sans-Serif" font-size="10.00">container_runtime/inc</text>
<text text-anchor="middle" x="294.5" y="-158" font-family="Helvetica,sans-Serif" font-size="10.00">/docker_cgroup_v1_path.hpp</text>
</a>
</g>
</g>
<!-- Node1&#45;&gt;Node6 -->
<g id="edge15" class="edge">
<title>Node1&#45;&gt;Node6</title>
<path fill="none" stroke="midnightblue" d="M1041.3,-308.56C870,-304.67 444.7,-292.36 386.5,-265 376.31,-260.21 329.19,-206.94 306.62,-181.01"/>
<polygon fill="midnightblue" stroke="midnightblue" points="1041.4,-312.06 1051.47,-308.79 1041.55,-305.06 1041.4,-312.06"/>
</g>
<!-- Node7 -->
<g id="node7" class="node">
<title>Node7</title>
<g id="a_node7"><a xlink:href="resource__thread__pool_8cpp.html" target="_top" xlink:title="Implements the ResourceThreadPool class for parallel container resource monitoring.">
<polygon fill="white" stroke="black" points="304.5,-67.5 304.5,-108.5 420.5,-108.5 420.5,-67.5 304.5,-67.5"/>
<text text-anchor="start" x="312.5" y="-96.5" font-family="Helvetica,sans-Serif" font-size="10.00">monitoring_service</text>
<text text-anchor="start" x="312.5" y="-85.5" font-family="Helvetica,sans-Serif" font-size="10.00">/src/resource_thread</text>
<text text-anchor="middle" x="362.5" y="-74.5" font-family="Helvetica,sans-Serif" font-size="10.00">_pool.cpp</text>
</a>
</g>
</g>
<!-- Node1&#45;&gt;Node7 -->
<g id="edge37" class="edge">
<title>Node1&#45;&gt;Node7</title>
<path fill="none" stroke="midnightblue" d="M1041.25,-309.37C906.4,-307.38 619.1,-299.15 526.5,-265 471.28,-244.64 458.91,-230.7 419.5,-187 397.88,-163.03 380.57,-129.55 370.92,-108.59"/>
<polygon fill="midnightblue" stroke="midnightblue" points="1041.42,-312.87 1051.47,-309.51 1041.52,-305.87 1041.42,-312.87"/>
</g>
<!-- Node8 -->
<g id="node8" class="node">
<title>Node8</title>
<g id="a_node8"><a xlink:href="resource__thread__pool_8hpp.html" target="_top" xlink:title="Declares the ResourceThreadPool class for parallel container resource monitoring.">
<polygon fill="white" stroke="black" points="428.5,-145.5 428.5,-186.5 544.5,-186.5 544.5,-145.5 428.5,-145.5"/>
<text text-anchor="start" x="436.5" y="-174.5" font-family="Helvetica,sans-Serif" font-size="10.00">monitoring_service</text>
<text text-anchor="start" x="436.5" y="-163.5" font-family="Helvetica,sans-Serif" font-size="10.00">/inc/resource_thread</text>
<text text-anchor="middle" x="486.5" y="-152.5" font-family="Helvetica,sans-Serif" font-size="10.00">_pool.hpp</text>
</a>
</g>
</g>
<!-- Node1&#45;&gt;Node8 -->
<g id="edge36" class="edge">
<title>Node1&#45;&gt;Node8</title>
<path fill="none" stroke="midnightblue" d="M1041.11,-310.03C915.78,-309.07 661.93,-302.41 582.5,-265 545.87,-247.75 515.56,-210.19 499.32,-186.91"/>
<polygon fill="midnightblue" stroke="midnightblue" points="1041.35,-313.53 1051.37,-310.09 1041.39,-306.53 1041.35,-313.53"/>
</g>
<!-- Node9 -->
<g id="node9" class="node">
<title>Node9</title>
<g id="a_node9"><a xlink:href="main_8cpp.html" target="_top" xlink:title="Entry point for the Container Monitor application.">
<polygon fill="white" stroke="black" points="1218.5,-6 1218.5,-25 1280.5,-25 1280.5,-6 1218.5,-6"/>
<text text-anchor="middle" x="1249.5" y="-13" font-family="Helvetica,sans-Serif" font-size="10.00">main.cpp</text>
</a>
</g>
</g>
<!-- Node1&#45;&gt;Node9 -->
<g id="edge26" class="edge">
<title>Node1&#45;&gt;Node9</title>
<path fill="none" stroke="midnightblue" d="M1174.71,-298.6C1195.33,-291.95 1216.75,-281.48 1231.5,-265 1291.1,-198.42 1280.95,-155.19 1266.5,-67 1264.02,-51.85 1257.61,-35.11 1253.41,-25.22"/>
<polygon fill="midnightblue" stroke="midnightblue" points="1173.6,-295.28 1165.01,-301.47 1175.59,-301.99 1173.6,-295.28"/>
</g>
<!-- Node12 -->
<g id="node12" class="node">
<title>Node12</title>
<g id="a_node12"><a xlink:href="database__interface_8hpp.html" target="_top" xlink:title="Declares the abstract interface for database operations in container monitoring.">
<polygon fill="white" stroke="black" points="592,-229 592,-259 719,-259 719,-229 592,-229"/>
<text text-anchor="start" x="600" y="-247" font-family="Helvetica,sans-Serif" font-size="10.00">database/inc/database</text>
<text text-anchor="middle" x="655.5" y="-236" font-family="Helvetica,sans-Serif" font-size="10.00">_interface.hpp</text>
</a>
</g>
</g>
<!-- Node1&#45;&gt;Node12 -->
<g id="edge16" class="edge">
<title>Node1&#45;&gt;Node12</title>
<path fill="none" stroke="midnightblue" d="M1040.99,-301.33C972.11,-292.79 865.03,-279.03 772.5,-265 755.18,-262.37 736.47,-259.29 719.19,-256.34"/>
<polygon fill="midnightblue" stroke="midnightblue" points="1040.94,-304.85 1051.29,-302.6 1041.79,-297.9 1040.94,-304.85"/>
</g>
<!-- Node13 -->
<g id="node13" class="node">
<title>Node13</title>
<g id="a_node13"><a xlink:href="sqlite__database_8hpp.html" target="_top" xlink:title="Declares the SQLiteDatabase class for SQLite&#45;based database operations.">
<polygon fill="white" stroke="black" points="601,-151 601,-181 710,-181 710,-151 601,-151"/>
<text text-anchor="start" x="609" y="-169" font-family="Helvetica,sans-Serif" font-size="10.00">database/inc/sqlite</text>
<text text-anchor="middle" x="655.5" y="-158" font-family="Helvetica,sans-Serif" font-size="10.00">_database.hpp</text>
</a>
</g>
</g>
<!-- Node1&#45;&gt;Node13 -->
<g id="edge25" class="edge">
<title>Node1&#45;&gt;Node13</title>
<path fill="none" stroke="midnightblue" d="M1041.38,-305.18C984.23,-299.74 902.55,-288.36 834.5,-265 773.01,-243.89 707.7,-202.69 675.64,-181.05"/>
<polygon fill="midnightblue" stroke="midnightblue" points="1041.13,-308.67 1051.4,-306.1 1041.77,-301.7 1041.13,-308.67"/>
</g>
<!-- Node15 -->
<g id="node15" class="node">
<title>Node15</title>
<g id="a_node15"><a xlink:href="event__processor_8hpp.html" target="_top" xlink:title="Declares the EventProcessor class for processing container events and host metrics.">
<polygon fill="white" stroke="black" points="728,-151 728,-181 865,-181 865,-151 728,-151"/>
<text text-anchor="start" x="736" y="-169" font-family="Helvetica,sans-Serif" font-size="10.00">monitoring_service</text>
<text text-anchor="middle" x="796.5" y="-158" font-family="Helvetica,sans-Serif" font-size="10.00">/inc/event_processor.hpp</text>
</a>
</g>
</g>
<!-- Node1&#45;&gt;Node15 -->
<g id="edge35" class="edge">
<title>Node1&#45;&gt;Node15</title>
<path fill="none" stroke="midnightblue" d="M1040.95,-306.96C994.68,-302.37 934.53,-291.3 887.5,-265 850.42,-244.26 819.85,-203.09 805.43,-181.3"/>
<polygon fill="midnightblue" stroke="midnightblue" points="1040.93,-310.48 1051.2,-307.9 1041.56,-303.5 1040.93,-310.48"/>
</g>
<!-- Node17 -->
<g id="node17" class="node">
<title>Node17</title>
<g id="a_node17"><a xlink:href="metrics__reader_8hpp.html" target="_top" xlink:title="Declares the MetricsReader class for reading container and host metrics.">
<polygon fill="white" stroke="black" points="896.5,-229 896.5,-259 1014.5,-259 1014.5,-229 896.5,-229"/>
<text text-anchor="start" x="904.5" y="-247" font-family="Helvetica,sans-Serif" font-size="10.00">metrics_analyzer/inc</text>
<text text-anchor="middle" x="955.5" y="-236" font-family="Helvetica,sans-Serif" font-size="10.00">/metrics_reader.hpp</text>
</a>
</g>
</g>
<!-- Node1&#45;&gt;Node17 -->
<g id="edge27" class="edge">
<title>Node1&#45;&gt;Node17</title>
<path fill="none" stroke="midnightblue" d="M1082.1,-297.41C1055.51,-286.41 1016.95,-270.44 989.38,-259.03"/>
<polygon fill="midnightblue" stroke="midnightblue" points="1081.07,-300.78 1091.65,-301.37 1083.75,-294.31 1081.07,-300.78"/>
</g>
<!-- Node18 -->
<g id="node18" class="node">
<title>Node18</title>
<g id="a_node18"><a xlink:href="metrics__reader_8cpp.html" target="_top" xlink:title="Implements the MetricsReader class for reading container and host metrics.">
<polygon fill="white" stroke="black" points="959.5,-151 959.5,-181 1077.5,-181 1077.5,-151 959.5,-151"/>
<text text-anchor="start" x="967.5" y="-169" font-family="Helvetica,sans-Serif" font-size="10.00">metrics_analyzer/src</text>
<text text-anchor="middle" x="1018.5" y="-158" font-family="Helvetica,sans-Serif" font-size="10.00">/metrics_reader.cpp</text>
</a>
</g>
</g>
<!-- Node1&#45;&gt;Node18 -->
<g id="edge31" class="edge">
<title>Node1&#45;&gt;Node18</title>
<path fill="none" stroke="midnightblue" d="M1101.33,-293.01C1082.65,-264.6 1045.4,-207.92 1027.94,-181.36"/>
<polygon fill="midnightblue" stroke="midnightblue" points="1098.48,-295.05 1106.9,-301.48 1104.33,-291.2 1098.48,-295.05"/>
</g>
<!-- Node19 -->
<g id="node19" class="node">
<title>Node19</title>
<g id="a_node19"><a xlink:href="event__listener_8hpp.html" target="_top" xlink:title="Declares the RuntimeEventListener class for container event monitoring.">
<polygon fill="white" stroke="black" points="1095,-229 1095,-259 1222,-259 1222,-229 1095,-229"/>
<text text-anchor="start" x="1103" y="-247" font-family="Helvetica,sans-Serif" font-size="10.00">monitoring_service</text>
<text text-anchor="middle" x="1158.5" y="-236" font-family="Helvetica,sans-Serif" font-size="10.00">/inc/event_listener.hpp</text>
</a>
</g>
</g>
<!-- Node1&#45;&gt;Node19 -->
<g id="edge32" class="edge">
<title>Node1&#45;&gt;Node19</title>
<path fill="none" stroke="midnightblue" d="M1124.63,-292.85C1132.09,-282.32 1141.51,-269 1148.53,-259.09"/>
<polygon fill="midnightblue" stroke="midnightblue" points="1121.62,-291.05 1118.7,-301.23 1127.34,-295.09 1121.62,-291.05"/>
</g>
<!-- Node21 -->
<g id="node21" class="node">
<title>Node21</title>
<g id="a_node21"><a xlink:href="monitor__dashboard_8hpp.html" target="_top" xlink:title="Declares the MonitorDashboard class for ncurses&#45;based container metrics UI.">
<polygon fill="white" stroke="black" points="1384,-234.5 1384,-253.5 1545,-253.5 1545,-234.5 1384,-234.5"/>
<text text-anchor="middle" x="1464.5" y="-241.5" font-family="Helvetica,sans-Serif" font-size="10.00">ui/inc/monitor_dashboard.hpp</text>
</a>
</g>
</g>
<!-- Node1&#45;&gt;Node21 -->
<g id="edge38" class="edge">
<title>Node1&#45;&gt;Node21</title>
<path fill="none" stroke="midnightblue" d="M1169.86,-299.68C1219.94,-290.65 1294.56,-277.1 1359.5,-265 1379.38,-261.29 1401.37,-257.12 1420.07,-253.55"/>
<polygon fill="midnightblue" stroke="midnightblue" points="1169.09,-296.27 1159.87,-301.49 1170.33,-303.15 1169.09,-296.27"/>
</g>
<!-- Node22 -->
<g id="node22" class="node">
<title>Node22</title>
<g id="a_node22"><a xlink:href="monitor__dashboard_8cpp.html" target="_top" xlink:title="Implements the MonitorDashboard class for ncurses&#45;based container metrics UI.">
<polygon fill="white" stroke="black" points="1504,-156.5 1504,-175.5 1665,-175.5 1665,-156.5 1504,-156.5"/>
<text text-anchor="middle" x="1584.5" y="-163.5" font-family="Helvetica,sans-Serif" font-size="10.00">ui/src/monitor_dashboard.cpp</text>
</a>
</g>
</g>
<!-- Node1&#45;&gt;Node22 -->
<g id="edge42" class="edge">
<title>Node1&#45;&gt;Node22</title>
<path fill="none" stroke="midnightblue" d="M1183.52,-307.03C1301.2,-301.5 1526.48,-288.01 1554.5,-265 1582,-242.41 1584.84,-195.3 1584.77,-175.77"/>
<polygon fill="midnightblue" stroke="midnightblue" points="1183.34,-303.54 1173.52,-307.5 1183.67,-310.53 1183.34,-303.54"/>
</g>
<!-- Node23 -->
<g id="node23" class="node">
<title>Node23</title>
<g id="a_node23"><a xlink:href="config__parser_8hpp.html" target="_top" xlink:title="Declares the ConfigParser class for parsing application configuration files.">
<polygon fill="white" stroke="black" points="1761,-234.5 1761,-253.5 1904,-253.5 1904,-234.5 1761,-234.5"/>
<text text-anchor="middle" x="1832.5" y="-241.5" font-family="Helvetica,sans-Serif" font-size="10.00">utils/inc/config_parser.hpp</text>
</a>
</g>
</g>
<!-- Node1&#45;&gt;Node23 -->
<g id="edge43" class="edge">
<title>Node1&#45;&gt;Node23</title>
<path fill="none" stroke="midnightblue" d="M1183.72,-308.97C1302.23,-306.36 1547.08,-297.19 1751.5,-265 1768.81,-262.27 1787.86,-257.66 1803.13,-253.54"/>
<polygon fill="midnightblue" stroke="midnightblue" points="1183.61,-305.47 1173.69,-309.18 1183.76,-312.47 1183.61,-305.47"/>
</g>
<!-- Node24 -->
<g id="node24" class="node">
<title>Node24</title>
<g id="a_node24"><a xlink:href="config__parser_8cpp.html" target="_top" xlink:title="Implements the ConfigParser class for parsing application configuration files.">
<polygon fill="white" stroke="black" points="1902,-156.5 1902,-175.5 2045,-175.5 2045,-156.5 1902,-156.5"/>
<text text-anchor="middle" x="1973.5" y="-163.5" font-family="Helvetica,sans-Serif" font-size="10.00">utils/src/config_parser.cpp</text>
</a>
</g>
</g>
<!-- Node1&#45;&gt;Node24 -->
<g id="edge50" class="edge">
<title>Node1&#45;&gt;Node24</title>
<path fill="none" stroke="midnightblue" d="M1183.92,-309.74C1368.58,-308.55 1851.79,-301.89 1913.5,-265 1947.92,-244.43 1965.28,-195.75 1971.15,-175.78"/>
<polygon fill="midnightblue" stroke="midnightblue" points="1183.75,-306.24 1173.77,-309.8 1183.79,-313.24 1183.75,-306.24"/>
</g>
<!-- Node26 -->
<g id="node26" class="node">
<title>Node26</title>
<g id="a_node26"><a xlink:href="initializer_8hpp.html" target="_top" xlink:title="Declares the Initializer class for application startup routines.">
<polygon fill="white" stroke="black" points="1618.5,-234.5 1618.5,-253.5 1742.5,-253.5 1742.5,-234.5 1618.5,-234.5"/>
<text text-anchor="middle" x="1680.5" y="-241.5" font-family="Helvetica,sans-Serif" font-size="10.00">utils/inc/initializer.hpp</text>
</a>
</g>
</g>
<!-- Node1&#45;&gt;Node26 -->
<g id="edge47" class="edge">
<title>Node1&#45;&gt;Node26</title>
<path fill="none" stroke="midnightblue" d="M1184.07,-306.2C1278.2,-300.54 1448.51,-288.01 1592.5,-265 1610.91,-262.06 1631.22,-257.53 1647.68,-253.52"/>
<polygon fill="midnightblue" stroke="midnightblue" points="1183.59,-302.72 1173.82,-306.81 1184.01,-309.71 1183.59,-302.72"/>
</g>
<!-- Node27 -->
<g id="node27" class="node">
<title>Node27</title>
<g id="a_node27"><a xlink:href="json__processing_8cpp.html" target="_top" xlink:title="Implements functions for parsing container event JSON and extracting resource constraints.">
<polygon fill="white" stroke="black" points="1960.5,-234.5 1960.5,-253.5 2116.5,-253.5 2116.5,-234.5 1960.5,-234.5"/>
<text text-anchor="middle" x="2038.5" y="-241.5" font-family="Helvetica,sans-Serif" font-size="10.00">utils/src/json_processing.cpp</text>
</a>
</g>
</g>
<!-- Node1&#45;&gt;Node27 -->
<g id="edge51" class="edge">
<title>Node1&#45;&gt;Node27</title>
<path fill="none" stroke="midnightblue" d="M1183.57,-309.99C1327.98,-309.13 1665.83,-302.83 1946.5,-265 1966.26,-262.34 1988.08,-257.67 2005.51,-253.51"/>
<polygon fill="midnightblue" stroke="midnightblue" points="1183.49,-306.49 1173.51,-310.04 1183.52,-313.49 1183.49,-306.49"/>
</g>
<!-- Node4 -->
<g id="node4" class="node">
<title>Node4</title>
<g id="a_node4"><a xlink:href="container__runtime__configuration_8hpp.html" target="_top" xlink:title="Declares the factory selector for container runtime path factories.">
<polygon fill="white" stroke="black" points="0,-151 0,-181 199,-181 199,-151 0,-151"/>
<text text-anchor="start" x="8" y="-169" font-family="Helvetica,sans-Serif" font-size="10.00">container_runtime/inc</text>
<text text-anchor="middle" x="99.5" y="-158" font-family="Helvetica,sans-Serif" font-size="10.00">/container_runtime_configuration.hpp</text>
</a>
</g>
</g>
<!-- Node3&#45;&gt;Node4 -->
<g id="edge3" class="edge">
<title>Node3&#45;&gt;Node4</title>
<path fill="none" stroke="midnightblue" d="M209.91,-219.12C183.44,-206.63 151.95,-191.76 129.38,-181.11"/>
<polygon fill="midnightblue" stroke="midnightblue" points="208.5,-222.32 219.04,-223.43 211.49,-215.99 208.5,-222.32"/>
</g>
<!-- Node3&#45;&gt;Node6 -->
<g id="edge5" class="edge">
<title>Node3&#45;&gt;Node6</title>
<path fill="none" stroke="midnightblue" d="M273.49,-213.96C278.51,-202.75 284.02,-190.43 288.14,-181.23"/>
<polygon fill="midnightblue" stroke="midnightblue" points="270.14,-212.87 269.26,-223.43 276.53,-215.73 270.14,-212.87"/>
</g>
<!-- Node3&#45;&gt;Node8 -->
<g id="edge8" class="edge">
<title>Node3&#45;&gt;Node8</title>
<path fill="none" stroke="midnightblue" d="M328.4,-220.17C360.31,-209.44 397.95,-196.78 428.5,-186.51"/>
<polygon fill="midnightblue" stroke="midnightblue" points="327.06,-216.92 318.7,-223.43 329.29,-223.56 327.06,-216.92"/>
</g>
<!-- Node5 -->
<g id="node5" class="node">
<title>Node5</title>
<g id="a_node5"><a xlink:href="container__runtime__configuration_8cpp.html" target="_top" xlink:title="Implements the factory selector for container runtime path factories.">
<polygon fill="white" stroke="black" points="44.5,-73 44.5,-103 242.5,-103 242.5,-73 44.5,-73"/>
<text text-anchor="start" x="52.5" y="-91" font-family="Helvetica,sans-Serif" font-size="10.00">container_runtime/src</text>
<text text-anchor="middle" x="143.5" y="-80" font-family="Helvetica,sans-Serif" font-size="10.00">/container_runtime_configuration.cpp</text>
</a>
</g>
</g>
<!-- Node4&#45;&gt;Node5 -->
<g id="edge4" class="edge">
<title>Node4&#45;&gt;Node5</title>
<path fill="none" stroke="midnightblue" d="M112.99,-141.7C120.26,-129.14 129,-114.04 135.26,-103.23"/>
<polygon fill="midnightblue" stroke="midnightblue" points="109.76,-140.3 107.78,-150.7 115.82,-143.8 109.76,-140.3"/>
</g>
<!-- Node6&#45;&gt;Node5 -->
<g id="edge6" class="edge">
<title>Node6&#45;&gt;Node5</title>
<path fill="none" stroke="midnightblue" d="M257.44,-146.35C230.86,-132.97 195.61,-115.23 171.4,-103.04"/>
<polygon fill="midnightblue" stroke="midnightblue" points="255.95,-149.51 266.45,-150.88 259.09,-143.26 255.95,-149.51"/>
</g>
<!-- Node6&#45;&gt;Node7 -->
<g id="edge7" class="edge">
<title>Node6&#45;&gt;Node7</title>
<path fill="none" stroke="midnightblue" d="M313.98,-143.23C323.72,-132.34 335.42,-119.26 344.89,-108.68"/>
<polygon fill="midnightblue" stroke="midnightblue" points="311.35,-140.92 307.29,-150.7 316.57,-145.59 311.35,-140.92"/>
</g>
<!-- Node8&#45;&gt;Node7 -->
<g id="edge14" class="edge">
<title>Node8&#45;&gt;Node7</title>
<path fill="none" stroke="midnightblue" d="M445.58,-139.92C428.91,-129.7 409.93,-118.07 394.32,-108.51"/>
<polygon fill="midnightblue" stroke="midnightblue" points="444.21,-143.19 454.57,-145.43 447.87,-137.22 444.21,-143.19"/>
</g>
<!-- Node8&#45;&gt;Node9 -->
<g id="edge9" class="edge">
<title>Node8&#45;&gt;Node9</title>
<path fill="none" stroke="midnightblue" d="M483.5,-135.2C483.06,-112.96 486.64,-83.66 505.5,-67 559.59,-19.22 1084,-16.36 1218.3,-16.42"/>
<polygon fill="midnightblue" stroke="midnightblue" points="480.01,-135.63 483.99,-145.46 487.01,-135.3 480.01,-135.63"/>
</g>
<!-- Node10 -->
<g id="node10" class="node">
<title>Node10</title>
<g id="a_node10"><a xlink:href="resource__monitor_8hpp.html" target="_top" xlink:title="Declares the ResourceMonitor class for tracking live containers and managing resource threads.">
<polygon fill="white" stroke="black" points="515,-73 515,-103 658,-103 658,-73 515,-73"/>
<text text-anchor="start" x="523" y="-91" font-family="Helvetica,sans-Serif" font-size="10.00">monitoring_service</text>
<text text-anchor="middle" x="586.5" y="-80" font-family="Helvetica,sans-Serif" font-size="10.00">/inc/resource_monitor.hpp</text>
</a>
</g>
</g>
<!-- Node8&#45;&gt;Node10 -->
<g id="edge10" class="edge">
<title>Node8&#45;&gt;Node10</title>
<path fill="none" stroke="midnightblue" d="M520.28,-139.32C536.14,-127.27 554.45,-113.36 567.78,-103.23"/>
<polygon fill="midnightblue" stroke="midnightblue" points="518.1,-136.59 512.25,-145.43 522.33,-142.16 518.1,-136.59"/>
</g>
<!-- Node11 -->
<g id="node11" class="node">
<title>Node11</title>
<g id="a_node11"><a xlink:href="resource__monitor_8cpp.html" target="_top" xlink:title="Implements the ResourceMonitor class for tracking live containers and managing resource threads.">
<polygon fill="white" stroke="black" points="446.5,-0.5 446.5,-30.5 588.5,-30.5 588.5,-0.5 446.5,-0.5"/>
<text text-anchor="start" x="454.5" y="-18.5" font-family="Helvetica,sans-Serif" font-size="10.00">monitoring_service</text>
<text text-anchor="middle" x="517.5" y="-7.5" font-family="Helvetica,sans-Serif" font-size="10.00">/src/resource_monitor.cpp</text>
</a>
</g>
</g>
<!-- Node8&#45;&gt;Node11 -->
<g id="edge13" class="edge">
<title>Node8&#45;&gt;Node11</title>
<path fill="none" stroke="midnightblue" d="M474.82,-135.47C468.72,-115.56 464.11,-89.02 472.5,-67 477.93,-52.73 489.45,-39.93 499.48,-30.79"/>
<polygon fill="midnightblue" stroke="midnightblue" points="471.59,-136.84 478.08,-145.21 478.22,-134.62 471.59,-136.84"/>
</g>
<!-- Node10&#45;&gt;Node9 -->
<g id="edge11" class="edge">
<title>Node10&#45;&gt;Node9</title>
<path fill="none" stroke="midnightblue" d="M647.45,-70.7C653.86,-69.31 660.29,-68.04 666.5,-67 875.42,-32.06 1130.75,-20.54 1218.31,-17.46"/>
<polygon fill="midnightblue" stroke="midnightblue" points="646.43,-67.35 637.46,-72.98 647.99,-74.17 646.43,-67.35"/>
</g>
<!-- Node10&#45;&gt;Node11 -->
<g id="edge12" class="edge">
<title>Node10&#45;&gt;Node11</title>
<path fill="none" stroke="midnightblue" d="M565.32,-65.36C554.31,-54.11 541.16,-40.68 531.44,-30.75"/>
<polygon fill="midnightblue" stroke="midnightblue" points="563.04,-68.03 572.54,-72.73 568.04,-63.14 563.04,-68.03"/>
</g>
<!-- Node12&#45;&gt;Node8 -->
<g id="edge24" class="edge">
<title>Node12&#45;&gt;Node8</title>
<path fill="none" stroke="midnightblue" d="M614.7,-224.65C589.14,-213.16 556.23,-198.36 530.15,-186.63"/>
<polygon fill="midnightblue" stroke="midnightblue" points="613.55,-227.97 624.11,-228.88 616.42,-221.59 613.55,-227.97"/>
</g>
<!-- Node12&#45;&gt;Node10 -->
<g id="edge23" class="edge">
<title>Node12&#45;&gt;Node10</title>
<path fill="none" stroke="midnightblue" d="M623.06,-222.89C610.95,-213.57 598.46,-201.36 591.5,-187 578.27,-159.71 581.02,-122.99 583.93,-103.15"/>
<polygon fill="midnightblue" stroke="midnightblue" points="621.16,-225.84 631.31,-228.88 625.27,-220.17 621.16,-225.84"/>
</g>
<!-- Node12&#45;&gt;Node13 -->
<g id="edge17" class="edge">
<title>Node12&#45;&gt;Node13</title>
<path fill="none" stroke="midnightblue" d="M655.5,-218.59C655.5,-206.26 655.5,-191.72 655.5,-181.23"/>
<polygon fill="midnightblue" stroke="midnightblue" points="652,-218.7 655.5,-228.7 659,-218.71 652,-218.7"/>
</g>
<!-- Node12&#45;&gt;Node15 -->
<g id="edge20" class="edge">
<title>Node12&#45;&gt;Node15</title>
<path fill="none" stroke="midnightblue" d="M690.75,-224C715.5,-210.66 748.03,-193.12 770.45,-181.04"/>
<polygon fill="midnightblue" stroke="midnightblue" points="688.83,-221.06 681.69,-228.88 692.15,-227.22 688.83,-221.06"/>
</g>
<!-- Node13&#45;&gt;Node9 -->
<g id="edge19" class="edge">
<title>Node13&#45;&gt;Node9</title>
<path fill="none" stroke="midnightblue" d="M706.08,-147.49C739.22,-135.45 778.99,-119.76 793.5,-109 812.79,-94.7 806.48,-78.61 827.5,-67 894.83,-29.81 1132.41,-19.7 1218.26,-17.23"/>
<polygon fill="midnightblue" stroke="midnightblue" points="704.71,-144.26 696.49,-150.94 707.08,-150.85 704.71,-144.26"/>
</g>
<!-- Node14 -->
<g id="node14" class="node">
<title>Node14</title>
<g id="a_node14"><a xlink:href="sqlite__database_8cpp.html" target="_top" xlink:title="Implements the SQLiteDatabase class for SQLite&#45;based database operations.">
<polygon fill="white" stroke="black" points="676,-73 676,-103 785,-103 785,-73 676,-73"/>
<text text-anchor="start" x="684" y="-91" font-family="Helvetica,sans-Serif" font-size="10.00">database/src/sqlite</text>
<text text-anchor="middle" x="730.5" y="-80" font-family="Helvetica,sans-Serif" font-size="10.00">_database.cpp</text>
</a>
</g>
</g>
<!-- Node13&#45;&gt;Node14 -->
<g id="edge18" class="edge">
<title>Node13&#45;&gt;Node14</title>
<path fill="none" stroke="midnightblue" d="M676.68,-143.53C689.42,-130.63 705.26,-114.57 716.46,-103.23"/>
<polygon fill="midnightblue" stroke="midnightblue" points="674.14,-141.13 669.61,-150.7 679.12,-146.05 674.14,-141.13"/>
</g>
<!-- Node15&#45;&gt;Node9 -->
<g id="edge21" class="edge">
<title>Node15&#45;&gt;Node9</title>
<path fill="none" stroke="midnightblue" d="M807.49,-141.67C819.69,-118.6 841.66,-84.29 871.5,-67 930.43,-32.85 1138.81,-20.97 1218.34,-17.63"/>
<polygon fill="midnightblue" stroke="midnightblue" points="804.27,-140.29 802.87,-150.79 810.51,-143.46 804.27,-140.29"/>
</g>
<!-- Node16 -->
<g id="node16" class="node">
<title>Node16</title>
<g id="a_node16"><a xlink:href="event__processor_8cpp.html" target="_top" xlink:title="Implements the EventProcessor class for processing container events and host metrics.">
<polygon fill="white" stroke="black" points="880,-73 880,-103 1017,-103 1017,-73 880,-73"/>
<text text-anchor="start" x="888" y="-91" font-family="Helvetica,sans-Serif" font-size="10.00">monitoring_service</text>
<text text-anchor="middle" x="948.5" y="-80" font-family="Helvetica,sans-Serif" font-size="10.00">/src/event_processor.cpp</text>
</a>
</g>
</g>
<!-- Node15&#45;&gt;Node16 -->
<g id="edge22" class="edge">
<title>Node15&#45;&gt;Node16</title>
<path fill="none" stroke="midnightblue" d="M833.8,-146.35C860.56,-132.97 896.04,-115.23 920.42,-103.04"/>
<polygon fill="midnightblue" stroke="midnightblue" points="832.11,-143.28 824.73,-150.88 835.24,-149.54 832.11,-143.28"/>
</g>
<!-- Node17&#45;&gt;Node7 -->
<g id="edge30" class="edge">
<title>Node17&#45;&gt;Node7</title>
<path fill="none" stroke="midnightblue" d="M943.68,-220.11C930.3,-196.83 906.19,-161.85 874.5,-145 801.75,-106.32 587.32,-118.71 505.5,-109 477.49,-105.68 446.49,-101.41 420.53,-97.68"/>
<polygon fill="midnightblue" stroke="midnightblue" points="940.68,-221.93 948.58,-228.99 946.81,-218.55 940.68,-221.93"/>
</g>
<!-- Node17&#45;&gt;Node16 -->
<g id="edge29" class="edge">
<title>Node17&#45;&gt;Node16</title>
<path fill="none" stroke="midnightblue" d="M952.95,-218.51C952.02,-208.72 951.07,-197.34 950.5,-187 948.87,-157.26 948.53,-122.39 948.48,-103.29"/>
<polygon fill="midnightblue" stroke="midnightblue" points="949.49,-219.14 953.96,-228.75 956.46,-218.45 949.49,-219.14"/>
</g>
<!-- Node17&#45;&gt;Node18 -->
<g id="edge28" class="edge">
<title>Node17&#45;&gt;Node18</title>
<path fill="none" stroke="midnightblue" d="M973.9,-220.81C984.49,-208.03 997.48,-192.36 1006.7,-181.23"/>
<polygon fill="midnightblue" stroke="midnightblue" points="971.04,-218.77 967.35,-228.7 976.43,-223.24 971.04,-218.77"/>
</g>
<!-- Node19&#45;&gt;Node9 -->
<g id="edge33" class="edge">
<title>Node19&#45;&gt;Node9</title>
<path fill="none" stroke="midnightblue" d="M1194.69,-223.32C1208.17,-214.1 1222.19,-201.85 1230.5,-187 1261.2,-132.16 1254.2,-51.89 1250.79,-25.37"/>
<polygon fill="midnightblue" stroke="midnightblue" points="1192.49,-220.57 1185.99,-228.93 1196.29,-226.45 1192.49,-220.57"/>
</g>
<!-- Node20 -->
<g id="node20" class="node">
<title>Node20</title>
<g id="a_node20"><a xlink:href="event__listener_8cpp.html" target="_top" xlink:title="Implements the RuntimeEventListener class for container event monitoring.">
<polygon fill="white" stroke="black" points="1095.5,-151 1095.5,-181 1221.5,-181 1221.5,-151 1095.5,-151"/>
<text text-anchor="start" x="1103.5" y="-169" font-family="Helvetica,sans-Serif" font-size="10.00">monitoring_service</text>
<text text-anchor="middle" x="1158.5" y="-158" font-family="Helvetica,sans-Serif" font-size="10.00">/src/event_listener.cpp</text>
</a>
</g>
</g>
<!-- Node19&#45;&gt;Node20 -->
<g id="edge34" class="edge">
<title>Node19&#45;&gt;Node20</title>
<path fill="none" stroke="midnightblue" d="M1158.5,-218.59C1158.5,-206.26 1158.5,-191.72 1158.5,-181.23"/>
<polygon fill="midnightblue" stroke="midnightblue" points="1155,-218.7 1158.5,-228.7 1162,-218.71 1155,-218.7"/>
</g>
<!-- Node21&#45;&gt;Node2 -->
<g id="edge39" class="edge">
<title>Node21&#45;&gt;Node2</title>
<path fill="none" stroke="midnightblue" d="M1447.47,-227.4C1432.58,-213.77 1411.16,-194.16 1396.81,-181.02"/>
<polygon fill="midnightblue" stroke="midnightblue" points="1445.24,-230.11 1454.98,-234.28 1449.97,-224.95 1445.24,-230.11"/>
</g>
<!-- Node21&#45;&gt;Node9 -->
<g id="edge40" class="edge">
<title>Node21&#45;&gt;Node9</title>
<path fill="none" stroke="midnightblue" d="M1467.7,-224.23C1470.25,-203.3 1471.29,-169.21 1456.5,-145 1415.49,-77.86 1324.8,-40.45 1278.27,-25.01"/>
<polygon fill="midnightblue" stroke="midnightblue" points="1464.2,-223.95 1466.21,-234.36 1471.13,-224.97 1464.2,-223.95"/>
</g>
<!-- Node21&#45;&gt;Node22 -->
<g id="edge41" class="edge">
<title>Node21&#45;&gt;Node22</title>
<path fill="none" stroke="midnightblue" d="M1486.96,-228.77C1511.63,-213.15 1550.47,-188.56 1570.9,-175.62"/>
<polygon fill="midnightblue" stroke="midnightblue" points="1484.84,-225.97 1478.27,-234.28 1488.59,-231.89 1484.84,-225.97"/>
</g>
<!-- Node23&#45;&gt;Node9 -->
<g id="edge44" class="edge">
<title>Node23&#45;&gt;Node9</title>
<path fill="none" stroke="midnightblue" d="M1843.97,-225.88C1856.51,-204.8 1872.59,-168.86 1854.5,-145 1783.8,-51.73 1394.79,-24.13 1280.86,-17.99"/>
<polygon fill="midnightblue" stroke="midnightblue" points="1840.96,-224.1 1838.59,-234.43 1846.88,-227.83 1840.96,-224.1"/>
</g>
<!-- Node23&#45;&gt;Node24 -->
<g id="edge45" class="edge">
<title>Node23&#45;&gt;Node24</title>
<path fill="none" stroke="midnightblue" d="M1857.45,-229.55C1886.32,-213.99 1933.02,-188.82 1957.44,-175.66"/>
<polygon fill="midnightblue" stroke="midnightblue" points="1855.54,-226.6 1848.4,-234.43 1858.86,-232.77 1855.54,-226.6"/>
</g>
<!-- Node25 -->
<g id="node25" class="node">
<title>Node25</title>
<g id="a_node25"><a xlink:href="initializer_8cpp.html" target="_top" xlink:title="Implements the Initializer class for application startup routines.">
<polygon fill="white" stroke="black" points="1722,-156.5 1722,-175.5 1845,-175.5 1845,-156.5 1722,-156.5"/>
<text text-anchor="middle" x="1783.5" y="-163.5" font-family="Helvetica,sans-Serif" font-size="10.00">utils/src/initializer.cpp</text>
</a>
</g>
</g>
<!-- Node23&#45;&gt;Node25 -->
<g id="edge46" class="edge">
<title>Node23&#45;&gt;Node25</title>
<path fill="none" stroke="midnightblue" d="M1821.26,-225.57C1811.19,-209.95 1796.85,-187.7 1789.06,-175.62"/>
<polygon fill="midnightblue" stroke="midnightblue" points="1818.52,-227.77 1826.88,-234.28 1824.4,-223.98 1818.52,-227.77"/>
</g>
<!-- Node26&#45;&gt;Node9 -->
<g id="edge48" class="edge">
<title>Node26&#45;&gt;Node9</title>
<path fill="none" stroke="midnightblue" d="M1685.11,-224.42C1689.28,-202.9 1692.33,-167.54 1674.5,-145 1624.23,-81.44 1369.86,-35.61 1280.55,-21.26"/>
<polygon fill="midnightblue" stroke="midnightblue" points="1681.68,-223.75 1682.94,-234.26 1688.51,-225.25 1681.68,-223.75"/>
</g>
<!-- Node26&#45;&gt;Node25 -->
<g id="edge49" class="edge">
<title>Node26&#45;&gt;Node25</title>
<path fill="none" stroke="midnightblue" d="M1700.63,-228.15C1721.84,-212.5 1754.52,-188.38 1771.82,-175.62"/>
<polygon fill="midnightblue" stroke="midnightblue" points="1698.28,-225.53 1692.32,-234.28 1702.44,-231.16 1698.28,-225.53"/>
</g>
</g>
</svg>
