<?xml version="1.0" encoding="UTF-8" standalone="no"?>
<!DOCTYPE svg PUBLIC "-//W3C//DTD SVG 1.1//EN"
 "http://www.w3.org/Graphics/SVG/1.1/DTD/svg11.dtd">
<!-- Generated by graphviz version 2.43.0 (0)
 -->
<!-- Title: utils/src/config_parser.cpp Pages: 1 -->
<svg width="453pt" height="196pt"
 viewBox="0.00 0.00 453.00 196.00" xmlns="http://www.w3.org/2000/svg" xmlns:xlink="http://www.w3.org/1999/xlink">
<g id="graph0" class="graph" transform="scale(1 1) rotate(0) translate(4 192)">
<title>utils/src/config_parser.cpp</title>
<polygon fill="white" stroke="transparent" points="-4,4 -4,-192 449,-192 449,4 -4,4"/>
<!-- Node1 -->
<g id="node1" class="node">
<title>Node1</title>
<g id="a_node1"><a xlink:title="Implements the ConfigParser class for parsing application configuration files.">
<polygon fill="#bfbfbf" stroke="black" points="191.5,-168.5 191.5,-187.5 334.5,-187.5 334.5,-168.5 191.5,-168.5"/>
<text text-anchor="middle" x="263" y="-175.5" font-family="Helvetica,sans-Serif" font-size="10.00">utils/src/config_parser.cpp</text>
</a>
</g>
</g>
<!-- Node2 -->
<g id="node2" class="node">
<title>Node2</title>
<g id="a_node2"><a xlink:href="config__parser_8hpp.html" target="_top" xlink:title="Declares the ConfigParser class for parsing application configuration files.">
<polygon fill="white" stroke="black" points="109,-112.5 109,-131.5 211,-131.5 211,-112.5 109,-112.5"/>
<text text-anchor="middle" x="160" y="-119.5" font-family="Helvetica,sans-Serif" font-size="10.00">config_parser.hpp</text>
</a>
</g>
</g>
<!-- Node1&#45;&gt;Node2 -->
<g id="edge1" class="edge">
<title>Node1&#45;&gt;Node2</title>
<path fill="none" stroke="midnightblue" d="M246.45,-168.32C230.01,-159.7 204.57,-146.36 185.53,-136.39"/>
<polygon fill="midnightblue" stroke="midnightblue" points="186.99,-133.2 176.51,-131.65 183.74,-139.4 186.99,-133.2"/>
</g>
<!-- Node6 -->
<g id="node6" class="node">
<title>Node6</title>
<g id="a_node6"><a xlink:href="common_8hpp.html" target="_top" xlink:title="Common data structures, constants, and configuration for container monitoring.">
<polygon fill="white" stroke="black" points="21,-56.5 21,-75.5 101,-75.5 101,-56.5 21,-56.5"/>
<text text-anchor="middle" x="61" y="-63.5" font-family="Helvetica,sans-Serif" font-size="10.00">common.hpp</text>
</a>
</g>
</g>
<!-- Node1&#45;&gt;Node6 -->
<g id="edge9" class="edge">
<title>Node1&#45;&gt;Node6</title>
<path fill="none" stroke="midnightblue" d="M191.15,-169.19C160.65,-163 126.18,-151.9 100,-132 84.32,-120.08 73.64,-99.88 67.48,-85.16"/>
<polygon fill="midnightblue" stroke="midnightblue" points="70.65,-83.66 63.78,-75.6 64.13,-86.19 70.65,-83.66"/>
</g>
<!-- Node8 -->
<g id="node8" class="node">
<title>Node8</title>
<g id="a_node8"><a xlink:href="logger_8hpp.html" target="_top" xlink:title="Logging macros for the container monitor application.">
<polygon fill="white" stroke="black" points="229,-112.5 229,-131.5 297,-131.5 297,-112.5 229,-112.5"/>
<text text-anchor="middle" x="263" y="-119.5" font-family="Helvetica,sans-Serif" font-size="10.00">logger.hpp</text>
</a>
</g>
</g>
<!-- Node1&#45;&gt;Node8 -->
<g id="edge10" class="edge">
<title>Node1&#45;&gt;Node8</title>
<path fill="none" stroke="midnightblue" d="M263,-168.08C263,-161.01 263,-150.86 263,-141.99"/>
<polygon fill="midnightblue" stroke="midnightblue" points="266.5,-141.75 263,-131.75 259.5,-141.75 266.5,-141.75"/>
</g>
<!-- Node10 -->
<g id="node10" class="node">
<title>Node10</title>
<g id="a_node10"><a xlink:title=" ">
<polygon fill="white" stroke="#bfbfbf" points="315.5,-112.5 315.5,-131.5 370.5,-131.5 370.5,-112.5 315.5,-112.5"/>
<text text-anchor="middle" x="343" y="-119.5" font-family="Helvetica,sans-Serif" font-size="10.00">fstream</text>
</a>
</g>
</g>
<!-- Node1&#45;&gt;Node10 -->
<g id="edge12" class="edge">
<title>Node1&#45;&gt;Node10</title>
<path fill="none" stroke="midnightblue" d="M275.85,-168.32C288.22,-159.98 307.13,-147.21 321.74,-137.35"/>
<polygon fill="midnightblue" stroke="midnightblue" points="323.85,-140.15 330.18,-131.65 319.93,-134.35 323.85,-140.15"/>
</g>
<!-- Node11 -->
<g id="node11" class="node">
<title>Node11</title>
<g id="a_node11"><a xlink:title=" ">
<polygon fill="white" stroke="#bfbfbf" points="389,-112.5 389,-131.5 445,-131.5 445,-112.5 389,-112.5"/>
<text text-anchor="middle" x="417" y="-119.5" font-family="Helvetica,sans-Serif" font-size="10.00">sstream</text>
</a>
</g>
</g>
<!-- Node1&#45;&gt;Node11 -->
<g id="edge13" class="edge">
<title>Node1&#45;&gt;Node11</title>
<path fill="none" stroke="midnightblue" d="M287.4,-168.44C313.2,-159.4 354.08,-145.06 383.02,-134.92"/>
<polygon fill="midnightblue" stroke="midnightblue" points="384.43,-138.13 392.71,-131.52 382.12,-131.52 384.43,-138.13"/>
</g>
<!-- Node3 -->
<g id="node3" class="node">
<title>Node3</title>
<g id="a_node3"><a xlink:title=" ">
<polygon fill="white" stroke="#bfbfbf" points="68,-0.5 68,-19.5 112,-19.5 112,-0.5 68,-0.5"/>
<text text-anchor="middle" x="90" y="-7.5" font-family="Helvetica,sans-Serif" font-size="10.00">string</text>
</a>
</g>
</g>
<!-- Node2&#45;&gt;Node3 -->
<g id="edge2" class="edge">
<title>Node2&#45;&gt;Node3</title>
<path fill="none" stroke="midnightblue" d="M154.51,-112.37C143.01,-94.3 116.2,-52.18 101.01,-28.31"/>
<polygon fill="midnightblue" stroke="midnightblue" points="103.79,-26.15 95.47,-19.59 97.88,-29.91 103.79,-26.15"/>
</g>
<!-- Node4 -->
<g id="node4" class="node">
<title>Node4</title>
<g id="a_node4"><a xlink:title=" ">
<polygon fill="white" stroke="#bfbfbf" points="130.5,-0.5 130.5,-19.5 203.5,-19.5 203.5,-0.5 130.5,-0.5"/>
<text text-anchor="middle" x="167" y="-7.5" font-family="Helvetica,sans-Serif" font-size="10.00">string_view</text>
</a>
</g>
</g>
<!-- Node2&#45;&gt;Node4 -->
<g id="edge3" class="edge">
<title>Node2&#45;&gt;Node4</title>
<path fill="none" stroke="midnightblue" d="M160.55,-112.37C161.68,-94.62 164.28,-53.67 165.82,-29.6"/>
<polygon fill="midnightblue" stroke="midnightblue" points="169.31,-29.79 166.45,-19.59 162.33,-29.35 169.31,-29.79"/>
</g>
<!-- Node5 -->
<g id="node5" class="node">
<title>Node5</title>
<g id="a_node5"><a xlink:title=" ">
<polygon fill="white" stroke="#bfbfbf" points="195.5,-56.5 195.5,-75.5 288.5,-75.5 288.5,-56.5 195.5,-56.5"/>
<text text-anchor="middle" x="242" y="-63.5" font-family="Helvetica,sans-Serif" font-size="10.00">unordered_map</text>
</a>
</g>
</g>
<!-- Node2&#45;&gt;Node5 -->
<g id="edge4" class="edge">
<title>Node2&#45;&gt;Node5</title>
<path fill="none" stroke="midnightblue" d="M173.17,-112.32C185.85,-103.98 205.23,-91.21 220.21,-81.35"/>
<polygon fill="midnightblue" stroke="midnightblue" points="222.43,-84.08 228.86,-75.65 218.58,-78.23 222.43,-84.08"/>
</g>
<!-- Node2&#45;&gt;Node6 -->
<g id="edge5" class="edge">
<title>Node2&#45;&gt;Node6</title>
<path fill="none" stroke="midnightblue" d="M144.09,-112.32C128.36,-103.74 104.06,-90.49 85.79,-80.52"/>
<polygon fill="midnightblue" stroke="midnightblue" points="87.32,-77.37 76.87,-75.65 83.97,-83.52 87.32,-77.37"/>
</g>
<!-- Node6&#45;&gt;Node3 -->
<g id="edge6" class="edge">
<title>Node6&#45;&gt;Node3</title>
<path fill="none" stroke="midnightblue" d="M65.79,-56.08C69.76,-48.69 75.53,-37.95 80.43,-28.81"/>
<polygon fill="midnightblue" stroke="midnightblue" points="83.65,-30.22 85.3,-19.75 77.49,-26.91 83.65,-30.22"/>
</g>
<!-- Node6&#45;&gt;Node4 -->
<g id="edge8" class="edge">
<title>Node6&#45;&gt;Node4</title>
<path fill="none" stroke="midnightblue" d="M78.03,-56.32C95.03,-47.66 121.38,-34.24 140.99,-24.25"/>
<polygon fill="midnightblue" stroke="midnightblue" points="142.69,-27.31 150.01,-19.65 139.51,-21.08 142.69,-27.31"/>
</g>
<!-- Node7 -->
<g id="node7" class="node">
<title>Node7</title>
<g id="a_node7"><a xlink:title=" ">
<polygon fill="white" stroke="#bfbfbf" points="0,-0.5 0,-19.5 50,-19.5 50,-0.5 0,-0.5"/>
<text text-anchor="middle" x="25" y="-7.5" font-family="Helvetica,sans-Serif" font-size="10.00">cstring</text>
</a>
</g>
</g>
<!-- Node6&#45;&gt;Node7 -->
<g id="edge7" class="edge">
<title>Node6&#45;&gt;Node7</title>
<path fill="none" stroke="midnightblue" d="M55.06,-56.08C50.02,-48.53 42.66,-37.49 36.49,-28.23"/>
<polygon fill="midnightblue" stroke="midnightblue" points="39.29,-26.13 30.83,-19.75 33.47,-30.01 39.29,-26.13"/>
</g>
<!-- Node9 -->
<g id="node9" class="node">
<title>Node9</title>
<g id="a_node9"><a xlink:title=" ">
<polygon fill="white" stroke="#bfbfbf" points="307,-56.5 307,-75.5 393,-75.5 393,-56.5 307,-56.5"/>
<text text-anchor="middle" x="350" y="-63.5" font-family="Helvetica,sans-Serif" font-size="10.00">glog/logging.h</text>
</a>
</g>
</g>
<!-- Node8&#45;&gt;Node9 -->
<g id="edge11" class="edge">
<title>Node8&#45;&gt;Node9</title>
<path fill="none" stroke="midnightblue" d="M276.98,-112.32C290.55,-103.9 311.38,-90.97 327.32,-81.07"/>
<polygon fill="midnightblue" stroke="midnightblue" points="329.41,-83.9 336.06,-75.65 325.71,-77.95 329.41,-83.9"/>
</g>
</g>
</svg>
