<?xml version="1.0" encoding="UTF-8" standalone="no"?>
<!DOCTYPE svg PUBLIC "-//W3C//DTD SVG 1.1//EN"
 "http://www.w3.org/Graphics/SVG/1.1/DTD/svg11.dtd">
<!-- Generated by graphviz version 2.43.0 (0)
 -->
<!-- Title: utils/inc/config_parser.hpp Pages: 1 -->
<svg width="288pt" height="140pt"
 viewBox="0.00 0.00 287.50 140.00" xmlns="http://www.w3.org/2000/svg" xmlns:xlink="http://www.w3.org/1999/xlink">
<g id="graph0" class="graph" transform="scale(1 1) rotate(0) translate(4 136)">
<title>utils/inc/config_parser.hpp</title>
<polygon fill="white" stroke="transparent" points="-4,4 -4,-136 283.5,-136 283.5,4 -4,4"/>
<!-- Node1 -->
<g id="node1" class="node">
<title>Node1</title>
<g id="a_node1"><a xlink:title="Declares the ConfigParser class for parsing application configuration files.">
<polygon fill="#bfbfbf" stroke="black" points="52.5,-112.5 52.5,-131.5 195.5,-131.5 195.5,-112.5 52.5,-112.5"/>
<text text-anchor="middle" x="124" y="-119.5" font-family="Helvetica,sans-Serif" font-size="10.00">utils/inc/config_parser.hpp</text>
</a>
</g>
</g>
<!-- Node2 -->
<g id="node2" class="node">
<title>Node2</title>
<g id="a_node2"><a xlink:title=" ">
<polygon fill="white" stroke="#bfbfbf" points="0,-0.5 0,-19.5 44,-19.5 44,-0.5 0,-0.5"/>
<text text-anchor="middle" x="22" y="-7.5" font-family="Helvetica,sans-Serif" font-size="10.00">string</text>
</a>
</g>
</g>
<!-- Node1&#45;&gt;Node2 -->
<g id="edge1" class="edge">
<title>Node1&#45;&gt;Node2</title>
<path fill="none" stroke="midnightblue" d="M96.41,-112.35C78.22,-105.3 55.21,-93.6 41,-76 30.28,-62.72 25.61,-43.59 23.57,-29.53"/>
<polygon fill="midnightblue" stroke="midnightblue" points="27.04,-29.08 22.44,-19.54 20.09,-29.87 27.04,-29.08"/>
</g>
<!-- Node3 -->
<g id="node3" class="node">
<title>Node3</title>
<g id="a_node3"><a xlink:title=" ">
<polygon fill="white" stroke="#bfbfbf" points="130.5,-0.5 130.5,-19.5 203.5,-19.5 203.5,-0.5 130.5,-0.5"/>
<text text-anchor="middle" x="167" y="-7.5" font-family="Helvetica,sans-Serif" font-size="10.00">string_view</text>
</a>
</g>
</g>
<!-- Node1&#45;&gt;Node3 -->
<g id="edge2" class="edge">
<title>Node1&#45;&gt;Node3</title>
<path fill="none" stroke="midnightblue" d="M127.37,-112.37C134.38,-94.46 150.61,-52.92 159.98,-28.95"/>
<polygon fill="midnightblue" stroke="midnightblue" points="163.26,-30.18 163.64,-19.59 156.74,-27.63 163.26,-30.18"/>
</g>
<!-- Node4 -->
<g id="node4" class="node">
<title>Node4</title>
<g id="a_node4"><a xlink:title=" ">
<polygon fill="white" stroke="#bfbfbf" points="186.5,-56.5 186.5,-75.5 279.5,-75.5 279.5,-56.5 186.5,-56.5"/>
<text text-anchor="middle" x="233" y="-63.5" font-family="Helvetica,sans-Serif" font-size="10.00">unordered_map</text>
</a>
</g>
</g>
<!-- Node1&#45;&gt;Node4 -->
<g id="edge3" class="edge">
<title>Node1&#45;&gt;Node4</title>
<path fill="none" stroke="midnightblue" d="M141.51,-112.32C159.07,-103.62 186.33,-90.12 206.53,-80.11"/>
<polygon fill="midnightblue" stroke="midnightblue" points="208.12,-83.23 215.53,-75.65 205.02,-76.96 208.12,-83.23"/>
</g>
<!-- Node5 -->
<g id="node5" class="node">
<title>Node5</title>
<g id="a_node5"><a xlink:href="common_8hpp.html" target="_top" xlink:title="Common data structures, constants, and configuration for container monitoring.">
<polygon fill="white" stroke="black" points="50,-56.5 50,-75.5 130,-75.5 130,-56.5 50,-56.5"/>
<text text-anchor="middle" x="90" y="-63.5" font-family="Helvetica,sans-Serif" font-size="10.00">common.hpp</text>
</a>
</g>
</g>
<!-- Node1&#45;&gt;Node5 -->
<g id="edge4" class="edge">
<title>Node1&#45;&gt;Node5</title>
<path fill="none" stroke="midnightblue" d="M118.39,-112.08C113.63,-104.53 106.68,-93.49 100.85,-84.23"/>
<polygon fill="midnightblue" stroke="midnightblue" points="103.8,-82.35 95.51,-75.75 97.88,-86.08 103.8,-82.35"/>
</g>
<!-- Node5&#45;&gt;Node2 -->
<g id="edge5" class="edge">
<title>Node5&#45;&gt;Node2</title>
<path fill="none" stroke="midnightblue" d="M79.07,-56.32C68.83,-48.18 53.28,-35.84 41,-26.09"/>
<polygon fill="midnightblue" stroke="midnightblue" points="43.13,-23.31 33.12,-19.83 38.78,-28.79 43.13,-23.31"/>
</g>
<!-- Node5&#45;&gt;Node3 -->
<g id="edge7" class="edge">
<title>Node5&#45;&gt;Node3</title>
<path fill="none" stroke="midnightblue" d="M102.37,-56.32C114.16,-48.06 132.13,-35.45 146.14,-25.63"/>
<polygon fill="midnightblue" stroke="midnightblue" points="148.48,-28.26 154.66,-19.65 144.46,-22.53 148.48,-28.26"/>
</g>
<!-- Node6 -->
<g id="node6" class="node">
<title>Node6</title>
<g id="a_node6"><a xlink:title=" ">
<polygon fill="white" stroke="#bfbfbf" points="62,-0.5 62,-19.5 112,-19.5 112,-0.5 62,-0.5"/>
<text text-anchor="middle" x="87" y="-7.5" font-family="Helvetica,sans-Serif" font-size="10.00">cstring</text>
</a>
</g>
</g>
<!-- Node5&#45;&gt;Node6 -->
<g id="edge6" class="edge">
<title>Node5&#45;&gt;Node6</title>
<path fill="none" stroke="midnightblue" d="M89.5,-56.08C89.11,-49.01 88.55,-38.86 88.05,-29.99"/>
<polygon fill="midnightblue" stroke="midnightblue" points="91.54,-29.54 87.49,-19.75 84.55,-29.93 91.54,-29.54"/>
</g>
</g>
</svg>
