<?xml version="1.0" encoding="UTF-8" standalone="no"?>
<!DOCTYPE svg PUBLIC "-//W3C//DTD SVG 1.1//EN"
 "http://www.w3.org/Graphics/SVG/1.1/DTD/svg11.dtd">
<!-- Generated by graphviz version 2.43.0 (0)
 -->
<!-- Title: utils/inc/config_parser.hpp Pages: 1 -->
<svg width="373pt" height="84pt"
 viewBox="0.00 0.00 372.50 84.00" xmlns="http://www.w3.org/2000/svg" xmlns:xlink="http://www.w3.org/1999/xlink">
<g id="graph0" class="graph" transform="scale(1 1) rotate(0) translate(4 80)">
<title>utils/inc/config_parser.hpp</title>
<polygon fill="white" stroke="transparent" points="-4,4 -4,-80 368.5,-80 368.5,4 -4,4"/>
<!-- Node1 -->
<g id="node1" class="node">
<title>Node1</title>
<g id="a_node1"><a xlink:title="Declares the ConfigParser class for parsing application configuration files.">
<polygon fill="#bfbfbf" stroke="black" points="80.5,-56.5 80.5,-75.5 223.5,-75.5 223.5,-56.5 80.5,-56.5"/>
<text text-anchor="middle" x="152" y="-63.5" font-family="Helvetica,sans-Serif" font-size="10.00">utils/inc/config_parser.hpp</text>
</a>
</g>
</g>
<!-- Node2 -->
<g id="node2" class="node">
<title>Node2</title>
<g id="a_node2"><a xlink:href="main_8cpp.html" target="_top" xlink:title="Entry point for the Container Monitor application.">
<polygon fill="white" stroke="black" points="0,-0.5 0,-19.5 62,-19.5 62,-0.5 0,-0.5"/>
<text text-anchor="middle" x="31" y="-7.5" font-family="Helvetica,sans-Serif" font-size="10.00">main.cpp</text>
</a>
</g>
</g>
<!-- Node1&#45;&gt;Node2 -->
<g id="edge1" class="edge">
<title>Node1&#45;&gt;Node2</title>
<path fill="none" stroke="midnightblue" d="M123.69,-52.37C101.03,-42.26 69.87,-28.35 50.08,-19.52"/>
<polygon fill="midnightblue" stroke="midnightblue" points="122.27,-55.56 132.83,-56.44 125.12,-49.17 122.27,-55.56"/>
</g>
<!-- Node3 -->
<g id="node3" class="node">
<title>Node3</title>
<g id="a_node3"><a xlink:href="config__parser_8cpp.html" target="_top" xlink:title="Implements the ConfigParser class for parsing application configuration files.">
<polygon fill="white" stroke="black" points="80.5,-0.5 80.5,-19.5 223.5,-19.5 223.5,-0.5 80.5,-0.5"/>
<text text-anchor="middle" x="152" y="-7.5" font-family="Helvetica,sans-Serif" font-size="10.00">utils/src/config_parser.cpp</text>
</a>
</g>
</g>
<!-- Node1&#45;&gt;Node3 -->
<g id="edge2" class="edge">
<title>Node1&#45;&gt;Node3</title>
<path fill="none" stroke="midnightblue" d="M152,-45.8C152,-36.91 152,-26.78 152,-19.75"/>
<polygon fill="midnightblue" stroke="midnightblue" points="148.5,-46.08 152,-56.08 155.5,-46.08 148.5,-46.08"/>
</g>
<!-- Node4 -->
<g id="node4" class="node">
<title>Node4</title>
<g id="a_node4"><a xlink:href="initializer_8cpp.html" target="_top" xlink:title="Implements the Initializer class for application startup routines.">
<polygon fill="white" stroke="black" points="241.5,-0.5 241.5,-19.5 364.5,-19.5 364.5,-0.5 241.5,-0.5"/>
<text text-anchor="middle" x="303" y="-7.5" font-family="Helvetica,sans-Serif" font-size="10.00">utils/src/initializer.cpp</text>
</a>
</g>
</g>
<!-- Node1&#45;&gt;Node4 -->
<g id="edge3" class="edge">
<title>Node1&#45;&gt;Node4</title>
<path fill="none" stroke="midnightblue" d="M185.45,-53.04C213.86,-42.88 253.94,-28.55 279.19,-19.52"/>
<polygon fill="midnightblue" stroke="midnightblue" points="184.16,-49.78 175.93,-56.44 186.52,-56.37 184.16,-49.78"/>
</g>
</g>
</svg>
