<?xml version="1.0" encoding="UTF-8" standalone="no"?>
<!DOCTYPE svg PUBLIC "-//W3C//DTD SVG 1.1//EN"
 "http://www.w3.org/Graphics/SVG/1.1/DTD/svg11.dtd">
<!-- Generated by graphviz version 2.43.0 (0)
 -->
<!-- Title: container_runtime/inc/container_runtime_configuration.hpp Pages: 1 -->
<svg width="207pt" height="106pt"
 viewBox="0.00 0.00 207.00 106.00" xmlns="http://www.w3.org/2000/svg" xmlns:xlink="http://www.w3.org/1999/xlink">
<g id="graph0" class="graph" transform="scale(1 1) rotate(0) translate(4 102)">
<title>container_runtime/inc/container_runtime_configuration.hpp</title>
<polygon fill="white" stroke="transparent" points="-4,4 -4,-102 203,-102 203,4 -4,4"/>
<!-- Node1 -->
<g id="node1" class="node">
<title>Node1</title>
<g id="a_node1"><a xlink:title="Declares the factory selector for container runtime path factories.">
<polygon fill="#bfbfbf" stroke="black" points="0,-67.5 0,-97.5 199,-97.5 199,-67.5 0,-67.5"/>
<text text-anchor="start" x="8" y="-85.5" font-family="Helvetica,sans-Serif" font-size="10.00">container_runtime/inc</text>
<text text-anchor="middle" x="99.5" y="-74.5" font-family="Helvetica,sans-Serif" font-size="10.00">/container_runtime_configuration.hpp</text>
</a>
</g>
</g>
<!-- Node2 -->
<g id="node2" class="node">
<title>Node2</title>
<g id="a_node2"><a xlink:href="container__runtime__configuration_8cpp.html" target="_top" xlink:title="Implements the factory selector for container runtime path factories.">
<polygon fill="white" stroke="black" points="0.5,-0.5 0.5,-30.5 198.5,-30.5 198.5,-0.5 0.5,-0.5"/>
<text text-anchor="start" x="8.5" y="-18.5" font-family="Helvetica,sans-Serif" font-size="10.00">container_runtime/src</text>
<text text-anchor="middle" x="99.5" y="-7.5" font-family="Helvetica,sans-Serif" font-size="10.00">/container_runtime_configuration.cpp</text>
</a>
</g>
</g>
<!-- Node1&#45;&gt;Node2 -->
<g id="edge1" class="edge">
<title>Node1&#45;&gt;Node2</title>
<path fill="none" stroke="midnightblue" d="M99.5,-57.11C99.5,-48.15 99.5,-38.32 99.5,-30.58"/>
<polygon fill="midnightblue" stroke="midnightblue" points="96,-57.4 99.5,-67.4 103,-57.4 96,-57.4"/>
</g>
</g>
</svg>
