<?xml version="1.0" encoding="UTF-8" standalone="no"?>
<!DOCTYPE svg PUBLIC "-//W3C//DTD SVG 1.1//EN"
 "http://www.w3.org/Graphics/SVG/1.1/DTD/svg11.dtd">
<!-- Generated by graphviz version 2.43.0 (0)
 -->
<!-- Title: container_runtime/inc/container_runtime_configuration.hpp Pages: 1 -->
<svg width="328pt" height="218pt"
 viewBox="0.00 0.00 328.00 218.00" xmlns="http://www.w3.org/2000/svg" xmlns:xlink="http://www.w3.org/1999/xlink">
<g id="graph0" class="graph" transform="scale(1 1) rotate(0) translate(4 214)">
<title>container_runtime/inc/container_runtime_configuration.hpp</title>
<polygon fill="white" stroke="transparent" points="-4,4 -4,-214 324,-214 324,4 -4,4"/>
<!-- Node1 -->
<g id="node1" class="node">
<title>Node1</title>
<g id="a_node1"><a xlink:title="Declares the factory selector for container runtime path factories.">
<polygon fill="#bfbfbf" stroke="black" points="0,-179.5 0,-209.5 199,-209.5 199,-179.5 0,-179.5"/>
<text text-anchor="start" x="8" y="-197.5" font-family="Helvetica,sans-Serif" font-size="10.00">container_runtime/inc</text>
<text text-anchor="middle" x="99.5" y="-186.5" font-family="Helvetica,sans-Serif" font-size="10.00">/container_runtime_configuration.hpp</text>
</a>
</g>
</g>
<!-- Node2 -->
<g id="node2" class="node">
<title>Node2</title>
<g id="a_node2"><a xlink:title=" ">
<polygon fill="white" stroke="#bfbfbf" points="13.5,-118 13.5,-137 71.5,-137 71.5,-118 13.5,-118"/>
<text text-anchor="middle" x="42.5" y="-125" font-family="Helvetica,sans-Serif" font-size="10.00">memory</text>
</a>
</g>
</g>
<!-- Node1&#45;&gt;Node2 -->
<g id="edge1" class="edge">
<title>Node1&#45;&gt;Node2</title>
<path fill="none" stroke="midnightblue" d="M87.13,-179.4C78.24,-169.26 66.24,-155.57 56.91,-144.94"/>
<polygon fill="midnightblue" stroke="midnightblue" points="59.35,-142.41 50.12,-137.19 54.09,-147.02 59.35,-142.41"/>
</g>
<!-- Node3 -->
<g id="node3" class="node">
<title>Node3</title>
<g id="a_node3"><a xlink:title=" ">
<polygon fill="white" stroke="#bfbfbf" points="115.5,-0.5 115.5,-19.5 159.5,-19.5 159.5,-0.5 115.5,-0.5"/>
<text text-anchor="middle" x="137.5" y="-7.5" font-family="Helvetica,sans-Serif" font-size="10.00">string</text>
</a>
</g>
</g>
<!-- Node1&#45;&gt;Node3 -->
<g id="edge2" class="edge">
<title>Node1&#45;&gt;Node3</title>
<path fill="none" stroke="midnightblue" d="M102.42,-179.48C109.19,-146.96 125.98,-66.34 133.61,-29.68"/>
<polygon fill="midnightblue" stroke="midnightblue" points="137.05,-30.32 135.66,-19.82 130.2,-28.9 137.05,-30.32"/>
</g>
<!-- Node4 -->
<g id="node4" class="node">
<title>Node4</title>
<g id="a_node4"><a xlink:href="container__runtime__factory__interface_8hpp.html" target="_top" xlink:title="Declares the interface for container runtime path factories.">
<polygon fill="white" stroke="black" points="127.5,-112.5 127.5,-142.5 273.5,-142.5 273.5,-112.5 127.5,-112.5"/>
<text text-anchor="start" x="135.5" y="-130.5" font-family="Helvetica,sans-Serif" font-size="10.00">container_runtime_factory</text>
<text text-anchor="middle" x="200.5" y="-119.5" font-family="Helvetica,sans-Serif" font-size="10.00">_interface.hpp</text>
</a>
</g>
</g>
<!-- Node1&#45;&gt;Node4 -->
<g id="edge3" class="edge">
<title>Node1&#45;&gt;Node4</title>
<path fill="none" stroke="midnightblue" d="M121.42,-179.4C135.58,-170.28 154.21,-158.29 169.83,-148.24"/>
<polygon fill="midnightblue" stroke="midnightblue" points="172.11,-150.93 178.63,-142.58 168.32,-145.05 172.11,-150.93"/>
</g>
<!-- Node4&#45;&gt;Node3 -->
<g id="edge4" class="edge">
<title>Node4&#45;&gt;Node3</title>
<path fill="none" stroke="midnightblue" d="M185.14,-112.34C175.68,-102.87 163.98,-89.67 156.5,-76 148.57,-61.5 143.61,-43.31 140.76,-29.87"/>
<polygon fill="midnightblue" stroke="midnightblue" points="144.17,-29.04 138.84,-19.88 137.29,-30.36 144.17,-29.04"/>
</g>
<!-- Node5 -->
<g id="node5" class="node">
<title>Node5</title>
<g id="a_node5"><a xlink:href="common_8hpp.html" target="_top" xlink:title="Common data structures, constants, and configuration for container monitoring.">
<polygon fill="white" stroke="black" points="165.5,-56.5 165.5,-75.5 245.5,-75.5 245.5,-56.5 165.5,-56.5"/>
<text text-anchor="middle" x="205.5" y="-63.5" font-family="Helvetica,sans-Serif" font-size="10.00">common.hpp</text>
</a>
</g>
</g>
<!-- Node4&#45;&gt;Node5 -->
<g id="edge5" class="edge">
<title>Node4&#45;&gt;Node5</title>
<path fill="none" stroke="midnightblue" d="M201.68,-112.4C202.35,-104.47 203.19,-94.46 203.92,-85.86"/>
<polygon fill="midnightblue" stroke="midnightblue" points="207.42,-85.92 204.77,-75.66 200.45,-85.33 207.42,-85.92"/>
</g>
<!-- Node5&#45;&gt;Node3 -->
<g id="edge6" class="edge">
<title>Node5&#45;&gt;Node3</title>
<path fill="none" stroke="midnightblue" d="M194.57,-56.32C184.33,-48.18 168.78,-35.84 156.5,-26.09"/>
<polygon fill="midnightblue" stroke="midnightblue" points="158.63,-23.31 148.62,-19.83 154.28,-28.79 158.63,-23.31"/>
</g>
<!-- Node6 -->
<g id="node6" class="node">
<title>Node6</title>
<g id="a_node6"><a xlink:title=" ">
<polygon fill="white" stroke="#bfbfbf" points="178.5,-0.5 178.5,-19.5 228.5,-19.5 228.5,-0.5 178.5,-0.5"/>
<text text-anchor="middle" x="203.5" y="-7.5" font-family="Helvetica,sans-Serif" font-size="10.00">cstring</text>
</a>
</g>
</g>
<!-- Node5&#45;&gt;Node6 -->
<g id="edge7" class="edge">
<title>Node5&#45;&gt;Node6</title>
<path fill="none" stroke="midnightblue" d="M205.17,-56.08C204.91,-49.01 204.53,-38.86 204.2,-29.99"/>
<polygon fill="midnightblue" stroke="midnightblue" points="207.69,-29.61 203.82,-19.75 200.7,-29.87 207.69,-29.61"/>
</g>
<!-- Node7 -->
<g id="node7" class="node">
<title>Node7</title>
<g id="a_node7"><a xlink:title=" ">
<polygon fill="white" stroke="#bfbfbf" points="247,-0.5 247,-19.5 320,-19.5 320,-0.5 247,-0.5"/>
<text text-anchor="middle" x="283.5" y="-7.5" font-family="Helvetica,sans-Serif" font-size="10.00">string_view</text>
</a>
</g>
</g>
<!-- Node5&#45;&gt;Node7 -->
<g id="edge8" class="edge">
<title>Node5&#45;&gt;Node7</title>
<path fill="none" stroke="midnightblue" d="M218.03,-56.32C230.09,-47.98 248.53,-35.21 262.77,-25.35"/>
<polygon fill="midnightblue" stroke="midnightblue" points="264.77,-28.22 271,-19.65 260.78,-22.47 264.77,-28.22"/>
</g>
</g>
</svg>
