<?xml version="1.0" encoding="UTF-8" standalone="no"?>
<!DOCTYPE svg PUBLIC "-//W3C//DTD SVG 1.1//EN"
 "http://www.w3.org/Graphics/SVG/1.1/DTD/svg11.dtd">
<!-- Generated by graphviz version 2.43.0 (0)
 -->
<!-- Title: container_runtime/src/container_runtime_configuration.cpp Pages: 1 -->
<svg width="438pt" height="274pt"
 viewBox="0.00 0.00 438.00 274.00" xmlns="http://www.w3.org/2000/svg" xmlns:xlink="http://www.w3.org/1999/xlink">
<g id="graph0" class="graph" transform="scale(1 1) rotate(0) translate(4 270)">
<title>container_runtime/src/container_runtime_configuration.cpp</title>
<polygon fill="white" stroke="transparent" points="-4,4 -4,-270 434,-270 434,4 -4,4"/>
<!-- Node1 -->
<g id="node1" class="node">
<title>Node1</title>
<g id="a_node1"><a xlink:title="Implements the factory selector for container runtime path factories.">
<polygon fill="#bfbfbf" stroke="black" points="0,-235.5 0,-265.5 198,-265.5 198,-235.5 0,-235.5"/>
<text text-anchor="start" x="8" y="-253.5" font-family="Helvetica,sans-Serif" font-size="10.00">container_runtime/src</text>
<text text-anchor="middle" x="99" y="-242.5" font-family="Helvetica,sans-Serif" font-size="10.00">/container_runtime_configuration.cpp</text>
</a>
</g>
</g>
<!-- Node2 -->
<g id="node2" class="node">
<title>Node2</title>
<g id="a_node2"><a xlink:href="container__runtime__configuration_8hpp.html" target="_top" xlink:title="Declares the factory selector for container runtime path factories.">
<polygon fill="white" stroke="black" points="64,-179.5 64,-198.5 260,-198.5 260,-179.5 64,-179.5"/>
<text text-anchor="middle" x="162" y="-186.5" font-family="Helvetica,sans-Serif" font-size="10.00">container_runtime_configuration.hpp</text>
</a>
</g>
</g>
<!-- Node1&#45;&gt;Node2 -->
<g id="edge1" class="edge">
<title>Node1&#45;&gt;Node2</title>
<path fill="none" stroke="midnightblue" d="M113.93,-235.4C123.37,-226.49 135.58,-214.95 145.33,-205.74"/>
<polygon fill="midnightblue" stroke="midnightblue" points="147.97,-208.07 152.83,-198.66 143.16,-202.98 147.97,-208.07"/>
</g>
<!-- Node3 -->
<g id="node3" class="node">
<title>Node3</title>
<g id="a_node3"><a xlink:title=" ">
<polygon fill="white" stroke="#bfbfbf" points="46,-118 46,-137 104,-137 104,-118 46,-118"/>
<text text-anchor="middle" x="75" y="-125" font-family="Helvetica,sans-Serif" font-size="10.00">memory</text>
</a>
</g>
</g>
<!-- Node1&#45;&gt;Node3 -->
<g id="edge14" class="edge">
<title>Node1&#45;&gt;Node3</title>
<path fill="none" stroke="midnightblue" d="M81.37,-235.13C71.57,-225.96 60.3,-213.16 55,-199 48.4,-181.38 56.1,-160.59 63.78,-146.18"/>
<polygon fill="midnightblue" stroke="midnightblue" points="66.92,-147.74 68.92,-137.33 60.87,-144.22 66.92,-147.74"/>
</g>
<!-- Node4 -->
<g id="node4" class="node">
<title>Node4</title>
<g id="a_node4"><a xlink:title=" ">
<polygon fill="white" stroke="#bfbfbf" points="134,-0.5 134,-19.5 178,-19.5 178,-0.5 134,-0.5"/>
<text text-anchor="middle" x="156" y="-7.5" font-family="Helvetica,sans-Serif" font-size="10.00">string</text>
</a>
</g>
</g>
<!-- Node1&#45;&gt;Node4 -->
<g id="edge15" class="edge">
<title>Node1&#45;&gt;Node4</title>
<path fill="none" stroke="midnightblue" d="M80.13,-235.09C69.4,-225.91 56.63,-213.11 49,-199 30.43,-164.67 20.6,-147.42 37,-112 55.9,-71.17 100.34,-40.82 129.24,-24.53"/>
<polygon fill="midnightblue" stroke="midnightblue" points="130.92,-27.6 138.03,-19.74 127.57,-21.45 130.92,-27.6"/>
</g>
<!-- Node9 -->
<g id="node9" class="node">
<title>Node9</title>
<g id="a_node9"><a xlink:href="docker__cgroup__v1__path_8hpp.html" target="_top" xlink:title="Declares the DockerCgroupV1PathFactory for Docker cgroup v1 resource paths.">
<polygon fill="white" stroke="black" points="278,-179.5 278,-198.5 430,-198.5 430,-179.5 278,-179.5"/>
<text text-anchor="middle" x="354" y="-186.5" font-family="Helvetica,sans-Serif" font-size="10.00">docker_cgroup_v1_path.hpp</text>
</a>
</g>
</g>
<!-- Node1&#45;&gt;Node9 -->
<g id="edge10" class="edge">
<title>Node1&#45;&gt;Node9</title>
<path fill="none" stroke="midnightblue" d="M159.11,-235.47C204.54,-224.87 266,-210.53 307.66,-200.81"/>
<polygon fill="midnightblue" stroke="midnightblue" points="308.6,-204.19 317.54,-198.51 307.01,-197.37 308.6,-204.19"/>
</g>
<!-- Node2&#45;&gt;Node3 -->
<g id="edge2" class="edge">
<title>Node2&#45;&gt;Node3</title>
<path fill="none" stroke="midnightblue" d="M149.54,-179.48C135.58,-169.93 112.74,-154.31 96.01,-142.87"/>
<polygon fill="midnightblue" stroke="midnightblue" points="97.67,-139.77 87.44,-137.01 93.72,-145.54 97.67,-139.77"/>
</g>
<!-- Node2&#45;&gt;Node4 -->
<g id="edge3" class="edge">
<title>Node2&#45;&gt;Node4</title>
<path fill="none" stroke="midnightblue" d="M161.71,-179.46C160.79,-152.43 157.94,-68.24 156.65,-30.11"/>
<polygon fill="midnightblue" stroke="midnightblue" points="160.14,-29.74 156.3,-19.87 153.14,-29.98 160.14,-29.74"/>
</g>
<!-- Node5 -->
<g id="node5" class="node">
<title>Node5</title>
<g id="a_node5"><a xlink:href="container__runtime__factory__interface_8hpp.html" target="_top" xlink:title="Declares the interface for container runtime path factories.">
<polygon fill="white" stroke="black" points="170,-112.5 170,-142.5 316,-142.5 316,-112.5 170,-112.5"/>
<text text-anchor="start" x="178" y="-130.5" font-family="Helvetica,sans-Serif" font-size="10.00">container_runtime_factory</text>
<text text-anchor="middle" x="243" y="-119.5" font-family="Helvetica,sans-Serif" font-size="10.00">_interface.hpp</text>
</a>
</g>
</g>
<!-- Node2&#45;&gt;Node5 -->
<g id="edge4" class="edge">
<title>Node2&#45;&gt;Node5</title>
<path fill="none" stroke="midnightblue" d="M173.61,-179.48C184.58,-171.42 201.45,-159.02 215.81,-148.47"/>
<polygon fill="midnightblue" stroke="midnightblue" points="217.92,-151.26 223.91,-142.52 213.78,-145.62 217.92,-151.26"/>
</g>
<!-- Node5&#45;&gt;Node4 -->
<g id="edge5" class="edge">
<title>Node5&#45;&gt;Node4</title>
<path fill="none" stroke="midnightblue" d="M229.77,-112.34C220.75,-102.45 208.72,-88.77 199,-76 187.13,-60.41 174.93,-41.65 166.57,-28.3"/>
<polygon fill="midnightblue" stroke="midnightblue" points="169.46,-26.32 161.22,-19.66 163.51,-30.01 169.46,-26.32"/>
</g>
<!-- Node6 -->
<g id="node6" class="node">
<title>Node6</title>
<g id="a_node6"><a xlink:href="common_8hpp.html" target="_top" xlink:title="Common data structures, constants, and configuration for container monitoring.">
<polygon fill="white" stroke="black" points="208,-56.5 208,-75.5 288,-75.5 288,-56.5 208,-56.5"/>
<text text-anchor="middle" x="248" y="-63.5" font-family="Helvetica,sans-Serif" font-size="10.00">common.hpp</text>
</a>
</g>
</g>
<!-- Node5&#45;&gt;Node6 -->
<g id="edge6" class="edge">
<title>Node5&#45;&gt;Node6</title>
<path fill="none" stroke="midnightblue" d="M244.18,-112.4C244.85,-104.47 245.69,-94.46 246.42,-85.86"/>
<polygon fill="midnightblue" stroke="midnightblue" points="249.92,-85.92 247.27,-75.66 242.95,-85.33 249.92,-85.92"/>
</g>
<!-- Node6&#45;&gt;Node4 -->
<g id="edge7" class="edge">
<title>Node6&#45;&gt;Node4</title>
<path fill="none" stroke="midnightblue" d="M233.22,-56.32C218.73,-47.82 196.43,-34.73 179.51,-24.8"/>
<polygon fill="midnightblue" stroke="midnightblue" points="181.14,-21.7 170.74,-19.65 177.6,-27.74 181.14,-21.7"/>
</g>
<!-- Node7 -->
<g id="node7" class="node">
<title>Node7</title>
<g id="a_node7"><a xlink:title=" ">
<polygon fill="white" stroke="#bfbfbf" points="295,-0.5 295,-19.5 345,-19.5 345,-0.5 295,-0.5"/>
<text text-anchor="middle" x="320" y="-7.5" font-family="Helvetica,sans-Serif" font-size="10.00">cstring</text>
</a>
</g>
</g>
<!-- Node6&#45;&gt;Node7 -->
<g id="edge8" class="edge">
<title>Node6&#45;&gt;Node7</title>
<path fill="none" stroke="midnightblue" d="M259.57,-56.32C270.42,-48.18 286.88,-35.84 299.88,-26.09"/>
<polygon fill="midnightblue" stroke="midnightblue" points="302.32,-28.63 308.22,-19.83 298.12,-23.03 302.32,-28.63"/>
</g>
<!-- Node8 -->
<g id="node8" class="node">
<title>Node8</title>
<g id="a_node8"><a xlink:title=" ">
<polygon fill="white" stroke="#bfbfbf" points="203.5,-0.5 203.5,-19.5 276.5,-19.5 276.5,-0.5 203.5,-0.5"/>
<text text-anchor="middle" x="240" y="-7.5" font-family="Helvetica,sans-Serif" font-size="10.00">string_view</text>
</a>
</g>
</g>
<!-- Node6&#45;&gt;Node8 -->
<g id="edge9" class="edge">
<title>Node6&#45;&gt;Node8</title>
<path fill="none" stroke="midnightblue" d="M246.68,-56.08C245.62,-48.93 244.09,-38.64 242.77,-29.69"/>
<polygon fill="midnightblue" stroke="midnightblue" points="246.22,-29.13 241.3,-19.75 239.3,-30.16 246.22,-29.13"/>
</g>
<!-- Node9&#45;&gt;Node5 -->
<g id="edge13" class="edge">
<title>Node9&#45;&gt;Node5</title>
<path fill="none" stroke="midnightblue" d="M338.1,-179.48C322.5,-171.12 298.2,-158.09 278.07,-147.3"/>
<polygon fill="midnightblue" stroke="midnightblue" points="279.63,-144.16 269.16,-142.52 276.32,-150.33 279.63,-144.16"/>
</g>
<!-- Node9&#45;&gt;Node6 -->
<g id="edge12" class="edge">
<title>Node9&#45;&gt;Node6</title>
<path fill="none" stroke="midnightblue" d="M352.58,-179.05C349.76,-163.75 342.17,-132.25 325,-112 313.06,-97.92 295.54,-87.19 280.22,-79.75"/>
<polygon fill="midnightblue" stroke="midnightblue" points="281.59,-76.52 271.04,-75.54 278.67,-82.89 281.59,-76.52"/>
</g>
<!-- Node10 -->
<g id="node10" class="node">
<title>Node10</title>
<g id="a_node10"><a xlink:title=" ">
<polygon fill="white" stroke="#bfbfbf" points="372,-118 372,-137 418,-137 418,-118 372,-118"/>
<text text-anchor="middle" x="395" y="-125" font-family="Helvetica,sans-Serif" font-size="10.00">cstdio</text>
</a>
</g>
</g>
<!-- Node9&#45;&gt;Node10 -->
<g id="edge11" class="edge">
<title>Node9&#45;&gt;Node10</title>
<path fill="none" stroke="midnightblue" d="M359.87,-179.48C365.96,-170.64 375.64,-156.59 383.3,-145.48"/>
<polygon fill="midnightblue" stroke="midnightblue" points="386.34,-147.23 389.14,-137.01 380.58,-143.26 386.34,-147.23"/>
</g>
</g>
</svg>
