<?xml version="1.0" encoding="UTF-8" standalone="no"?>
<!DOCTYPE svg PUBLIC "-//W3C//DTD SVG 1.1//EN"
 "http://www.w3.org/Graphics/SVG/1.1/DTD/svg11.dtd">
<!-- Generated by graphviz version 2.43.0 (0)
 -->
<!-- Title: container_runtime/inc/container_runtime_factory_interface.hpp Pages: 1 -->
<svg width="640pt" height="273pt"
 viewBox="0.00 0.00 639.50 273.00" xmlns="http://www.w3.org/2000/svg" xmlns:xlink="http://www.w3.org/1999/xlink">
<g id="graph0" class="graph" transform="scale(1 1) rotate(0) translate(4 269)">
<title>container_runtime/inc/container_runtime_factory_interface.hpp</title>
<polygon fill="white" stroke="transparent" points="-4,4 -4,-269 635.5,-269 635.5,4 -4,4"/>
<!-- Node1 -->
<g id="node1" class="node">
<title>Node1</title>
<g id="a_node1"><a xlink:title="Declares the interface for container runtime path factories.">
<polygon fill="#bfbfbf" stroke="black" points="220,-223.5 220,-264.5 369,-264.5 369,-223.5 220,-223.5"/>
<text text-anchor="start" x="228" y="-252.5" font-family="Helvetica,sans-Serif" font-size="10.00">container_runtime/inc</text>
<text text-anchor="start" x="228" y="-241.5" font-family="Helvetica,sans-Serif" font-size="10.00">/container_runtime_factory</text>
<text text-anchor="middle" x="294.5" y="-230.5" font-family="Helvetica,sans-Serif" font-size="10.00">_interface.hpp</text>
</a>
</g>
</g>
<!-- Node2 -->
<g id="node2" class="node">
<title>Node2</title>
<g id="a_node2"><a xlink:href="container__runtime__configuration_8hpp.html" target="_top" xlink:title="Declares the factory selector for container runtime path factories.">
<polygon fill="white" stroke="black" points="0,-151 0,-181 199,-181 199,-151 0,-151"/>
<text text-anchor="start" x="8" y="-169" font-family="Helvetica,sans-Serif" font-size="10.00">container_runtime/inc</text>
<text text-anchor="middle" x="99.5" y="-158" font-family="Helvetica,sans-Serif" font-size="10.00">/container_runtime_configuration.hpp</text>
</a>
</g>
</g>
<!-- Node1&#45;&gt;Node2 -->
<g id="edge1" class="edge">
<title>Node1&#45;&gt;Node2</title>
<path fill="none" stroke="midnightblue" d="M234.9,-219.77C202.51,-207.15 163.5,-191.94 135.69,-181.11"/>
<polygon fill="midnightblue" stroke="midnightblue" points="233.69,-223.06 244.28,-223.43 236.24,-216.54 233.69,-223.06"/>
</g>
<!-- Node4 -->
<g id="node4" class="node">
<title>Node4</title>
<g id="a_node4"><a xlink:href="docker__cgroup__v1__path_8hpp.html" target="_top" xlink:title="Declares the DockerCgroupV1PathFactory for Docker cgroup v1 resource paths.">
<polygon fill="white" stroke="black" points="217,-151 217,-181 372,-181 372,-151 217,-151"/>
<text text-anchor="start" x="225" y="-169" font-family="Helvetica,sans-Serif" font-size="10.00">container_runtime/inc</text>
<text text-anchor="middle" x="294.5" y="-158" font-family="Helvetica,sans-Serif" font-size="10.00">/docker_cgroup_v1_path.hpp</text>
</a>
</g>
</g>
<!-- Node1&#45;&gt;Node4 -->
<g id="edge3" class="edge">
<title>Node1&#45;&gt;Node4</title>
<path fill="none" stroke="midnightblue" d="M294.5,-213.28C294.5,-202.25 294.5,-190.25 294.5,-181.23"/>
<polygon fill="midnightblue" stroke="midnightblue" points="291,-213.43 294.5,-223.43 298,-213.43 291,-213.43"/>
</g>
<!-- Node6 -->
<g id="node6" class="node">
<title>Node6</title>
<g id="a_node6"><a xlink:href="resource__thread__pool_8hpp.html" target="_top" xlink:title="Declares the ResourceThreadPool class for parallel container resource monitoring.">
<polygon fill="white" stroke="black" points="390.5,-145.5 390.5,-186.5 506.5,-186.5 506.5,-145.5 390.5,-145.5"/>
<text text-anchor="start" x="398.5" y="-174.5" font-family="Helvetica,sans-Serif" font-size="10.00">monitoring_service</text>
<text text-anchor="start" x="398.5" y="-163.5" font-family="Helvetica,sans-Serif" font-size="10.00">/inc/resource_thread</text>
<text text-anchor="middle" x="448.5" y="-152.5" font-family="Helvetica,sans-Serif" font-size="10.00">_pool.hpp</text>
</a>
</g>
</g>
<!-- Node1&#45;&gt;Node6 -->
<g id="edge6" class="edge">
<title>Node1&#45;&gt;Node6</title>
<path fill="none" stroke="midnightblue" d="M343.32,-218.91C364.49,-208.46 388.97,-196.38 408.98,-186.51"/>
<polygon fill="midnightblue" stroke="midnightblue" points="341.58,-215.86 334.16,-223.43 344.68,-222.14 341.58,-215.86"/>
</g>
<!-- Node3 -->
<g id="node3" class="node">
<title>Node3</title>
<g id="a_node3"><a xlink:href="container__runtime__configuration_8cpp.html" target="_top" xlink:title="Implements the factory selector for container runtime path factories.">
<polygon fill="white" stroke="black" points="10.5,-73 10.5,-103 208.5,-103 208.5,-73 10.5,-73"/>
<text text-anchor="start" x="18.5" y="-91" font-family="Helvetica,sans-Serif" font-size="10.00">container_runtime/src</text>
<text text-anchor="middle" x="109.5" y="-80" font-family="Helvetica,sans-Serif" font-size="10.00">/container_runtime_configuration.cpp</text>
</a>
</g>
</g>
<!-- Node2&#45;&gt;Node3 -->
<g id="edge2" class="edge">
<title>Node2&#45;&gt;Node3</title>
<path fill="none" stroke="midnightblue" d="M102.71,-140.59C104.33,-128.26 106.25,-113.72 107.63,-103.23"/>
<polygon fill="midnightblue" stroke="midnightblue" points="99.22,-140.33 101.38,-150.7 106.16,-141.25 99.22,-140.33"/>
</g>
<!-- Node4&#45;&gt;Node3 -->
<g id="edge4" class="edge">
<title>Node4&#45;&gt;Node3</title>
<path fill="none" stroke="midnightblue" d="M250.8,-147.05C218.05,-133.59 173.87,-115.44 143.68,-103.04"/>
<polygon fill="midnightblue" stroke="midnightblue" points="249.56,-150.32 260.14,-150.88 252.22,-143.85 249.56,-150.32"/>
</g>
<!-- Node5 -->
<g id="node5" class="node">
<title>Node5</title>
<g id="a_node5"><a xlink:href="resource__thread__pool_8cpp.html" target="_top" xlink:title="Implements the ResourceThreadPool class for parallel container resource monitoring.">
<polygon fill="white" stroke="black" points="236.5,-67.5 236.5,-108.5 352.5,-108.5 352.5,-67.5 236.5,-67.5"/>
<text text-anchor="start" x="244.5" y="-96.5" font-family="Helvetica,sans-Serif" font-size="10.00">monitoring_service</text>
<text text-anchor="start" x="244.5" y="-85.5" font-family="Helvetica,sans-Serif" font-size="10.00">/src/resource_thread</text>
<text text-anchor="middle" x="294.5" y="-74.5" font-family="Helvetica,sans-Serif" font-size="10.00">_pool.cpp</text>
</a>
</g>
</g>
<!-- Node4&#45;&gt;Node5 -->
<g id="edge5" class="edge">
<title>Node4&#45;&gt;Node5</title>
<path fill="none" stroke="midnightblue" d="M294.5,-140.66C294.5,-130.33 294.5,-118.44 294.5,-108.68"/>
<polygon fill="midnightblue" stroke="midnightblue" points="291,-140.7 294.5,-150.7 298,-140.71 291,-140.7"/>
</g>
<!-- Node6&#45;&gt;Node5 -->
<g id="edge12" class="edge">
<title>Node6&#45;&gt;Node5</title>
<path fill="none" stroke="midnightblue" d="M399.68,-140.91C378.51,-130.46 354.03,-118.38 334.02,-108.51"/>
<polygon fill="midnightblue" stroke="midnightblue" points="398.32,-144.14 408.84,-145.43 401.42,-137.86 398.32,-144.14"/>
</g>
<!-- Node7 -->
<g id="node7" class="node">
<title>Node7</title>
<g id="a_node7"><a xlink:href="main_8cpp.html" target="_top" xlink:title="Entry point for the Container Monitor application.">
<polygon fill="white" stroke="black" points="389.5,-6 389.5,-25 451.5,-25 451.5,-6 389.5,-6"/>
<text text-anchor="middle" x="420.5" y="-13" font-family="Helvetica,sans-Serif" font-size="10.00">main.cpp</text>
</a>
</g>
</g>
<!-- Node6&#45;&gt;Node7 -->
<g id="edge7" class="edge">
<title>Node6&#45;&gt;Node7</title>
<path fill="none" stroke="midnightblue" d="M418.07,-138.07C410.55,-129.6 403.5,-119.65 399.5,-109 388.32,-79.25 405.93,-41.78 415.28,-25.14"/>
<polygon fill="midnightblue" stroke="midnightblue" points="415.61,-140.56 425.04,-145.41 420.69,-135.74 415.61,-140.56"/>
</g>
<!-- Node8 -->
<g id="node8" class="node">
<title>Node8</title>
<g id="a_node8"><a xlink:href="resource__monitor_8hpp.html" target="_top" xlink:title="Declares the ResourceMonitor class for tracking live containers and managing resource threads.">
<polygon fill="white" stroke="black" points="409,-73 409,-103 552,-103 552,-73 409,-73"/>
<text text-anchor="start" x="417" y="-91" font-family="Helvetica,sans-Serif" font-size="10.00">monitoring_service</text>
<text text-anchor="middle" x="480.5" y="-80" font-family="Helvetica,sans-Serif" font-size="10.00">/inc/resource_monitor.hpp</text>
</a>
</g>
</g>
<!-- Node6&#45;&gt;Node8 -->
<g id="edge8" class="edge">
<title>Node6&#45;&gt;Node8</title>
<path fill="none" stroke="midnightblue" d="M460.73,-135.96C465.45,-124.75 470.63,-112.43 474.51,-103.23"/>
<polygon fill="midnightblue" stroke="midnightblue" points="457.4,-134.85 456.74,-145.43 463.85,-137.57 457.4,-134.85"/>
</g>
<!-- Node9 -->
<g id="node9" class="node">
<title>Node9</title>
<g id="a_node9"><a xlink:href="resource__monitor_8cpp.html" target="_top" xlink:title="Implements the ResourceMonitor class for tracking live containers and managing resource threads.">
<polygon fill="white" stroke="black" points="489.5,-0.5 489.5,-30.5 631.5,-30.5 631.5,-0.5 489.5,-0.5"/>
<text text-anchor="start" x="497.5" y="-18.5" font-family="Helvetica,sans-Serif" font-size="10.00">monitoring_service</text>
<text text-anchor="middle" x="560.5" y="-7.5" font-family="Helvetica,sans-Serif" font-size="10.00">/src/resource_monitor.cpp</text>
</a>
</g>
</g>
<!-- Node6&#45;&gt;Node9 -->
<g id="edge11" class="edge">
<title>Node6&#45;&gt;Node9</title>
<path fill="none" stroke="midnightblue" d="M515.91,-146.21C533.8,-137.82 551.03,-125.87 561.5,-109 576.49,-84.85 570.27,-49.87 565.01,-30.59"/>
<polygon fill="midnightblue" stroke="midnightblue" points="514.3,-143.09 506.52,-150.28 517.09,-149.51 514.3,-143.09"/>
</g>
<!-- Node8&#45;&gt;Node7 -->
<g id="edge9" class="edge">
<title>Node8&#45;&gt;Node7</title>
<path fill="none" stroke="midnightblue" d="M461.68,-64.88C450.32,-51.54 436.46,-35.26 428.07,-25.39"/>
<polygon fill="midnightblue" stroke="midnightblue" points="459.21,-67.39 468.36,-72.73 464.54,-62.85 459.21,-67.39"/>
</g>
<!-- Node8&#45;&gt;Node9 -->
<g id="edge10" class="edge">
<title>Node8&#45;&gt;Node9</title>
<path fill="none" stroke="midnightblue" d="M504.37,-65.96C517.37,-54.5 533.11,-40.64 544.61,-30.5"/>
<polygon fill="midnightblue" stroke="midnightblue" points="501.88,-63.5 496.69,-72.73 506.51,-68.75 501.88,-63.5"/>
</g>
</g>
</svg>
