<?xml version="1.0" encoding="UTF-8" standalone="no"?>
<!DOCTYPE svg PUBLIC "-//W3C//DTD SVG 1.1//EN"
 "http://www.w3.org/Graphics/SVG/1.1/DTD/svg11.dtd">
<!-- Generated by graphviz version 2.43.0 (0)
 -->
<!-- Title: container_runtime/inc/container_runtime_factory_interface.hpp Pages: 1 -->
<svg width="232pt" height="162pt"
 viewBox="0.00 0.00 232.00 162.00" xmlns="http://www.w3.org/2000/svg" xmlns:xlink="http://www.w3.org/1999/xlink">
<g id="graph0" class="graph" transform="scale(1 1) rotate(0) translate(4 158)">
<title>container_runtime/inc/container_runtime_factory_interface.hpp</title>
<polygon fill="white" stroke="transparent" points="-4,4 -4,-158 228,-158 228,4 -4,4"/>
<!-- Node1 -->
<g id="node1" class="node">
<title>Node1</title>
<g id="a_node1"><a xlink:title="Declares the interface for container runtime path factories.">
<polygon fill="#bfbfbf" stroke="black" points="0,-112.5 0,-153.5 149,-153.5 149,-112.5 0,-112.5"/>
<text text-anchor="start" x="8" y="-141.5" font-family="Helvetica,sans-Serif" font-size="10.00">container_runtime/inc</text>
<text text-anchor="start" x="8" y="-130.5" font-family="Helvetica,sans-Serif" font-size="10.00">/container_runtime_factory</text>
<text text-anchor="middle" x="74.5" y="-119.5" font-family="Helvetica,sans-Serif" font-size="10.00">_interface.hpp</text>
</a>
</g>
</g>
<!-- Node2 -->
<g id="node2" class="node">
<title>Node2</title>
<g id="a_node2"><a xlink:title=" ">
<polygon fill="white" stroke="#bfbfbf" points="19.5,-0.5 19.5,-19.5 63.5,-19.5 63.5,-0.5 19.5,-0.5"/>
<text text-anchor="middle" x="41.5" y="-7.5" font-family="Helvetica,sans-Serif" font-size="10.00">string</text>
</a>
</g>
</g>
<!-- Node1&#45;&gt;Node2 -->
<g id="edge1" class="edge">
<title>Node1&#45;&gt;Node2</title>
<path fill="none" stroke="midnightblue" d="M69.12,-112.29C62.87,-89.37 52.64,-51.85 46.54,-29.47"/>
<polygon fill="midnightblue" stroke="midnightblue" points="49.85,-28.3 43.84,-19.57 43.09,-30.14 49.85,-28.3"/>
</g>
<!-- Node3 -->
<g id="node3" class="node">
<title>Node3</title>
<g id="a_node3"><a xlink:href="common_8hpp.html" target="_top" xlink:title="Common data structures, constants, and configuration for container monitoring.">
<polygon fill="white" stroke="black" points="68.5,-56.5 68.5,-75.5 148.5,-75.5 148.5,-56.5 68.5,-56.5"/>
<text text-anchor="middle" x="108.5" y="-63.5" font-family="Helvetica,sans-Serif" font-size="10.00">common.hpp</text>
</a>
</g>
</g>
<!-- Node1&#45;&gt;Node3 -->
<g id="edge2" class="edge">
<title>Node1&#45;&gt;Node3</title>
<path fill="none" stroke="midnightblue" d="M84.7,-112.5C89.31,-103.68 94.72,-93.34 99.22,-84.74"/>
<polygon fill="midnightblue" stroke="midnightblue" points="102.44,-86.14 103.97,-75.65 96.24,-82.89 102.44,-86.14"/>
</g>
<!-- Node3&#45;&gt;Node2 -->
<g id="edge3" class="edge">
<title>Node3&#45;&gt;Node2</title>
<path fill="none" stroke="midnightblue" d="M97.74,-56.32C87.73,-48.26 72.61,-36.08 60.57,-26.37"/>
<polygon fill="midnightblue" stroke="midnightblue" points="62.44,-23.38 52.46,-19.83 58.05,-28.83 62.44,-23.38"/>
</g>
<!-- Node4 -->
<g id="node4" class="node">
<title>Node4</title>
<g id="a_node4"><a xlink:title=" ">
<polygon fill="white" stroke="#bfbfbf" points="82.5,-0.5 82.5,-19.5 132.5,-19.5 132.5,-0.5 82.5,-0.5"/>
<text text-anchor="middle" x="107.5" y="-7.5" font-family="Helvetica,sans-Serif" font-size="10.00">cstring</text>
</a>
</g>
</g>
<!-- Node3&#45;&gt;Node4 -->
<g id="edge4" class="edge">
<title>Node3&#45;&gt;Node4</title>
<path fill="none" stroke="midnightblue" d="M108.33,-56.08C108.2,-49.01 108.02,-38.86 107.85,-29.99"/>
<polygon fill="midnightblue" stroke="midnightblue" points="111.35,-29.68 107.66,-19.75 104.35,-29.81 111.35,-29.68"/>
</g>
<!-- Node5 -->
<g id="node5" class="node">
<title>Node5</title>
<g id="a_node5"><a xlink:title=" ">
<polygon fill="white" stroke="#bfbfbf" points="151,-0.5 151,-19.5 224,-19.5 224,-0.5 151,-0.5"/>
<text text-anchor="middle" x="187.5" y="-7.5" font-family="Helvetica,sans-Serif" font-size="10.00">string_view</text>
</a>
</g>
</g>
<!-- Node3&#45;&gt;Node5 -->
<g id="edge5" class="edge">
<title>Node3&#45;&gt;Node5</title>
<path fill="none" stroke="midnightblue" d="M121.19,-56.32C133.4,-47.98 152.08,-35.21 166.5,-25.35"/>
<polygon fill="midnightblue" stroke="midnightblue" points="168.56,-28.19 174.84,-19.65 164.61,-22.41 168.56,-28.19"/>
</g>
</g>
</svg>
