<?xml version="1.0" encoding="UTF-8" standalone="no"?>
<!DOCTYPE svg PUBLIC "-//W3C//DTD SVG 1.1//EN"
 "http://www.w3.org/Graphics/SVG/1.1/DTD/svg11.dtd">
<!-- Generated by graphviz version 2.43.0 (0)
 -->
<!-- Title: database/inc/database_interface.hpp Pages: 1 -->
<svg width="722pt" height="262pt"
 viewBox="0.00 0.00 721.50 262.00" xmlns="http://www.w3.org/2000/svg" xmlns:xlink="http://www.w3.org/1999/xlink">
<g id="graph0" class="graph" transform="scale(1 1) rotate(0) translate(4 258)">
<title>database/inc/database_interface.hpp</title>
<polygon fill="white" stroke="transparent" points="-4,4 -4,-258 717.5,-258 717.5,4 -4,4"/>
<!-- Node1 -->
<g id="node1" class="node">
<title>Node1</title>
<g id="a_node1"><a xlink:title="Declares the abstract interface for database operations in container monitoring.">
<polygon fill="#bfbfbf" stroke="black" points="318,-223.5 318,-253.5 445,-253.5 445,-223.5 318,-223.5"/>
<text text-anchor="start" x="326" y="-241.5" font-family="Helvetica,sans-Serif" font-size="10.00">database/inc/database</text>
<text text-anchor="middle" x="381.5" y="-230.5" font-family="Helvetica,sans-Serif" font-size="10.00">_interface.hpp</text>
</a>
</g>
</g>
<!-- Node2 -->
<g id="node2" class="node">
<title>Node2</title>
<g id="a_node2"><a xlink:href="sqlite__database_8hpp.html" target="_top" xlink:title="Declares the SQLiteDatabase class for SQLite&#45;based database operations.">
<polygon fill="white" stroke="black" points="83,-151 83,-181 192,-181 192,-151 83,-151"/>
<text text-anchor="start" x="91" y="-169" font-family="Helvetica,sans-Serif" font-size="10.00">database/inc/sqlite</text>
<text text-anchor="middle" x="137.5" y="-158" font-family="Helvetica,sans-Serif" font-size="10.00">_database.hpp</text>
</a>
</g>
</g>
<!-- Node1&#45;&gt;Node2 -->
<g id="edge1" class="edge">
<title>Node1&#45;&gt;Node2</title>
<path fill="none" stroke="midnightblue" d="M323.23,-220.66C281.45,-208.59 225.78,-192.51 186.32,-181.11"/>
<polygon fill="midnightblue" stroke="midnightblue" points="322.42,-224.07 333,-223.49 324.37,-217.35 322.42,-224.07"/>
</g>
<!-- Node5 -->
<g id="node5" class="node">
<title>Node5</title>
<g id="a_node5"><a xlink:href="event__processor_8hpp.html" target="_top" xlink:title="Declares the EventProcessor class for processing container events and host metrics.">
<polygon fill="white" stroke="black" points="263,-151 263,-181 400,-181 400,-151 263,-151"/>
<text text-anchor="start" x="271" y="-169" font-family="Helvetica,sans-Serif" font-size="10.00">monitoring_service</text>
<text text-anchor="middle" x="331.5" y="-158" font-family="Helvetica,sans-Serif" font-size="10.00">/inc/event_processor.hpp</text>
</a>
</g>
</g>
<!-- Node1&#45;&gt;Node5 -->
<g id="edge4" class="edge">
<title>Node1&#45;&gt;Node5</title>
<path fill="none" stroke="midnightblue" d="M365.46,-214.89C357.63,-203.84 348.44,-190.89 341.6,-181.25"/>
<polygon fill="midnightblue" stroke="midnightblue" points="362.74,-217.1 371.38,-223.23 368.45,-213.05 362.74,-217.1"/>
</g>
<!-- Node7 -->
<g id="node7" class="node">
<title>Node7</title>
<g id="a_node7"><a xlink:href="resource__monitor_8hpp.html" target="_top" xlink:title="Declares the ResourceMonitor class for tracking live containers and managing resource threads.">
<polygon fill="white" stroke="black" points="360,-73 360,-103 503,-103 503,-73 360,-73"/>
<text text-anchor="start" x="368" y="-91" font-family="Helvetica,sans-Serif" font-size="10.00">monitoring_service</text>
<text text-anchor="middle" x="431.5" y="-80" font-family="Helvetica,sans-Serif" font-size="10.00">/inc/resource_monitor.hpp</text>
</a>
</g>
</g>
<!-- Node1&#45;&gt;Node7 -->
<g id="edge7" class="edge">
<title>Node1&#45;&gt;Node7</title>
<path fill="none" stroke="midnightblue" d="M396.01,-214.6C400.86,-206.18 405.93,-196.39 409.5,-187 420.41,-158.32 426.72,-122.75 429.59,-103.33"/>
<polygon fill="midnightblue" stroke="midnightblue" points="392.85,-213.06 390.73,-223.44 398.86,-216.66 392.85,-213.06"/>
</g>
<!-- Node9 -->
<g id="node9" class="node">
<title>Node9</title>
<g id="a_node9"><a xlink:href="resource__thread__pool_8hpp.html" target="_top" xlink:title="Declares the ResourceThreadPool class for parallel container resource monitoring.">
<polygon fill="white" stroke="black" points="473.5,-145.5 473.5,-186.5 589.5,-186.5 589.5,-145.5 473.5,-145.5"/>
<text text-anchor="start" x="481.5" y="-174.5" font-family="Helvetica,sans-Serif" font-size="10.00">monitoring_service</text>
<text text-anchor="start" x="481.5" y="-163.5" font-family="Helvetica,sans-Serif" font-size="10.00">/inc/resource_thread</text>
<text text-anchor="middle" x="531.5" y="-152.5" font-family="Helvetica,sans-Serif" font-size="10.00">_pool.hpp</text>
</a>
</g>
</g>
<!-- Node1&#45;&gt;Node9 -->
<g id="edge10" class="edge">
<title>Node1&#45;&gt;Node9</title>
<path fill="none" stroke="midnightblue" d="M420.59,-219.13C441.88,-209.12 468.24,-196.73 489.91,-186.55"/>
<polygon fill="midnightblue" stroke="midnightblue" points="419.06,-215.98 411.49,-223.4 422.03,-222.32 419.06,-215.98"/>
</g>
<!-- Node3 -->
<g id="node3" class="node">
<title>Node3</title>
<g id="a_node3"><a xlink:href="sqlite__database_8cpp.html" target="_top" xlink:title="Implements the SQLiteDatabase class for SQLite&#45;based database operations.">
<polygon fill="white" stroke="black" points="0,-73 0,-103 109,-103 109,-73 0,-73"/>
<text text-anchor="start" x="8" y="-91" font-family="Helvetica,sans-Serif" font-size="10.00">database/src/sqlite</text>
<text text-anchor="middle" x="54.5" y="-80" font-family="Helvetica,sans-Serif" font-size="10.00">_database.cpp</text>
</a>
</g>
</g>
<!-- Node2&#45;&gt;Node3 -->
<g id="edge2" class="edge">
<title>Node2&#45;&gt;Node3</title>
<path fill="none" stroke="midnightblue" d="M114.45,-143.89C100.29,-130.93 82.54,-114.68 70.04,-103.23"/>
<polygon fill="midnightblue" stroke="midnightblue" points="112.15,-146.53 121.89,-150.7 116.88,-141.37 112.15,-146.53"/>
</g>
<!-- Node4 -->
<g id="node4" class="node">
<title>Node4</title>
<g id="a_node4"><a xlink:href="main_8cpp.html" target="_top" xlink:title="Entry point for the Container Monitor application.">
<polygon fill="white" stroke="black" points="350.5,-6 350.5,-25 412.5,-25 412.5,-6 350.5,-6"/>
<text text-anchor="middle" x="381.5" y="-13" font-family="Helvetica,sans-Serif" font-size="10.00">main.cpp</text>
</a>
</g>
</g>
<!-- Node2&#45;&gt;Node4 -->
<g id="edge3" class="edge">
<title>Node2&#45;&gt;Node4</title>
<path fill="none" stroke="midnightblue" d="M135.31,-140.57C134.74,-118.42 137.7,-86.36 156.5,-67 183.07,-39.64 294.69,-25.04 350.07,-19.35"/>
<polygon fill="midnightblue" stroke="midnightblue" points="131.83,-141.03 135.84,-150.84 138.82,-140.67 131.83,-141.03"/>
</g>
<!-- Node5&#45;&gt;Node4 -->
<g id="edge5" class="edge">
<title>Node5&#45;&gt;Node4</title>
<path fill="none" stroke="midnightblue" d="M334.12,-141.02C336.86,-120.78 342.11,-91.3 351.5,-67 357.53,-51.4 368.14,-35.06 375,-25.33"/>
<polygon fill="midnightblue" stroke="midnightblue" points="330.64,-140.6 332.87,-150.95 337.59,-141.47 330.64,-140.6"/>
</g>
<!-- Node6 -->
<g id="node6" class="node">
<title>Node6</title>
<g id="a_node6"><a xlink:href="event__processor_8cpp.html" target="_top" xlink:title="Implements the EventProcessor class for processing container events and host metrics.">
<polygon fill="white" stroke="black" points="166,-73 166,-103 303,-103 303,-73 166,-73"/>
<text text-anchor="start" x="174" y="-91" font-family="Helvetica,sans-Serif" font-size="10.00">monitoring_service</text>
<text text-anchor="middle" x="234.5" y="-80" font-family="Helvetica,sans-Serif" font-size="10.00">/src/event_processor.cpp</text>
</a>
</g>
</g>
<!-- Node5&#45;&gt;Node6 -->
<g id="edge6" class="edge">
<title>Node5&#45;&gt;Node6</title>
<path fill="none" stroke="midnightblue" d="M305.02,-144.25C288.4,-131.23 267.41,-114.78 252.66,-103.23"/>
<polygon fill="midnightblue" stroke="midnightblue" points="303.22,-147.29 313.26,-150.7 307.54,-141.78 303.22,-147.29"/>
</g>
<!-- Node7&#45;&gt;Node4 -->
<g id="edge8" class="edge">
<title>Node7&#45;&gt;Node4</title>
<path fill="none" stroke="midnightblue" d="M415.55,-64.51C406.13,-51.23 394.74,-35.16 387.81,-25.39"/>
<polygon fill="midnightblue" stroke="midnightblue" points="412.74,-66.6 421.38,-72.73 418.45,-62.55 412.74,-66.6"/>
</g>
<!-- Node8 -->
<g id="node8" class="node">
<title>Node8</title>
<g id="a_node8"><a xlink:href="resource__monitor_8cpp.html" target="_top" xlink:title="Implements the ResourceMonitor class for tracking live containers and managing resource threads.">
<polygon fill="white" stroke="black" points="464.5,-0.5 464.5,-30.5 606.5,-30.5 606.5,-0.5 464.5,-0.5"/>
<text text-anchor="start" x="472.5" y="-18.5" font-family="Helvetica,sans-Serif" font-size="10.00">monitoring_service</text>
<text text-anchor="middle" x="535.5" y="-7.5" font-family="Helvetica,sans-Serif" font-size="10.00">/src/resource_monitor.cpp</text>
</a>
</g>
</g>
<!-- Node7&#45;&gt;Node8 -->
<g id="edge9" class="edge">
<title>Node7&#45;&gt;Node8</title>
<path fill="none" stroke="midnightblue" d="M461.11,-66.93C478.27,-55.29 499.47,-40.92 514.84,-30.5"/>
<polygon fill="midnightblue" stroke="midnightblue" points="458.86,-64.23 452.55,-72.73 462.79,-70.02 458.86,-64.23"/>
</g>
<!-- Node9&#45;&gt;Node4 -->
<g id="edge11" class="edge">
<title>Node9&#45;&gt;Node4</title>
<path fill="none" stroke="midnightblue" d="M532.95,-135.23C532.42,-113.96 528.3,-85.87 512.5,-67 499.35,-51.3 447.05,-34.46 412.64,-24.73"/>
<polygon fill="midnightblue" stroke="midnightblue" points="529.45,-135.36 532.96,-145.36 536.45,-135.36 529.45,-135.36"/>
</g>
<!-- Node9&#45;&gt;Node7 -->
<g id="edge12" class="edge">
<title>Node9&#45;&gt;Node7</title>
<path fill="none" stroke="midnightblue" d="M497.72,-139.32C481.86,-127.27 463.55,-113.36 450.22,-103.23"/>
<polygon fill="midnightblue" stroke="midnightblue" points="495.67,-142.16 505.75,-145.43 499.9,-136.59 495.67,-142.16"/>
</g>
<!-- Node9&#45;&gt;Node8 -->
<g id="edge13" class="edge">
<title>Node9&#45;&gt;Node8</title>
<path fill="none" stroke="midnightblue" d="M540.32,-135.45C542.46,-126.99 544.43,-117.7 545.5,-109 547.78,-90.47 547.32,-85.58 545.5,-67 544.28,-54.55 541.4,-40.61 539.05,-30.54"/>
<polygon fill="midnightblue" stroke="midnightblue" points="536.9,-134.7 537.69,-145.27 543.66,-136.51 536.9,-134.7"/>
</g>
<!-- Node10 -->
<g id="node10" class="node">
<title>Node10</title>
<g id="a_node10"><a xlink:href="resource__thread__pool_8cpp.html" target="_top" xlink:title="Implements the ResourceThreadPool class for parallel container resource monitoring.">
<polygon fill="white" stroke="black" points="597.5,-67.5 597.5,-108.5 713.5,-108.5 713.5,-67.5 597.5,-67.5"/>
<text text-anchor="start" x="605.5" y="-96.5" font-family="Helvetica,sans-Serif" font-size="10.00">monitoring_service</text>
<text text-anchor="start" x="605.5" y="-85.5" font-family="Helvetica,sans-Serif" font-size="10.00">/src/resource_thread</text>
<text text-anchor="middle" x="655.5" y="-74.5" font-family="Helvetica,sans-Serif" font-size="10.00">_pool.cpp</text>
</a>
</g>
</g>
<!-- Node9&#45;&gt;Node10 -->
<g id="edge14" class="edge">
<title>Node9&#45;&gt;Node10</title>
<path fill="none" stroke="midnightblue" d="M572.42,-139.92C589.09,-129.7 608.07,-118.07 623.68,-108.51"/>
<polygon fill="midnightblue" stroke="midnightblue" points="570.13,-137.22 563.43,-145.43 573.79,-143.19 570.13,-137.22"/>
</g>
</g>
</svg>
