<?xml version="1.0" encoding="UTF-8" standalone="no"?>
<!DOCTYPE svg PUBLIC "-//W3C//DTD SVG 1.1//EN"
 "http://www.w3.org/Graphics/SVG/1.1/DTD/svg11.dtd">
<!-- Generated by graphviz version 2.43.0 (0)
 -->
<!-- Title: monitoring_service/src Pages: 1 -->
<svg width="286pt" height="295pt"
 viewBox="0.00 0.00 286.13 295.00" xmlns="http://www.w3.org/2000/svg" xmlns:xlink="http://www.w3.org/1999/xlink">
<g id="graph0" class="graph" transform="scale(1 1) rotate(0) translate(4 291)">
<title>monitoring_service/src</title>
<polygon fill="white" stroke="transparent" points="-4,4 -4,-291 282.13,-291 282.13,4 -4,4"/>
<g id="clust1" class="cluster">
<title>clusterdir_482341060f0705f23db581d5f413eb3b</title>
<g id="a_clust1"><a xlink:href="dir_482341060f0705f23db581d5f413eb3b.html" target="_top" xlink:title="monitoring_service">
<polygon fill="#ddddee" stroke="black" points="74.63,-208 74.63,-279 184.63,-279 184.63,-208 74.63,-208"/>
<text text-anchor="middle" x="129.63" y="-267" font-family="Helvetica,sans-Serif" font-size="10.00">monitoring_service</text>
</a>
</g>
</g>
<!-- dir_d2b0d39f4daa843fec6300153d95e9a5 -->
<g id="node1" class="node">
<title>dir_d2b0d39f4daa843fec6300153d95e9a5</title>
<g id="a_node1"><a xlink:href="dir_d2b0d39f4daa843fec6300153d95e9a5.html" target="_top" xlink:title="src">
<polygon fill="#eeeeff" stroke="black" points="156.63,-252 102.63,-252 102.63,-216 156.63,-216 156.63,-252"/>
<text text-anchor="middle" x="129.63" y="-231.5" font-family="Helvetica,sans-Serif" font-size="10.00">src</text>
</a>
</g>
</g>
<!-- dir_f693d27b753d55f33526142599f106a5 -->
<g id="node2" class="node">
<title>dir_f693d27b753d55f33526142599f106a5</title>
<g id="a_node2"><a xlink:href="dir_f693d27b753d55f33526142599f106a5.html" target="_top" xlink:title="inc">
<polygon fill="none" stroke="black" points="82.63,-180 28.63,-180 28.63,-144 82.63,-144 82.63,-180"/>
<text text-anchor="middle" x="55.63" y="-159.5" font-family="Helvetica,sans-Serif" font-size="10.00">inc</text>
</a>
</g>
</g>
<!-- dir_d2b0d39f4daa843fec6300153d95e9a5&#45;&gt;dir_f693d27b753d55f33526142599f106a5 -->
<g id="edge5" class="edge">
<title>dir_d2b0d39f4daa843fec6300153d95e9a5&#45;&gt;dir_f693d27b753d55f33526142599f106a5</title>
<path fill="none" stroke="black" d="M111.34,-215.7C102.2,-207.05 90.99,-196.45 81.03,-187.03"/>
<polygon fill="black" stroke="black" points="83.38,-184.43 73.71,-180.1 78.57,-189.52 83.38,-184.43"/>
<g id="a_edge5&#45;headlabel"><a xlink:href="dir_000018_000017.html" target="_top" xlink:title="6">
<text text-anchor="middle" x="87.94" y="-182.34" font-family="Helvetica,sans-Serif" font-size="10.00">6</text>
</a>
</g>
</g>
<!-- dir_cbdb8362360e11eafe2fa3bc74cf0ffd -->
<g id="node3" class="node">
<title>dir_cbdb8362360e11eafe2fa3bc74cf0ffd</title>
<g id="a_node3"><a xlink:href="dir_cbdb8362360e11eafe2fa3bc74cf0ffd.html" target="_top" xlink:title="utils">
<polygon fill="white" stroke="red" points="134.63,-36 80.63,-36 80.63,0 134.63,0 134.63,-36"/>
<text text-anchor="middle" x="107.63" y="-15.5" font-family="Helvetica,sans-Serif" font-size="10.00">utils</text>
</a>
</g>
</g>
<!-- dir_d2b0d39f4daa843fec6300153d95e9a5&#45;&gt;dir_cbdb8362360e11eafe2fa3bc74cf0ffd -->
<g id="edge6" class="edge">
<title>dir_d2b0d39f4daa843fec6300153d95e9a5&#45;&gt;dir_cbdb8362360e11eafe2fa3bc74cf0ffd</title>
<path fill="none" stroke="black" d="M131.8,-215.86C135.09,-186.21 139.9,-123.54 129.63,-72 127.84,-63.01 124.49,-53.64 120.94,-45.32"/>
<polygon fill="black" stroke="black" points="124.09,-43.77 116.76,-36.12 117.71,-46.67 124.09,-43.77"/>
<g id="a_edge6&#45;headlabel"><a xlink:href="dir_000018_000022.html" target="_top" xlink:title="6">
<text text-anchor="middle" x="128.16" y="-43.37" font-family="Helvetica,sans-Serif" font-size="10.00">6</text>
</a>
</g>
</g>
<!-- dir_b91396c56c4ed290d3e98181f0f8d8f6 -->
<g id="node4" class="node">
<title>dir_b91396c56c4ed290d3e98181f0f8d8f6</title>
<g id="a_node4"><a xlink:href="dir_b91396c56c4ed290d3e98181f0f8d8f6.html" target="_top" xlink:title="metrics_analyzer">
<polygon fill="white" stroke="red" points="278.13,-180 177.13,-180 177.13,-144 278.13,-144 278.13,-180"/>
<text text-anchor="middle" x="227.63" y="-159.5" font-family="Helvetica,sans-Serif" font-size="10.00">metrics_analyzer</text>
</a>
</g>
</g>
<!-- dir_d2b0d39f4daa843fec6300153d95e9a5&#45;&gt;dir_b91396c56c4ed290d3e98181f0f8d8f6 -->
<g id="edge7" class="edge">
<title>dir_d2b0d39f4daa843fec6300153d95e9a5&#45;&gt;dir_b91396c56c4ed290d3e98181f0f8d8f6</title>
<path fill="none" stroke="black" d="M153.6,-215.88C166.18,-206.89 181.76,-195.76 195.38,-186.03"/>
<polygon fill="black" stroke="black" points="197.46,-188.85 203.56,-180.19 193.39,-183.15 197.46,-188.85"/>
<g id="a_edge7&#45;headlabel"><a xlink:href="dir_000018_000013.html" target="_top" xlink:title="2">
<text text-anchor="middle" x="196.19" y="-190.75" font-family="Helvetica,sans-Serif" font-size="10.00">2</text>
</a>
</g>
</g>
<!-- dir_76f7b3dfdf7ef58b4071a3457cb3eaa1 -->
<g id="node5" class="node">
<title>dir_76f7b3dfdf7ef58b4071a3457cb3eaa1</title>
<g id="a_node5"><a xlink:href="dir_76f7b3dfdf7ef58b4071a3457cb3eaa1.html" target="_top" xlink:title="container_runtime">
<polygon fill="white" stroke="red" points="120.63,-108 14.63,-108 14.63,-72 120.63,-72 120.63,-108"/>
<text text-anchor="middle" x="67.63" y="-87.5" font-family="Helvetica,sans-Serif" font-size="10.00">container_runtime</text>
</a>
</g>
</g>
<!-- dir_d2b0d39f4daa843fec6300153d95e9a5&#45;&gt;dir_76f7b3dfdf7ef58b4071a3457cb3eaa1 -->
<g id="edge8" class="edge">
<title>dir_d2b0d39f4daa843fec6300153d95e9a5&#45;&gt;dir_76f7b3dfdf7ef58b4071a3457cb3eaa1</title>
<path fill="none" stroke="black" d="M122.45,-215.89C114.89,-197.94 102.59,-168.91 91.63,-144 87.79,-135.27 83.51,-125.76 79.65,-117.25"/>
<polygon fill="black" stroke="black" points="82.84,-115.79 75.51,-108.14 76.46,-118.7 82.84,-115.79"/>
<g id="a_edge8&#45;headlabel"><a xlink:href="dir_000018_000007.html" target="_top" xlink:title="1">
<text text-anchor="middle" x="86.91" y="-115.39" font-family="Helvetica,sans-Serif" font-size="10.00">1</text>
</a>
</g>
</g>
<!-- dir_f693d27b753d55f33526142599f106a5&#45;&gt;dir_cbdb8362360e11eafe2fa3bc74cf0ffd -->
<g id="edge1" class="edge">
<title>dir_f693d27b753d55f33526142599f106a5&#45;&gt;dir_cbdb8362360e11eafe2fa3bc74cf0ffd</title>
<path fill="none" stroke="black" d="M33.03,-143.96C22.57,-134.63 11.23,-122.11 5.63,-108 -0.28,-93.13 -2.68,-85.68 5.63,-72 19.71,-48.82 47.58,-35.32 70.64,-27.75"/>
<polygon fill="black" stroke="black" points="71.94,-31.01 80.49,-24.76 69.91,-24.31 71.94,-31.01"/>
<g id="a_edge1&#45;headlabel"><a xlink:href="dir_000017_000022.html" target="_top" xlink:title="3">
<text text-anchor="middle" x="69.32" y="-32.27" font-family="Helvetica,sans-Serif" font-size="10.00">3</text>
</a>
</g>
</g>
<!-- dir_f693d27b753d55f33526142599f106a5&#45;&gt;dir_76f7b3dfdf7ef58b4071a3457cb3eaa1 -->
<g id="edge2" class="edge">
<title>dir_f693d27b753d55f33526142599f106a5&#45;&gt;dir_76f7b3dfdf7ef58b4071a3457cb3eaa1</title>
<path fill="none" stroke="black" d="M58.6,-143.7C59.92,-135.98 61.51,-126.71 62.98,-118.11"/>
<polygon fill="black" stroke="black" points="66.46,-118.55 64.7,-108.1 59.56,-117.37 66.46,-118.55"/>
<g id="a_edge2&#45;headlabel"><a xlink:href="dir_000017_000007.html" target="_top" xlink:title="1">
<text text-anchor="middle" x="68.65" y="-120.07" font-family="Helvetica,sans-Serif" font-size="10.00">1</text>
</a>
</g>
</g>
<!-- dir_b91396c56c4ed290d3e98181f0f8d8f6&#45;&gt;dir_cbdb8362360e11eafe2fa3bc74cf0ffd -->
<g id="edge3" class="edge">
<title>dir_b91396c56c4ed290d3e98181f0f8d8f6&#45;&gt;dir_cbdb8362360e11eafe2fa3bc74cf0ffd</title>
<path fill="none" stroke="black" d="M216.47,-143.94C204.13,-125.52 183.26,-95.65 162.63,-72 153.98,-62.09 143.77,-51.9 134.52,-43.13"/>
<polygon fill="black" stroke="black" points="136.72,-40.4 127.02,-36.14 131.95,-45.52 136.72,-40.4"/>
<g id="a_edge3&#45;headlabel"><a xlink:href="dir_000013_000022.html" target="_top" xlink:title="2">
<text text-anchor="middle" x="141.29" y="-38.27" font-family="Helvetica,sans-Serif" font-size="10.00">2</text>
</a>
</g>
</g>
<!-- dir_76f7b3dfdf7ef58b4071a3457cb3eaa1&#45;&gt;dir_cbdb8362360e11eafe2fa3bc74cf0ffd -->
<g id="edge4" class="edge">
<title>dir_76f7b3dfdf7ef58b4071a3457cb3eaa1&#45;&gt;dir_cbdb8362360e11eafe2fa3bc74cf0ffd</title>
<path fill="none" stroke="black" d="M77.52,-71.7C82.12,-63.64 87.69,-53.89 92.78,-44.98"/>
<polygon fill="black" stroke="black" points="95.93,-46.52 97.86,-36.1 89.86,-43.05 95.93,-46.52"/>
<g id="a_edge4&#45;headlabel"><a xlink:href="dir_000007_000022.html" target="_top" xlink:title="2">
<text text-anchor="middle" x="96.61" y="-48.55" font-family="Helvetica,sans-Serif" font-size="10.00">2</text>
</a>
</g>
</g>
</g>
</svg>
