<?xml version="1.0" encoding="UTF-8" standalone="no"?>
<!DOCTYPE svg PUBLIC "-//W3C//DTD SVG 1.1//EN"
 "http://www.w3.org/Graphics/SVG/1.1/DTD/svg11.dtd">
<!-- Generated by graphviz version 2.43.0 (0)
 -->
<!-- Title: monitoring_service/inc Pages: 1 -->
<svg width="208pt" height="223pt"
 viewBox="0.00 0.00 208.02 223.00" xmlns="http://www.w3.org/2000/svg" xmlns:xlink="http://www.w3.org/1999/xlink">
<g id="graph0" class="graph" transform="scale(1 1) rotate(0) translate(4 219)">
<title>monitoring_service/inc</title>
<polygon fill="white" stroke="transparent" points="-4,4 -4,-219 204.02,-219 204.02,4 -4,4"/>
<g id="clust1" class="cluster">
<title>clusterdir_482341060f0705f23db581d5f413eb3b</title>
<g id="a_clust1"><a xlink:href="dir_482341060f0705f23db581d5f413eb3b.html" target="_top" xlink:title="monitoring_service">
<polygon fill="#ddddee" stroke="black" points="12.02,-136 12.02,-207 122.02,-207 122.02,-136 12.02,-136"/>
<text text-anchor="middle" x="67.02" y="-195" font-family="Helvetica,sans-Serif" font-size="10.00">monitoring_service</text>
</a>
</g>
</g>
<!-- dir_f693d27b753d55f33526142599f106a5 -->
<g id="node1" class="node">
<title>dir_f693d27b753d55f33526142599f106a5</title>
<g id="a_node1"><a xlink:href="dir_f693d27b753d55f33526142599f106a5.html" target="_top" xlink:title="inc">
<polygon fill="#eeeeff" stroke="black" points="94.02,-180 40.02,-180 40.02,-144 94.02,-144 94.02,-180"/>
<text text-anchor="middle" x="67.02" y="-159.5" font-family="Helvetica,sans-Serif" font-size="10.00">inc</text>
</a>
</g>
</g>
<!-- dir_cbdb8362360e11eafe2fa3bc74cf0ffd -->
<g id="node2" class="node">
<title>dir_cbdb8362360e11eafe2fa3bc74cf0ffd</title>
<g id="a_node2"><a xlink:href="dir_cbdb8362360e11eafe2fa3bc74cf0ffd.html" target="_top" xlink:title="utils">
<polygon fill="white" stroke="red" points="94.02,-36 40.02,-36 40.02,0 94.02,0 94.02,-36"/>
<text text-anchor="middle" x="67.02" y="-15.5" font-family="Helvetica,sans-Serif" font-size="10.00">utils</text>
</a>
</g>
</g>
<!-- dir_f693d27b753d55f33526142599f106a5&#45;&gt;dir_cbdb8362360e11eafe2fa3bc74cf0ffd -->
<g id="edge1" class="edge">
<title>dir_f693d27b753d55f33526142599f106a5&#45;&gt;dir_cbdb8362360e11eafe2fa3bc74cf0ffd</title>
<path fill="none" stroke="black" d="M39.79,-145.54C26.67,-136.46 12.25,-123.69 5.02,-108 -1.67,-93.47 -1.67,-86.53 5.02,-72 10.78,-59.5 21.11,-48.85 31.7,-40.44"/>
<polygon fill="black" stroke="black" points="33.83,-43.23 39.79,-34.46 29.67,-37.6 33.83,-43.23"/>
<g id="a_edge1&#45;headlabel"><a xlink:href="dir_000017_000022.html" target="_top" xlink:title="3">
<text text-anchor="middle" x="32.63" y="-45.15" font-family="Helvetica,sans-Serif" font-size="10.00">3</text>
</a>
</g>
</g>
<!-- dir_76f7b3dfdf7ef58b4071a3457cb3eaa1 -->
<g id="node3" class="node">
<title>dir_76f7b3dfdf7ef58b4071a3457cb3eaa1</title>
<g id="a_node3"><a xlink:href="dir_76f7b3dfdf7ef58b4071a3457cb3eaa1.html" target="_top" xlink:title="container_runtime">
<polygon fill="white" stroke="red" points="120.02,-108 14.02,-108 14.02,-72 120.02,-72 120.02,-108"/>
<text text-anchor="middle" x="67.02" y="-87.5" font-family="Helvetica,sans-Serif" font-size="10.00">container_runtime</text>
</a>
</g>
</g>
<!-- dir_f693d27b753d55f33526142599f106a5&#45;&gt;dir_76f7b3dfdf7ef58b4071a3457cb3eaa1 -->
<g id="edge2" class="edge">
<title>dir_f693d27b753d55f33526142599f106a5&#45;&gt;dir_76f7b3dfdf7ef58b4071a3457cb3eaa1</title>
<path fill="none" stroke="black" d="M67.02,-143.7C67.02,-135.98 67.02,-126.71 67.02,-118.11"/>
<polygon fill="black" stroke="black" points="70.52,-118.1 67.02,-108.1 63.52,-118.1 70.52,-118.1"/>
<g id="a_edge2&#45;headlabel"><a xlink:href="dir_000017_000007.html" target="_top" xlink:title="1">
<text text-anchor="middle" x="73.36" y="-119.2" font-family="Helvetica,sans-Serif" font-size="10.00">1</text>
</a>
</g>
</g>
<!-- dir_f32c53f2c0f0ccaeb11076e30674d5f4 -->
<g id="node4" class="node">
<title>dir_f32c53f2c0f0ccaeb11076e30674d5f4</title>
<g id="a_node4"><a xlink:href="dir_f32c53f2c0f0ccaeb11076e30674d5f4.html" target="_top" xlink:title="database">
<polygon fill="white" stroke="red" points="200.02,-108 138.02,-108 138.02,-72 200.02,-72 200.02,-108"/>
<text text-anchor="middle" x="169.02" y="-87.5" font-family="Helvetica,sans-Serif" font-size="10.00">database</text>
</a>
</g>
</g>
<!-- dir_f693d27b753d55f33526142599f106a5&#45;&gt;dir_f32c53f2c0f0ccaeb11076e30674d5f4 -->
<g id="edge3" class="edge">
<title>dir_f693d27b753d55f33526142599f106a5&#45;&gt;dir_f32c53f2c0f0ccaeb11076e30674d5f4</title>
<path fill="none" stroke="black" d="M91.97,-143.88C105.06,-134.89 121.28,-123.76 135.46,-114.03"/>
<polygon fill="black" stroke="black" points="137.71,-116.73 143.97,-108.19 133.75,-110.96 137.71,-116.73"/>
<g id="a_edge3&#45;headlabel"><a xlink:href="dir_000017_000010.html" target="_top" xlink:title="3">
<text text-anchor="middle" x="136.35" y="-118.61" font-family="Helvetica,sans-Serif" font-size="10.00">3</text>
</a>
</g>
</g>
<!-- dir_76f7b3dfdf7ef58b4071a3457cb3eaa1&#45;&gt;dir_cbdb8362360e11eafe2fa3bc74cf0ffd -->
<g id="edge5" class="edge">
<title>dir_76f7b3dfdf7ef58b4071a3457cb3eaa1&#45;&gt;dir_cbdb8362360e11eafe2fa3bc74cf0ffd</title>
<path fill="none" stroke="black" d="M67.02,-71.7C67.02,-63.98 67.02,-54.71 67.02,-46.11"/>
<polygon fill="black" stroke="black" points="70.52,-46.1 67.02,-36.1 63.52,-46.1 70.52,-46.1"/>
<g id="a_edge5&#45;headlabel"><a xlink:href="dir_000007_000022.html" target="_top" xlink:title="2">
<text text-anchor="middle" x="73.36" y="-47.2" font-family="Helvetica,sans-Serif" font-size="10.00">2</text>
</a>
</g>
</g>
<!-- dir_f32c53f2c0f0ccaeb11076e30674d5f4&#45;&gt;dir_cbdb8362360e11eafe2fa3bc74cf0ffd -->
<g id="edge4" class="edge">
<title>dir_f32c53f2c0f0ccaeb11076e30674d5f4&#45;&gt;dir_cbdb8362360e11eafe2fa3bc74cf0ffd</title>
<path fill="none" stroke="black" d="M144.07,-71.88C130.98,-62.89 114.76,-51.76 100.59,-42.03"/>
<polygon fill="black" stroke="black" points="102.3,-38.96 92.07,-36.19 98.33,-44.73 102.3,-38.96"/>
<g id="a_edge4&#45;headlabel"><a xlink:href="dir_000010_000022.html" target="_top" xlink:title="3">
<text text-anchor="middle" x="106.87" y="-36.16" font-family="Helvetica,sans-Serif" font-size="10.00">3</text>
</a>
</g>
</g>
</g>
</svg>
