<?xml version="1.0" encoding="UTF-8" standalone="no"?>
<!DOCTYPE svg PUBLIC "-//W3C//DTD SVG 1.1//EN"
 "http://www.w3.org/Graphics/SVG/1.1/DTD/svg11.dtd">
<!-- Generated by graphviz version 2.43.0 (0)
 -->
<!-- Title: metrics_analyzer/src Pages: 1 -->
<svg width="125pt" height="223pt"
 viewBox="0.00 0.00 125.00 223.00" xmlns="http://www.w3.org/2000/svg" xmlns:xlink="http://www.w3.org/1999/xlink">
<g id="graph0" class="graph" transform="scale(1 1) rotate(0) translate(4 219)">
<title>metrics_analyzer/src</title>
<polygon fill="white" stroke="transparent" points="-4,4 -4,-219 121,-219 121,4 -4,4"/>
<g id="clust1" class="cluster">
<title>clusterdir_5b88f23e5ce5d71b62454edad0dae155</title>
<g id="a_clust1"><a xlink:href="dir_5b88f23e5ce5d71b62454edad0dae155.html" target="_top" xlink:title="metrics_analyzer">
<polygon fill="#ddddee" stroke="black" points="8,-136 8,-207 109,-207 109,-136 8,-136"/>
<text text-anchor="middle" x="58.5" y="-195" font-family="Helvetica,sans-Serif" font-size="10.00">metrics_analyzer</text>
</a>
</g>
</g>
<!-- dir_b4341312306fc220cab568abe60c194d -->
<g id="node1" class="node">
<title>dir_b4341312306fc220cab568abe60c194d</title>
<g id="a_node1"><a xlink:href="dir_b4341312306fc220cab568abe60c194d.html" target="_top" xlink:title="src">
<polygon fill="#eeeeff" stroke="black" points="85,-180 31,-180 31,-144 85,-144 85,-180"/>
<text text-anchor="middle" x="58" y="-159.5" font-family="Helvetica,sans-Serif" font-size="10.00">src</text>
</a>
</g>
</g>
<!-- dir_f08c1ffadff6e9e08f49766ff6ac3753 -->
<g id="node2" class="node">
<title>dir_f08c1ffadff6e9e08f49766ff6ac3753</title>
<g id="a_node2"><a xlink:href="dir_f08c1ffadff6e9e08f49766ff6ac3753.html" target="_top" xlink:title="utils">
<polygon fill="white" stroke="red" points="84,-36 30,-36 30,0 84,0 84,-36"/>
<text text-anchor="middle" x="57" y="-15.5" font-family="Helvetica,sans-Serif" font-size="10.00">utils</text>
</a>
</g>
</g>
<!-- dir_b4341312306fc220cab568abe60c194d&#45;&gt;dir_f08c1ffadff6e9e08f49766ff6ac3753 -->
<g id="edge1" class="edge">
<title>dir_b4341312306fc220cab568abe60c194d&#45;&gt;dir_f08c1ffadff6e9e08f49766ff6ac3753</title>
<path fill="none" stroke="black" d="M54.35,-143.91C52.32,-133.57 50.02,-120.09 49,-108 47.66,-92.06 47.8,-87.96 49,-72 49.64,-63.52 50.84,-54.34 52.12,-46.04"/>
<polygon fill="black" stroke="black" points="55.58,-46.55 53.75,-36.11 48.68,-45.41 55.58,-46.55"/>
<g id="a_edge1&#45;headlabel"><a xlink:href="dir_000015_000022.html" target="_top" xlink:title="1">
<text text-anchor="middle" x="57.8" y="-48.05" font-family="Helvetica,sans-Serif" font-size="10.00">1</text>
</a>
</g>
</g>
<!-- dir_9557d6a7810934a7a8ed46c815e608b5 -->
<g id="node3" class="node">
<title>dir_9557d6a7810934a7a8ed46c815e608b5</title>
<g id="a_node3"><a xlink:href="dir_9557d6a7810934a7a8ed46c815e608b5.html" target="_top" xlink:title="inc">
<polygon fill="none" stroke="black" points="112,-108 58,-108 58,-72 112,-72 112,-108"/>
<text text-anchor="middle" x="85" y="-87.5" font-family="Helvetica,sans-Serif" font-size="10.00">inc</text>
</a>
</g>
</g>
<!-- dir_b4341312306fc220cab568abe60c194d&#45;&gt;dir_9557d6a7810934a7a8ed46c815e608b5 -->
<g id="edge2" class="edge">
<title>dir_b4341312306fc220cab568abe60c194d&#45;&gt;dir_9557d6a7810934a7a8ed46c815e608b5</title>
<path fill="none" stroke="black" d="M64.67,-143.7C67.71,-135.81 71.38,-126.3 74.76,-117.55"/>
<polygon fill="black" stroke="black" points="78.07,-118.69 78.4,-108.1 71.54,-116.17 78.07,-118.69"/>
<g id="a_edge2&#45;headlabel"><a xlink:href="dir_000015_000014.html" target="_top" xlink:title="1">
<text text-anchor="middle" x="79.42" y="-120.57" font-family="Helvetica,sans-Serif" font-size="10.00">1</text>
</a>
</g>
</g>
<!-- dir_9557d6a7810934a7a8ed46c815e608b5&#45;&gt;dir_f08c1ffadff6e9e08f49766ff6ac3753 -->
<g id="edge3" class="edge">
<title>dir_9557d6a7810934a7a8ed46c815e608b5&#45;&gt;dir_f08c1ffadff6e9e08f49766ff6ac3753</title>
<path fill="none" stroke="black" d="M78.08,-71.7C74.93,-63.81 71.12,-54.3 67.62,-45.55"/>
<polygon fill="black" stroke="black" points="70.81,-44.09 63.84,-36.1 64.31,-46.69 70.81,-44.09"/>
<g id="a_edge3&#45;headlabel"><a xlink:href="dir_000014_000022.html" target="_top" xlink:title="1">
<text text-anchor="middle" x="74.78" y="-43.87" font-family="Helvetica,sans-Serif" font-size="10.00">1</text>
</a>
</g>
</g>
</g>
</svg>
