<?xml version="1.0" encoding="UTF-8" standalone="no"?>
<!DOCTYPE svg PUBLIC "-//W3C//DTD SVG 1.1//EN"
 "http://www.w3.org/Graphics/SVG/1.1/DTD/svg11.dtd">
<!-- Generated by graphviz version 2.43.0 (0)
 -->
<!-- Title: analysis/src Pages: 1 -->
<svg width="172pt" height="223pt"
 viewBox="0.00 0.00 172.00 223.00" xmlns="http://www.w3.org/2000/svg" xmlns:xlink="http://www.w3.org/1999/xlink">
<g id="graph0" class="graph" transform="scale(1 1) rotate(0) translate(4 219)">
<title>analysis/src</title>
<polygon fill="white" stroke="transparent" points="-4,4 -4,-219 168,-219 168,4 -4,4"/>
<g id="clust1" class="cluster">
<title>clusterdir_b08bd9d679859e38df591d38874428cf</title>
<g id="a_clust1"><a xlink:href="dir_b08bd9d679859e38df591d38874428cf.html" target="_top" xlink:title="analysis">
<polygon fill="#ddddee" stroke="black" points="47,-136 47,-207 117,-207 117,-136 47,-136"/>
<text text-anchor="middle" x="82" y="-195" font-family="Helvetica,sans-Serif" font-size="10.00">analysis</text>
</a>
</g>
</g>
<!-- dir_0bbcf62883b3c7844d35f0c75a5c0046 -->
<g id="node1" class="node">
<title>dir_0bbcf62883b3c7844d35f0c75a5c0046</title>
<g id="a_node1"><a xlink:href="dir_0bbcf62883b3c7844d35f0c75a5c0046.html" target="_top" xlink:title="src">
<polygon fill="#eeeeff" stroke="black" points="109,-180 55,-180 55,-144 109,-144 109,-180"/>
<text text-anchor="middle" x="82" y="-159.5" font-family="Helvetica,sans-Serif" font-size="10.00">src</text>
</a>
</g>
</g>
<!-- dir_fe6388d7d200ae9bafafbb3a8c5e4d3e -->
<g id="node2" class="node">
<title>dir_fe6388d7d200ae9bafafbb3a8c5e4d3e</title>
<g id="a_node2"><a xlink:href="dir_fe6388d7d200ae9bafafbb3a8c5e4d3e.html" target="_top" xlink:title="ui">
<polygon fill="white" stroke="red" points="54,-108 0,-108 0,-72 54,-72 54,-108"/>
<text text-anchor="middle" x="27" y="-87.5" font-family="Helvetica,sans-Serif" font-size="10.00">ui</text>
</a>
</g>
</g>
<!-- dir_0bbcf62883b3c7844d35f0c75a5c0046&#45;&gt;dir_fe6388d7d200ae9bafafbb3a8c5e4d3e -->
<g id="edge2" class="edge">
<title>dir_0bbcf62883b3c7844d35f0c75a5c0046&#45;&gt;dir_fe6388d7d200ae9bafafbb3a8c5e4d3e</title>
<path fill="none" stroke="black" d="M68.4,-143.7C61.88,-135.39 53.93,-125.28 46.75,-116.14"/>
<polygon fill="black" stroke="black" points="49.37,-113.81 40.44,-108.1 43.87,-118.13 49.37,-113.81"/>
<g id="a_edge2&#45;headlabel"><a xlink:href="dir_000002_000019.html" target="_top" xlink:title="1">
<text text-anchor="middle" x="53.82" y="-112.38" font-family="Helvetica,sans-Serif" font-size="10.00">1</text>
</a>
</g>
</g>
<!-- dir_f08c1ffadff6e9e08f49766ff6ac3753 -->
<g id="node3" class="node">
<title>dir_f08c1ffadff6e9e08f49766ff6ac3753</title>
<g id="a_node3"><a xlink:href="dir_f08c1ffadff6e9e08f49766ff6ac3753.html" target="_top" xlink:title="utils">
<polygon fill="white" stroke="red" points="81,-36 27,-36 27,0 81,0 81,-36"/>
<text text-anchor="middle" x="54" y="-15.5" font-family="Helvetica,sans-Serif" font-size="10.00">utils</text>
</a>
</g>
</g>
<!-- dir_0bbcf62883b3c7844d35f0c75a5c0046&#45;&gt;dir_f08c1ffadff6e9e08f49766ff6ac3753 -->
<g id="edge3" class="edge">
<title>dir_0bbcf62883b3c7844d35f0c75a5c0046&#45;&gt;dir_f08c1ffadff6e9e08f49766ff6ac3753</title>
<path fill="none" stroke="black" d="M78.62,-143.87C73.83,-119.56 65.01,-74.82 59.33,-46.01"/>
<polygon fill="black" stroke="black" points="62.76,-45.32 57.39,-36.19 55.89,-46.68 62.76,-45.32"/>
<g id="a_edge3&#45;headlabel"><a xlink:href="dir_000002_000022.html" target="_top" xlink:title="2">
<text text-anchor="middle" x="66.24" y="-45.8" font-family="Helvetica,sans-Serif" font-size="10.00">2</text>
</a>
</g>
</g>
<!-- dir_b95c07ea112d225497ac74ddfe863228 -->
<g id="node4" class="node">
<title>dir_b95c07ea112d225497ac74ddfe863228</title>
<g id="a_node4"><a xlink:href="dir_b95c07ea112d225497ac74ddfe863228.html" target="_top" xlink:title="inc">
<polygon fill="none" stroke="black" points="164,-108 110,-108 110,-72 164,-72 164,-108"/>
<text text-anchor="middle" x="137" y="-87.5" font-family="Helvetica,sans-Serif" font-size="10.00">inc</text>
</a>
</g>
</g>
<!-- dir_0bbcf62883b3c7844d35f0c75a5c0046&#45;&gt;dir_b95c07ea112d225497ac74ddfe863228 -->
<g id="edge4" class="edge">
<title>dir_0bbcf62883b3c7844d35f0c75a5c0046&#45;&gt;dir_b95c07ea112d225497ac74ddfe863228</title>
<path fill="none" stroke="black" d="M95.6,-143.7C102.12,-135.39 110.07,-125.28 117.25,-116.14"/>
<polygon fill="black" stroke="black" points="120.13,-118.13 123.56,-108.1 114.63,-113.81 120.13,-118.13"/>
<g id="a_edge4&#45;headlabel"><a xlink:href="dir_000002_000001.html" target="_top" xlink:title="1">
<text text-anchor="middle" x="120.15" y="-120.21" font-family="Helvetica,sans-Serif" font-size="10.00">1</text>
</a>
</g>
</g>
<!-- dir_fe6388d7d200ae9bafafbb3a8c5e4d3e&#45;&gt;dir_f08c1ffadff6e9e08f49766ff6ac3753 -->
<g id="edge1" class="edge">
<title>dir_fe6388d7d200ae9bafafbb3a8c5e4d3e&#45;&gt;dir_f08c1ffadff6e9e08f49766ff6ac3753</title>
<path fill="none" stroke="black" d="M33.67,-71.7C36.71,-63.81 40.38,-54.3 43.76,-45.55"/>
<polygon fill="black" stroke="black" points="47.07,-46.69 47.4,-36.1 40.54,-44.17 47.07,-46.69"/>
<g id="a_edge1&#45;headlabel"><a xlink:href="dir_000019_000022.html" target="_top" xlink:title="3">
<text text-anchor="middle" x="48.42" y="-48.57" font-family="Helvetica,sans-Serif" font-size="10.00">3</text>
</a>
</g>
</g>
</g>
</svg>
