<?xml version="1.0" encoding="UTF-8" standalone="no"?>
<!DOCTYPE svg PUBLIC "-//W3C//DTD SVG 1.1//EN"
 "http://www.w3.org/Graphics/SVG/1.1/DTD/svg11.dtd">
<!-- Generated by graphviz version 2.43.0 (0)
 -->
<!-- Title: monitoring_service Pages: 1 -->
<svg width="369pt" height="276pt"
 viewBox="0.00 0.00 368.88 276.00" xmlns="http://www.w3.org/2000/svg" xmlns:xlink="http://www.w3.org/1999/xlink">
<g id="graph0" class="graph" transform="scale(1 1) rotate(0) translate(4 272)">
<title>monitoring_service</title>
<polygon fill="white" stroke="transparent" points="-4,4 -4,-272 364.88,-272 364.88,4 -4,4"/>
<g id="clust1" class="cluster">
<title>clusterdir_482341060f0705f23db581d5f413eb3b</title>
<g id="a_clust1"><a xlink:href="dir_482341060f0705f23db581d5f413eb3b.html" target="_top">
<polygon fill="#eeeeff" stroke="black" points="53.38,-136 53.38,-260 251.38,-260 251.38,-136 53.38,-136"/>
</a>
</g>
</g>
<!-- dir_482341060f0705f23db581d5f413eb3b -->
<g id="node1" class="node">
<title>dir_482341060f0705f23db581d5f413eb3b</title>
<text text-anchor="middle" x="188.38" y="-231.5" font-family="Helvetica,sans-Serif" font-size="10.00">monitoring_service</text>
</g>
<!-- dir_f693d27b753d55f33526142599f106a5 -->
<g id="node2" class="node">
<title>dir_f693d27b753d55f33526142599f106a5</title>
<g id="a_node2"><a xlink:href="dir_f693d27b753d55f33526142599f106a5.html" target="_top" xlink:title="inc">
<polygon fill="white" stroke="black" points="115.38,-180 61.38,-180 61.38,-144 115.38,-144 115.38,-180"/>
<text text-anchor="middle" x="88.38" y="-159.5" font-family="Helvetica,sans-Serif" font-size="10.00">inc</text>
</a>
</g>
</g>
<!-- dir_cbdb8362360e11eafe2fa3bc74cf0ffd -->
<g id="node4" class="node">
<title>dir_cbdb8362360e11eafe2fa3bc74cf0ffd</title>
<g id="a_node4"><a xlink:href="dir_cbdb8362360e11eafe2fa3bc74cf0ffd.html" target="_top" xlink:title="utils">
<polygon fill="white" stroke="red" points="175.38,-36 121.38,-36 121.38,0 175.38,0 175.38,-36"/>
<text text-anchor="middle" x="148.38" y="-15.5" font-family="Helvetica,sans-Serif" font-size="10.00">utils</text>
</a>
</g>
</g>
<!-- dir_f693d27b753d55f33526142599f106a5&#45;&gt;dir_cbdb8362360e11eafe2fa3bc74cf0ffd -->
<g id="edge1" class="edge">
<title>dir_f693d27b753d55f33526142599f106a5&#45;&gt;dir_cbdb8362360e11eafe2fa3bc74cf0ffd</title>
<path fill="none" stroke="black" d="M61.33,-151.58C42.2,-143.33 17.97,-129.29 6.38,-108 -1.27,-93.95 -2.74,-85.14 6.38,-72 29.84,-38.21 77.6,-25.92 111.23,-21.48"/>
<polygon fill="black" stroke="black" points="111.64,-24.96 121.18,-20.34 110.84,-18 111.64,-24.96"/>
<g id="a_edge1&#45;headlabel"><a xlink:href="dir_000017_000022.html" target="_top" xlink:title="3">
<text text-anchor="middle" x="108.39" y="-25.69" font-family="Helvetica,sans-Serif" font-size="10.00">3</text>
</a>
</g>
</g>
<!-- dir_76f7b3dfdf7ef58b4071a3457cb3eaa1 -->
<g id="node6" class="node">
<title>dir_76f7b3dfdf7ef58b4071a3457cb3eaa1</title>
<g id="a_node6"><a xlink:href="dir_76f7b3dfdf7ef58b4071a3457cb3eaa1.html" target="_top" xlink:title="container_runtime">
<polygon fill="white" stroke="red" points="201.38,-108 95.38,-108 95.38,-72 201.38,-72 201.38,-108"/>
<text text-anchor="middle" x="148.38" y="-87.5" font-family="Helvetica,sans-Serif" font-size="10.00">container_runtime</text>
</a>
</g>
</g>
<!-- dir_f693d27b753d55f33526142599f106a5&#45;&gt;dir_76f7b3dfdf7ef58b4071a3457cb3eaa1 -->
<g id="edge2" class="edge">
<title>dir_f693d27b753d55f33526142599f106a5&#45;&gt;dir_76f7b3dfdf7ef58b4071a3457cb3eaa1</title>
<path fill="none" stroke="black" d="M103.21,-143.7C110.41,-135.3 119.18,-125.07 127.07,-115.86"/>
<polygon fill="black" stroke="black" points="129.87,-117.97 133.72,-108.1 124.56,-113.42 129.87,-117.97"/>
<g id="a_edge2&#45;headlabel"><a xlink:href="dir_000017_000007.html" target="_top" xlink:title="1">
<text text-anchor="middle" x="129.69" y="-120.05" font-family="Helvetica,sans-Serif" font-size="10.00">1</text>
</a>
</g>
</g>
<!-- dir_f32c53f2c0f0ccaeb11076e30674d5f4 -->
<g id="node7" class="node">
<title>dir_f32c53f2c0f0ccaeb11076e30674d5f4</title>
<g id="a_node7"><a xlink:href="dir_f32c53f2c0f0ccaeb11076e30674d5f4.html" target="_top" xlink:title="database">
<polygon fill="white" stroke="red" points="77.38,-108 15.38,-108 15.38,-72 77.38,-72 77.38,-108"/>
<text text-anchor="middle" x="46.38" y="-87.5" font-family="Helvetica,sans-Serif" font-size="10.00">database</text>
</a>
</g>
</g>
<!-- dir_f693d27b753d55f33526142599f106a5&#45;&gt;dir_f32c53f2c0f0ccaeb11076e30674d5f4 -->
<g id="edge3" class="edge">
<title>dir_f693d27b753d55f33526142599f106a5&#45;&gt;dir_f32c53f2c0f0ccaeb11076e30674d5f4</title>
<path fill="none" stroke="black" d="M78,-143.7C73.12,-135.56 67.2,-125.69 61.8,-116.7"/>
<polygon fill="black" stroke="black" points="64.79,-114.88 56.64,-108.1 58.79,-118.48 64.79,-114.88"/>
<g id="a_edge3&#45;headlabel"><a xlink:href="dir_000017_000010.html" target="_top" xlink:title="3">
<text text-anchor="middle" x="69.07" y="-114" font-family="Helvetica,sans-Serif" font-size="10.00">3</text>
</a>
</g>
</g>
<!-- dir_d2b0d39f4daa843fec6300153d95e9a5 -->
<g id="node3" class="node">
<title>dir_d2b0d39f4daa843fec6300153d95e9a5</title>
<g id="a_node3"><a xlink:href="dir_d2b0d39f4daa843fec6300153d95e9a5.html" target="_top" xlink:title="src">
<polygon fill="white" stroke="black" points="115.38,-252 61.38,-252 61.38,-216 115.38,-216 115.38,-252"/>
<text text-anchor="middle" x="88.38" y="-231.5" font-family="Helvetica,sans-Serif" font-size="10.00">src</text>
</a>
</g>
</g>
<!-- dir_d2b0d39f4daa843fec6300153d95e9a5&#45;&gt;dir_f693d27b753d55f33526142599f106a5 -->
<g id="edge7" class="edge">
<title>dir_d2b0d39f4daa843fec6300153d95e9a5&#45;&gt;dir_f693d27b753d55f33526142599f106a5</title>
<path fill="none" stroke="black" d="M88.38,-215.7C88.38,-207.98 88.38,-198.71 88.38,-190.11"/>
<polygon fill="black" stroke="black" points="91.88,-190.1 88.38,-180.1 84.88,-190.1 91.88,-190.1"/>
<g id="a_edge7&#45;headlabel"><a xlink:href="dir_000018_000017.html" target="_top" xlink:title="6">
<text text-anchor="middle" x="94.72" y="-191.2" font-family="Helvetica,sans-Serif" font-size="10.00">6</text>
</a>
</g>
</g>
<!-- dir_d2b0d39f4daa843fec6300153d95e9a5&#45;&gt;dir_cbdb8362360e11eafe2fa3bc74cf0ffd -->
<g id="edge8" class="edge">
<title>dir_d2b0d39f4daa843fec6300153d95e9a5&#45;&gt;dir_cbdb8362360e11eafe2fa3bc74cf0ffd</title>
<path fill="none" stroke="black" d="M114.97,-215.89C144.99,-194.75 192.04,-155.69 210.38,-108 216.13,-93.07 217.08,-86.53 210.38,-72 204.62,-59.5 194.29,-48.85 183.7,-40.44"/>
<polygon fill="black" stroke="black" points="185.74,-37.6 175.62,-34.46 181.58,-43.23 185.74,-37.6"/>
<g id="a_edge8&#45;headlabel"><a xlink:href="dir_000018_000022.html" target="_top" xlink:title="6">
<text text-anchor="middle" x="190.32" y="-34.95" font-family="Helvetica,sans-Serif" font-size="10.00">6</text>
</a>
</g>
</g>
<!-- dir_b91396c56c4ed290d3e98181f0f8d8f6 -->
<g id="node5" class="node">
<title>dir_b91396c56c4ed290d3e98181f0f8d8f6</title>
<g id="a_node5"><a xlink:href="dir_b91396c56c4ed290d3e98181f0f8d8f6.html" target="_top" xlink:title="metrics_analyzer">
<polygon fill="white" stroke="red" points="360.88,-180 259.88,-180 259.88,-144 360.88,-144 360.88,-180"/>
<text text-anchor="middle" x="310.38" y="-159.5" font-family="Helvetica,sans-Serif" font-size="10.00">metrics_analyzer</text>
</a>
</g>
</g>
<!-- dir_d2b0d39f4daa843fec6300153d95e9a5&#45;&gt;dir_b91396c56c4ed290d3e98181f0f8d8f6 -->
<g id="edge9" class="edge">
<title>dir_d2b0d39f4daa843fec6300153d95e9a5&#45;&gt;dir_b91396c56c4ed290d3e98181f0f8d8f6</title>
<path fill="none" stroke="black" d="M115.69,-219.51C118.6,-218.25 121.53,-217.06 124.38,-216 177.91,-196.18 195.5,-196.78 249.92,-181.53"/>
<polygon fill="black" stroke="black" points="251.1,-184.83 259.75,-178.71 249.18,-178.1 251.1,-184.83"/>
<g id="a_edge9&#45;headlabel"><a xlink:href="dir_000018_000013.html" target="_top" xlink:title="2">
<text text-anchor="middle" x="248.43" y="-186.05" font-family="Helvetica,sans-Serif" font-size="10.00">2</text>
</a>
</g>
</g>
<!-- dir_d2b0d39f4daa843fec6300153d95e9a5&#45;&gt;dir_76f7b3dfdf7ef58b4071a3457cb3eaa1 -->
<g id="edge10" class="edge">
<title>dir_d2b0d39f4daa843fec6300153d95e9a5&#45;&gt;dir_76f7b3dfdf7ef58b4071a3457cb3eaa1</title>
<path fill="none" stroke="black" d="M102.28,-215.73C109.73,-205.78 118.54,-192.74 124.38,-180 133.47,-160.18 139.69,-136.24 143.51,-118.19"/>
<polygon fill="black" stroke="black" points="146.95,-118.81 145.49,-108.32 140.09,-117.43 146.95,-118.81"/>
<g id="a_edge10&#45;headlabel"><a xlink:href="dir_000018_000007.html" target="_top" xlink:title="1">
<text text-anchor="middle" x="149.03" y="-120.39" font-family="Helvetica,sans-Serif" font-size="10.00">1</text>
</a>
</g>
</g>
<!-- dir_b91396c56c4ed290d3e98181f0f8d8f6&#45;&gt;dir_cbdb8362360e11eafe2fa3bc74cf0ffd -->
<g id="edge4" class="edge">
<title>dir_b91396c56c4ed290d3e98181f0f8d8f6&#45;&gt;dir_cbdb8362360e11eafe2fa3bc74cf0ffd</title>
<path fill="none" stroke="black" d="M300.55,-143.91C288.82,-124.63 267.72,-93.23 243.38,-72 225.97,-56.81 203.51,-44.04 184.79,-34.84"/>
<polygon fill="black" stroke="black" points="186.21,-31.63 175.67,-30.49 183.19,-37.95 186.21,-31.63"/>
<g id="a_edge4&#45;headlabel"><a xlink:href="dir_000013_000022.html" target="_top" xlink:title="2">
<text text-anchor="middle" x="190.67" y="-28.12" font-family="Helvetica,sans-Serif" font-size="10.00">2</text>
</a>
</g>
</g>
<!-- dir_76f7b3dfdf7ef58b4071a3457cb3eaa1&#45;&gt;dir_cbdb8362360e11eafe2fa3bc74cf0ffd -->
<g id="edge6" class="edge">
<title>dir_76f7b3dfdf7ef58b4071a3457cb3eaa1&#45;&gt;dir_cbdb8362360e11eafe2fa3bc74cf0ffd</title>
<path fill="none" stroke="black" d="M148.38,-71.7C148.38,-63.98 148.38,-54.71 148.38,-46.11"/>
<polygon fill="black" stroke="black" points="151.88,-46.1 148.38,-36.1 144.88,-46.1 151.88,-46.1"/>
<g id="a_edge6&#45;headlabel"><a xlink:href="dir_000007_000022.html" target="_top" xlink:title="2">
<text text-anchor="middle" x="154.72" y="-47.2" font-family="Helvetica,sans-Serif" font-size="10.00">2</text>
</a>
</g>
</g>
<!-- dir_f32c53f2c0f0ccaeb11076e30674d5f4&#45;&gt;dir_cbdb8362360e11eafe2fa3bc74cf0ffd -->
<g id="edge5" class="edge">
<title>dir_f32c53f2c0f0ccaeb11076e30674d5f4&#45;&gt;dir_cbdb8362360e11eafe2fa3bc74cf0ffd</title>
<path fill="none" stroke="black" d="M71.33,-71.88C84.42,-62.89 100.64,-51.76 114.82,-42.03"/>
<polygon fill="black" stroke="black" points="117.07,-44.73 123.33,-36.19 113.11,-38.96 117.07,-44.73"/>
<g id="a_edge5&#45;headlabel"><a xlink:href="dir_000010_000022.html" target="_top" xlink:title="3">
<text text-anchor="middle" x="115.71" y="-46.61" font-family="Helvetica,sans-Serif" font-size="10.00">3</text>
</a>
</g>
</g>
</g>
</svg>
