<?xml version="1.0" encoding="UTF-8" standalone="no"?>
<!DOCTYPE svg PUBLIC "-//W3C//DTD SVG 1.1//EN"
 "http://www.w3.org/Graphics/SVG/1.1/DTD/svg11.dtd">
<!-- Generated by graphviz version 2.43.0 (0)
 -->
<!-- Title: metrics_analyzer/inc Pages: 1 -->
<svg width="125pt" height="151pt"
 viewBox="0.00 0.00 125.00 151.00" xmlns="http://www.w3.org/2000/svg" xmlns:xlink="http://www.w3.org/1999/xlink">
<g id="graph0" class="graph" transform="scale(1 1) rotate(0) translate(4 147)">
<title>metrics_analyzer/inc</title>
<polygon fill="white" stroke="transparent" points="-4,4 -4,-147 121,-147 121,4 -4,4"/>
<g id="clust1" class="cluster">
<title>clusterdir_b91396c56c4ed290d3e98181f0f8d8f6</title>
<g id="a_clust1"><a xlink:href="dir_b91396c56c4ed290d3e98181f0f8d8f6.html" target="_top" xlink:title="metrics_analyzer">
<polygon fill="#ddddee" stroke="black" points="8,-64 8,-135 109,-135 109,-64 8,-64"/>
<text text-anchor="middle" x="58.5" y="-123" font-family="Helvetica,sans-Serif" font-size="10.00">metrics_analyzer</text>
</a>
</g>
</g>
<!-- dir_a1fdbb1cf6636c6d01133d4102eb363c -->
<g id="node1" class="node">
<title>dir_a1fdbb1cf6636c6d01133d4102eb363c</title>
<g id="a_node1"><a xlink:href="dir_a1fdbb1cf6636c6d01133d4102eb363c.html" target="_top" xlink:title="inc">
<polygon fill="#eeeeff" stroke="black" points="85,-108 31,-108 31,-72 85,-72 85,-108"/>
<text text-anchor="middle" x="58" y="-87.5" font-family="Helvetica,sans-Serif" font-size="10.00">inc</text>
</a>
</g>
</g>
<!-- dir_cbdb8362360e11eafe2fa3bc74cf0ffd -->
<g id="node2" class="node">
<title>dir_cbdb8362360e11eafe2fa3bc74cf0ffd</title>
<g id="a_node2"><a xlink:href="dir_cbdb8362360e11eafe2fa3bc74cf0ffd.html" target="_top" xlink:title="utils">
<polygon fill="white" stroke="red" points="85,-36 31,-36 31,0 85,0 85,-36"/>
<text text-anchor="middle" x="58" y="-15.5" font-family="Helvetica,sans-Serif" font-size="10.00">utils</text>
</a>
</g>
</g>
<!-- dir_a1fdbb1cf6636c6d01133d4102eb363c&#45;&gt;dir_cbdb8362360e11eafe2fa3bc74cf0ffd -->
<g id="edge1" class="edge">
<title>dir_a1fdbb1cf6636c6d01133d4102eb363c&#45;&gt;dir_cbdb8362360e11eafe2fa3bc74cf0ffd</title>
<path fill="none" stroke="black" d="M58,-71.7C58,-63.98 58,-54.71 58,-46.11"/>
<polygon fill="black" stroke="black" points="61.5,-46.1 58,-36.1 54.5,-46.1 61.5,-46.1"/>
<g id="a_edge1&#45;headlabel"><a xlink:href="dir_000014_000022.html" target="_top" xlink:title="1">
<text text-anchor="middle" x="64.34" y="-47.2" font-family="Helvetica,sans-Serif" font-size="10.00">1</text>
</a>
</g>
</g>
</g>
</svg>
