<?xml version="1.0" encoding="UTF-8" standalone="no"?>
<!DOCTYPE svg PUBLIC "-//W3C//DTD SVG 1.1//EN"
 "http://www.w3.org/Graphics/SVG/1.1/DTD/svg11.dtd">
<!-- Generated by graphviz version 2.43.0 (0)
 -->
<!-- Title: container_runtime Pages: 1 -->
<svg width="218pt" height="204pt"
 viewBox="0.00 0.00 218.00 204.00" xmlns="http://www.w3.org/2000/svg" xmlns:xlink="http://www.w3.org/1999/xlink">
<g id="graph0" class="graph" transform="scale(1 1) rotate(0) translate(4 200)">
<title>container_runtime</title>
<polygon fill="white" stroke="transparent" points="-4,4 -4,-200 214,-200 214,4 -4,4"/>
<g id="clust1" class="cluster">
<title>clusterdir_76f7b3dfdf7ef58b4071a3457cb3eaa1</title>
<g id="a_clust1"><a xlink:href="dir_76f7b3dfdf7ef58b4071a3457cb3eaa1.html" target="_top">
<polygon fill="#eeeeff" stroke="black" points="8,-64 8,-188 202,-188 202,-64 8,-64"/>
</a>
</g>
</g>
<!-- dir_76f7b3dfdf7ef58b4071a3457cb3eaa1 -->
<g id="node1" class="node">
<title>dir_76f7b3dfdf7ef58b4071a3457cb3eaa1</title>
<text text-anchor="middle" x="141" y="-159.5" font-family="Helvetica,sans-Serif" font-size="10.00">container_runtime</text>
</g>
<!-- dir_ccb895a22eef57c601bbca1683409002 -->
<g id="node2" class="node">
<title>dir_ccb895a22eef57c601bbca1683409002</title>
<g id="a_node2"><a xlink:href="dir_ccb895a22eef57c601bbca1683409002.html" target="_top" xlink:title="inc">
<polygon fill="white" stroke="black" points="70,-108 16,-108 16,-72 70,-72 70,-108"/>
<text text-anchor="middle" x="43" y="-87.5" font-family="Helvetica,sans-Serif" font-size="10.00">inc</text>
</a>
</g>
</g>
<!-- dir_cbdb8362360e11eafe2fa3bc74cf0ffd -->
<g id="node4" class="node">
<title>dir_cbdb8362360e11eafe2fa3bc74cf0ffd</title>
<g id="a_node4"><a xlink:href="dir_cbdb8362360e11eafe2fa3bc74cf0ffd.html" target="_top" xlink:title="utils">
<polygon fill="white" stroke="red" points="70,-36 16,-36 16,0 70,0 70,-36"/>
<text text-anchor="middle" x="43" y="-15.5" font-family="Helvetica,sans-Serif" font-size="10.00">utils</text>
</a>
</g>
</g>
<!-- dir_ccb895a22eef57c601bbca1683409002&#45;&gt;dir_cbdb8362360e11eafe2fa3bc74cf0ffd -->
<g id="edge1" class="edge">
<title>dir_ccb895a22eef57c601bbca1683409002&#45;&gt;dir_cbdb8362360e11eafe2fa3bc74cf0ffd</title>
<path fill="none" stroke="black" d="M43,-71.7C43,-63.98 43,-54.71 43,-46.11"/>
<polygon fill="black" stroke="black" points="46.5,-46.1 43,-36.1 39.5,-46.1 46.5,-46.1"/>
<g id="a_edge1&#45;headlabel"><a xlink:href="dir_000008_000022.html" target="_top" xlink:title="2">
<text text-anchor="middle" x="49.34" y="-47.2" font-family="Helvetica,sans-Serif" font-size="10.00">2</text>
</a>
</g>
</g>
<!-- dir_cc2d006a5a9b93793259ebf714d398fa -->
<g id="node3" class="node">
<title>dir_cc2d006a5a9b93793259ebf714d398fa</title>
<g id="a_node3"><a xlink:href="dir_cc2d006a5a9b93793259ebf714d398fa.html" target="_top" xlink:title="src">
<polygon fill="white" stroke="black" points="70,-180 16,-180 16,-144 70,-144 70,-180"/>
<text text-anchor="middle" x="43" y="-159.5" font-family="Helvetica,sans-Serif" font-size="10.00">src</text>
</a>
</g>
</g>
<!-- dir_cc2d006a5a9b93793259ebf714d398fa&#45;&gt;dir_ccb895a22eef57c601bbca1683409002 -->
<g id="edge2" class="edge">
<title>dir_cc2d006a5a9b93793259ebf714d398fa&#45;&gt;dir_ccb895a22eef57c601bbca1683409002</title>
<path fill="none" stroke="black" d="M43,-143.7C43,-135.98 43,-126.71 43,-118.11"/>
<polygon fill="black" stroke="black" points="46.5,-118.1 43,-108.1 39.5,-118.1 46.5,-118.1"/>
<g id="a_edge2&#45;headlabel"><a xlink:href="dir_000009_000008.html" target="_top" xlink:title="2">
<text text-anchor="middle" x="49.34" y="-119.2" font-family="Helvetica,sans-Serif" font-size="10.00">2</text>
</a>
</g>
</g>
</g>
</svg>
