<?xml version="1.0" encoding="UTF-8" standalone="no"?>
<!DOCTYPE svg PUBLIC "-//W3C//DTD SVG 1.1//EN"
 "http://www.w3.org/Graphics/SVG/1.1/DTD/svg11.dtd">
<!-- Generated by graphviz version 2.43.0 (0)
 -->
<!-- Title: container_runtime/src Pages: 1 -->
<svg width="130pt" height="151pt"
 viewBox="0.00 0.00 130.00 151.00" xmlns="http://www.w3.org/2000/svg" xmlns:xlink="http://www.w3.org/1999/xlink">
<g id="graph0" class="graph" transform="scale(1 1) rotate(0) translate(4 147)">
<title>container_runtime/src</title>
<polygon fill="white" stroke="transparent" points="-4,4 -4,-147 126,-147 126,4 -4,4"/>
<g id="clust1" class="cluster">
<title>clusterdir_35b4dbb5c3bcc548e4b8d584f9998e50</title>
<g id="a_clust1"><a xlink:href="dir_35b4dbb5c3bcc548e4b8d584f9998e50.html" target="_top" xlink:title="container_runtime">
<polygon fill="#ddddee" stroke="black" points="8,-64 8,-135 114,-135 114,-64 8,-64"/>
<text text-anchor="middle" x="61" y="-123" font-family="Helvetica,sans-Serif" font-size="10.00">container_runtime</text>
</a>
</g>
</g>
<!-- dir_de9a22045a10cd849d5ebe3b19e018de -->
<g id="node1" class="node">
<title>dir_de9a22045a10cd849d5ebe3b19e018de</title>
<g id="a_node1"><a xlink:href="dir_de9a22045a10cd849d5ebe3b19e018de.html" target="_top" xlink:title="src">
<polygon fill="#eeeeff" stroke="black" points="88,-108 34,-108 34,-72 88,-72 88,-108"/>
<text text-anchor="middle" x="61" y="-87.5" font-family="Helvetica,sans-Serif" font-size="10.00">src</text>
</a>
</g>
</g>
<!-- dir_48920fed41db6a7446aedc1313d7437e -->
<g id="node2" class="node">
<title>dir_48920fed41db6a7446aedc1313d7437e</title>
<g id="a_node2"><a xlink:href="dir_48920fed41db6a7446aedc1313d7437e.html" target="_top" xlink:title="inc">
<polygon fill="none" stroke="black" points="88,-36 34,-36 34,0 88,0 88,-36"/>
<text text-anchor="middle" x="61" y="-15.5" font-family="Helvetica,sans-Serif" font-size="10.00">inc</text>
</a>
</g>
</g>
<!-- dir_de9a22045a10cd849d5ebe3b19e018de&#45;&gt;dir_48920fed41db6a7446aedc1313d7437e -->
<g id="edge1" class="edge">
<title>dir_de9a22045a10cd849d5ebe3b19e018de&#45;&gt;dir_48920fed41db6a7446aedc1313d7437e</title>
<path fill="none" stroke="black" d="M61,-71.7C61,-63.98 61,-54.71 61,-46.11"/>
<polygon fill="black" stroke="black" points="64.5,-46.1 61,-36.1 57.5,-46.1 64.5,-46.1"/>
<g id="a_edge1&#45;headlabel"><a xlink:href="dir_000009_000008.html" target="_top" xlink:title="2">
<text text-anchor="middle" x="67.34" y="-47.2" font-family="Helvetica,sans-Serif" font-size="10.00">2</text>
</a>
</g>
</g>
</g>
</svg>
