<?xml version="1.0" encoding="UTF-8" standalone="no"?>
<!DOCTYPE svg PUBLIC "-//W3C//DTD SVG 1.1//EN"
 "http://www.w3.org/Graphics/SVG/1.1/DTD/svg11.dtd">
<!-- Generated by graphviz version 2.43.0 (0)
 -->
<!-- Title: utils Pages: 1 -->
<svg width="166pt" height="148pt"
 viewBox="0.00 0.00 166.00 148.00" xmlns="http://www.w3.org/2000/svg" xmlns:xlink="http://www.w3.org/1999/xlink">
<g id="graph0" class="graph" transform="scale(1 1) rotate(0) translate(4 144)">
<title>utils</title>
<polygon fill="white" stroke="transparent" points="-4,4 -4,-144 162,-144 162,4 -4,4"/>
<g id="clust1" class="cluster">
<title>clusterdir_cbdb8362360e11eafe2fa3bc74cf0ffd</title>
<g id="a_clust1"><a xlink:href="dir_cbdb8362360e11eafe2fa3bc74cf0ffd.html" target="_top">
<polygon fill="#eeeeff" stroke="black" points="8,-8 8,-132 150,-132 150,-8 8,-8"/>
</a>
</g>
</g>
<!-- dir_cbdb8362360e11eafe2fa3bc74cf0ffd -->
<g id="node1" class="node">
<title>dir_cbdb8362360e11eafe2fa3bc74cf0ffd</title>
<text text-anchor="middle" x="115" y="-103.5" font-family="Helvetica,sans-Serif" font-size="10.00">utils</text>
</g>
<!-- dir_f185c12169b0584861403140dc49fe3d -->
<g id="node2" class="node">
<title>dir_f185c12169b0584861403140dc49fe3d</title>
<g id="a_node2"><a xlink:href="dir_f185c12169b0584861403140dc49fe3d.html" target="_top" xlink:title="inc">
<polygon fill="white" stroke="black" points="70,-52 16,-52 16,-16 70,-16 70,-52"/>
<text text-anchor="middle" x="43" y="-31.5" font-family="Helvetica,sans-Serif" font-size="10.00">inc</text>
</a>
</g>
</g>
<!-- dir_3067f7d8f9aa80e9f740e3277c5af1f3 -->
<g id="node3" class="node">
<title>dir_3067f7d8f9aa80e9f740e3277c5af1f3</title>
<g id="a_node3"><a xlink:href="dir_3067f7d8f9aa80e9f740e3277c5af1f3.html" target="_top" xlink:title="src">
<polygon fill="white" stroke="black" points="70,-124 16,-124 16,-88 70,-88 70,-124"/>
<text text-anchor="middle" x="43" y="-103.5" font-family="Helvetica,sans-Serif" font-size="10.00">src</text>
</a>
</g>
</g>
<!-- dir_3067f7d8f9aa80e9f740e3277c5af1f3&#45;&gt;dir_f185c12169b0584861403140dc49fe3d -->
<g id="edge1" class="edge">
<title>dir_3067f7d8f9aa80e9f740e3277c5af1f3&#45;&gt;dir_f185c12169b0584861403140dc49fe3d</title>
<path fill="none" stroke="black" d="M43,-87.7C43,-79.98 43,-70.71 43,-62.11"/>
<polygon fill="black" stroke="black" points="46.5,-62.1 43,-52.1 39.5,-62.1 46.5,-62.1"/>
<g id="a_edge1&#45;headlabel"><a xlink:href="dir_000024_000023.html" target="_top" xlink:title="8">
<text text-anchor="middle" x="49.34" y="-63.2" font-family="Helvetica,sans-Serif" font-size="10.00">8</text>
</a>
</g>
</g>
</g>
</svg>
