<?xml version="1.0" encoding="UTF-8" standalone="no"?>
<!DOCTYPE svg PUBLIC "-//W3C//DTD SVG 1.1//EN"
 "http://www.w3.org/Graphics/SVG/1.1/DTD/svg11.dtd">
<!-- Generated by graphviz version 2.43.0 (0)
 -->
<!-- Title: monitoring_service/src Pages: 1 -->
<svg width="249pt" height="295pt"
 viewBox="0.00 0.00 249.18 295.00" xmlns="http://www.w3.org/2000/svg" xmlns:xlink="http://www.w3.org/1999/xlink">
<g id="graph0" class="graph" transform="scale(1 1) rotate(0) translate(4 291)">
<title>monitoring_service/src</title>
<polygon fill="white" stroke="transparent" points="-4,4 -4,-291 245.18,-291 245.18,4 -4,4"/>
<g id="clust1" class="cluster">
<title>clusterdir_bd5c8ce9abb18634af07da06fff2da26</title>
<g id="a_clust1"><a xlink:href="dir_bd5c8ce9abb18634af07da06fff2da26.html" target="_top" xlink:title="monitoring_service">
<polygon fill="#ddddee" stroke="black" points="62.18,-208 62.18,-279 172.18,-279 172.18,-208 62.18,-208"/>
<text text-anchor="middle" x="117.18" y="-267" font-family="Helvetica,sans-Serif" font-size="10.00">monitoring_service</text>
</a>
</g>
</g>
<!-- dir_47eba3e857cec084a6814d1e995c3dd9 -->
<g id="node1" class="node">
<title>dir_47eba3e857cec084a6814d1e995c3dd9</title>
<g id="a_node1"><a xlink:href="dir_47eba3e857cec084a6814d1e995c3dd9.html" target="_top" xlink:title="src">
<polygon fill="#eeeeff" stroke="black" points="144.18,-252 90.18,-252 90.18,-216 144.18,-216 144.18,-252"/>
<text text-anchor="middle" x="117.18" y="-231.5" font-family="Helvetica,sans-Serif" font-size="10.00">src</text>
</a>
</g>
</g>
<!-- dir_f08c1ffadff6e9e08f49766ff6ac3753 -->
<g id="node2" class="node">
<title>dir_f08c1ffadff6e9e08f49766ff6ac3753</title>
<g id="a_node2"><a xlink:href="dir_f08c1ffadff6e9e08f49766ff6ac3753.html" target="_top" xlink:title="utils">
<polygon fill="white" stroke="red" points="115.18,-36 61.18,-36 61.18,0 115.18,0 115.18,-36"/>
<text text-anchor="middle" x="88.18" y="-15.5" font-family="Helvetica,sans-Serif" font-size="10.00">utils</text>
</a>
</g>
</g>
<!-- dir_47eba3e857cec084a6814d1e995c3dd9&#45;&gt;dir_f08c1ffadff6e9e08f49766ff6ac3753 -->
<g id="edge2" class="edge">
<title>dir_47eba3e857cec084a6814d1e995c3dd9&#45;&gt;dir_f08c1ffadff6e9e08f49766ff6ac3753</title>
<path fill="none" stroke="black" d="M89.98,-228.08C64.15,-221.8 26.74,-208.18 9.18,-180 -19.63,-133.77 27.85,-75.52 60.79,-43.28"/>
<polygon fill="black" stroke="black" points="63.56,-45.48 68.38,-36.05 58.73,-40.41 63.56,-45.48"/>
<g id="a_edge2&#45;headlabel"><a xlink:href="dir_000018_000022.html" target="_top" xlink:title="6">
<text text-anchor="middle" x="62.91" y="-47.51" font-family="Helvetica,sans-Serif" font-size="10.00">6</text>
</a>
</g>
</g>
<!-- dir_5b88f23e5ce5d71b62454edad0dae155 -->
<g id="node3" class="node">
<title>dir_5b88f23e5ce5d71b62454edad0dae155</title>
<g id="a_node3"><a xlink:href="dir_5b88f23e5ce5d71b62454edad0dae155.html" target="_top" xlink:title="metrics_analyzer">
<polygon fill="white" stroke="red" points="119.68,-180 18.68,-180 18.68,-144 119.68,-144 119.68,-180"/>
<text text-anchor="middle" x="69.18" y="-159.5" font-family="Helvetica,sans-Serif" font-size="10.00">metrics_analyzer</text>
</a>
</g>
</g>
<!-- dir_47eba3e857cec084a6814d1e995c3dd9&#45;&gt;dir_5b88f23e5ce5d71b62454edad0dae155 -->
<g id="edge3" class="edge">
<title>dir_47eba3e857cec084a6814d1e995c3dd9&#45;&gt;dir_5b88f23e5ce5d71b62454edad0dae155</title>
<path fill="none" stroke="black" d="M105.32,-215.7C99.68,-207.47 92.83,-197.48 86.61,-188.42"/>
<polygon fill="black" stroke="black" points="89.45,-186.37 80.91,-180.1 83.68,-190.33 89.45,-186.37"/>
<g id="a_edge3&#45;headlabel"><a xlink:href="dir_000018_000013.html" target="_top" xlink:title="2">
<text text-anchor="middle" x="93.83" y="-185.23" font-family="Helvetica,sans-Serif" font-size="10.00">2</text>
</a>
</g>
</g>
<!-- dir_bafb0d51d68afdcc06318378d1c2f842 -->
<g id="node4" class="node">
<title>dir_bafb0d51d68afdcc06318378d1c2f842</title>
<g id="a_node4"><a xlink:href="dir_bafb0d51d68afdcc06318378d1c2f842.html" target="_top" xlink:title="inc">
<polygon fill="none" stroke="black" points="192.18,-180 138.18,-180 138.18,-144 192.18,-144 192.18,-180"/>
<text text-anchor="middle" x="165.18" y="-159.5" font-family="Helvetica,sans-Serif" font-size="10.00">inc</text>
</a>
</g>
</g>
<!-- dir_47eba3e857cec084a6814d1e995c3dd9&#45;&gt;dir_bafb0d51d68afdcc06318378d1c2f842 -->
<g id="edge4" class="edge">
<title>dir_47eba3e857cec084a6814d1e995c3dd9&#45;&gt;dir_bafb0d51d68afdcc06318378d1c2f842</title>
<path fill="none" stroke="black" d="M129.05,-215.7C134.68,-207.47 141.54,-197.48 147.75,-188.42"/>
<polygon fill="black" stroke="black" points="150.68,-190.33 153.45,-180.1 144.91,-186.37 150.68,-190.33"/>
<g id="a_edge4&#45;headlabel"><a xlink:href="dir_000018_000017.html" target="_top" xlink:title="6">
<text text-anchor="middle" x="150.99" y="-192.4" font-family="Helvetica,sans-Serif" font-size="10.00">6</text>
</a>
</g>
</g>
<!-- dir_35b4dbb5c3bcc548e4b8d584f9998e50 -->
<g id="node5" class="node">
<title>dir_35b4dbb5c3bcc548e4b8d584f9998e50</title>
<g id="a_node5"><a xlink:href="dir_35b4dbb5c3bcc548e4b8d584f9998e50.html" target="_top" xlink:title="container_runtime">
<polygon fill="white" stroke="red" points="241.18,-108 135.18,-108 135.18,-72 241.18,-72 241.18,-108"/>
<text text-anchor="middle" x="188.18" y="-87.5" font-family="Helvetica,sans-Serif" font-size="10.00">container_runtime</text>
</a>
</g>
</g>
<!-- dir_47eba3e857cec084a6814d1e995c3dd9&#45;&gt;dir_35b4dbb5c3bcc548e4b8d584f9998e50 -->
<g id="edge5" class="edge">
<title>dir_47eba3e857cec084a6814d1e995c3dd9&#45;&gt;dir_35b4dbb5c3bcc548e4b8d584f9998e50</title>
<path fill="none" stroke="black" d="M144.46,-223.93C164.11,-215.8 189.19,-201.74 201.18,-180 211.73,-160.88 206.87,-136.08 200.29,-117.52"/>
<polygon fill="black" stroke="black" points="203.55,-116.24 196.66,-108.19 197.02,-118.78 203.55,-116.24"/>
<g id="a_edge5&#45;headlabel"><a xlink:href="dir_000018_000007.html" target="_top" xlink:title="1">
<text text-anchor="middle" x="207.5" y="-116.06" font-family="Helvetica,sans-Serif" font-size="10.00">1</text>
</a>
</g>
</g>
<!-- dir_5b88f23e5ce5d71b62454edad0dae155&#45;&gt;dir_f08c1ffadff6e9e08f49766ff6ac3753 -->
<g id="edge1" class="edge">
<title>dir_5b88f23e5ce5d71b62454edad0dae155&#45;&gt;dir_f08c1ffadff6e9e08f49766ff6ac3753</title>
<path fill="none" stroke="black" d="M71.47,-143.87C74.71,-119.67 80.66,-75.21 84.52,-46.39"/>
<polygon fill="black" stroke="black" points="88.02,-46.57 85.88,-36.19 81.09,-45.64 88.02,-46.57"/>
<g id="a_edge1&#45;headlabel"><a xlink:href="dir_000013_000022.html" target="_top" xlink:title="2">
<text text-anchor="middle" x="90.36" y="-48" font-family="Helvetica,sans-Serif" font-size="10.00">2</text>
</a>
</g>
</g>
<!-- dir_bafb0d51d68afdcc06318378d1c2f842&#45;&gt;dir_f08c1ffadff6e9e08f49766ff6ac3753 -->
<g id="edge6" class="edge">
<title>dir_bafb0d51d68afdcc06318378d1c2f842&#45;&gt;dir_f08c1ffadff6e9e08f49766ff6ac3753</title>
<path fill="none" stroke="black" d="M150.75,-143.55C142.88,-133.53 133.32,-120.5 126.18,-108 114.77,-88.03 104.7,-63.97 97.8,-45.9"/>
<polygon fill="black" stroke="black" points="100.98,-44.43 94.2,-36.29 94.43,-46.88 100.98,-44.43"/>
<g id="a_edge6&#45;headlabel"><a xlink:href="dir_000017_000022.html" target="_top" xlink:title="3">
<text text-anchor="middle" x="104.9" y="-44.3" font-family="Helvetica,sans-Serif" font-size="10.00">3</text>
</a>
</g>
</g>
<!-- dir_bafb0d51d68afdcc06318378d1c2f842&#45;&gt;dir_35b4dbb5c3bcc548e4b8d584f9998e50 -->
<g id="edge7" class="edge">
<title>dir_bafb0d51d68afdcc06318378d1c2f842&#45;&gt;dir_35b4dbb5c3bcc548e4b8d584f9998e50</title>
<path fill="none" stroke="black" d="M170.87,-143.7C173.43,-135.9 176.51,-126.51 179.37,-117.83"/>
<polygon fill="black" stroke="black" points="182.76,-118.7 182.56,-108.1 176.11,-116.51 182.76,-118.7"/>
<g id="a_edge7&#45;headlabel"><a xlink:href="dir_000017_000007.html" target="_top" xlink:title="1">
<text text-anchor="middle" x="184.34" y="-120.5" font-family="Helvetica,sans-Serif" font-size="10.00">1</text>
</a>
</g>
</g>
<!-- dir_35b4dbb5c3bcc548e4b8d584f9998e50&#45;&gt;dir_f08c1ffadff6e9e08f49766ff6ac3753 -->
<g id="edge8" class="edge">
<title>dir_35b4dbb5c3bcc548e4b8d584f9998e50&#45;&gt;dir_f08c1ffadff6e9e08f49766ff6ac3753</title>
<path fill="none" stroke="black" d="M163.72,-71.88C150.89,-62.89 134.98,-51.76 121.09,-42.03"/>
<polygon fill="black" stroke="black" points="122.94,-39.06 112.74,-36.19 118.92,-44.79 122.94,-39.06"/>
<g id="a_edge8&#45;headlabel"><a xlink:href="dir_000007_000022.html" target="_top" xlink:title="2">
<text text-anchor="middle" x="127.51" y="-36.29" font-family="Helvetica,sans-Serif" font-size="10.00">2</text>
</a>
</g>
</g>
</g>
</svg>
