<?xml version="1.0" encoding="UTF-8" standalone="no"?>
<!DOCTYPE svg PUBLIC "-//W3C//DTD SVG 1.1//EN"
 "http://www.w3.org/Graphics/SVG/1.1/DTD/svg11.dtd">
<!-- Generated by graphviz version 2.43.0 (0)
 -->
<!-- Title: database Pages: 1 -->
<svg width="174pt" height="204pt"
 viewBox="0.00 0.00 174.00 204.00" xmlns="http://www.w3.org/2000/svg" xmlns:xlink="http://www.w3.org/1999/xlink">
<g id="graph0" class="graph" transform="scale(1 1) rotate(0) translate(4 200)">
<title>database</title>
<polygon fill="white" stroke="transparent" points="-4,4 -4,-200 170,-200 170,4 -4,4"/>
<g id="clust1" class="cluster">
<title>clusterdir_f32c53f2c0f0ccaeb11076e30674d5f4</title>
<g id="a_clust1"><a xlink:href="dir_f32c53f2c0f0ccaeb11076e30674d5f4.html" target="_top">
<polygon fill="#eeeeff" stroke="black" points="8,-64 8,-188 158,-188 158,-64 8,-64"/>
</a>
</g>
</g>
<!-- dir_f32c53f2c0f0ccaeb11076e30674d5f4 -->
<g id="node1" class="node">
<title>dir_f32c53f2c0f0ccaeb11076e30674d5f4</title>
<text text-anchor="middle" x="119" y="-159.5" font-family="Helvetica,sans-Serif" font-size="10.00">database</text>
</g>
<!-- dir_59c0778959af5500b3927a1f9df464bb -->
<g id="node2" class="node">
<title>dir_59c0778959af5500b3927a1f9df464bb</title>
<g id="a_node2"><a xlink:href="dir_59c0778959af5500b3927a1f9df464bb.html" target="_top" xlink:title="inc">
<polygon fill="white" stroke="black" points="70,-108 16,-108 16,-72 70,-72 70,-108"/>
<text text-anchor="middle" x="43" y="-87.5" font-family="Helvetica,sans-Serif" font-size="10.00">inc</text>
</a>
</g>
</g>
<!-- dir_cbdb8362360e11eafe2fa3bc74cf0ffd -->
<g id="node4" class="node">
<title>dir_cbdb8362360e11eafe2fa3bc74cf0ffd</title>
<g id="a_node4"><a xlink:href="dir_cbdb8362360e11eafe2fa3bc74cf0ffd.html" target="_top" xlink:title="utils">
<polygon fill="white" stroke="red" points="97,-36 43,-36 43,0 97,0 97,-36"/>
<text text-anchor="middle" x="70" y="-15.5" font-family="Helvetica,sans-Serif" font-size="10.00">utils</text>
</a>
</g>
</g>
<!-- dir_59c0778959af5500b3927a1f9df464bb&#45;&gt;dir_cbdb8362360e11eafe2fa3bc74cf0ffd -->
<g id="edge1" class="edge">
<title>dir_59c0778959af5500b3927a1f9df464bb&#45;&gt;dir_cbdb8362360e11eafe2fa3bc74cf0ffd</title>
<path fill="none" stroke="black" d="M49.67,-71.7C52.71,-63.81 56.38,-54.3 59.76,-45.55"/>
<polygon fill="black" stroke="black" points="63.07,-46.69 63.4,-36.1 56.54,-44.17 63.07,-46.69"/>
<g id="a_edge1&#45;headlabel"><a xlink:href="dir_000011_000022.html" target="_top" xlink:title="2">
<text text-anchor="middle" x="64.42" y="-48.57" font-family="Helvetica,sans-Serif" font-size="10.00">2</text>
</a>
</g>
</g>
<!-- dir_025b930af5ade6bcfe723ec3677d6e5f -->
<g id="node3" class="node">
<title>dir_025b930af5ade6bcfe723ec3677d6e5f</title>
<g id="a_node3"><a xlink:href="dir_025b930af5ade6bcfe723ec3677d6e5f.html" target="_top" xlink:title="src">
<polygon fill="white" stroke="black" points="70,-180 16,-180 16,-144 70,-144 70,-180"/>
<text text-anchor="middle" x="43" y="-159.5" font-family="Helvetica,sans-Serif" font-size="10.00">src</text>
</a>
</g>
</g>
<!-- dir_025b930af5ade6bcfe723ec3677d6e5f&#45;&gt;dir_59c0778959af5500b3927a1f9df464bb -->
<g id="edge3" class="edge">
<title>dir_025b930af5ade6bcfe723ec3677d6e5f&#45;&gt;dir_59c0778959af5500b3927a1f9df464bb</title>
<path fill="none" stroke="black" d="M43,-143.7C43,-135.98 43,-126.71 43,-118.11"/>
<polygon fill="black" stroke="black" points="46.5,-118.1 43,-108.1 39.5,-118.1 46.5,-118.1"/>
<g id="a_edge3&#45;headlabel"><a xlink:href="dir_000012_000011.html" target="_top" xlink:title="1">
<text text-anchor="middle" x="49.34" y="-119.2" font-family="Helvetica,sans-Serif" font-size="10.00">1</text>
</a>
</g>
</g>
<!-- dir_025b930af5ade6bcfe723ec3677d6e5f&#45;&gt;dir_cbdb8362360e11eafe2fa3bc74cf0ffd -->
<g id="edge2" class="edge">
<title>dir_025b930af5ade6bcfe723ec3677d6e5f&#45;&gt;dir_cbdb8362360e11eafe2fa3bc74cf0ffd</title>
<path fill="none" stroke="black" d="M58.61,-143.77C66.37,-134.03 74.95,-121.18 79,-108 85.22,-87.77 82.27,-63.87 78.15,-45.92"/>
<polygon fill="black" stroke="black" points="81.51,-44.95 75.65,-36.12 74.73,-46.68 81.51,-44.95"/>
<g id="a_edge2&#45;headlabel"><a xlink:href="dir_000012_000022.html" target="_top" xlink:title="1">
<text text-anchor="middle" x="85.15" y="-45.23" font-family="Helvetica,sans-Serif" font-size="10.00">1</text>
</a>
</g>
</g>
</g>
</svg>
