<?xml version="1.0" encoding="UTF-8" standalone="no"?>
<!DOCTYPE svg PUBLIC "-//W3C//DTD SVG 1.1//EN"
 "http://www.w3.org/Graphics/SVG/1.1/DTD/svg11.dtd">
<!-- Generated by graphviz version 2.43.0 (0)
 -->
<!-- Title: monitoring_service/inc Pages: 1 -->
<svg width="226pt" height="223pt"
 viewBox="0.00 0.00 226.00 223.00" xmlns="http://www.w3.org/2000/svg" xmlns:xlink="http://www.w3.org/1999/xlink">
<g id="graph0" class="graph" transform="scale(1 1) rotate(0) translate(4 219)">
<title>monitoring_service/inc</title>
<polygon fill="white" stroke="transparent" points="-4,4 -4,-219 222,-219 222,4 -4,4"/>
<g id="clust1" class="cluster">
<title>clusterdir_bd5c8ce9abb18634af07da06fff2da26</title>
<g id="a_clust1"><a xlink:href="dir_bd5c8ce9abb18634af07da06fff2da26.html" target="_top" xlink:title="monitoring_service">
<polygon fill="#ddddee" stroke="black" points="8,-136 8,-207 118,-207 118,-136 8,-136"/>
<text text-anchor="middle" x="63" y="-195" font-family="Helvetica,sans-Serif" font-size="10.00">monitoring_service</text>
</a>
</g>
</g>
<!-- dir_bafb0d51d68afdcc06318378d1c2f842 -->
<g id="node1" class="node">
<title>dir_bafb0d51d68afdcc06318378d1c2f842</title>
<g id="a_node1"><a xlink:href="dir_bafb0d51d68afdcc06318378d1c2f842.html" target="_top" xlink:title="inc">
<polygon fill="#eeeeff" stroke="black" points="90,-180 36,-180 36,-144 90,-144 90,-180"/>
<text text-anchor="middle" x="63" y="-159.5" font-family="Helvetica,sans-Serif" font-size="10.00">inc</text>
</a>
</g>
</g>
<!-- dir_f08c1ffadff6e9e08f49766ff6ac3753 -->
<g id="node2" class="node">
<title>dir_f08c1ffadff6e9e08f49766ff6ac3753</title>
<g id="a_node2"><a xlink:href="dir_f08c1ffadff6e9e08f49766ff6ac3753.html" target="_top" xlink:title="utils">
<polygon fill="white" stroke="red" points="90,-36 36,-36 36,0 90,0 90,-36"/>
<text text-anchor="middle" x="63" y="-15.5" font-family="Helvetica,sans-Serif" font-size="10.00">utils</text>
</a>
</g>
</g>
<!-- dir_bafb0d51d68afdcc06318378d1c2f842&#45;&gt;dir_f08c1ffadff6e9e08f49766ff6ac3753 -->
<g id="edge2" class="edge">
<title>dir_bafb0d51d68afdcc06318378d1c2f842&#45;&gt;dir_f08c1ffadff6e9e08f49766ff6ac3753</title>
<path fill="none" stroke="black" d="M45.27,-143.6C36.76,-134 27.47,-121.34 23,-108 17.92,-92.83 17.92,-87.17 23,-72 26.35,-62 32.42,-52.38 38.83,-44.14"/>
<polygon fill="black" stroke="black" points="41.56,-46.33 45.27,-36.4 36.18,-41.85 41.56,-46.33"/>
<g id="a_edge2&#45;headlabel"><a xlink:href="dir_000017_000022.html" target="_top" xlink:title="3">
<text text-anchor="middle" x="41.44" y="-48.41" font-family="Helvetica,sans-Serif" font-size="10.00">3</text>
</a>
</g>
</g>
<!-- dir_f8c6f0679b123304d35aae1bb0e284fb -->
<g id="node3" class="node">
<title>dir_f8c6f0679b123304d35aae1bb0e284fb</title>
<g id="a_node3"><a xlink:href="dir_f8c6f0679b123304d35aae1bb0e284fb.html" target="_top" xlink:title="database">
<polygon fill="white" stroke="red" points="94,-108 32,-108 32,-72 94,-72 94,-108"/>
<text text-anchor="middle" x="63" y="-87.5" font-family="Helvetica,sans-Serif" font-size="10.00">database</text>
</a>
</g>
</g>
<!-- dir_bafb0d51d68afdcc06318378d1c2f842&#45;&gt;dir_f8c6f0679b123304d35aae1bb0e284fb -->
<g id="edge3" class="edge">
<title>dir_bafb0d51d68afdcc06318378d1c2f842&#45;&gt;dir_f8c6f0679b123304d35aae1bb0e284fb</title>
<path fill="none" stroke="black" d="M63,-143.7C63,-135.98 63,-126.71 63,-118.11"/>
<polygon fill="black" stroke="black" points="66.5,-118.1 63,-108.1 59.5,-118.1 66.5,-118.1"/>
<g id="a_edge3&#45;headlabel"><a xlink:href="dir_000017_000010.html" target="_top" xlink:title="3">
<text text-anchor="middle" x="69.34" y="-119.2" font-family="Helvetica,sans-Serif" font-size="10.00">3</text>
</a>
</g>
</g>
<!-- dir_35b4dbb5c3bcc548e4b8d584f9998e50 -->
<g id="node4" class="node">
<title>dir_35b4dbb5c3bcc548e4b8d584f9998e50</title>
<g id="a_node4"><a xlink:href="dir_35b4dbb5c3bcc548e4b8d584f9998e50.html" target="_top" xlink:title="container_runtime">
<polygon fill="white" stroke="red" points="218,-108 112,-108 112,-72 218,-72 218,-108"/>
<text text-anchor="middle" x="165" y="-87.5" font-family="Helvetica,sans-Serif" font-size="10.00">container_runtime</text>
</a>
</g>
</g>
<!-- dir_bafb0d51d68afdcc06318378d1c2f842&#45;&gt;dir_35b4dbb5c3bcc548e4b8d584f9998e50 -->
<g id="edge4" class="edge">
<title>dir_bafb0d51d68afdcc06318378d1c2f842&#45;&gt;dir_35b4dbb5c3bcc548e4b8d584f9998e50</title>
<path fill="none" stroke="black" d="M87.95,-143.88C101.04,-134.89 117.26,-123.76 131.44,-114.03"/>
<polygon fill="black" stroke="black" points="133.69,-116.73 139.95,-108.19 129.73,-110.96 133.69,-116.73"/>
<g id="a_edge4&#45;headlabel"><a xlink:href="dir_000017_000007.html" target="_top" xlink:title="1">
<text text-anchor="middle" x="132.33" y="-118.61" font-family="Helvetica,sans-Serif" font-size="10.00">1</text>
</a>
</g>
</g>
<!-- dir_f8c6f0679b123304d35aae1bb0e284fb&#45;&gt;dir_f08c1ffadff6e9e08f49766ff6ac3753 -->
<g id="edge1" class="edge">
<title>dir_f8c6f0679b123304d35aae1bb0e284fb&#45;&gt;dir_f08c1ffadff6e9e08f49766ff6ac3753</title>
<path fill="none" stroke="black" d="M63,-71.7C63,-63.98 63,-54.71 63,-46.11"/>
<polygon fill="black" stroke="black" points="66.5,-46.1 63,-36.1 59.5,-46.1 66.5,-46.1"/>
<g id="a_edge1&#45;headlabel"><a xlink:href="dir_000010_000022.html" target="_top" xlink:title="3">
<text text-anchor="middle" x="69.34" y="-47.2" font-family="Helvetica,sans-Serif" font-size="10.00">3</text>
</a>
</g>
</g>
<!-- dir_35b4dbb5c3bcc548e4b8d584f9998e50&#45;&gt;dir_f08c1ffadff6e9e08f49766ff6ac3753 -->
<g id="edge5" class="edge">
<title>dir_35b4dbb5c3bcc548e4b8d584f9998e50&#45;&gt;dir_f08c1ffadff6e9e08f49766ff6ac3753</title>
<path fill="none" stroke="black" d="M140.05,-71.88C126.96,-62.89 110.74,-51.76 96.56,-42.03"/>
<polygon fill="black" stroke="black" points="98.27,-38.96 88.05,-36.19 94.31,-44.73 98.27,-38.96"/>
<g id="a_edge5&#45;headlabel"><a xlink:href="dir_000007_000022.html" target="_top" xlink:title="2">
<text text-anchor="middle" x="102.84" y="-36.16" font-family="Helvetica,sans-Serif" font-size="10.00">2</text>
</a>
</g>
</g>
</g>
</svg>
