<?xml version="1.0" encoding="UTF-8" standalone="no"?>
<!DOCTYPE svg PUBLIC "-//W3C//DTD SVG 1.1//EN"
 "http://www.w3.org/Graphics/SVG/1.1/DTD/svg11.dtd">
<!-- Generated by graphviz version 2.43.0 (0)
 -->
<!-- Title: analysis Pages: 1 -->
<svg width="224pt" height="204pt"
 viewBox="0.00 0.00 224.00 204.00" xmlns="http://www.w3.org/2000/svg" xmlns:xlink="http://www.w3.org/1999/xlink">
<g id="graph0" class="graph" transform="scale(1 1) rotate(0) translate(4 200)">
<title>analysis</title>
<polygon fill="white" stroke="transparent" points="-4,4 -4,-200 220,-200 220,4 -4,4"/>
<g id="clust1" class="cluster">
<title>clusterdir_b8678fa8510b7ff9a55ffd4d18fd5e47</title>
<g id="a_clust1"><a xlink:href="dir_b8678fa8510b7ff9a55ffd4d18fd5e47.html" target="_top">
<polygon fill="#eeeeff" stroke="black" points="8,-64 8,-188 154,-188 154,-64 8,-64"/>
</a>
</g>
</g>
<!-- dir_b8678fa8510b7ff9a55ffd4d18fd5e47 -->
<g id="node1" class="node">
<title>dir_b8678fa8510b7ff9a55ffd4d18fd5e47</title>
<text text-anchor="middle" x="117" y="-159.5" font-family="Helvetica,sans-Serif" font-size="10.00">analysis</text>
</g>
<!-- dir_7c152ce7052678bbbc19ec0258e9b3ae -->
<g id="node2" class="node">
<title>dir_7c152ce7052678bbbc19ec0258e9b3ae</title>
<g id="a_node2"><a xlink:href="dir_7c152ce7052678bbbc19ec0258e9b3ae.html" target="_top" xlink:title="inc">
<polygon fill="white" stroke="black" points="70,-108 16,-108 16,-72 70,-72 70,-108"/>
<text text-anchor="middle" x="43" y="-87.5" font-family="Helvetica,sans-Serif" font-size="10.00">inc</text>
</a>
</g>
</g>
<!-- dir_bc66cf0f7bc2a011134b03d878d297c1 -->
<g id="node3" class="node">
<title>dir_bc66cf0f7bc2a011134b03d878d297c1</title>
<g id="a_node3"><a xlink:href="dir_bc66cf0f7bc2a011134b03d878d297c1.html" target="_top" xlink:title="src">
<polygon fill="white" stroke="black" points="70,-180 16,-180 16,-144 70,-144 70,-180"/>
<text text-anchor="middle" x="43" y="-159.5" font-family="Helvetica,sans-Serif" font-size="10.00">src</text>
</a>
</g>
</g>
<!-- dir_bc66cf0f7bc2a011134b03d878d297c1&#45;&gt;dir_7c152ce7052678bbbc19ec0258e9b3ae -->
<g id="edge3" class="edge">
<title>dir_bc66cf0f7bc2a011134b03d878d297c1&#45;&gt;dir_7c152ce7052678bbbc19ec0258e9b3ae</title>
<path fill="none" stroke="black" d="M43,-143.7C43,-135.98 43,-126.71 43,-118.11"/>
<polygon fill="black" stroke="black" points="46.5,-118.1 43,-108.1 39.5,-118.1 46.5,-118.1"/>
<g id="a_edge3&#45;headlabel"><a xlink:href="dir_000002_000001.html" target="_top" xlink:title="1">
<text text-anchor="middle" x="49.34" y="-119.2" font-family="Helvetica,sans-Serif" font-size="10.00">1</text>
</a>
</g>
</g>
<!-- dir_cbdb8362360e11eafe2fa3bc74cf0ffd -->
<g id="node4" class="node">
<title>dir_cbdb8362360e11eafe2fa3bc74cf0ffd</title>
<g id="a_node4"><a xlink:href="dir_cbdb8362360e11eafe2fa3bc74cf0ffd.html" target="_top" xlink:title="utils">
<polygon fill="white" stroke="red" points="179,-36 125,-36 125,0 179,0 179,-36"/>
<text text-anchor="middle" x="152" y="-15.5" font-family="Helvetica,sans-Serif" font-size="10.00">utils</text>
</a>
</g>
</g>
<!-- dir_bc66cf0f7bc2a011134b03d878d297c1&#45;&gt;dir_cbdb8362360e11eafe2fa3bc74cf0ffd -->
<g id="edge1" class="edge">
<title>dir_bc66cf0f7bc2a011134b03d878d297c1&#45;&gt;dir_cbdb8362360e11eafe2fa3bc74cf0ffd</title>
<path fill="none" stroke="black" d="M56.15,-143.87C75.22,-119.03 110.67,-72.85 132.7,-44.14"/>
<polygon fill="black" stroke="black" points="135.49,-46.25 138.81,-36.19 129.94,-41.99 135.49,-46.25"/>
<g id="a_edge1&#45;headlabel"><a xlink:href="dir_000002_000022.html" target="_top" xlink:title="2">
<text text-anchor="middle" x="135.56" y="-48.33" font-family="Helvetica,sans-Serif" font-size="10.00">2</text>
</a>
</g>
</g>
<!-- dir_1788f8309b1a812dcb800a185471cf6c -->
<g id="node5" class="node">
<title>dir_1788f8309b1a812dcb800a185471cf6c</title>
<g id="a_node5"><a xlink:href="dir_1788f8309b1a812dcb800a185471cf6c.html" target="_top" xlink:title="ui">
<polygon fill="white" stroke="red" points="216,-108 162,-108 162,-72 216,-72 216,-108"/>
<text text-anchor="middle" x="189" y="-87.5" font-family="Helvetica,sans-Serif" font-size="10.00">ui</text>
</a>
</g>
</g>
<!-- dir_bc66cf0f7bc2a011134b03d878d297c1&#45;&gt;dir_1788f8309b1a812dcb800a185471cf6c -->
<g id="edge2" class="edge">
<title>dir_bc66cf0f7bc2a011134b03d878d297c1&#45;&gt;dir_1788f8309b1a812dcb800a185471cf6c</title>
<path fill="none" stroke="black" d="M70.11,-148.15C73.11,-146.74 76.12,-145.34 79,-144 110.99,-129.16 121.68,-125.82 152.43,-110.72"/>
<polygon fill="black" stroke="black" points="154.27,-113.71 161.67,-106.13 151.16,-107.44 154.27,-113.71"/>
<g id="a_edge2&#45;headlabel"><a xlink:href="dir_000002_000019.html" target="_top" xlink:title="1">
<text text-anchor="middle" x="152.32" y="-115.35" font-family="Helvetica,sans-Serif" font-size="10.00">1</text>
</a>
</g>
</g>
<!-- dir_1788f8309b1a812dcb800a185471cf6c&#45;&gt;dir_cbdb8362360e11eafe2fa3bc74cf0ffd -->
<g id="edge4" class="edge">
<title>dir_1788f8309b1a812dcb800a185471cf6c&#45;&gt;dir_cbdb8362360e11eafe2fa3bc74cf0ffd</title>
<path fill="none" stroke="black" d="M179.85,-71.7C175.6,-63.64 170.44,-53.89 165.73,-44.98"/>
<polygon fill="black" stroke="black" points="168.81,-43.31 161.04,-36.1 162.62,-46.58 168.81,-43.31"/>
<g id="a_edge4&#45;headlabel"><a xlink:href="dir_000019_000022.html" target="_top" xlink:title="3">
<text text-anchor="middle" x="173" y="-42.66" font-family="Helvetica,sans-Serif" font-size="10.00">3</text>
</a>
</g>
</g>
</g>
</svg>
