<?xml version="1.0" encoding="UTF-8" standalone="no"?>
<!DOCTYPE svg PUBLIC "-//W3C//DTD SVG 1.1//EN"
 "http://www.w3.org/Graphics/SVG/1.1/DTD/svg11.dtd">
<!-- Generated by graphviz version 2.43.0 (0)
 -->
<!-- Title: analysis Pages: 1 -->
<svg width="251pt" height="204pt"
 viewBox="0.00 0.00 251.00 204.00" xmlns="http://www.w3.org/2000/svg" xmlns:xlink="http://www.w3.org/1999/xlink">
<g id="graph0" class="graph" transform="scale(1 1) rotate(0) translate(4 200)">
<title>analysis</title>
<polygon fill="white" stroke="transparent" points="-4,4 -4,-200 247,-200 247,4 -4,4"/>
<g id="clust1" class="cluster">
<title>clusterdir_b08bd9d679859e38df591d38874428cf</title>
<g id="a_clust1"><a xlink:href="dir_b08bd9d679859e38df591d38874428cf.html" target="_top">
<polygon fill="#eeeeff" stroke="black" points="8,-64 8,-188 154,-188 154,-64 8,-64"/>
</a>
</g>
</g>
<!-- dir_b08bd9d679859e38df591d38874428cf -->
<g id="node1" class="node">
<title>dir_b08bd9d679859e38df591d38874428cf</title>
<text text-anchor="middle" x="117" y="-159.5" font-family="Helvetica,sans-Serif" font-size="10.00">analysis</text>
</g>
<!-- dir_b95c07ea112d225497ac74ddfe863228 -->
<g id="node2" class="node">
<title>dir_b95c07ea112d225497ac74ddfe863228</title>
<g id="a_node2"><a xlink:href="dir_b95c07ea112d225497ac74ddfe863228.html" target="_top" xlink:title="inc">
<polygon fill="white" stroke="black" points="70,-108 16,-108 16,-72 70,-72 70,-108"/>
<text text-anchor="middle" x="43" y="-87.5" font-family="Helvetica,sans-Serif" font-size="10.00">inc</text>
</a>
</g>
</g>
<!-- dir_0bbcf62883b3c7844d35f0c75a5c0046 -->
<g id="node3" class="node">
<title>dir_0bbcf62883b3c7844d35f0c75a5c0046</title>
<g id="a_node3"><a xlink:href="dir_0bbcf62883b3c7844d35f0c75a5c0046.html" target="_top" xlink:title="src">
<polygon fill="white" stroke="black" points="70,-180 16,-180 16,-144 70,-144 70,-180"/>
<text text-anchor="middle" x="43" y="-159.5" font-family="Helvetica,sans-Serif" font-size="10.00">src</text>
</a>
</g>
</g>
<!-- dir_0bbcf62883b3c7844d35f0c75a5c0046&#45;&gt;dir_b95c07ea112d225497ac74ddfe863228 -->
<g id="edge4" class="edge">
<title>dir_0bbcf62883b3c7844d35f0c75a5c0046&#45;&gt;dir_b95c07ea112d225497ac74ddfe863228</title>
<path fill="none" stroke="black" d="M43,-143.7C43,-135.98 43,-126.71 43,-118.11"/>
<polygon fill="black" stroke="black" points="46.5,-118.1 43,-108.1 39.5,-118.1 46.5,-118.1"/>
<g id="a_edge4&#45;headlabel"><a xlink:href="dir_000002_000001.html" target="_top" xlink:title="1">
<text text-anchor="middle" x="49.34" y="-119.2" font-family="Helvetica,sans-Serif" font-size="10.00">1</text>
</a>
</g>
</g>
<!-- dir_fe6388d7d200ae9bafafbb3a8c5e4d3e -->
<g id="node4" class="node">
<title>dir_fe6388d7d200ae9bafafbb3a8c5e4d3e</title>
<g id="a_node4"><a xlink:href="dir_fe6388d7d200ae9bafafbb3a8c5e4d3e.html" target="_top" xlink:title="ui">
<polygon fill="white" stroke="red" points="216,-108 162,-108 162,-72 216,-72 216,-108"/>
<text text-anchor="middle" x="189" y="-87.5" font-family="Helvetica,sans-Serif" font-size="10.00">ui</text>
</a>
</g>
</g>
<!-- dir_0bbcf62883b3c7844d35f0c75a5c0046&#45;&gt;dir_fe6388d7d200ae9bafafbb3a8c5e4d3e -->
<g id="edge2" class="edge">
<title>dir_0bbcf62883b3c7844d35f0c75a5c0046&#45;&gt;dir_fe6388d7d200ae9bafafbb3a8c5e4d3e</title>
<path fill="none" stroke="black" d="M70.11,-148.15C73.11,-146.74 76.12,-145.34 79,-144 110.99,-129.16 121.68,-125.82 152.43,-110.72"/>
<polygon fill="black" stroke="black" points="154.27,-113.71 161.67,-106.13 151.16,-107.44 154.27,-113.71"/>
<g id="a_edge2&#45;headlabel"><a xlink:href="dir_000002_000019.html" target="_top" xlink:title="1">
<text text-anchor="middle" x="152.32" y="-115.35" font-family="Helvetica,sans-Serif" font-size="10.00">1</text>
</a>
</g>
</g>
<!-- dir_f08c1ffadff6e9e08f49766ff6ac3753 -->
<g id="node5" class="node">
<title>dir_f08c1ffadff6e9e08f49766ff6ac3753</title>
<g id="a_node5"><a xlink:href="dir_f08c1ffadff6e9e08f49766ff6ac3753.html" target="_top" xlink:title="utils">
<polygon fill="white" stroke="red" points="243,-36 189,-36 189,0 243,0 243,-36"/>
<text text-anchor="middle" x="216" y="-15.5" font-family="Helvetica,sans-Serif" font-size="10.00">utils</text>
</a>
</g>
</g>
<!-- dir_0bbcf62883b3c7844d35f0c75a5c0046&#45;&gt;dir_f08c1ffadff6e9e08f49766ff6ac3753 -->
<g id="edge3" class="edge">
<title>dir_0bbcf62883b3c7844d35f0c75a5c0046&#45;&gt;dir_f08c1ffadff6e9e08f49766ff6ac3753</title>
<path fill="none" stroke="black" d="M70.28,-147.43C73.19,-146.19 76.13,-145.02 79,-144 141.97,-121.62 183.79,-160.61 225,-108 238.7,-90.51 234.28,-64.77 227.71,-45.47"/>
<polygon fill="black" stroke="black" points="230.96,-44.17 224.16,-36.04 224.41,-46.63 230.96,-44.17"/>
<g id="a_edge3&#45;headlabel"><a xlink:href="dir_000002_000022.html" target="_top" xlink:title="2">
<text text-anchor="middle" x="234.88" y="-44.03" font-family="Helvetica,sans-Serif" font-size="10.00">2</text>
</a>
</g>
</g>
<!-- dir_fe6388d7d200ae9bafafbb3a8c5e4d3e&#45;&gt;dir_f08c1ffadff6e9e08f49766ff6ac3753 -->
<g id="edge1" class="edge">
<title>dir_fe6388d7d200ae9bafafbb3a8c5e4d3e&#45;&gt;dir_f08c1ffadff6e9e08f49766ff6ac3753</title>
<path fill="none" stroke="black" d="M195.67,-71.7C198.71,-63.81 202.38,-54.3 205.76,-45.55"/>
<polygon fill="black" stroke="black" points="209.07,-46.69 209.4,-36.1 202.54,-44.17 209.07,-46.69"/>
<g id="a_edge1&#45;headlabel"><a xlink:href="dir_000019_000022.html" target="_top" xlink:title="3">
<text text-anchor="middle" x="210.42" y="-48.57" font-family="Helvetica,sans-Serif" font-size="10.00">3</text>
</a>
</g>
</g>
</g>
</svg>
