<?xml version="1.0" encoding="UTF-8" standalone="no"?>
<!DOCTYPE svg PUBLIC "-//W3C//DTD SVG 1.1//EN"
 "http://www.w3.org/Graphics/SVG/1.1/DTD/svg11.dtd">
<!-- Generated by graphviz version 2.43.0 (0)
 -->
<!-- Title: container_runtime/inc/docker_cgroup_v1_path.hpp Pages: 1 -->
<svg width="340pt" height="117pt"
 viewBox="0.00 0.00 340.00 117.00" xmlns="http://www.w3.org/2000/svg" xmlns:xlink="http://www.w3.org/1999/xlink">
<g id="graph0" class="graph" transform="scale(1 1) rotate(0) translate(4 113)">
<title>container_runtime/inc/docker_cgroup_v1_path.hpp</title>
<polygon fill="white" stroke="transparent" points="-4,4 -4,-113 336,-113 336,4 -4,4"/>
<!-- Node1 -->
<g id="node1" class="node">
<title>Node1</title>
<g id="a_node1"><a xlink:title="Declares the DockerCgroupV1PathFactory for Docker cgroup v1 resource paths.">
<polygon fill="#bfbfbf" stroke="black" points="108.5,-78.5 108.5,-108.5 263.5,-108.5 263.5,-78.5 108.5,-78.5"/>
<text text-anchor="start" x="116.5" y="-96.5" font-family="Helvetica,sans-Serif" font-size="10.00">container_runtime/inc</text>
<text text-anchor="middle" x="186" y="-85.5" font-family="Helvetica,sans-Serif" font-size="10.00">/docker_cgroup_v1_path.hpp</text>
</a>
</g>
</g>
<!-- Node2 -->
<g id="node2" class="node">
<title>Node2</title>
<g id="a_node2"><a xlink:href="container__runtime__configuration_8cpp.html" target="_top" xlink:title="Implements the factory selector for container runtime path factories.">
<polygon fill="white" stroke="black" points="0,-6 0,-36 198,-36 198,-6 0,-6"/>
<text text-anchor="start" x="8" y="-24" font-family="Helvetica,sans-Serif" font-size="10.00">container_runtime/src</text>
<text text-anchor="middle" x="99" y="-13" font-family="Helvetica,sans-Serif" font-size="10.00">/container_runtime_configuration.cpp</text>
</a>
</g>
</g>
<!-- Node1&#45;&gt;Node2 -->
<g id="edge1" class="edge">
<title>Node1&#45;&gt;Node2</title>
<path fill="none" stroke="midnightblue" d="M160.44,-71.79C146.22,-60.27 128.9,-46.23 116.28,-36"/>
<polygon fill="midnightblue" stroke="midnightblue" points="158.42,-74.66 168.39,-78.23 162.83,-69.22 158.42,-74.66"/>
</g>
<!-- Node3 -->
<g id="node3" class="node">
<title>Node3</title>
<g id="a_node3"><a xlink:href="resource__thread__pool_8cpp.html" target="_top" xlink:title="Implements the ResourceThreadPool class for parallel container resource monitoring.">
<polygon fill="white" stroke="black" points="216,-0.5 216,-41.5 332,-41.5 332,-0.5 216,-0.5"/>
<text text-anchor="start" x="224" y="-29.5" font-family="Helvetica,sans-Serif" font-size="10.00">monitoring_service</text>
<text text-anchor="start" x="224" y="-18.5" font-family="Helvetica,sans-Serif" font-size="10.00">/src/resource_thread</text>
<text text-anchor="middle" x="274" y="-7.5" font-family="Helvetica,sans-Serif" font-size="10.00">_pool.cpp</text>
</a>
</g>
</g>
<!-- Node1&#45;&gt;Node3 -->
<g id="edge2" class="edge">
<title>Node1&#45;&gt;Node3</title>
<path fill="none" stroke="midnightblue" d="M211.67,-71.93C223.62,-62.36 237.76,-51.03 249.55,-41.59"/>
<polygon fill="midnightblue" stroke="midnightblue" points="209.42,-69.25 203.81,-78.23 213.8,-74.71 209.42,-69.25"/>
</g>
</g>
</svg>
