<?xml version="1.0" encoding="UTF-8" standalone="no"?>
<!DOCTYPE svg PUBLIC "-//W3C//DTD SVG 1.1//EN"
 "http://www.w3.org/Graphics/SVG/1.1/DTD/svg11.dtd">
<!-- Generated by graphviz version 2.43.0 (0)
 -->
<!-- Title: container_runtime/inc/docker_cgroup_v1_path.hpp Pages: 1 -->
<svg width="329pt" height="218pt"
 viewBox="0.00 0.00 328.50 218.00" xmlns="http://www.w3.org/2000/svg" xmlns:xlink="http://www.w3.org/1999/xlink">
<g id="graph0" class="graph" transform="scale(1 1) rotate(0) translate(4 214)">
<title>container_runtime/inc/docker_cgroup_v1_path.hpp</title>
<polygon fill="white" stroke="transparent" points="-4,4 -4,-214 324.5,-214 324.5,4 -4,4"/>
<!-- Node1 -->
<g id="node1" class="node">
<title>Node1</title>
<g id="a_node1"><a xlink:title="Declares the DockerCgroupV1PathFactory for Docker cgroup v1 resource paths.">
<polygon fill="#bfbfbf" stroke="black" points="59.5,-179.5 59.5,-209.5 214.5,-209.5 214.5,-179.5 59.5,-179.5"/>
<text text-anchor="start" x="67.5" y="-197.5" font-family="Helvetica,sans-Serif" font-size="10.00">container_runtime/inc</text>
<text text-anchor="middle" x="137" y="-186.5" font-family="Helvetica,sans-Serif" font-size="10.00">/docker_cgroup_v1_path.hpp</text>
</a>
</g>
</g>
<!-- Node2 -->
<g id="node2" class="node">
<title>Node2</title>
<g id="a_node2"><a xlink:title=" ">
<polygon fill="white" stroke="#bfbfbf" points="0,-118 0,-137 46,-137 46,-118 0,-118"/>
<text text-anchor="middle" x="23" y="-125" font-family="Helvetica,sans-Serif" font-size="10.00">cstdio</text>
</a>
</g>
</g>
<!-- Node1&#45;&gt;Node2 -->
<g id="edge1" class="edge">
<title>Node1&#45;&gt;Node2</title>
<path fill="none" stroke="midnightblue" d="M112.26,-179.4C92.79,-168.29 65.83,-152.92 46.65,-141.98"/>
<polygon fill="midnightblue" stroke="midnightblue" points="48.34,-138.92 37.92,-137.01 44.87,-145 48.34,-138.92"/>
</g>
<!-- Node3 -->
<g id="node3" class="node">
<title>Node3</title>
<g id="a_node3"><a xlink:href="common_8hpp.html" target="_top" xlink:title="Common data structures, constants, and configuration for container monitoring.">
<polygon fill="white" stroke="black" points="165,-56.5 165,-75.5 245,-75.5 245,-56.5 165,-56.5"/>
<text text-anchor="middle" x="205" y="-63.5" font-family="Helvetica,sans-Serif" font-size="10.00">common.hpp</text>
</a>
</g>
</g>
<!-- Node1&#45;&gt;Node3 -->
<g id="edge2" class="edge">
<title>Node1&#45;&gt;Node3</title>
<path fill="none" stroke="midnightblue" d="M176.12,-179.48C192.43,-171.47 209.71,-159.64 219,-143 229.09,-124.94 221.94,-101.06 214.66,-84.92"/>
<polygon fill="midnightblue" stroke="midnightblue" points="217.61,-82.99 210.04,-75.58 211.34,-86.09 217.61,-82.99"/>
</g>
<!-- Node7 -->
<g id="node7" class="node">
<title>Node7</title>
<g id="a_node7"><a xlink:href="container__runtime__factory__interface_8hpp.html" target="_top" xlink:title="Declares the interface for container runtime path factories.">
<polygon fill="white" stroke="black" points="64,-112.5 64,-142.5 210,-142.5 210,-112.5 64,-112.5"/>
<text text-anchor="start" x="72" y="-130.5" font-family="Helvetica,sans-Serif" font-size="10.00">container_runtime_factory</text>
<text text-anchor="middle" x="137" y="-119.5" font-family="Helvetica,sans-Serif" font-size="10.00">_interface.hpp</text>
</a>
</g>
</g>
<!-- Node1&#45;&gt;Node7 -->
<g id="edge6" class="edge">
<title>Node1&#45;&gt;Node7</title>
<path fill="none" stroke="midnightblue" d="M137,-179.4C137,-171.64 137,-161.81 137,-152.86"/>
<polygon fill="midnightblue" stroke="midnightblue" points="140.5,-152.58 137,-142.58 133.5,-152.58 140.5,-152.58"/>
</g>
<!-- Node4 -->
<g id="node4" class="node">
<title>Node4</title>
<g id="a_node4"><a xlink:title=" ">
<polygon fill="white" stroke="#bfbfbf" points="116,-0.5 116,-19.5 160,-19.5 160,-0.5 116,-0.5"/>
<text text-anchor="middle" x="138" y="-7.5" font-family="Helvetica,sans-Serif" font-size="10.00">string</text>
</a>
</g>
</g>
<!-- Node3&#45;&gt;Node4 -->
<g id="edge3" class="edge">
<title>Node3&#45;&gt;Node4</title>
<path fill="none" stroke="midnightblue" d="M194.24,-56.32C184.23,-48.26 169.11,-36.08 157.07,-26.37"/>
<polygon fill="midnightblue" stroke="midnightblue" points="158.94,-23.38 148.96,-19.83 154.55,-28.83 158.94,-23.38"/>
</g>
<!-- Node5 -->
<g id="node5" class="node">
<title>Node5</title>
<g id="a_node5"><a xlink:title=" ">
<polygon fill="white" stroke="#bfbfbf" points="179,-0.5 179,-19.5 229,-19.5 229,-0.5 179,-0.5"/>
<text text-anchor="middle" x="204" y="-7.5" font-family="Helvetica,sans-Serif" font-size="10.00">cstring</text>
</a>
</g>
</g>
<!-- Node3&#45;&gt;Node5 -->
<g id="edge4" class="edge">
<title>Node3&#45;&gt;Node5</title>
<path fill="none" stroke="midnightblue" d="M204.83,-56.08C204.7,-49.01 204.52,-38.86 204.35,-29.99"/>
<polygon fill="midnightblue" stroke="midnightblue" points="207.85,-29.68 204.16,-19.75 200.85,-29.81 207.85,-29.68"/>
</g>
<!-- Node6 -->
<g id="node6" class="node">
<title>Node6</title>
<g id="a_node6"><a xlink:title=" ">
<polygon fill="white" stroke="#bfbfbf" points="247.5,-0.5 247.5,-19.5 320.5,-19.5 320.5,-0.5 247.5,-0.5"/>
<text text-anchor="middle" x="284" y="-7.5" font-family="Helvetica,sans-Serif" font-size="10.00">string_view</text>
</a>
</g>
</g>
<!-- Node3&#45;&gt;Node6 -->
<g id="edge5" class="edge">
<title>Node3&#45;&gt;Node6</title>
<path fill="none" stroke="midnightblue" d="M217.69,-56.32C229.9,-47.98 248.58,-35.21 263,-25.35"/>
<polygon fill="midnightblue" stroke="midnightblue" points="265.06,-28.19 271.34,-19.65 261.11,-22.41 265.06,-28.19"/>
</g>
<!-- Node7&#45;&gt;Node3 -->
<g id="edge8" class="edge">
<title>Node7&#45;&gt;Node3</title>
<path fill="none" stroke="midnightblue" d="M153.12,-112.4C163.4,-103.4 176.75,-91.72 187.33,-82.47"/>
<polygon fill="midnightblue" stroke="midnightblue" points="189.88,-84.88 195.11,-75.66 185.27,-79.61 189.88,-84.88"/>
</g>
<!-- Node7&#45;&gt;Node4 -->
<g id="edge7" class="edge">
<title>Node7&#45;&gt;Node4</title>
<path fill="none" stroke="midnightblue" d="M137.12,-112.34C137.3,-91.62 137.64,-53.02 137.84,-29.9"/>
<polygon fill="midnightblue" stroke="midnightblue" points="141.34,-29.7 137.92,-19.67 134.34,-29.64 141.34,-29.7"/>
</g>
</g>
</svg>
