<?xml version="1.0" encoding="UTF-8" standalone="no"?>
<!DOCTYPE svg PUBLIC "-//W3C//DTD SVG 1.1//EN"
 "http://www.w3.org/Graphics/SVG/1.1/DTD/svg11.dtd">
<!-- Generated by graphviz version 2.43.0 (0)
 -->
<!-- Title: monitoring_service/src/event_queue.cpp Pages: 1 -->
<svg width="310pt" height="151pt"
 viewBox="0.00 0.00 309.50 151.00" xmlns="http://www.w3.org/2000/svg" xmlns:xlink="http://www.w3.org/1999/xlink">
<g id="graph0" class="graph" transform="scale(1 1) rotate(0) translate(4 147)">
<title>monitoring_service/src/event_queue.cpp</title>
<polygon fill="white" stroke="transparent" points="-4,4 -4,-147 305.5,-147 305.5,4 -4,4"/>
<!-- Node1 -->
<g id="node1" class="node">
<title>Node1</title>
<g id="a_node1"><a xlink:title="Implements the EventQueue class for thread&#45;safe event management.">
<polygon fill="#bfbfbf" stroke="black" points="77.5,-112.5 77.5,-142.5 197.5,-142.5 197.5,-112.5 77.5,-112.5"/>
<text text-anchor="start" x="85.5" y="-130.5" font-family="Helvetica,sans-Serif" font-size="10.00">monitoring_service</text>
<text text-anchor="middle" x="137.5" y="-119.5" font-family="Helvetica,sans-Serif" font-size="10.00">/src/event_queue.cpp</text>
</a>
</g>
</g>
<!-- Node2 -->
<g id="node2" class="node">
<title>Node2</title>
<g id="a_node2"><a xlink:href="event__queue_8hpp.html" target="_top" xlink:title="Declares the EventQueue class for thread&#45;safe event management.">
<polygon fill="white" stroke="black" points="87,-56.5 87,-75.5 188,-75.5 188,-56.5 87,-56.5"/>
<text text-anchor="middle" x="137.5" y="-63.5" font-family="Helvetica,sans-Serif" font-size="10.00">event_queue.hpp</text>
</a>
</g>
</g>
<!-- Node1&#45;&gt;Node2 -->
<g id="edge1" class="edge">
<title>Node1&#45;&gt;Node2</title>
<path fill="none" stroke="midnightblue" d="M137.5,-112.4C137.5,-104.47 137.5,-94.46 137.5,-85.86"/>
<polygon fill="midnightblue" stroke="midnightblue" points="141,-85.66 137.5,-75.66 134,-85.66 141,-85.66"/>
</g>
<!-- Node3 -->
<g id="node3" class="node">
<title>Node3</title>
<g id="a_node3"><a xlink:title=" ">
<polygon fill="white" stroke="#bfbfbf" points="0,-0.5 0,-19.5 47,-19.5 47,-0.5 0,-0.5"/>
<text text-anchor="middle" x="23.5" y="-7.5" font-family="Helvetica,sans-Serif" font-size="10.00">queue</text>
</a>
</g>
</g>
<!-- Node2&#45;&gt;Node3 -->
<g id="edge2" class="edge">
<title>Node2&#45;&gt;Node3</title>
<path fill="none" stroke="midnightblue" d="M119.44,-56.44C100.93,-47.68 71.92,-33.94 50.64,-23.86"/>
<polygon fill="midnightblue" stroke="midnightblue" points="52.01,-20.63 41.48,-19.52 49.02,-26.96 52.01,-20.63"/>
</g>
<!-- Node4 -->
<g id="node4" class="node">
<title>Node4</title>
<g id="a_node4"><a xlink:title=" ">
<polygon fill="white" stroke="#bfbfbf" points="65.5,-0.5 65.5,-19.5 113.5,-19.5 113.5,-0.5 65.5,-0.5"/>
<text text-anchor="middle" x="89.5" y="-7.5" font-family="Helvetica,sans-Serif" font-size="10.00">mutex</text>
</a>
</g>
</g>
<!-- Node2&#45;&gt;Node4 -->
<g id="edge3" class="edge">
<title>Node2&#45;&gt;Node4</title>
<path fill="none" stroke="midnightblue" d="M129.57,-56.08C122.65,-48.3 112.43,-36.8 104.05,-27.37"/>
<polygon fill="midnightblue" stroke="midnightblue" points="106.54,-24.9 97.28,-19.75 101.31,-29.55 106.54,-24.9"/>
</g>
<!-- Node5 -->
<g id="node5" class="node">
<title>Node5</title>
<g id="a_node5"><a xlink:title=" ">
<polygon fill="white" stroke="#bfbfbf" points="132,-0.5 132,-19.5 239,-19.5 239,-0.5 132,-0.5"/>
<text text-anchor="middle" x="185.5" y="-7.5" font-family="Helvetica,sans-Serif" font-size="10.00">condition_variable</text>
</a>
</g>
</g>
<!-- Node2&#45;&gt;Node5 -->
<g id="edge4" class="edge">
<title>Node2&#45;&gt;Node5</title>
<path fill="none" stroke="midnightblue" d="M145.43,-56.08C152.35,-48.3 162.57,-36.8 170.95,-27.37"/>
<polygon fill="midnightblue" stroke="midnightblue" points="173.69,-29.55 177.72,-19.75 168.46,-24.9 173.69,-29.55"/>
</g>
<!-- Node6 -->
<g id="node6" class="node">
<title>Node6</title>
<g id="a_node6"><a xlink:title=" ">
<polygon fill="white" stroke="#bfbfbf" points="257.5,-0.5 257.5,-19.5 301.5,-19.5 301.5,-0.5 257.5,-0.5"/>
<text text-anchor="middle" x="279.5" y="-7.5" font-family="Helvetica,sans-Serif" font-size="10.00">string</text>
</a>
</g>
</g>
<!-- Node2&#45;&gt;Node6 -->
<g id="edge5" class="edge">
<title>Node2&#45;&gt;Node6</title>
<path fill="none" stroke="midnightblue" d="M160,-56.44C183.58,-47.48 220.82,-33.31 247.46,-23.18"/>
<polygon fill="midnightblue" stroke="midnightblue" points="249,-26.34 257.1,-19.52 246.51,-19.8 249,-26.34"/>
</g>
</g>
</svg>
