<?xml version="1.0" encoding="UTF-8" standalone="no"?>
<!DOCTYPE svg PUBLIC "-//W3C//DTD SVG 1.1//EN"
 "http://www.w3.org/Graphics/SVG/1.1/DTD/svg11.dtd">
<!-- Generated by graphviz version 2.43.0 (0)
 -->
<!-- Title: monitoring_service/src/event_processor.cpp Pages: 1 -->
<svg width="922pt" height="263pt"
 viewBox="0.00 0.00 922.00 263.00" xmlns="http://www.w3.org/2000/svg" xmlns:xlink="http://www.w3.org/1999/xlink">
<g id="graph0" class="graph" transform="scale(1 1) rotate(0) translate(4 259)">
<title>monitoring_service/src/event_processor.cpp</title>
<polygon fill="white" stroke="transparent" points="-4,4 -4,-259 918,-259 918,4 -4,4"/>
<!-- Node1 -->
<g id="node1" class="node">
<title>Node1</title>
<g id="a_node1"><a xlink:title="Implements the EventProcessor class for processing container events and host metrics.">
<polygon fill="#bfbfbf" stroke="black" points="603.5,-224.5 603.5,-254.5 740.5,-254.5 740.5,-224.5 603.5,-224.5"/>
<text text-anchor="start" x="611.5" y="-242.5" font-family="Helvetica,sans-Serif" font-size="10.00">monitoring_service</text>
<text text-anchor="middle" x="672" y="-231.5" font-family="Helvetica,sans-Serif" font-size="10.00">/src/event_processor.cpp</text>
</a>
</g>
</g>
<!-- Node2 -->
<g id="node2" class="node">
<title>Node2</title>
<g id="a_node2"><a xlink:href="event__processor_8hpp.html" target="_top" xlink:title="Declares the EventProcessor class for processing container events and host metrics.">
<polygon fill="white" stroke="black" points="400.5,-168.5 400.5,-187.5 517.5,-187.5 517.5,-168.5 400.5,-168.5"/>
<text text-anchor="middle" x="459" y="-175.5" font-family="Helvetica,sans-Serif" font-size="10.00">event_processor.hpp</text>
</a>
</g>
</g>
<!-- Node1&#45;&gt;Node2 -->
<g id="edge1" class="edge">
<title>Node1&#45;&gt;Node2</title>
<path fill="none" stroke="midnightblue" d="M621.79,-224.47C584.4,-214.03 534.02,-199.96 499.26,-190.25"/>
<polygon fill="midnightblue" stroke="midnightblue" points="500.02,-186.83 489.45,-187.51 498.14,-193.57 500.02,-186.83"/>
</g>
<!-- Node17 -->
<g id="node17" class="node">
<title>Node17</title>
<g id="a_node17"><a xlink:title=" ">
<polygon fill="white" stroke="#bfbfbf" points="536,-168.5 536,-187.5 596,-187.5 596,-168.5 536,-168.5"/>
<text text-anchor="middle" x="566" y="-175.5" font-family="Helvetica,sans-Serif" font-size="10.00">iostream</text>
</a>
</g>
</g>
<!-- Node1&#45;&gt;Node17 -->
<g id="edge20" class="edge">
<title>Node1&#45;&gt;Node17</title>
<path fill="none" stroke="midnightblue" d="M646.88,-224.4C629.73,-214.77 607.14,-202.09 590.19,-192.58"/>
<polygon fill="midnightblue" stroke="midnightblue" points="591.86,-189.5 581.42,-187.66 588.43,-195.6 591.86,-189.5"/>
</g>
<!-- Node18 -->
<g id="node18" class="node">
<title>Node18</title>
<g id="a_node18"><a xlink:href="logger_8hpp.html" target="_top" xlink:title="Logging macros for the container monitor application.">
<polygon fill="white" stroke="black" points="813,-168.5 813,-187.5 881,-187.5 881,-168.5 813,-168.5"/>
<text text-anchor="middle" x="847" y="-175.5" font-family="Helvetica,sans-Serif" font-size="10.00">logger.hpp</text>
</a>
</g>
</g>
<!-- Node1&#45;&gt;Node18 -->
<g id="edge21" class="edge">
<title>Node1&#45;&gt;Node18</title>
<path fill="none" stroke="midnightblue" d="M713.47,-224.4C743.58,-214.16 783.85,-200.47 812.27,-190.81"/>
<polygon fill="midnightblue" stroke="midnightblue" points="813.45,-194.1 821.79,-187.57 811.2,-187.48 813.45,-194.1"/>
</g>
<!-- Node20 -->
<g id="node20" class="node">
<title>Node20</title>
<g id="a_node20"><a xlink:href="json__processing_8hpp.html" target="_top" xlink:title="Declares functions and structs for parsing container event JSON.">
<polygon fill="white" stroke="black" points="614,-168.5 614,-187.5 730,-187.5 730,-168.5 614,-168.5"/>
<text text-anchor="middle" x="672" y="-175.5" font-family="Helvetica,sans-Serif" font-size="10.00">json_processing.hpp</text>
</a>
</g>
</g>
<!-- Node1&#45;&gt;Node20 -->
<g id="edge23" class="edge">
<title>Node1&#45;&gt;Node20</title>
<path fill="none" stroke="midnightblue" d="M672,-224.4C672,-216.47 672,-206.46 672,-197.86"/>
<polygon fill="midnightblue" stroke="midnightblue" points="675.5,-197.66 672,-187.66 668.5,-197.66 675.5,-197.66"/>
</g>
<!-- Node21 -->
<g id="node21" class="node">
<title>Node21</title>
<g id="a_node21"><a xlink:href="metrics__reader_8hpp.html" target="_top" xlink:title="Declares the MetricsReader class for reading container and host metrics.">
<polygon fill="white" stroke="black" points="700,-112.5 700,-131.5 810,-131.5 810,-112.5 700,-112.5"/>
<text text-anchor="middle" x="755" y="-119.5" font-family="Helvetica,sans-Serif" font-size="10.00">metrics_reader.hpp</text>
</a>
</g>
</g>
<!-- Node1&#45;&gt;Node21 -->
<g id="edge25" class="edge">
<title>Node1&#45;&gt;Node21</title>
<path fill="none" stroke="midnightblue" d="M698.8,-224.3C712.77,-215.59 728.97,-203.2 739,-188 748.1,-174.21 752.03,-155.68 753.72,-141.94"/>
<polygon fill="midnightblue" stroke="midnightblue" points="757.23,-142.01 754.68,-131.73 750.26,-141.36 757.23,-142.01"/>
</g>
<!-- Node3 -->
<g id="node3" class="node">
<title>Node3</title>
<g id="a_node3"><a xlink:title=" ">
<polygon fill="white" stroke="#bfbfbf" points="490,-112.5 490,-131.5 540,-131.5 540,-112.5 490,-112.5"/>
<text text-anchor="middle" x="515" y="-119.5" font-family="Helvetica,sans-Serif" font-size="10.00">atomic</text>
</a>
</g>
</g>
<!-- Node2&#45;&gt;Node3 -->
<g id="edge2" class="edge">
<title>Node2&#45;&gt;Node3</title>
<path fill="none" stroke="midnightblue" d="M468,-168.32C476.19,-160.42 488.51,-148.55 498.47,-138.94"/>
<polygon fill="midnightblue" stroke="midnightblue" points="501.07,-141.29 505.84,-131.83 496.21,-136.26 501.07,-141.29"/>
</g>
<!-- Node4 -->
<g id="node4" class="node">
<title>Node4</title>
<g id="a_node4"><a xlink:title=" ">
<polygon fill="white" stroke="#bfbfbf" points="558,-112.5 558,-131.5 606,-131.5 606,-112.5 558,-112.5"/>
<text text-anchor="middle" x="582" y="-119.5" font-family="Helvetica,sans-Serif" font-size="10.00">thread</text>
</a>
</g>
</g>
<!-- Node2&#45;&gt;Node4 -->
<g id="edge3" class="edge">
<title>Node2&#45;&gt;Node4</title>
<path fill="none" stroke="midnightblue" d="M478.49,-168.44C498.64,-159.6 530.32,-145.69 553.33,-135.59"/>
<polygon fill="midnightblue" stroke="midnightblue" points="554.85,-138.74 562.6,-131.52 552.04,-132.33 554.85,-138.74"/>
</g>
<!-- Node5 -->
<g id="node5" class="node">
<title>Node5</title>
<g id="a_node5"><a xlink:title=" ">
<polygon fill="white" stroke="#bfbfbf" points="523,-0.5 523,-19.5 567,-19.5 567,-0.5 523,-0.5"/>
<text text-anchor="middle" x="545" y="-7.5" font-family="Helvetica,sans-Serif" font-size="10.00">string</text>
</a>
</g>
</g>
<!-- Node2&#45;&gt;Node5 -->
<g id="edge4" class="edge">
<title>Node2&#45;&gt;Node5</title>
<path fill="none" stroke="midnightblue" d="M461.22,-168.33C464.64,-155.62 471.76,-131.35 481,-112 495.98,-80.63 518.75,-47.08 532.71,-27.62"/>
<polygon fill="midnightblue" stroke="midnightblue" points="535.56,-29.65 538.61,-19.51 529.9,-25.54 535.56,-29.65"/>
</g>
<!-- Node6 -->
<g id="node6" class="node">
<title>Node6</title>
<g id="a_node6"><a xlink:title=" ">
<polygon fill="white" stroke="#bfbfbf" points="191.5,-112.5 191.5,-131.5 284.5,-131.5 284.5,-112.5 191.5,-112.5"/>
<text text-anchor="middle" x="238" y="-119.5" font-family="Helvetica,sans-Serif" font-size="10.00">unordered_map</text>
</a>
</g>
</g>
<!-- Node2&#45;&gt;Node6 -->
<g id="edge5" class="edge">
<title>Node2&#45;&gt;Node6</title>
<path fill="none" stroke="midnightblue" d="M423.98,-168.44C385.75,-159.1 324.43,-144.12 282.74,-133.93"/>
<polygon fill="midnightblue" stroke="midnightblue" points="283.4,-130.49 272.85,-131.52 281.74,-137.29 283.4,-130.49"/>
</g>
<!-- Node7 -->
<g id="node7" class="node">
<title>Node7</title>
<g id="a_node7"><a xlink:href="common_8hpp.html" target="_top" xlink:title="Common data structures, constants, and configuration for container monitoring.">
<polygon fill="white" stroke="black" points="647,-56.5 647,-75.5 727,-75.5 727,-56.5 647,-56.5"/>
<text text-anchor="middle" x="687" y="-63.5" font-family="Helvetica,sans-Serif" font-size="10.00">common.hpp</text>
</a>
</g>
</g>
<!-- Node2&#45;&gt;Node7 -->
<g id="edge6" class="edge">
<title>Node2&#45;&gt;Node7</title>
<path fill="none" stroke="midnightblue" d="M509.74,-168.44C541.41,-161.66 582.24,-150.22 615,-132 637.88,-119.27 659.53,-98.03 673,-83.31"/>
<polygon fill="midnightblue" stroke="midnightblue" points="675.91,-85.31 679.93,-75.51 670.67,-80.66 675.91,-85.31"/>
</g>
<!-- Node10 -->
<g id="node10" class="node">
<title>Node10</title>
<g id="a_node10"><a xlink:href="event__queue_8hpp.html" target="_top" xlink:title="Declares the EventQueue class for thread&#45;safe event management.">
<polygon fill="white" stroke="black" points="72.5,-112.5 72.5,-131.5 173.5,-131.5 173.5,-112.5 72.5,-112.5"/>
<text text-anchor="middle" x="123" y="-119.5" font-family="Helvetica,sans-Serif" font-size="10.00">event_queue.hpp</text>
</a>
</g>
</g>
<!-- Node2&#45;&gt;Node10 -->
<g id="edge10" class="edge">
<title>Node2&#45;&gt;Node10</title>
<path fill="none" stroke="midnightblue" d="M405.76,-168.44C345.37,-158.74 247.1,-142.94 183.76,-132.76"/>
<polygon fill="midnightblue" stroke="midnightblue" points="183.95,-129.25 173.52,-131.12 182.84,-136.16 183.95,-129.25"/>
</g>
<!-- Node14 -->
<g id="node14" class="node">
<title>Node14</title>
<g id="a_node14"><a xlink:href="database__interface_8hpp.html" target="_top" xlink:title="Declares the abstract interface for database operations in container monitoring.">
<polygon fill="white" stroke="black" points="302.5,-112.5 302.5,-131.5 433.5,-131.5 433.5,-112.5 302.5,-112.5"/>
<text text-anchor="middle" x="368" y="-119.5" font-family="Helvetica,sans-Serif" font-size="10.00">database_interface.hpp</text>
</a>
</g>
</g>
<!-- Node2&#45;&gt;Node14 -->
<g id="edge15" class="edge">
<title>Node2&#45;&gt;Node14</title>
<path fill="none" stroke="midnightblue" d="M444.38,-168.32C430.05,-159.82 407.99,-146.73 391.25,-136.8"/>
<polygon fill="midnightblue" stroke="midnightblue" points="392.97,-133.75 382.58,-131.65 389.4,-139.77 392.97,-133.75"/>
</g>
<!-- Node7&#45;&gt;Node5 -->
<g id="edge7" class="edge">
<title>Node7&#45;&gt;Node5</title>
<path fill="none" stroke="midnightblue" d="M664.5,-56.44C640.92,-47.48 603.68,-33.31 577.04,-23.18"/>
<polygon fill="midnightblue" stroke="midnightblue" points="577.99,-19.8 567.4,-19.52 575.5,-26.34 577.99,-19.8"/>
</g>
<!-- Node8 -->
<g id="node8" class="node">
<title>Node8</title>
<g id="a_node8"><a xlink:title=" ">
<polygon fill="white" stroke="#bfbfbf" points="622,-0.5 622,-19.5 672,-19.5 672,-0.5 622,-0.5"/>
<text text-anchor="middle" x="647" y="-7.5" font-family="Helvetica,sans-Serif" font-size="10.00">cstring</text>
</a>
</g>
</g>
<!-- Node7&#45;&gt;Node8 -->
<g id="edge8" class="edge">
<title>Node7&#45;&gt;Node8</title>
<path fill="none" stroke="midnightblue" d="M680.39,-56.08C674.74,-48.46 666.46,-37.26 659.55,-27.94"/>
<polygon fill="midnightblue" stroke="midnightblue" points="662.25,-25.7 653.48,-19.75 656.62,-29.87 662.25,-25.7"/>
</g>
<!-- Node9 -->
<g id="node9" class="node">
<title>Node9</title>
<g id="a_node9"><a xlink:title=" ">
<polygon fill="white" stroke="#bfbfbf" points="690.5,-0.5 690.5,-19.5 763.5,-19.5 763.5,-0.5 690.5,-0.5"/>
<text text-anchor="middle" x="727" y="-7.5" font-family="Helvetica,sans-Serif" font-size="10.00">string_view</text>
</a>
</g>
</g>
<!-- Node7&#45;&gt;Node9 -->
<g id="edge9" class="edge">
<title>Node7&#45;&gt;Node9</title>
<path fill="none" stroke="midnightblue" d="M693.61,-56.08C699.26,-48.46 707.54,-37.26 714.45,-27.94"/>
<polygon fill="midnightblue" stroke="midnightblue" points="717.38,-29.87 720.52,-19.75 711.75,-25.7 717.38,-29.87"/>
</g>
<!-- Node10&#45;&gt;Node5 -->
<g id="edge14" class="edge">
<title>Node10&#45;&gt;Node5</title>
<path fill="none" stroke="midnightblue" d="M145.29,-112.43C180.93,-98.97 253.12,-72.69 316,-56 385.43,-37.57 468.52,-23.09 513.06,-15.92"/>
<polygon fill="midnightblue" stroke="midnightblue" points="513.67,-19.37 523,-14.34 512.57,-12.45 513.67,-19.37"/>
</g>
<!-- Node11 -->
<g id="node11" class="node">
<title>Node11</title>
<g id="a_node11"><a xlink:title=" ">
<polygon fill="white" stroke="#bfbfbf" points="191.5,-56.5 191.5,-75.5 238.5,-75.5 238.5,-56.5 191.5,-56.5"/>
<text text-anchor="middle" x="215" y="-63.5" font-family="Helvetica,sans-Serif" font-size="10.00">queue</text>
</a>
</g>
</g>
<!-- Node10&#45;&gt;Node11 -->
<g id="edge11" class="edge">
<title>Node10&#45;&gt;Node11</title>
<path fill="none" stroke="midnightblue" d="M137.78,-112.32C152.27,-103.82 174.57,-90.73 191.49,-80.8"/>
<polygon fill="midnightblue" stroke="midnightblue" points="193.4,-83.74 200.26,-75.65 189.86,-77.7 193.4,-83.74"/>
</g>
<!-- Node12 -->
<g id="node12" class="node">
<title>Node12</title>
<g id="a_node12"><a xlink:title=" ">
<polygon fill="white" stroke="#bfbfbf" points="0,-56.5 0,-75.5 48,-75.5 48,-56.5 0,-56.5"/>
<text text-anchor="middle" x="24" y="-63.5" font-family="Helvetica,sans-Serif" font-size="10.00">mutex</text>
</a>
</g>
</g>
<!-- Node10&#45;&gt;Node12 -->
<g id="edge12" class="edge">
<title>Node10&#45;&gt;Node12</title>
<path fill="none" stroke="midnightblue" d="M107.09,-112.32C91.36,-103.74 67.06,-90.49 48.79,-80.52"/>
<polygon fill="midnightblue" stroke="midnightblue" points="50.32,-77.37 39.87,-75.65 46.97,-83.52 50.32,-77.37"/>
</g>
<!-- Node13 -->
<g id="node13" class="node">
<title>Node13</title>
<g id="a_node13"><a xlink:title=" ">
<polygon fill="white" stroke="#bfbfbf" points="66.5,-56.5 66.5,-75.5 173.5,-75.5 173.5,-56.5 66.5,-56.5"/>
<text text-anchor="middle" x="120" y="-63.5" font-family="Helvetica,sans-Serif" font-size="10.00">condition_variable</text>
</a>
</g>
</g>
<!-- Node10&#45;&gt;Node13 -->
<g id="edge13" class="edge">
<title>Node10&#45;&gt;Node13</title>
<path fill="none" stroke="midnightblue" d="M122.5,-112.08C122.11,-105.01 121.55,-94.86 121.05,-85.99"/>
<polygon fill="midnightblue" stroke="midnightblue" points="124.54,-85.54 120.49,-75.75 117.55,-85.93 124.54,-85.54"/>
</g>
<!-- Node14&#45;&gt;Node5 -->
<g id="edge18" class="edge">
<title>Node14&#45;&gt;Node5</title>
<path fill="none" stroke="midnightblue" d="M354.87,-112.45C336.85,-99.69 308.4,-75.1 324,-56 347.5,-27.23 457.6,-16.38 513,-12.7"/>
<polygon fill="midnightblue" stroke="midnightblue" points="513.23,-16.19 522.99,-12.07 512.79,-9.21 513.23,-16.19"/>
</g>
<!-- Node14&#45;&gt;Node7 -->
<g id="edge19" class="edge">
<title>Node14&#45;&gt;Node7</title>
<path fill="none" stroke="midnightblue" d="M418.55,-112.44C478.33,-102.32 577.24,-85.58 636.85,-75.49"/>
<polygon fill="midnightblue" stroke="midnightblue" points="637.51,-78.93 646.79,-73.81 636.35,-72.02 637.51,-78.93"/>
</g>
<!-- Node15 -->
<g id="node15" class="node">
<title>Node15</title>
<g id="a_node15"><a xlink:title=" ">
<polygon fill="white" stroke="#bfbfbf" points="333.5,-56.5 333.5,-75.5 380.5,-75.5 380.5,-56.5 333.5,-56.5"/>
<text text-anchor="middle" x="357" y="-63.5" font-family="Helvetica,sans-Serif" font-size="10.00">vector</text>
</a>
</g>
</g>
<!-- Node14&#45;&gt;Node15 -->
<g id="edge16" class="edge">
<title>Node14&#45;&gt;Node15</title>
<path fill="none" stroke="midnightblue" d="M366.18,-112.08C364.73,-104.93 362.63,-94.64 360.81,-85.69"/>
<polygon fill="midnightblue" stroke="midnightblue" points="364.21,-84.85 358.78,-75.75 357.35,-86.25 364.21,-84.85"/>
</g>
<!-- Node16 -->
<g id="node16" class="node">
<title>Node16</title>
<g id="a_node16"><a xlink:title=" ">
<polygon fill="white" stroke="#bfbfbf" points="399,-56.5 399,-75.5 437,-75.5 437,-56.5 399,-56.5"/>
<text text-anchor="middle" x="418" y="-63.5" font-family="Helvetica,sans-Serif" font-size="10.00">map</text>
</a>
</g>
</g>
<!-- Node14&#45;&gt;Node16 -->
<g id="edge17" class="edge">
<title>Node14&#45;&gt;Node16</title>
<path fill="none" stroke="midnightblue" d="M376.26,-112.08C383.46,-104.3 394.11,-92.8 402.85,-83.37"/>
<polygon fill="midnightblue" stroke="midnightblue" points="405.67,-85.47 409.9,-75.75 400.53,-80.71 405.67,-85.47"/>
</g>
<!-- Node19 -->
<g id="node19" class="node">
<title>Node19</title>
<g id="a_node19"><a xlink:title=" ">
<polygon fill="white" stroke="#bfbfbf" points="828,-112.5 828,-131.5 914,-131.5 914,-112.5 828,-112.5"/>
<text text-anchor="middle" x="871" y="-119.5" font-family="Helvetica,sans-Serif" font-size="10.00">glog/logging.h</text>
</a>
</g>
</g>
<!-- Node18&#45;&gt;Node19 -->
<g id="edge22" class="edge">
<title>Node18&#45;&gt;Node19</title>
<path fill="none" stroke="midnightblue" d="M850.96,-168.08C854.21,-160.77 858.92,-150.18 862.95,-141.1"/>
<polygon fill="midnightblue" stroke="midnightblue" points="866.25,-142.31 867.11,-131.75 859.85,-139.47 866.25,-142.31"/>
</g>
<!-- Node20&#45;&gt;Node5 -->
<g id="edge24" class="edge">
<title>Node20&#45;&gt;Node5</title>
<path fill="none" stroke="midnightblue" d="M665.17,-168.08C644.83,-141.49 584.43,-62.54 557.82,-27.76"/>
<polygon fill="midnightblue" stroke="midnightblue" points="560.41,-25.38 551.56,-19.57 554.85,-29.64 560.41,-25.38"/>
</g>
<!-- Node21&#45;&gt;Node5 -->
<g id="edge26" class="edge">
<title>Node21&#45;&gt;Node5</title>
<path fill="none" stroke="midnightblue" d="M755.07,-112.45C754.71,-98.54 751.87,-71.05 736,-56 724.47,-45.06 628.23,-26.15 576.92,-16.71"/>
<polygon fill="midnightblue" stroke="midnightblue" points="577.47,-13.25 567,-14.9 576.21,-20.14 577.47,-13.25"/>
</g>
<!-- Node21&#45;&gt;Node7 -->
<g id="edge27" class="edge">
<title>Node21&#45;&gt;Node7</title>
<path fill="none" stroke="midnightblue" d="M744.07,-112.32C733.83,-104.18 718.28,-91.84 706,-82.09"/>
<polygon fill="midnightblue" stroke="midnightblue" points="708.13,-79.31 698.12,-75.83 703.78,-84.79 708.13,-79.31"/>
</g>
</g>
</svg>
