<?xml version="1.0" encoding="UTF-8" standalone="no"?>
<!DOCTYPE svg PUBLIC "-//W3C//DTD SVG 1.1//EN"
 "http://www.w3.org/Graphics/SVG/1.1/DTD/svg11.dtd">
<!-- Generated by graphviz version 2.43.0 (0)
 -->
<!-- Title: monitoring_service/src/event_listener.cpp Pages: 1 -->
<svg width="552pt" height="207pt"
 viewBox="0.00 0.00 552.00 207.00" xmlns="http://www.w3.org/2000/svg" xmlns:xlink="http://www.w3.org/1999/xlink">
<g id="graph0" class="graph" transform="scale(1 1) rotate(0) translate(4 203)">
<title>monitoring_service/src/event_listener.cpp</title>
<polygon fill="white" stroke="transparent" points="-4,4 -4,-203 548,-203 548,4 -4,4"/>
<!-- Node1 -->
<g id="node1" class="node">
<title>Node1</title>
<g id="a_node1"><a xlink:title="Implements the RuntimeEventListener class for container event monitoring.">
<polygon fill="#bfbfbf" stroke="black" points="353,-168.5 353,-198.5 479,-198.5 479,-168.5 353,-168.5"/>
<text text-anchor="start" x="361" y="-186.5" font-family="Helvetica,sans-Serif" font-size="10.00">monitoring_service</text>
<text text-anchor="middle" x="416" y="-175.5" font-family="Helvetica,sans-Serif" font-size="10.00">/src/event_listener.cpp</text>
</a>
</g>
</g>
<!-- Node2 -->
<g id="node2" class="node">
<title>Node2</title>
<g id="a_node2"><a xlink:href="event__listener_8hpp.html" target="_top" xlink:title="Declares the RuntimeEventListener class for container event monitoring.">
<polygon fill="white" stroke="black" points="162.5,-112.5 162.5,-131.5 269.5,-131.5 269.5,-112.5 162.5,-112.5"/>
<text text-anchor="middle" x="216" y="-119.5" font-family="Helvetica,sans-Serif" font-size="10.00">event_listener.hpp</text>
</a>
</g>
</g>
<!-- Node1&#45;&gt;Node2 -->
<g id="edge1" class="edge">
<title>Node1&#45;&gt;Node2</title>
<path fill="none" stroke="midnightblue" d="M368.86,-168.47C333.9,-158.08 286.85,-144.08 254.23,-134.37"/>
<polygon fill="midnightblue" stroke="midnightblue" points="255.18,-131 244.59,-131.51 253.18,-137.71 255.18,-131"/>
</g>
<!-- Node13 -->
<g id="node13" class="node">
<title>Node13</title>
<g id="a_node13"><a xlink:href="logger_8hpp.html" target="_top" xlink:title="Logging macros for the container monitor application.">
<polygon fill="white" stroke="black" points="344,-112.5 344,-131.5 412,-131.5 412,-112.5 344,-112.5"/>
<text text-anchor="middle" x="378" y="-119.5" font-family="Helvetica,sans-Serif" font-size="10.00">logger.hpp</text>
</a>
</g>
</g>
<!-- Node1&#45;&gt;Node13 -->
<g id="edge14" class="edge">
<title>Node1&#45;&gt;Node13</title>
<path fill="none" stroke="midnightblue" d="M406.99,-168.4C401.59,-159.93 394.67,-149.1 388.95,-140.14"/>
<polygon fill="midnightblue" stroke="midnightblue" points="391.86,-138.2 383.53,-131.66 385.96,-141.97 391.86,-138.2"/>
</g>
<!-- Node15 -->
<g id="node15" class="node">
<title>Node15</title>
<g id="a_node15"><a xlink:title=" ">
<polygon fill="white" stroke="#bfbfbf" points="430,-112.5 430,-131.5 480,-131.5 480,-112.5 430,-112.5"/>
<text text-anchor="middle" x="455" y="-119.5" font-family="Helvetica,sans-Serif" font-size="10.00">chrono</text>
</a>
</g>
</g>
<!-- Node1&#45;&gt;Node15 -->
<g id="edge16" class="edge">
<title>Node1&#45;&gt;Node15</title>
<path fill="none" stroke="midnightblue" d="M425.24,-168.4C430.79,-159.93 437.89,-149.1 443.77,-140.14"/>
<polygon fill="midnightblue" stroke="midnightblue" points="446.77,-141.94 449.33,-131.66 440.92,-138.1 446.77,-141.94"/>
</g>
<!-- Node16 -->
<g id="node16" class="node">
<title>Node16</title>
<g id="a_node16"><a xlink:title=" ">
<polygon fill="white" stroke="#bfbfbf" points="498,-112.5 498,-131.5 544,-131.5 544,-112.5 498,-112.5"/>
<text text-anchor="middle" x="521" y="-119.5" font-family="Helvetica,sans-Serif" font-size="10.00">cstdio</text>
</a>
</g>
</g>
<!-- Node1&#45;&gt;Node16 -->
<g id="edge17" class="edge">
<title>Node1&#45;&gt;Node16</title>
<path fill="none" stroke="midnightblue" d="M440.88,-168.4C457.71,-158.86 479.84,-146.32 496.57,-136.84"/>
<polygon fill="midnightblue" stroke="midnightblue" points="498.75,-139.63 505.72,-131.66 495.3,-133.54 498.75,-139.63"/>
</g>
<!-- Node3 -->
<g id="node3" class="node">
<title>Node3</title>
<g id="a_node3"><a xlink:title=" ">
<polygon fill="white" stroke="#bfbfbf" points="325,-56.5 325,-75.5 373,-75.5 373,-56.5 325,-56.5"/>
<text text-anchor="middle" x="349" y="-63.5" font-family="Helvetica,sans-Serif" font-size="10.00">thread</text>
</a>
</g>
</g>
<!-- Node2&#45;&gt;Node3 -->
<g id="edge2" class="edge">
<title>Node2&#45;&gt;Node3</title>
<path fill="none" stroke="midnightblue" d="M237.07,-112.44C259.06,-103.52 293.73,-89.44 318.66,-79.32"/>
<polygon fill="midnightblue" stroke="midnightblue" points="320.08,-82.52 328.02,-75.52 317.44,-76.04 320.08,-82.52"/>
</g>
<!-- Node4 -->
<g id="node4" class="node">
<title>Node4</title>
<g id="a_node4"><a xlink:title=" ">
<polygon fill="white" stroke="#bfbfbf" points="1,-56.5 1,-75.5 51,-75.5 51,-56.5 1,-56.5"/>
<text text-anchor="middle" x="26" y="-63.5" font-family="Helvetica,sans-Serif" font-size="10.00">atomic</text>
</a>
</g>
</g>
<!-- Node2&#45;&gt;Node4 -->
<g id="edge3" class="edge">
<title>Node2&#45;&gt;Node4</title>
<path fill="none" stroke="midnightblue" d="M185.89,-112.44C151.99,-102.81 96.96,-87.17 61.12,-76.98"/>
<polygon fill="midnightblue" stroke="midnightblue" points="61.69,-73.5 51.11,-74.14 59.77,-80.24 61.69,-73.5"/>
</g>
<!-- Node5 -->
<g id="node5" class="node">
<title>Node5</title>
<g id="a_node5"><a xlink:title=" ">
<polygon fill="white" stroke="#bfbfbf" points="160,-0.5 160,-19.5 204,-19.5 204,-0.5 160,-0.5"/>
<text text-anchor="middle" x="182" y="-7.5" font-family="Helvetica,sans-Serif" font-size="10.00">string</text>
</a>
</g>
</g>
<!-- Node2&#45;&gt;Node5 -->
<g id="edge4" class="edge">
<title>Node2&#45;&gt;Node5</title>
<path fill="none" stroke="midnightblue" d="M211.46,-112.25C206.99,-103.33 200.24,-89.01 196,-76 191.02,-60.72 187.31,-42.84 184.97,-29.7"/>
<polygon fill="midnightblue" stroke="midnightblue" points="188.38,-28.84 183.27,-19.56 181.47,-30 188.38,-28.84"/>
</g>
<!-- Node6 -->
<g id="node6" class="node">
<title>Node6</title>
<g id="a_node6"><a xlink:href="common_8hpp.html" target="_top" xlink:title="Common data structures, constants, and configuration for container monitoring.">
<polygon fill="white" stroke="black" points="69,-56.5 69,-75.5 149,-75.5 149,-56.5 69,-56.5"/>
<text text-anchor="middle" x="109" y="-63.5" font-family="Helvetica,sans-Serif" font-size="10.00">common.hpp</text>
</a>
</g>
</g>
<!-- Node2&#45;&gt;Node6 -->
<g id="edge5" class="edge">
<title>Node2&#45;&gt;Node6</title>
<path fill="none" stroke="midnightblue" d="M198.81,-112.32C181.65,-103.66 155.05,-90.24 135.25,-80.25"/>
<polygon fill="midnightblue" stroke="midnightblue" points="136.65,-77.04 126.15,-75.65 133.5,-83.28 136.65,-77.04"/>
</g>
<!-- Node9 -->
<g id="node9" class="node">
<title>Node9</title>
<g id="a_node9"><a xlink:href="event__queue_8hpp.html" target="_top" xlink:title="Declares the EventQueue class for thread&#45;safe event management.">
<polygon fill="white" stroke="black" points="205.5,-56.5 205.5,-75.5 306.5,-75.5 306.5,-56.5 205.5,-56.5"/>
<text text-anchor="middle" x="256" y="-63.5" font-family="Helvetica,sans-Serif" font-size="10.00">event_queue.hpp</text>
</a>
</g>
</g>
<!-- Node2&#45;&gt;Node9 -->
<g id="edge9" class="edge">
<title>Node2&#45;&gt;Node9</title>
<path fill="none" stroke="midnightblue" d="M222.61,-112.08C228.26,-104.46 236.54,-93.26 243.45,-83.94"/>
<polygon fill="midnightblue" stroke="midnightblue" points="246.38,-85.87 249.52,-75.75 240.75,-81.7 246.38,-85.87"/>
</g>
<!-- Node6&#45;&gt;Node5 -->
<g id="edge6" class="edge">
<title>Node6&#45;&gt;Node5</title>
<path fill="none" stroke="midnightblue" d="M120.73,-56.32C131.84,-48.11 148.74,-35.6 161.98,-25.81"/>
<polygon fill="midnightblue" stroke="midnightblue" points="164.1,-28.59 170.06,-19.83 159.94,-22.97 164.1,-28.59"/>
</g>
<!-- Node7 -->
<g id="node7" class="node">
<title>Node7</title>
<g id="a_node7"><a xlink:title=" ">
<polygon fill="white" stroke="#bfbfbf" points="0,-0.5 0,-19.5 50,-19.5 50,-0.5 0,-0.5"/>
<text text-anchor="middle" x="25" y="-7.5" font-family="Helvetica,sans-Serif" font-size="10.00">cstring</text>
</a>
</g>
</g>
<!-- Node6&#45;&gt;Node7 -->
<g id="edge7" class="edge">
<title>Node6&#45;&gt;Node7</title>
<path fill="none" stroke="midnightblue" d="M95.5,-56.32C82.4,-47.9 62.29,-34.97 46.89,-25.07"/>
<polygon fill="midnightblue" stroke="midnightblue" points="48.77,-22.12 38.46,-19.65 44.98,-28.01 48.77,-22.12"/>
</g>
<!-- Node8 -->
<g id="node8" class="node">
<title>Node8</title>
<g id="a_node8"><a xlink:title=" ">
<polygon fill="white" stroke="#bfbfbf" points="68.5,-0.5 68.5,-19.5 141.5,-19.5 141.5,-0.5 68.5,-0.5"/>
<text text-anchor="middle" x="105" y="-7.5" font-family="Helvetica,sans-Serif" font-size="10.00">string_view</text>
</a>
</g>
</g>
<!-- Node6&#45;&gt;Node8 -->
<g id="edge8" class="edge">
<title>Node6&#45;&gt;Node8</title>
<path fill="none" stroke="midnightblue" d="M108.34,-56.08C107.82,-49.01 107.06,-38.86 106.41,-29.99"/>
<polygon fill="midnightblue" stroke="midnightblue" points="109.88,-29.47 105.65,-19.75 102.9,-29.98 109.88,-29.47"/>
</g>
<!-- Node9&#45;&gt;Node5 -->
<g id="edge13" class="edge">
<title>Node9&#45;&gt;Node5</title>
<path fill="none" stroke="midnightblue" d="M244.11,-56.32C232.85,-48.11 215.71,-35.6 202.29,-25.81"/>
<polygon fill="midnightblue" stroke="midnightblue" points="204.25,-22.9 194.11,-19.83 200.12,-28.56 204.25,-22.9"/>
</g>
<!-- Node10 -->
<g id="node10" class="node">
<title>Node10</title>
<g id="a_node10"><a xlink:title=" ">
<polygon fill="white" stroke="#bfbfbf" points="222.5,-0.5 222.5,-19.5 269.5,-19.5 269.5,-0.5 222.5,-0.5"/>
<text text-anchor="middle" x="246" y="-7.5" font-family="Helvetica,sans-Serif" font-size="10.00">queue</text>
</a>
</g>
</g>
<!-- Node9&#45;&gt;Node10 -->
<g id="edge10" class="edge">
<title>Node9&#45;&gt;Node10</title>
<path fill="none" stroke="midnightblue" d="M254.35,-56.08C253.02,-48.93 251.12,-38.64 249.46,-29.69"/>
<polygon fill="midnightblue" stroke="midnightblue" points="252.88,-28.95 247.62,-19.75 246,-30.22 252.88,-28.95"/>
</g>
<!-- Node11 -->
<g id="node11" class="node">
<title>Node11</title>
<g id="a_node11"><a xlink:title=" ">
<polygon fill="white" stroke="#bfbfbf" points="288,-0.5 288,-19.5 336,-19.5 336,-0.5 288,-0.5"/>
<text text-anchor="middle" x="312" y="-7.5" font-family="Helvetica,sans-Serif" font-size="10.00">mutex</text>
</a>
</g>
</g>
<!-- Node9&#45;&gt;Node11 -->
<g id="edge11" class="edge">
<title>Node9&#45;&gt;Node11</title>
<path fill="none" stroke="midnightblue" d="M265,-56.32C273.19,-48.42 285.51,-36.55 295.47,-26.94"/>
<polygon fill="midnightblue" stroke="midnightblue" points="298.07,-29.29 302.84,-19.83 293.21,-24.26 298.07,-29.29"/>
</g>
<!-- Node12 -->
<g id="node12" class="node">
<title>Node12</title>
<g id="a_node12"><a xlink:title=" ">
<polygon fill="white" stroke="#bfbfbf" points="354.5,-0.5 354.5,-19.5 461.5,-19.5 461.5,-0.5 354.5,-0.5"/>
<text text-anchor="middle" x="408" y="-7.5" font-family="Helvetica,sans-Serif" font-size="10.00">condition_variable</text>
</a>
</g>
</g>
<!-- Node9&#45;&gt;Node12 -->
<g id="edge12" class="edge">
<title>Node9&#45;&gt;Node12</title>
<path fill="none" stroke="midnightblue" d="M280.08,-56.44C305.54,-47.4 345.89,-33.06 374.46,-22.92"/>
<polygon fill="midnightblue" stroke="midnightblue" points="375.78,-26.16 384.03,-19.52 373.43,-19.57 375.78,-26.16"/>
</g>
<!-- Node14 -->
<g id="node14" class="node">
<title>Node14</title>
<g id="a_node14"><a xlink:title=" ">
<polygon fill="white" stroke="#bfbfbf" points="391,-56.5 391,-75.5 477,-75.5 477,-56.5 391,-56.5"/>
<text text-anchor="middle" x="434" y="-63.5" font-family="Helvetica,sans-Serif" font-size="10.00">glog/logging.h</text>
</a>
</g>
</g>
<!-- Node13&#45;&gt;Node14 -->
<g id="edge15" class="edge">
<title>Node13&#45;&gt;Node14</title>
<path fill="none" stroke="midnightblue" d="M387,-112.32C395.19,-104.42 407.51,-92.55 417.47,-82.94"/>
<polygon fill="midnightblue" stroke="midnightblue" points="420.07,-85.29 424.84,-75.83 415.21,-80.26 420.07,-85.29"/>
</g>
</g>
</svg>
