<?xml version="1.0" encoding="UTF-8" standalone="no"?>
<!DOCTYPE svg PUBLIC "-//W3C//DTD SVG 1.1//EN"
 "http://www.w3.org/Graphics/SVG/1.1/DTD/svg11.dtd">
<!-- Generated by graphviz version 2.43.0 (0)
 -->
<!-- Title: monitoring_service/inc/event_listener.hpp Pages: 1 -->
<svg width="214pt" height="106pt"
 viewBox="0.00 0.00 214.00 106.00" xmlns="http://www.w3.org/2000/svg" xmlns:xlink="http://www.w3.org/1999/xlink">
<g id="graph0" class="graph" transform="scale(1 1) rotate(0) translate(4 102)">
<title>monitoring_service/inc/event_listener.hpp</title>
<polygon fill="white" stroke="transparent" points="-4,4 -4,-102 210,-102 210,4 -4,4"/>
<!-- Node1 -->
<g id="node1" class="node">
<title>Node1</title>
<g id="a_node1"><a xlink:title="Declares the RuntimeEventListener class for container event monitoring.">
<polygon fill="#bfbfbf" stroke="black" points="23.5,-67.5 23.5,-97.5 150.5,-97.5 150.5,-67.5 23.5,-67.5"/>
<text text-anchor="start" x="31.5" y="-85.5" font-family="Helvetica,sans-Serif" font-size="10.00">monitoring_service</text>
<text text-anchor="middle" x="87" y="-74.5" font-family="Helvetica,sans-Serif" font-size="10.00">/inc/event_listener.hpp</text>
</a>
</g>
</g>
<!-- Node2 -->
<g id="node2" class="node">
<title>Node2</title>
<g id="a_node2"><a xlink:href="main_8cpp.html" target="_top" xlink:title="Entry point for the Container Monitor application.">
<polygon fill="white" stroke="black" points="0,-6 0,-25 62,-25 62,-6 0,-6"/>
<text text-anchor="middle" x="31" y="-13" font-family="Helvetica,sans-Serif" font-size="10.00">main.cpp</text>
</a>
</g>
</g>
<!-- Node1&#45;&gt;Node2 -->
<g id="edge1" class="edge">
<title>Node1&#45;&gt;Node2</title>
<path fill="none" stroke="midnightblue" d="M68.18,-59.66C58.02,-47.86 46.05,-33.97 38.49,-25.19"/>
<polygon fill="midnightblue" stroke="midnightblue" points="65.67,-62.1 74.85,-67.4 70.97,-57.54 65.67,-62.1"/>
</g>
<!-- Node3 -->
<g id="node3" class="node">
<title>Node3</title>
<g id="a_node3"><a xlink:href="event__listener_8cpp.html" target="_top" xlink:title="Implements the RuntimeEventListener class for container event monitoring.">
<polygon fill="white" stroke="black" points="80,-0.5 80,-30.5 206,-30.5 206,-0.5 80,-0.5"/>
<text text-anchor="start" x="88" y="-18.5" font-family="Helvetica,sans-Serif" font-size="10.00">monitoring_service</text>
<text text-anchor="middle" x="143" y="-7.5" font-family="Helvetica,sans-Serif" font-size="10.00">/src/event_listener.cpp</text>
</a>
</g>
</g>
<!-- Node1&#45;&gt;Node3 -->
<g id="edge2" class="edge">
<title>Node1&#45;&gt;Node3</title>
<path fill="none" stroke="midnightblue" d="M105.75,-59.74C114.04,-50.12 123.54,-39.09 130.87,-30.58"/>
<polygon fill="midnightblue" stroke="midnightblue" points="103.03,-57.54 99.15,-67.4 108.33,-62.1 103.03,-57.54"/>
</g>
</g>
</svg>
