<?xml version="1.0" encoding="UTF-8" standalone="no"?>
<!DOCTYPE svg PUBLIC "-//W3C//DTD SVG 1.1//EN"
 "http://www.w3.org/Graphics/SVG/1.1/DTD/svg11.dtd">
<!-- Generated by graphviz version 2.43.0 (0)
 -->
<!-- Title: monitoring_service/inc/event_processor.hpp Pages: 1 -->
<svg width="656pt" height="207pt"
 viewBox="0.00 0.00 656.00 207.00" xmlns="http://www.w3.org/2000/svg" xmlns:xlink="http://www.w3.org/1999/xlink">
<g id="graph0" class="graph" transform="scale(1 1) rotate(0) translate(4 203)">
<title>monitoring_service/inc/event_processor.hpp</title>
<polygon fill="white" stroke="transparent" points="-4,4 -4,-203 652,-203 652,4 -4,4"/>
<!-- Node1 -->
<g id="node1" class="node">
<title>Node1</title>
<g id="a_node1"><a xlink:title="Declares the EventProcessor class for processing container events and host metrics.">
<polygon fill="#bfbfbf" stroke="black" points="113.5,-168.5 113.5,-198.5 250.5,-198.5 250.5,-168.5 113.5,-168.5"/>
<text text-anchor="start" x="121.5" y="-186.5" font-family="Helvetica,sans-Serif" font-size="10.00">monitoring_service</text>
<text text-anchor="middle" x="182" y="-175.5" font-family="Helvetica,sans-Serif" font-size="10.00">/inc/event_processor.hpp</text>
</a>
</g>
</g>
<!-- Node2 -->
<g id="node2" class="node">
<title>Node2</title>
<g id="a_node2"><a xlink:title=" ">
<polygon fill="white" stroke="#bfbfbf" points="0,-112.5 0,-131.5 50,-131.5 50,-112.5 0,-112.5"/>
<text text-anchor="middle" x="25" y="-119.5" font-family="Helvetica,sans-Serif" font-size="10.00">atomic</text>
</a>
</g>
</g>
<!-- Node1&#45;&gt;Node2 -->
<g id="edge1" class="edge">
<title>Node1&#45;&gt;Node2</title>
<path fill="none" stroke="midnightblue" d="M144.79,-168.4C118.22,-158.33 82.81,-144.91 57.39,-135.28"/>
<polygon fill="midnightblue" stroke="midnightblue" points="58.44,-131.93 47.84,-131.66 55.96,-138.47 58.44,-131.93"/>
</g>
<!-- Node3 -->
<g id="node3" class="node">
<title>Node3</title>
<g id="a_node3"><a xlink:title=" ">
<polygon fill="white" stroke="#bfbfbf" points="68,-112.5 68,-131.5 116,-131.5 116,-112.5 68,-112.5"/>
<text text-anchor="middle" x="92" y="-119.5" font-family="Helvetica,sans-Serif" font-size="10.00">thread</text>
</a>
</g>
</g>
<!-- Node1&#45;&gt;Node3 -->
<g id="edge2" class="edge">
<title>Node1&#45;&gt;Node3</title>
<path fill="none" stroke="midnightblue" d="M160.67,-168.4C146.51,-159.04 127.99,-146.79 113.75,-137.38"/>
<polygon fill="midnightblue" stroke="midnightblue" points="115.37,-134.25 105.1,-131.66 111.51,-140.09 115.37,-134.25"/>
</g>
<!-- Node4 -->
<g id="node4" class="node">
<title>Node4</title>
<g id="a_node4"><a xlink:title=" ">
<polygon fill="white" stroke="#bfbfbf" points="188,-0.5 188,-19.5 232,-19.5 232,-0.5 188,-0.5"/>
<text text-anchor="middle" x="210" y="-7.5" font-family="Helvetica,sans-Serif" font-size="10.00">string</text>
</a>
</g>
</g>
<!-- Node1&#45;&gt;Node4 -->
<g id="edge3" class="edge">
<title>Node1&#45;&gt;Node4</title>
<path fill="none" stroke="midnightblue" d="M184.29,-168.47C189.31,-137.7 201.29,-64.33 206.95,-29.7"/>
<polygon fill="midnightblue" stroke="midnightblue" points="210.45,-29.99 208.6,-19.56 203.54,-28.87 210.45,-29.99"/>
</g>
<!-- Node5 -->
<g id="node5" class="node">
<title>Node5</title>
<g id="a_node5"><a xlink:title=" ">
<polygon fill="white" stroke="#bfbfbf" points="533.5,-112.5 533.5,-131.5 626.5,-131.5 626.5,-112.5 533.5,-112.5"/>
<text text-anchor="middle" x="580" y="-119.5" font-family="Helvetica,sans-Serif" font-size="10.00">unordered_map</text>
</a>
</g>
</g>
<!-- Node1&#45;&gt;Node5 -->
<g id="edge4" class="edge">
<title>Node1&#45;&gt;Node5</title>
<path fill="none" stroke="midnightblue" d="M250.71,-172.71C317.76,-163.09 422.94,-147.79 523.47,-132.22"/>
<polygon fill="midnightblue" stroke="midnightblue" points="524.15,-135.66 533.5,-130.66 523.08,-128.74 524.15,-135.66"/>
</g>
<!-- Node6 -->
<g id="node6" class="node">
<title>Node6</title>
<g id="a_node6"><a xlink:href="common_8hpp.html" target="_top" xlink:title="Common data structures, constants, and configuration for container monitoring.">
<polygon fill="white" stroke="black" points="74,-56.5 74,-75.5 154,-75.5 154,-56.5 74,-56.5"/>
<text text-anchor="middle" x="114" y="-63.5" font-family="Helvetica,sans-Serif" font-size="10.00">common.hpp</text>
</a>
</g>
</g>
<!-- Node1&#45;&gt;Node6 -->
<g id="edge5" class="edge">
<title>Node1&#45;&gt;Node6</title>
<path fill="none" stroke="midnightblue" d="M173.66,-168.34C161.19,-147.15 137.69,-107.24 124.21,-84.34"/>
<polygon fill="midnightblue" stroke="midnightblue" points="127.19,-82.51 119.1,-75.67 121.16,-86.06 127.19,-82.51"/>
</g>
<!-- Node9 -->
<g id="node9" class="node">
<title>Node9</title>
<g id="a_node9"><a xlink:href="event__queue_8hpp.html" target="_top" xlink:title="Declares the EventQueue class for thread&#45;safe event management.">
<polygon fill="white" stroke="black" points="414.5,-112.5 414.5,-131.5 515.5,-131.5 515.5,-112.5 414.5,-112.5"/>
<text text-anchor="middle" x="465" y="-119.5" font-family="Helvetica,sans-Serif" font-size="10.00">event_queue.hpp</text>
</a>
</g>
</g>
<!-- Node1&#45;&gt;Node9 -->
<g id="edge9" class="edge">
<title>Node1&#45;&gt;Node9</title>
<path fill="none" stroke="midnightblue" d="M248.71,-168.47C299.56,-157.78 368.49,-143.29 414.74,-133.57"/>
<polygon fill="midnightblue" stroke="midnightblue" points="415.48,-136.99 424.54,-131.51 414.03,-130.14 415.48,-136.99"/>
</g>
<!-- Node13 -->
<g id="node13" class="node">
<title>Node13</title>
<g id="a_node13"><a xlink:href="database__interface_8hpp.html" target="_top" xlink:title="Declares the abstract interface for database operations in container monitoring.">
<polygon fill="white" stroke="black" points="210.5,-112.5 210.5,-131.5 341.5,-131.5 341.5,-112.5 210.5,-112.5"/>
<text text-anchor="middle" x="276" y="-119.5" font-family="Helvetica,sans-Serif" font-size="10.00">database_interface.hpp</text>
</a>
</g>
</g>
<!-- Node1&#45;&gt;Node13 -->
<g id="edge14" class="edge">
<title>Node1&#45;&gt;Node13</title>
<path fill="none" stroke="midnightblue" d="M204.28,-168.4C219.2,-158.95 238.78,-146.56 253.71,-137.11"/>
<polygon fill="midnightblue" stroke="midnightblue" points="255.74,-139.96 262.32,-131.66 252,-134.05 255.74,-139.96"/>
</g>
<!-- Node6&#45;&gt;Node4 -->
<g id="edge6" class="edge">
<title>Node6&#45;&gt;Node4</title>
<path fill="none" stroke="midnightblue" d="M129.42,-56.32C144.54,-47.82 167.82,-34.73 185.47,-24.8"/>
<polygon fill="midnightblue" stroke="midnightblue" points="187.61,-27.61 194.61,-19.65 184.18,-21.51 187.61,-27.61"/>
</g>
<!-- Node7 -->
<g id="node7" class="node">
<title>Node7</title>
<g id="a_node7"><a xlink:title=" ">
<polygon fill="white" stroke="#bfbfbf" points="100,-0.5 100,-19.5 150,-19.5 150,-0.5 100,-0.5"/>
<text text-anchor="middle" x="125" y="-7.5" font-family="Helvetica,sans-Serif" font-size="10.00">cstring</text>
</a>
</g>
</g>
<!-- Node6&#45;&gt;Node7 -->
<g id="edge7" class="edge">
<title>Node6&#45;&gt;Node7</title>
<path fill="none" stroke="midnightblue" d="M115.82,-56.08C117.27,-48.93 119.37,-38.64 121.19,-29.69"/>
<polygon fill="midnightblue" stroke="midnightblue" points="124.65,-30.25 123.22,-19.75 117.79,-28.85 124.65,-30.25"/>
</g>
<!-- Node8 -->
<g id="node8" class="node">
<title>Node8</title>
<g id="a_node8"><a xlink:title=" ">
<polygon fill="white" stroke="#bfbfbf" points="8.5,-0.5 8.5,-19.5 81.5,-19.5 81.5,-0.5 8.5,-0.5"/>
<text text-anchor="middle" x="45" y="-7.5" font-family="Helvetica,sans-Serif" font-size="10.00">string_view</text>
</a>
</g>
</g>
<!-- Node6&#45;&gt;Node8 -->
<g id="edge8" class="edge">
<title>Node6&#45;&gt;Node8</title>
<path fill="none" stroke="midnightblue" d="M102.91,-56.32C92.51,-48.18 76.74,-35.84 64.28,-26.09"/>
<polygon fill="midnightblue" stroke="midnightblue" points="66.32,-23.24 56.29,-19.83 62.01,-28.75 66.32,-23.24"/>
</g>
<!-- Node9&#45;&gt;Node4 -->
<g id="edge13" class="edge">
<title>Node9&#45;&gt;Node4</title>
<path fill="none" stroke="midnightblue" d="M472.4,-112.41C483.1,-98.93 500.13,-72.62 486,-56 455.02,-19.56 308.23,-12.56 242.26,-11.26"/>
<polygon fill="midnightblue" stroke="midnightblue" points="242.08,-7.76 232.02,-11.1 241.96,-14.76 242.08,-7.76"/>
</g>
<!-- Node10 -->
<g id="node10" class="node">
<title>Node10</title>
<g id="a_node10"><a xlink:title=" ">
<polygon fill="white" stroke="#bfbfbf" points="534.5,-56.5 534.5,-75.5 581.5,-75.5 581.5,-56.5 534.5,-56.5"/>
<text text-anchor="middle" x="558" y="-63.5" font-family="Helvetica,sans-Serif" font-size="10.00">queue</text>
</a>
</g>
</g>
<!-- Node9&#45;&gt;Node10 -->
<g id="edge10" class="edge">
<title>Node9&#45;&gt;Node10</title>
<path fill="none" stroke="midnightblue" d="M479.94,-112.32C494.59,-103.82 517.13,-90.73 534.24,-80.8"/>
<polygon fill="midnightblue" stroke="midnightblue" points="536.2,-83.7 543.1,-75.65 532.69,-77.65 536.2,-83.7"/>
</g>
<!-- Node11 -->
<g id="node11" class="node">
<title>Node11</title>
<g id="a_node11"><a xlink:title=" ">
<polygon fill="white" stroke="#bfbfbf" points="600,-56.5 600,-75.5 648,-75.5 648,-56.5 600,-56.5"/>
<text text-anchor="middle" x="624" y="-63.5" font-family="Helvetica,sans-Serif" font-size="10.00">mutex</text>
</a>
</g>
</g>
<!-- Node9&#45;&gt;Node11 -->
<g id="edge11" class="edge">
<title>Node9&#45;&gt;Node11</title>
<path fill="none" stroke="midnightblue" d="M490.19,-112.44C517.26,-103.25 560.4,-88.6 590.36,-78.43"/>
<polygon fill="midnightblue" stroke="midnightblue" points="591.62,-81.69 599.96,-75.16 589.37,-75.06 591.62,-81.69"/>
</g>
<!-- Node12 -->
<g id="node12" class="node">
<title>Node12</title>
<g id="a_node12"><a xlink:title=" ">
<polygon fill="white" stroke="#bfbfbf" points="370.5,-56.5 370.5,-75.5 477.5,-75.5 477.5,-56.5 370.5,-56.5"/>
<text text-anchor="middle" x="424" y="-63.5" font-family="Helvetica,sans-Serif" font-size="10.00">condition_variable</text>
</a>
</g>
</g>
<!-- Node9&#45;&gt;Node12 -->
<g id="edge12" class="edge">
<title>Node9&#45;&gt;Node12</title>
<path fill="none" stroke="midnightblue" d="M458.23,-112.08C452.44,-104.46 443.94,-93.26 436.86,-83.94"/>
<polygon fill="midnightblue" stroke="midnightblue" points="439.48,-81.6 430.64,-75.75 433.9,-85.83 439.48,-81.6"/>
</g>
<!-- Node13&#45;&gt;Node4 -->
<g id="edge17" class="edge">
<title>Node13&#45;&gt;Node4</title>
<path fill="none" stroke="midnightblue" d="M267.58,-112.24C259.53,-103.55 247.41,-89.59 239,-76 229.77,-61.07 221.85,-42.7 216.64,-29.3"/>
<polygon fill="midnightblue" stroke="midnightblue" points="219.85,-27.91 213.06,-19.78 213.3,-30.38 219.85,-27.91"/>
</g>
<!-- Node13&#45;&gt;Node6 -->
<g id="edge18" class="edge">
<title>Node13&#45;&gt;Node6</title>
<path fill="none" stroke="midnightblue" d="M250.33,-112.44C223.08,-103.36 179.82,-88.94 149.35,-78.78"/>
<polygon fill="midnightblue" stroke="midnightblue" points="150.14,-75.36 139.55,-75.52 147.93,-82 150.14,-75.36"/>
</g>
<!-- Node14 -->
<g id="node14" class="node">
<title>Node14</title>
<g id="a_node14"><a xlink:title=" ">
<polygon fill="white" stroke="#bfbfbf" points="248.5,-56.5 248.5,-75.5 295.5,-75.5 295.5,-56.5 248.5,-56.5"/>
<text text-anchor="middle" x="272" y="-63.5" font-family="Helvetica,sans-Serif" font-size="10.00">vector</text>
</a>
</g>
</g>
<!-- Node13&#45;&gt;Node14 -->
<g id="edge15" class="edge">
<title>Node13&#45;&gt;Node14</title>
<path fill="none" stroke="midnightblue" d="M275.34,-112.08C274.82,-105.01 274.06,-94.86 273.41,-85.99"/>
<polygon fill="midnightblue" stroke="midnightblue" points="276.88,-85.47 272.65,-75.75 269.9,-85.98 276.88,-85.47"/>
</g>
<!-- Node15 -->
<g id="node15" class="node">
<title>Node15</title>
<g id="a_node15"><a xlink:title=" ">
<polygon fill="white" stroke="#bfbfbf" points="314,-56.5 314,-75.5 352,-75.5 352,-56.5 314,-56.5"/>
<text text-anchor="middle" x="333" y="-63.5" font-family="Helvetica,sans-Serif" font-size="10.00">map</text>
</a>
</g>
</g>
<!-- Node13&#45;&gt;Node15 -->
<g id="edge16" class="edge">
<title>Node13&#45;&gt;Node15</title>
<path fill="none" stroke="midnightblue" d="M285.16,-112.32C293.5,-104.42 306.03,-92.55 316.18,-82.94"/>
<polygon fill="midnightblue" stroke="midnightblue" points="318.82,-85.25 323.68,-75.83 314.01,-80.17 318.82,-85.25"/>
</g>
</g>
</svg>
