<?xml version="1.0" encoding="UTF-8" standalone="no"?>
<!DOCTYPE svg PUBLIC "-//W3C//DTD SVG 1.1//EN"
 "http://www.w3.org/Graphics/SVG/1.1/DTD/svg11.dtd">
<!-- Generated by graphviz version 2.43.0 (0)
 -->
<!-- Title: monitoring_service/inc/event_queue.hpp Pages: 1 -->
<svg width="487pt" height="173pt"
 viewBox="0.00 0.00 487.00 173.00" xmlns="http://www.w3.org/2000/svg" xmlns:xlink="http://www.w3.org/1999/xlink">
<g id="graph0" class="graph" transform="scale(1 1) rotate(0) translate(4 169)">
<title>monitoring_service/inc/event_queue.hpp</title>
<polygon fill="white" stroke="transparent" points="-4,4 -4,-169 483,-169 483,4 -4,4"/>
<!-- Node1 -->
<g id="node1" class="node">
<title>Node1</title>
<g id="a_node1"><a xlink:title="Declares the EventQueue class for thread&#45;safe event management.">
<polygon fill="#bfbfbf" stroke="black" points="162.5,-134.5 162.5,-164.5 283.5,-164.5 283.5,-134.5 162.5,-134.5"/>
<text text-anchor="start" x="170.5" y="-152.5" font-family="Helvetica,sans-Serif" font-size="10.00">monitoring_service</text>
<text text-anchor="middle" x="223" y="-141.5" font-family="Helvetica,sans-Serif" font-size="10.00">/inc/event_queue.hpp</text>
</a>
</g>
</g>
<!-- Node2 -->
<g id="node2" class="node">
<title>Node2</title>
<g id="a_node2"><a xlink:href="main_8cpp.html" target="_top" xlink:title="Entry point for the Container Monitor application.">
<polygon fill="white" stroke="black" points="144,-6 144,-25 206,-25 206,-6 144,-6"/>
<text text-anchor="middle" x="175" y="-13" font-family="Helvetica,sans-Serif" font-size="10.00">main.cpp</text>
</a>
</g>
</g>
<!-- Node1&#45;&gt;Node2 -->
<g id="edge1" class="edge">
<title>Node1&#45;&gt;Node2</title>
<path fill="none" stroke="midnightblue" d="M208.59,-125.56C203.76,-117.13 198.67,-107.36 195,-98 185.01,-72.5 178.91,-40.5 176.37,-25.3"/>
<polygon fill="midnightblue" stroke="midnightblue" points="205.74,-127.61 213.85,-134.41 211.75,-124.03 205.74,-127.61"/>
</g>
<!-- Node3 -->
<g id="node3" class="node">
<title>Node3</title>
<g id="a_node3"><a xlink:href="event__listener_8hpp.html" target="_top" xlink:title="Declares the RuntimeEventListener class for container event monitoring.">
<polygon fill="white" stroke="black" points="19.5,-67.5 19.5,-97.5 146.5,-97.5 146.5,-67.5 19.5,-67.5"/>
<text text-anchor="start" x="27.5" y="-85.5" font-family="Helvetica,sans-Serif" font-size="10.00">monitoring_service</text>
<text text-anchor="middle" x="83" y="-74.5" font-family="Helvetica,sans-Serif" font-size="10.00">/inc/event_listener.hpp</text>
</a>
</g>
</g>
<!-- Node1&#45;&gt;Node3 -->
<g id="edge2" class="edge">
<title>Node1&#45;&gt;Node3</title>
<path fill="none" stroke="midnightblue" d="M183.43,-130.13C161.19,-119.8 133.85,-107.11 113.32,-97.58"/>
<polygon fill="midnightblue" stroke="midnightblue" points="182.08,-133.36 192.62,-134.4 185.03,-127.01 182.08,-133.36"/>
</g>
<!-- Node5 -->
<g id="node5" class="node">
<title>Node5</title>
<g id="a_node5"><a xlink:href="event__processor_8hpp.html" target="_top" xlink:title="Declares the EventProcessor class for processing container events and host metrics.">
<polygon fill="white" stroke="black" points="203.5,-67.5 203.5,-97.5 340.5,-97.5 340.5,-67.5 203.5,-67.5"/>
<text text-anchor="start" x="211.5" y="-85.5" font-family="Helvetica,sans-Serif" font-size="10.00">monitoring_service</text>
<text text-anchor="middle" x="272" y="-74.5" font-family="Helvetica,sans-Serif" font-size="10.00">/inc/event_processor.hpp</text>
</a>
</g>
</g>
<!-- Node1&#45;&gt;Node5 -->
<g id="edge5" class="edge">
<title>Node1&#45;&gt;Node5</title>
<path fill="none" stroke="midnightblue" d="M239.84,-126.16C246.99,-116.68 255.1,-105.92 261.39,-97.58"/>
<polygon fill="midnightblue" stroke="midnightblue" points="236.86,-124.3 233.63,-134.4 242.45,-128.52 236.86,-124.3"/>
</g>
<!-- Node7 -->
<g id="node7" class="node">
<title>Node7</title>
<g id="a_node7"><a xlink:href="event__queue_8cpp.html" target="_top" xlink:title="Implements the EventQueue class for thread&#45;safe event management.">
<polygon fill="white" stroke="black" points="359,-67.5 359,-97.5 479,-97.5 479,-67.5 359,-67.5"/>
<text text-anchor="start" x="367" y="-85.5" font-family="Helvetica,sans-Serif" font-size="10.00">monitoring_service</text>
<text text-anchor="middle" x="419" y="-74.5" font-family="Helvetica,sans-Serif" font-size="10.00">/src/event_queue.cpp</text>
</a>
</g>
</g>
<!-- Node1&#45;&gt;Node7 -->
<g id="edge8" class="edge">
<title>Node1&#45;&gt;Node7</title>
<path fill="none" stroke="midnightblue" d="M275.08,-131.23C306.79,-120.71 346.78,-107.45 376.55,-97.58"/>
<polygon fill="midnightblue" stroke="midnightblue" points="273.92,-127.93 265.53,-134.4 276.12,-134.57 273.92,-127.93"/>
</g>
<!-- Node3&#45;&gt;Node2 -->
<g id="edge3" class="edge">
<title>Node3&#45;&gt;Node2</title>
<path fill="none" stroke="midnightblue" d="M111.58,-61.31C128.86,-49.1 149.98,-34.18 162.96,-25.01"/>
<polygon fill="midnightblue" stroke="midnightblue" points="109.11,-58.77 102.96,-67.4 113.15,-64.48 109.11,-58.77"/>
</g>
<!-- Node4 -->
<g id="node4" class="node">
<title>Node4</title>
<g id="a_node4"><a xlink:href="event__listener_8cpp.html" target="_top" xlink:title="Implements the RuntimeEventListener class for container event monitoring.">
<polygon fill="white" stroke="black" points="0,-0.5 0,-30.5 126,-30.5 126,-0.5 0,-0.5"/>
<text text-anchor="start" x="8" y="-18.5" font-family="Helvetica,sans-Serif" font-size="10.00">monitoring_service</text>
<text text-anchor="middle" x="63" y="-7.5" font-family="Helvetica,sans-Serif" font-size="10.00">/src/event_listener.cpp</text>
</a>
</g>
</g>
<!-- Node3&#45;&gt;Node4 -->
<g id="edge4" class="edge">
<title>Node3&#45;&gt;Node4</title>
<path fill="none" stroke="midnightblue" d="M75.68,-57.7C72.87,-48.59 69.77,-38.49 67.33,-30.58"/>
<polygon fill="midnightblue" stroke="midnightblue" points="72.37,-58.87 78.66,-67.4 79.06,-56.81 72.37,-58.87"/>
</g>
<!-- Node5&#45;&gt;Node2 -->
<g id="edge6" class="edge">
<title>Node5&#45;&gt;Node2</title>
<path fill="none" stroke="midnightblue" d="M242.36,-61.64C224.06,-49.37 201.51,-34.26 187.7,-25.01"/>
<polygon fill="midnightblue" stroke="midnightblue" points="240.7,-64.74 250.95,-67.4 244.59,-58.92 240.7,-64.74"/>
</g>
<!-- Node6 -->
<g id="node6" class="node">
<title>Node6</title>
<g id="a_node6"><a xlink:href="event__processor_8cpp.html" target="_top" xlink:title="Implements the EventProcessor class for processing container events and host metrics.">
<polygon fill="white" stroke="black" points="224.5,-0.5 224.5,-30.5 361.5,-30.5 361.5,-0.5 224.5,-0.5"/>
<text text-anchor="start" x="232.5" y="-18.5" font-family="Helvetica,sans-Serif" font-size="10.00">monitoring_service</text>
<text text-anchor="middle" x="293" y="-7.5" font-family="Helvetica,sans-Serif" font-size="10.00">/src/event_processor.cpp</text>
</a>
</g>
</g>
<!-- Node5&#45;&gt;Node6 -->
<g id="edge7" class="edge">
<title>Node5&#45;&gt;Node6</title>
<path fill="none" stroke="midnightblue" d="M279.69,-57.7C282.63,-48.59 285.89,-38.49 288.45,-30.58"/>
<polygon fill="midnightblue" stroke="midnightblue" points="276.3,-56.8 276.56,-67.4 282.96,-58.96 276.3,-56.8"/>
</g>
</g>
</svg>
