<?xml version="1.0" encoding="UTF-8" standalone="no"?>
<!DOCTYPE svg PUBLIC "-//W3C//DTD SVG 1.1//EN"
 "http://www.w3.org/Graphics/SVG/1.1/DTD/svg11.dtd">
<!-- Generated by graphviz version 2.43.0 (0)
 -->
<!-- Title: utils/src/initializer.cpp Pages: 1 -->
<svg width="539pt" height="196pt"
 viewBox="0.00 0.00 539.00 196.00" xmlns="http://www.w3.org/2000/svg" xmlns:xlink="http://www.w3.org/1999/xlink">
<g id="graph0" class="graph" transform="scale(1 1) rotate(0) translate(4 192)">
<title>utils/src/initializer.cpp</title>
<polygon fill="white" stroke="transparent" points="-4,4 -4,-192 535,-192 535,4 -4,4"/>
<!-- Node1 -->
<g id="node1" class="node">
<title>Node1</title>
<g id="a_node1"><a xlink:title="Implements the Initializer class for application startup routines.">
<polygon fill="#bfbfbf" stroke="black" points="233.5,-168.5 233.5,-187.5 356.5,-187.5 356.5,-168.5 233.5,-168.5"/>
<text text-anchor="middle" x="295" y="-175.5" font-family="Helvetica,sans-Serif" font-size="10.00">utils/src/initializer.cpp</text>
</a>
</g>
</g>
<!-- Node2 -->
<g id="node2" class="node">
<title>Node2</title>
<g id="a_node2"><a xlink:href="initializer_8hpp.html" target="_top" xlink:title="Declares the Initializer class for application startup routines.">
<polygon fill="white" stroke="black" points="14.5,-112.5 14.5,-131.5 97.5,-131.5 97.5,-112.5 14.5,-112.5"/>
<text text-anchor="middle" x="56" y="-119.5" font-family="Helvetica,sans-Serif" font-size="10.00">initializer.hpp</text>
</a>
</g>
</g>
<!-- Node1&#45;&gt;Node2 -->
<g id="edge1" class="edge">
<title>Node1&#45;&gt;Node2</title>
<path fill="none" stroke="midnightblue" d="M257.13,-168.44C215.52,-159.04 148.63,-143.93 103.53,-133.74"/>
<polygon fill="midnightblue" stroke="midnightblue" points="104.22,-130.31 93.69,-131.52 102.68,-137.13 104.22,-130.31"/>
</g>
<!-- Node7 -->
<g id="node7" class="node">
<title>Node7</title>
<g id="a_node7"><a xlink:title=" ">
<polygon fill="white" stroke="#bfbfbf" points="236.5,-112.5 236.5,-131.5 287.5,-131.5 287.5,-112.5 236.5,-112.5"/>
<text text-anchor="middle" x="262" y="-119.5" font-family="Helvetica,sans-Serif" font-size="10.00">csignal</text>
</a>
</g>
</g>
<!-- Node1&#45;&gt;Node7 -->
<g id="edge6" class="edge">
<title>Node1&#45;&gt;Node7</title>
<path fill="none" stroke="midnightblue" d="M289.55,-168.08C284.99,-160.61 278.33,-149.72 272.71,-140.52"/>
<polygon fill="midnightblue" stroke="midnightblue" points="275.55,-138.46 267.35,-131.75 269.58,-142.11 275.55,-138.46"/>
</g>
<!-- Node8 -->
<g id="node8" class="node">
<title>Node8</title>
<g id="a_node8"><a xlink:title=" ">
<polygon fill="white" stroke="#bfbfbf" points="305.5,-112.5 305.5,-131.5 352.5,-131.5 352.5,-112.5 305.5,-112.5"/>
<text text-anchor="middle" x="329" y="-119.5" font-family="Helvetica,sans-Serif" font-size="10.00">cerrno</text>
</a>
</g>
</g>
<!-- Node1&#45;&gt;Node8 -->
<g id="edge7" class="edge">
<title>Node1&#45;&gt;Node8</title>
<path fill="none" stroke="midnightblue" d="M300.61,-168.08C305.37,-160.53 312.32,-149.49 318.15,-140.23"/>
<polygon fill="midnightblue" stroke="midnightblue" points="321.12,-142.08 323.49,-131.75 315.2,-138.35 321.12,-142.08"/>
</g>
<!-- Node9 -->
<g id="node9" class="node">
<title>Node9</title>
<g id="a_node9"><a xlink:title=" ">
<polygon fill="white" stroke="#bfbfbf" points="370.5,-112.5 370.5,-131.5 435.5,-131.5 435.5,-112.5 370.5,-112.5"/>
<text text-anchor="middle" x="403" y="-119.5" font-family="Helvetica,sans-Serif" font-size="10.00">mqueue.h</text>
</a>
</g>
</g>
<!-- Node1&#45;&gt;Node9 -->
<g id="edge8" class="edge">
<title>Node1&#45;&gt;Node9</title>
<path fill="none" stroke="midnightblue" d="M312.35,-168.32C329.67,-159.66 356.52,-146.24 376.5,-136.25"/>
<polygon fill="midnightblue" stroke="midnightblue" points="378.31,-139.26 385.69,-131.65 375.18,-133 378.31,-139.26"/>
</g>
<!-- Node10 -->
<g id="node10" class="node">
<title>Node10</title>
<g id="a_node10"><a xlink:href="logger_8hpp.html" target="_top" xlink:title="Logging macros for the container monitor application.">
<polygon fill="white" stroke="black" points="454,-112.5 454,-131.5 522,-131.5 522,-112.5 454,-112.5"/>
<text text-anchor="middle" x="488" y="-119.5" font-family="Helvetica,sans-Serif" font-size="10.00">logger.hpp</text>
</a>
</g>
</g>
<!-- Node1&#45;&gt;Node10 -->
<g id="edge9" class="edge">
<title>Node1&#45;&gt;Node10</title>
<path fill="none" stroke="midnightblue" d="M325.58,-168.44C358.61,-159.2 411.39,-144.44 447.77,-134.26"/>
<polygon fill="midnightblue" stroke="midnightblue" points="448.87,-137.58 457.56,-131.52 446.99,-130.84 448.87,-137.58"/>
</g>
<!-- Node12 -->
<g id="node12" class="node">
<title>Node12</title>
<g id="a_node12"><a xlink:href="config__parser_8hpp.html" target="_top" xlink:title="Declares the ConfigParser class for parsing application configuration files.">
<polygon fill="white" stroke="black" points="116,-112.5 116,-131.5 218,-131.5 218,-112.5 116,-112.5"/>
<text text-anchor="middle" x="167" y="-119.5" font-family="Helvetica,sans-Serif" font-size="10.00">config_parser.hpp</text>
</a>
</g>
</g>
<!-- Node1&#45;&gt;Node12 -->
<g id="edge11" class="edge">
<title>Node1&#45;&gt;Node12</title>
<path fill="none" stroke="midnightblue" d="M274.72,-168.44C253.65,-159.56 220.48,-145.56 196.51,-135.45"/>
<polygon fill="midnightblue" stroke="midnightblue" points="197.76,-132.18 187.19,-131.52 195.04,-138.63 197.76,-132.18"/>
</g>
<!-- Node3 -->
<g id="node3" class="node">
<title>Node3</title>
<g id="a_node3"><a xlink:href="common_8hpp.html" target="_top" xlink:title="Common data structures, constants, and configuration for container monitoring.">
<polygon fill="white" stroke="black" points="21,-56.5 21,-75.5 101,-75.5 101,-56.5 21,-56.5"/>
<text text-anchor="middle" x="61" y="-63.5" font-family="Helvetica,sans-Serif" font-size="10.00">common.hpp</text>
</a>
</g>
</g>
<!-- Node2&#45;&gt;Node3 -->
<g id="edge2" class="edge">
<title>Node2&#45;&gt;Node3</title>
<path fill="none" stroke="midnightblue" d="M56.83,-112.08C57.48,-105.01 58.42,-94.86 59.24,-85.99"/>
<polygon fill="midnightblue" stroke="midnightblue" points="62.75,-86.03 60.19,-75.75 55.78,-85.39 62.75,-86.03"/>
</g>
<!-- Node4 -->
<g id="node4" class="node">
<title>Node4</title>
<g id="a_node4"><a xlink:title=" ">
<polygon fill="white" stroke="#bfbfbf" points="68,-0.5 68,-19.5 112,-19.5 112,-0.5 68,-0.5"/>
<text text-anchor="middle" x="90" y="-7.5" font-family="Helvetica,sans-Serif" font-size="10.00">string</text>
</a>
</g>
</g>
<!-- Node3&#45;&gt;Node4 -->
<g id="edge3" class="edge">
<title>Node3&#45;&gt;Node4</title>
<path fill="none" stroke="midnightblue" d="M65.79,-56.08C69.76,-48.69 75.53,-37.95 80.43,-28.81"/>
<polygon fill="midnightblue" stroke="midnightblue" points="83.65,-30.22 85.3,-19.75 77.49,-26.91 83.65,-30.22"/>
</g>
<!-- Node5 -->
<g id="node5" class="node">
<title>Node5</title>
<g id="a_node5"><a xlink:title=" ">
<polygon fill="white" stroke="#bfbfbf" points="0,-0.5 0,-19.5 50,-19.5 50,-0.5 0,-0.5"/>
<text text-anchor="middle" x="25" y="-7.5" font-family="Helvetica,sans-Serif" font-size="10.00">cstring</text>
</a>
</g>
</g>
<!-- Node3&#45;&gt;Node5 -->
<g id="edge4" class="edge">
<title>Node3&#45;&gt;Node5</title>
<path fill="none" stroke="midnightblue" d="M55.06,-56.08C50.02,-48.53 42.66,-37.49 36.49,-28.23"/>
<polygon fill="midnightblue" stroke="midnightblue" points="39.29,-26.13 30.83,-19.75 33.47,-30.01 39.29,-26.13"/>
</g>
<!-- Node6 -->
<g id="node6" class="node">
<title>Node6</title>
<g id="a_node6"><a xlink:title=" ">
<polygon fill="white" stroke="#bfbfbf" points="130.5,-0.5 130.5,-19.5 203.5,-19.5 203.5,-0.5 130.5,-0.5"/>
<text text-anchor="middle" x="167" y="-7.5" font-family="Helvetica,sans-Serif" font-size="10.00">string_view</text>
</a>
</g>
</g>
<!-- Node3&#45;&gt;Node6 -->
<g id="edge5" class="edge">
<title>Node3&#45;&gt;Node6</title>
<path fill="none" stroke="midnightblue" d="M78.03,-56.32C95.03,-47.66 121.38,-34.24 140.99,-24.25"/>
<polygon fill="midnightblue" stroke="midnightblue" points="142.69,-27.31 150.01,-19.65 139.51,-21.08 142.69,-27.31"/>
</g>
<!-- Node11 -->
<g id="node11" class="node">
<title>Node11</title>
<g id="a_node11"><a xlink:title=" ">
<polygon fill="white" stroke="#bfbfbf" points="445,-56.5 445,-75.5 531,-75.5 531,-56.5 445,-56.5"/>
<text text-anchor="middle" x="488" y="-63.5" font-family="Helvetica,sans-Serif" font-size="10.00">glog/logging.h</text>
</a>
</g>
</g>
<!-- Node10&#45;&gt;Node11 -->
<g id="edge10" class="edge">
<title>Node10&#45;&gt;Node11</title>
<path fill="none" stroke="midnightblue" d="M488,-112.08C488,-105.01 488,-94.86 488,-85.99"/>
<polygon fill="midnightblue" stroke="midnightblue" points="491.5,-85.75 488,-75.75 484.5,-85.75 491.5,-85.75"/>
</g>
<!-- Node12&#45;&gt;Node3 -->
<g id="edge15" class="edge">
<title>Node12&#45;&gt;Node3</title>
<path fill="none" stroke="midnightblue" d="M149.97,-112.32C132.97,-103.66 106.62,-90.24 87.01,-80.25"/>
<polygon fill="midnightblue" stroke="midnightblue" points="88.49,-77.08 77.99,-75.65 85.31,-83.31 88.49,-77.08"/>
</g>
<!-- Node12&#45;&gt;Node4 -->
<g id="edge12" class="edge">
<title>Node12&#45;&gt;Node4</title>
<path fill="none" stroke="midnightblue" d="M160.96,-112.37C148.25,-94.22 118.56,-51.8 101.89,-27.99"/>
<polygon fill="midnightblue" stroke="midnightblue" points="104.62,-25.78 96.01,-19.59 98.88,-29.79 104.62,-25.78"/>
</g>
<!-- Node12&#45;&gt;Node6 -->
<g id="edge13" class="edge">
<title>Node12&#45;&gt;Node6</title>
<path fill="none" stroke="midnightblue" d="M167,-112.37C167,-94.62 167,-53.67 167,-29.6"/>
<polygon fill="midnightblue" stroke="midnightblue" points="170.5,-29.59 167,-19.59 163.5,-29.59 170.5,-29.59"/>
</g>
<!-- Node13 -->
<g id="node13" class="node">
<title>Node13</title>
<g id="a_node13"><a xlink:title=" ">
<polygon fill="white" stroke="#bfbfbf" points="195.5,-56.5 195.5,-75.5 288.5,-75.5 288.5,-56.5 195.5,-56.5"/>
<text text-anchor="middle" x="242" y="-63.5" font-family="Helvetica,sans-Serif" font-size="10.00">unordered_map</text>
</a>
</g>
</g>
<!-- Node12&#45;&gt;Node13 -->
<g id="edge14" class="edge">
<title>Node12&#45;&gt;Node13</title>
<path fill="none" stroke="midnightblue" d="M179.05,-112.32C190.46,-104.11 207.83,-91.6 221.43,-81.81"/>
<polygon fill="midnightblue" stroke="midnightblue" points="223.66,-84.52 229.73,-75.83 219.57,-78.84 223.66,-84.52"/>
</g>
</g>
</svg>
