<?xml version="1.0" encoding="UTF-8" standalone="no"?>
<!DOCTYPE svg PUBLIC "-//W3C//DTD SVG 1.1//EN"
 "http://www.w3.org/Graphics/SVG/1.1/DTD/svg11.dtd">
<!-- Generated by graphviz version 2.43.0 (0)
 -->
<!-- Title: utils/inc/initializer.hpp Pages: 1 -->
<svg width="212pt" height="84pt"
 viewBox="0.00 0.00 211.50 84.00" xmlns="http://www.w3.org/2000/svg" xmlns:xlink="http://www.w3.org/1999/xlink">
<g id="graph0" class="graph" transform="scale(1 1) rotate(0) translate(4 80)">
<title>utils/inc/initializer.hpp</title>
<polygon fill="white" stroke="transparent" points="-4,4 -4,-80 207.5,-80 207.5,4 -4,4"/>
<!-- Node1 -->
<g id="node1" class="node">
<title>Node1</title>
<g id="a_node1"><a xlink:title="Declares the Initializer class for application startup routines.">
<polygon fill="#bfbfbf" stroke="black" points="24,-56.5 24,-75.5 148,-75.5 148,-56.5 24,-56.5"/>
<text text-anchor="middle" x="86" y="-63.5" font-family="Helvetica,sans-Serif" font-size="10.00">utils/inc/initializer.hpp</text>
</a>
</g>
</g>
<!-- Node2 -->
<g id="node2" class="node">
<title>Node2</title>
<g id="a_node2"><a xlink:href="main_8cpp.html" target="_top" xlink:title="Entry point for the Container Monitor application.">
<polygon fill="white" stroke="black" points="0,-0.5 0,-19.5 62,-19.5 62,-0.5 0,-0.5"/>
<text text-anchor="middle" x="31" y="-7.5" font-family="Helvetica,sans-Serif" font-size="10.00">main.cpp</text>
</a>
</g>
</g>
<!-- Node1&#45;&gt;Node2 -->
<g id="edge1" class="edge">
<title>Node1&#45;&gt;Node2</title>
<path fill="none" stroke="midnightblue" d="M69.71,-49C59.96,-39.43 47.95,-27.64 39.91,-19.75"/>
<polygon fill="midnightblue" stroke="midnightblue" points="67.33,-51.57 76.92,-56.08 72.23,-46.58 67.33,-51.57"/>
</g>
<!-- Node3 -->
<g id="node3" class="node">
<title>Node3</title>
<g id="a_node3"><a xlink:href="initializer_8cpp.html" target="_top" xlink:title="Implements the Initializer class for application startup routines.">
<polygon fill="white" stroke="black" points="80.5,-0.5 80.5,-19.5 203.5,-19.5 203.5,-0.5 80.5,-0.5"/>
<text text-anchor="middle" x="142" y="-7.5" font-family="Helvetica,sans-Serif" font-size="10.00">utils/src/initializer.cpp</text>
</a>
</g>
</g>
<!-- Node1&#45;&gt;Node3 -->
<g id="edge2" class="edge">
<title>Node1&#45;&gt;Node3</title>
<path fill="none" stroke="midnightblue" d="M102.33,-49.25C112.26,-39.67 124.59,-27.79 132.84,-19.83"/>
<polygon fill="midnightblue" stroke="midnightblue" points="99.77,-46.86 95,-56.32 104.63,-51.9 99.77,-46.86"/>
</g>
</g>
</svg>
