<?xml version="1.0" encoding="UTF-8" standalone="no"?>
<!DOCTYPE svg PUBLIC "-//W3C//DTD SVG 1.1//EN"
 "http://www.w3.org/Graphics/SVG/1.1/DTD/svg11.dtd">
<!-- Generated by graphviz version 2.43.0 (0)
 -->
<!-- Title: utils/src/json_processing.cpp Pages: 1 -->
<svg width="603pt" height="140pt"
 viewBox="0.00 0.00 602.50 140.00" xmlns="http://www.w3.org/2000/svg" xmlns:xlink="http://www.w3.org/1999/xlink">
<g id="graph0" class="graph" transform="scale(1 1) rotate(0) translate(4 136)">
<title>utils/src/json_processing.cpp</title>
<polygon fill="white" stroke="transparent" points="-4,4 -4,-136 598.5,-136 598.5,4 -4,4"/>
<!-- Node1 -->
<g id="node1" class="node">
<title>Node1</title>
<g id="a_node1"><a xlink:title="Implements functions for parsing container event JSON and extracting resource constraints.">
<polygon fill="#bfbfbf" stroke="black" points="191,-112.5 191,-131.5 347,-131.5 347,-112.5 191,-112.5"/>
<text text-anchor="middle" x="269" y="-119.5" font-family="Helvetica,sans-Serif" font-size="10.00">utils/src/json_processing.cpp</text>
</a>
</g>
</g>
<!-- Node2 -->
<g id="node2" class="node">
<title>Node2</title>
<g id="a_node2"><a xlink:href="json__processing_8hpp.html" target="_top" xlink:title="Declares functions and structs for parsing container event JSON.">
<polygon fill="white" stroke="black" points="0,-56.5 0,-75.5 116,-75.5 116,-56.5 0,-56.5"/>
<text text-anchor="middle" x="58" y="-63.5" font-family="Helvetica,sans-Serif" font-size="10.00">json_processing.hpp</text>
</a>
</g>
</g>
<!-- Node1&#45;&gt;Node2 -->
<g id="edge1" class="edge">
<title>Node1&#45;&gt;Node2</title>
<path fill="none" stroke="midnightblue" d="M235.57,-112.44C199.14,-103.12 140.77,-88.18 100.97,-78"/>
<polygon fill="midnightblue" stroke="midnightblue" points="101.83,-74.61 91.28,-75.52 100.1,-81.39 101.83,-74.61"/>
</g>
<!-- Node4 -->
<g id="node4" class="node">
<title>Node4</title>
<g id="a_node4"><a xlink:title=" ">
<polygon fill="white" stroke="#bfbfbf" points="134,-56.5 134,-75.5 194,-75.5 194,-56.5 134,-56.5"/>
<text text-anchor="middle" x="164" y="-63.5" font-family="Helvetica,sans-Serif" font-size="10.00">iostream</text>
</a>
</g>
</g>
<!-- Node1&#45;&gt;Node4 -->
<g id="edge3" class="edge">
<title>Node1&#45;&gt;Node4</title>
<path fill="none" stroke="midnightblue" d="M252.13,-112.32C235.29,-103.66 209.19,-90.24 189.76,-80.25"/>
<polygon fill="midnightblue" stroke="midnightblue" points="191.32,-77.12 180.83,-75.65 188.12,-83.34 191.32,-77.12"/>
</g>
<!-- Node5 -->
<g id="node5" class="node">
<title>Node5</title>
<g id="a_node5"><a xlink:title=" ">
<polygon fill="white" stroke="#bfbfbf" points="212,-56.5 212,-75.5 258,-75.5 258,-56.5 212,-56.5"/>
<text text-anchor="middle" x="235" y="-63.5" font-family="Helvetica,sans-Serif" font-size="10.00">cstdio</text>
</a>
</g>
</g>
<!-- Node1&#45;&gt;Node5 -->
<g id="edge4" class="edge">
<title>Node1&#45;&gt;Node5</title>
<path fill="none" stroke="midnightblue" d="M263.39,-112.08C258.63,-104.53 251.68,-93.49 245.85,-84.23"/>
<polygon fill="midnightblue" stroke="midnightblue" points="248.8,-82.35 240.51,-75.75 242.88,-86.08 248.8,-82.35"/>
</g>
<!-- Node6 -->
<g id="node6" class="node">
<title>Node6</title>
<g id="a_node6"><a xlink:title=" ">
<polygon fill="white" stroke="#bfbfbf" points="276,-56.5 276,-75.5 332,-75.5 332,-56.5 276,-56.5"/>
<text text-anchor="middle" x="304" y="-63.5" font-family="Helvetica,sans-Serif" font-size="10.00">sstream</text>
</a>
</g>
</g>
<!-- Node1&#45;&gt;Node6 -->
<g id="edge5" class="edge">
<title>Node1&#45;&gt;Node6</title>
<path fill="none" stroke="midnightblue" d="M274.78,-112.08C279.67,-104.53 286.83,-93.49 292.83,-84.23"/>
<polygon fill="midnightblue" stroke="midnightblue" points="295.83,-86.05 298.33,-75.75 289.95,-82.24 295.83,-86.05"/>
</g>
<!-- Node7 -->
<g id="node7" class="node">
<title>Node7</title>
<g id="a_node7"><a xlink:title=" ">
<polygon fill="white" stroke="#bfbfbf" points="350,-56.5 350,-75.5 460,-75.5 460,-56.5 350,-56.5"/>
<text text-anchor="middle" x="405" y="-63.5" font-family="Helvetica,sans-Serif" font-size="10.00">nlohmann/json.hpp</text>
</a>
</g>
</g>
<!-- Node1&#45;&gt;Node7 -->
<g id="edge6" class="edge">
<title>Node1&#45;&gt;Node7</title>
<path fill="none" stroke="midnightblue" d="M290.55,-112.44C313.03,-103.52 348.49,-89.44 373.98,-79.32"/>
<polygon fill="midnightblue" stroke="midnightblue" points="375.55,-82.46 383.55,-75.52 372.97,-75.95 375.55,-82.46"/>
</g>
<!-- Node8 -->
<g id="node8" class="node">
<title>Node8</title>
<g id="a_node8"><a xlink:href="common_8hpp.html" target="_top" xlink:title="Common data structures, constants, and configuration for container monitoring.">
<polygon fill="white" stroke="black" points="478,-56.5 478,-75.5 558,-75.5 558,-56.5 478,-56.5"/>
<text text-anchor="middle" x="518" y="-63.5" font-family="Helvetica,sans-Serif" font-size="10.00">common.hpp</text>
</a>
</g>
</g>
<!-- Node1&#45;&gt;Node8 -->
<g id="edge7" class="edge">
<title>Node1&#45;&gt;Node8</title>
<path fill="none" stroke="midnightblue" d="M308.45,-112.44C351.89,-103.02 421.79,-87.87 468.78,-77.68"/>
<polygon fill="midnightblue" stroke="midnightblue" points="469.7,-81.06 478.73,-75.52 468.22,-74.22 469.7,-81.06"/>
</g>
<!-- Node3 -->
<g id="node3" class="node">
<title>Node3</title>
<g id="a_node3"><a xlink:title=" ">
<polygon fill="white" stroke="#bfbfbf" points="234,-0.5 234,-19.5 278,-19.5 278,-0.5 234,-0.5"/>
<text text-anchor="middle" x="256" y="-7.5" font-family="Helvetica,sans-Serif" font-size="10.00">string</text>
</a>
</g>
</g>
<!-- Node2&#45;&gt;Node3 -->
<g id="edge2" class="edge">
<title>Node2&#45;&gt;Node3</title>
<path fill="none" stroke="midnightblue" d="M89.37,-56.44C126.25,-46.39 187.11,-29.79 224.18,-19.68"/>
<polygon fill="midnightblue" stroke="midnightblue" points="225.24,-23.02 233.97,-17.01 223.4,-16.26 225.24,-23.02"/>
</g>
<!-- Node8&#45;&gt;Node3 -->
<g id="edge8" class="edge">
<title>Node8&#45;&gt;Node3</title>
<path fill="none" stroke="midnightblue" d="M477.92,-56.74C425.84,-46 335.92,-27.47 288.09,-17.61"/>
<polygon fill="midnightblue" stroke="midnightblue" points="288.77,-14.18 278.27,-15.59 287.36,-21.04 288.77,-14.18"/>
</g>
<!-- Node9 -->
<g id="node9" class="node">
<title>Node9</title>
<g id="a_node9"><a xlink:title=" ">
<polygon fill="white" stroke="#bfbfbf" points="453,-0.5 453,-19.5 503,-19.5 503,-0.5 453,-0.5"/>
<text text-anchor="middle" x="478" y="-7.5" font-family="Helvetica,sans-Serif" font-size="10.00">cstring</text>
</a>
</g>
</g>
<!-- Node8&#45;&gt;Node9 -->
<g id="edge9" class="edge">
<title>Node8&#45;&gt;Node9</title>
<path fill="none" stroke="midnightblue" d="M511.39,-56.08C505.74,-48.46 497.46,-37.26 490.55,-27.94"/>
<polygon fill="midnightblue" stroke="midnightblue" points="493.25,-25.7 484.48,-19.75 487.62,-29.87 493.25,-25.7"/>
</g>
<!-- Node10 -->
<g id="node10" class="node">
<title>Node10</title>
<g id="a_node10"><a xlink:title=" ">
<polygon fill="white" stroke="#bfbfbf" points="521.5,-0.5 521.5,-19.5 594.5,-19.5 594.5,-0.5 521.5,-0.5"/>
<text text-anchor="middle" x="558" y="-7.5" font-family="Helvetica,sans-Serif" font-size="10.00">string_view</text>
</a>
</g>
</g>
<!-- Node8&#45;&gt;Node10 -->
<g id="edge10" class="edge">
<title>Node8&#45;&gt;Node10</title>
<path fill="none" stroke="midnightblue" d="M524.61,-56.08C530.26,-48.46 538.54,-37.26 545.45,-27.94"/>
<polygon fill="midnightblue" stroke="midnightblue" points="548.38,-29.87 551.52,-19.75 542.75,-25.7 548.38,-29.87"/>
</g>
</g>
</svg>
