<?xml version="1.0" encoding="UTF-8" standalone="no"?>
<!DOCTYPE svg PUBLIC "-//W3C//DTD SVG 1.1//EN"
 "http://www.w3.org/Graphics/SVG/1.1/DTD/svg11.dtd">
<!-- Generated by graphviz version 2.43.0 (0)
 -->
<!-- Title: utils/inc/json_processing.hpp Pages: 1 -->
<svg width="320pt" height="95pt"
 viewBox="0.00 0.00 319.50 95.00" xmlns="http://www.w3.org/2000/svg" xmlns:xlink="http://www.w3.org/1999/xlink">
<g id="graph0" class="graph" transform="scale(1 1) rotate(0) translate(4 91)">
<title>utils/inc/json_processing.hpp</title>
<polygon fill="white" stroke="transparent" points="-4,4 -4,-91 315.5,-91 315.5,4 -4,4"/>
<!-- Node1 -->
<g id="node1" class="node">
<title>Node1</title>
<g id="a_node1"><a xlink:title="Declares functions and structs for parsing container event JSON.">
<polygon fill="#bfbfbf" stroke="black" points="72,-67.5 72,-86.5 229,-86.5 229,-67.5 72,-67.5"/>
<text text-anchor="middle" x="150.5" y="-74.5" font-family="Helvetica,sans-Serif" font-size="10.00">utils/inc/json_processing.hpp</text>
</a>
</g>
</g>
<!-- Node2 -->
<g id="node2" class="node">
<title>Node2</title>
<g id="a_node2"><a xlink:href="event__processor_8cpp.html" target="_top" xlink:title="Implements the EventProcessor class for processing container events and host metrics.">
<polygon fill="white" stroke="black" points="0,-0.5 0,-30.5 137,-30.5 137,-0.5 0,-0.5"/>
<text text-anchor="start" x="8" y="-18.5" font-family="Helvetica,sans-Serif" font-size="10.00">monitoring_service</text>
<text text-anchor="middle" x="68.5" y="-7.5" font-family="Helvetica,sans-Serif" font-size="10.00">/src/event_processor.cpp</text>
</a>
</g>
</g>
<!-- Node1&#45;&gt;Node2 -->
<g id="edge1" class="edge">
<title>Node1&#45;&gt;Node2</title>
<path fill="none" stroke="midnightblue" d="M130.47,-61.47C117.49,-52.05 100.67,-39.84 87.83,-30.52"/>
<polygon fill="midnightblue" stroke="midnightblue" points="128.6,-64.43 138.75,-67.48 132.71,-58.77 128.6,-64.43"/>
</g>
<!-- Node3 -->
<g id="node3" class="node">
<title>Node3</title>
<g id="a_node3"><a xlink:href="json__processing_8cpp.html" target="_top" xlink:title="Implements functions for parsing container event JSON and extracting resource constraints.">
<polygon fill="white" stroke="black" points="155.5,-6 155.5,-25 311.5,-25 311.5,-6 155.5,-6"/>
<text text-anchor="middle" x="233.5" y="-13" font-family="Helvetica,sans-Serif" font-size="10.00">utils/src/json_processing.cpp</text>
</a>
</g>
</g>
<!-- Node1&#45;&gt;Node3 -->
<g id="edge2" class="edge">
<title>Node1&#45;&gt;Node3</title>
<path fill="none" stroke="midnightblue" d="M170.57,-61.61C186.53,-50.17 208.33,-34.55 221.63,-25.01"/>
<polygon fill="midnightblue" stroke="midnightblue" points="168.48,-58.8 162.39,-67.48 172.56,-64.49 168.48,-58.8"/>
</g>
</g>
</svg>
