<?xml version="1.0" encoding="UTF-8" standalone="no"?>
<!DOCTYPE svg PUBLIC "-//W3C//DTD SVG 1.1//EN"
 "http://www.w3.org/Graphics/SVG/1.1/DTD/svg11.dtd">
<!-- Generated by graphviz version 2.43.0 (0)
 -->
<!-- Title: analysis/src/live_metric_aggregator.cpp Pages: 1 -->
<svg width="852pt" height="207pt"
 viewBox="0.00 0.00 851.50 207.00" xmlns="http://www.w3.org/2000/svg" xmlns:xlink="http://www.w3.org/1999/xlink">
<g id="graph0" class="graph" transform="scale(1 1) rotate(0) translate(4 203)">
<title>analysis/src/live_metric_aggregator.cpp</title>
<polygon fill="white" stroke="transparent" points="-4,4 -4,-203 847.5,-203 847.5,4 -4,4"/>
<!-- Node1 -->
<g id="node1" class="node">
<title>Node1</title>
<g id="a_node1"><a xlink:title="Implements the LiveMetricAggregator class for real&#45;time container metrics aggregation.">
<polygon fill="#bfbfbf" stroke="black" points="378.5,-168.5 378.5,-198.5 510.5,-198.5 510.5,-168.5 378.5,-168.5"/>
<text text-anchor="start" x="386.5" y="-186.5" font-family="Helvetica,sans-Serif" font-size="10.00">analysis/src/live_metric</text>
<text text-anchor="middle" x="444.5" y="-175.5" font-family="Helvetica,sans-Serif" font-size="10.00">_aggregator.cpp</text>
</a>
</g>
</g>
<!-- Node2 -->
<g id="node2" class="node">
<title>Node2</title>
<g id="a_node2"><a xlink:href="live__metric__aggregator_8hpp.html" target="_top" xlink:title="Declares the LiveMetricAggregator class for real&#45;time container metrics aggregation and dashboard upd...">
<polygon fill="white" stroke="black" points="39.5,-112.5 39.5,-131.5 189.5,-131.5 189.5,-112.5 39.5,-112.5"/>
<text text-anchor="middle" x="114.5" y="-119.5" font-family="Helvetica,sans-Serif" font-size="10.00">live_metric_aggregator.hpp</text>
</a>
</g>
</g>
<!-- Node1&#45;&gt;Node2 -->
<g id="edge1" class="edge">
<title>Node1&#45;&gt;Node2</title>
<path fill="none" stroke="midnightblue" d="M378.12,-170.53C317.75,-159.65 229.56,-143.75 172.1,-133.39"/>
<polygon fill="midnightblue" stroke="midnightblue" points="172.56,-129.91 162.1,-131.58 171.32,-136.8 172.56,-129.91"/>
</g>
<!-- Node4 -->
<g id="node4" class="node">
<title>Node4</title>
<g id="a_node4"><a xlink:title=" ">
<polygon fill="white" stroke="#bfbfbf" points="179.5,-56.5 179.5,-75.5 227.5,-75.5 227.5,-56.5 179.5,-56.5"/>
<text text-anchor="middle" x="203.5" y="-63.5" font-family="Helvetica,sans-Serif" font-size="10.00">thread</text>
</a>
</g>
</g>
<!-- Node1&#45;&gt;Node4 -->
<g id="edge9" class="edge">
<title>Node1&#45;&gt;Node4</title>
<path fill="none" stroke="midnightblue" d="M378.09,-179.07C335.45,-173.92 280.89,-161.5 241.5,-132 225.84,-120.27 215.5,-100.04 209.62,-85.26"/>
<polygon fill="midnightblue" stroke="midnightblue" points="212.83,-83.84 206.1,-75.65 206.25,-86.25 212.83,-83.84"/>
</g>
<!-- Node6 -->
<g id="node6" class="node">
<title>Node6</title>
<g id="a_node6"><a xlink:title=" ">
<polygon fill="white" stroke="#bfbfbf" points="471.5,-112.5 471.5,-131.5 531.5,-131.5 531.5,-112.5 471.5,-112.5"/>
<text text-anchor="middle" x="501.5" y="-119.5" font-family="Helvetica,sans-Serif" font-size="10.00">iostream</text>
</a>
</g>
</g>
<!-- Node1&#45;&gt;Node6 -->
<g id="edge5" class="edge">
<title>Node1&#45;&gt;Node6</title>
<path fill="none" stroke="midnightblue" d="M458.01,-168.4C466.46,-159.58 477.38,-148.18 486.16,-139.02"/>
<polygon fill="midnightblue" stroke="midnightblue" points="488.82,-141.3 493.21,-131.66 483.76,-136.46 488.82,-141.3"/>
</g>
<!-- Node7 -->
<g id="node7" class="node">
<title>Node7</title>
<g id="a_node7"><a xlink:title=" ">
<polygon fill="white" stroke="#bfbfbf" points="550,-112.5 550,-131.5 615,-131.5 615,-112.5 550,-112.5"/>
<text text-anchor="middle" x="582.5" y="-119.5" font-family="Helvetica,sans-Serif" font-size="10.00">mqueue.h</text>
</a>
</g>
</g>
<!-- Node1&#45;&gt;Node7 -->
<g id="edge6" class="edge">
<title>Node1&#45;&gt;Node7</title>
<path fill="none" stroke="midnightblue" d="M477.2,-168.4C500.25,-158.46 530.86,-145.26 553.13,-135.66"/>
<polygon fill="midnightblue" stroke="midnightblue" points="554.62,-138.83 562.42,-131.66 551.85,-132.4 554.62,-138.83"/>
</g>
<!-- Node8 -->
<g id="node8" class="node">
<title>Node8</title>
<g id="a_node8"><a xlink:title=" ">
<polygon fill="white" stroke="#bfbfbf" points="230.5,-0.5 230.5,-19.5 280.5,-19.5 280.5,-0.5 230.5,-0.5"/>
<text text-anchor="middle" x="255.5" y="-7.5" font-family="Helvetica,sans-Serif" font-size="10.00">cstring</text>
</a>
</g>
</g>
<!-- Node1&#45;&gt;Node8 -->
<g id="edge7" class="edge">
<title>Node1&#45;&gt;Node8</title>
<path fill="none" stroke="midnightblue" d="M378.45,-169.81C352.78,-162.25 324.54,-150.4 303.5,-132 272.83,-105.19 261.55,-56.15 257.57,-29.47"/>
<polygon fill="midnightblue" stroke="midnightblue" points="261.03,-29 256.27,-19.54 254.09,-29.91 261.03,-29"/>
</g>
<!-- Node9 -->
<g id="node9" class="node">
<title>Node9</title>
<g id="a_node9"><a xlink:title=" ">
<polygon fill="white" stroke="#bfbfbf" points="633,-112.5 633,-131.5 680,-131.5 680,-112.5 633,-112.5"/>
<text text-anchor="middle" x="656.5" y="-119.5" font-family="Helvetica,sans-Serif" font-size="10.00">cerrno</text>
</a>
</g>
</g>
<!-- Node1&#45;&gt;Node9 -->
<g id="edge8" class="edge">
<title>Node1&#45;&gt;Node9</title>
<path fill="none" stroke="midnightblue" d="M494.55,-168.47C528.41,-158.97 574.41,-146.07 622.99,-132.42"/>
<polygon fill="midnightblue" stroke="midnightblue" points="624.05,-135.76 632.73,-129.69 622.16,-129.02 624.05,-135.76"/>
</g>
<!-- Node10 -->
<g id="node10" class="node">
<title>Node10</title>
<g id="a_node10"><a xlink:title=" ">
<polygon fill="white" stroke="#bfbfbf" points="698.5,-112.5 698.5,-131.5 748.5,-131.5 748.5,-112.5 698.5,-112.5"/>
<text text-anchor="middle" x="723.5" y="-119.5" font-family="Helvetica,sans-Serif" font-size="10.00">chrono</text>
</a>
</g>
</g>
<!-- Node1&#45;&gt;Node10 -->
<g id="edge10" class="edge">
<title>Node1&#45;&gt;Node10</title>
<path fill="none" stroke="midnightblue" d="M510.75,-169.88C557.76,-160.68 622.56,-147.53 688.18,-132.22"/>
<polygon fill="midnightblue" stroke="midnightblue" points="689.35,-135.53 698.29,-129.84 687.75,-128.72 689.35,-135.53"/>
</g>
<!-- Node11 -->
<g id="node11" class="node">
<title>Node11</title>
<g id="a_node11"><a xlink:href="logger_8hpp.html" target="_top" xlink:title="Logging macros for the container monitor application.">
<polygon fill="white" stroke="black" points="766.5,-112.5 766.5,-131.5 834.5,-131.5 834.5,-112.5 766.5,-112.5"/>
<text text-anchor="middle" x="800.5" y="-119.5" font-family="Helvetica,sans-Serif" font-size="10.00">logger.hpp</text>
</a>
</g>
</g>
<!-- Node1&#45;&gt;Node11 -->
<g id="edge11" class="edge">
<title>Node1&#45;&gt;Node11</title>
<path fill="none" stroke="midnightblue" d="M510.6,-172.75C571.82,-163.5 665.65,-148.82 756.36,-132.15"/>
<polygon fill="midnightblue" stroke="midnightblue" points="757.06,-135.57 766.26,-130.32 755.79,-128.69 757.06,-135.57"/>
</g>
<!-- Node13 -->
<g id="node13" class="node">
<title>Node13</title>
<g id="a_node13"><a xlink:href="common_8hpp.html" target="_top" xlink:title="Common data structures, constants, and configuration for container monitoring.">
<polygon fill="white" stroke="black" points="283.5,-56.5 283.5,-75.5 363.5,-75.5 363.5,-56.5 283.5,-56.5"/>
<text text-anchor="middle" x="323.5" y="-63.5" font-family="Helvetica,sans-Serif" font-size="10.00">common.hpp</text>
</a>
</g>
</g>
<!-- Node1&#45;&gt;Node13 -->
<g id="edge13" class="edge">
<title>Node1&#45;&gt;Node13</title>
<path fill="none" stroke="midnightblue" d="M378.22,-173.27C353.36,-166.23 327.52,-153.83 312.5,-132 303,-118.19 307.97,-98.91 313.96,-84.94"/>
<polygon fill="midnightblue" stroke="midnightblue" points="317.15,-86.38 318.31,-75.85 310.84,-83.36 317.15,-86.38"/>
</g>
<!-- Node16 -->
<g id="node16" class="node">
<title>Node16</title>
<g id="a_node16"><a xlink:href="monitor__dashboard_8hpp.html" target="_top" xlink:title="Declares the MonitorDashboard class for ncurses&#45;based container metrics UI.">
<polygon fill="white" stroke="black" points="321.5,-112.5 321.5,-131.5 453.5,-131.5 453.5,-112.5 321.5,-112.5"/>
<text text-anchor="middle" x="387.5" y="-119.5" font-family="Helvetica,sans-Serif" font-size="10.00">monitor_dashboard.hpp</text>
</a>
</g>
</g>
<!-- Node1&#45;&gt;Node16 -->
<g id="edge17" class="edge">
<title>Node1&#45;&gt;Node16</title>
<path fill="none" stroke="midnightblue" d="M430.99,-168.4C422.54,-159.58 411.62,-148.18 402.84,-139.02"/>
<polygon fill="midnightblue" stroke="midnightblue" points="405.24,-136.46 395.79,-131.66 400.18,-141.3 405.24,-136.46"/>
</g>
<!-- Node3 -->
<g id="node3" class="node">
<title>Node3</title>
<g id="a_node3"><a xlink:title=" ">
<polygon fill="white" stroke="#bfbfbf" points="111.5,-56.5 111.5,-75.5 161.5,-75.5 161.5,-56.5 111.5,-56.5"/>
<text text-anchor="middle" x="136.5" y="-63.5" font-family="Helvetica,sans-Serif" font-size="10.00">atomic</text>
</a>
</g>
</g>
<!-- Node2&#45;&gt;Node3 -->
<g id="edge2" class="edge">
<title>Node2&#45;&gt;Node3</title>
<path fill="none" stroke="midnightblue" d="M118.13,-112.08C121.11,-104.77 125.43,-94.18 129.12,-85.1"/>
<polygon fill="midnightblue" stroke="midnightblue" points="132.4,-86.33 132.93,-75.75 125.92,-83.69 132.4,-86.33"/>
</g>
<!-- Node2&#45;&gt;Node4 -->
<g id="edge3" class="edge">
<title>Node2&#45;&gt;Node4</title>
<path fill="none" stroke="midnightblue" d="M128.8,-112.32C142.68,-103.9 163.99,-90.97 180.3,-81.07"/>
<polygon fill="midnightblue" stroke="midnightblue" points="182.5,-83.83 189.24,-75.65 178.87,-77.85 182.5,-83.83"/>
</g>
<!-- Node5 -->
<g id="node5" class="node">
<title>Node5</title>
<g id="a_node5"><a xlink:title=" ">
<polygon fill="white" stroke="#bfbfbf" points="0,-56.5 0,-75.5 93,-75.5 93,-56.5 0,-56.5"/>
<text text-anchor="middle" x="46.5" y="-63.5" font-family="Helvetica,sans-Serif" font-size="10.00">unordered_map</text>
</a>
</g>
</g>
<!-- Node2&#45;&gt;Node5 -->
<g id="edge4" class="edge">
<title>Node2&#45;&gt;Node5</title>
<path fill="none" stroke="midnightblue" d="M103.57,-112.32C93.33,-104.18 77.78,-91.84 65.5,-82.09"/>
<polygon fill="midnightblue" stroke="midnightblue" points="67.63,-79.31 57.62,-75.83 63.28,-84.79 67.63,-79.31"/>
</g>
<!-- Node12 -->
<g id="node12" class="node">
<title>Node12</title>
<g id="a_node12"><a xlink:title=" ">
<polygon fill="white" stroke="#bfbfbf" points="757.5,-56.5 757.5,-75.5 843.5,-75.5 843.5,-56.5 757.5,-56.5"/>
<text text-anchor="middle" x="800.5" y="-63.5" font-family="Helvetica,sans-Serif" font-size="10.00">glog/logging.h</text>
</a>
</g>
</g>
<!-- Node11&#45;&gt;Node12 -->
<g id="edge12" class="edge">
<title>Node11&#45;&gt;Node12</title>
<path fill="none" stroke="midnightblue" d="M800.5,-112.08C800.5,-105.01 800.5,-94.86 800.5,-85.99"/>
<polygon fill="midnightblue" stroke="midnightblue" points="804,-85.75 800.5,-75.75 797,-85.75 804,-85.75"/>
</g>
<!-- Node13&#45;&gt;Node8 -->
<g id="edge15" class="edge">
<title>Node13&#45;&gt;Node8</title>
<path fill="none" stroke="midnightblue" d="M312.57,-56.32C302.33,-48.18 286.78,-35.84 274.5,-26.09"/>
<polygon fill="midnightblue" stroke="midnightblue" points="276.63,-23.31 266.62,-19.83 272.28,-28.79 276.63,-23.31"/>
</g>
<!-- Node14 -->
<g id="node14" class="node">
<title>Node14</title>
<g id="a_node14"><a xlink:title=" ">
<polygon fill="white" stroke="#bfbfbf" points="475.5,-0.5 475.5,-19.5 519.5,-19.5 519.5,-0.5 475.5,-0.5"/>
<text text-anchor="middle" x="497.5" y="-7.5" font-family="Helvetica,sans-Serif" font-size="10.00">string</text>
</a>
</g>
</g>
<!-- Node13&#45;&gt;Node14 -->
<g id="edge14" class="edge">
<title>Node13&#45;&gt;Node14</title>
<path fill="none" stroke="midnightblue" d="M351.07,-56.44C382.25,-46.77 432.93,-31.04 465.74,-20.86"/>
<polygon fill="midnightblue" stroke="midnightblue" points="466.79,-24.2 475.3,-17.89 464.72,-17.51 466.79,-24.2"/>
</g>
<!-- Node15 -->
<g id="node15" class="node">
<title>Node15</title>
<g id="a_node15"><a xlink:title=" ">
<polygon fill="white" stroke="#bfbfbf" points="299,-0.5 299,-19.5 372,-19.5 372,-0.5 299,-0.5"/>
<text text-anchor="middle" x="335.5" y="-7.5" font-family="Helvetica,sans-Serif" font-size="10.00">string_view</text>
</a>
</g>
</g>
<!-- Node13&#45;&gt;Node15 -->
<g id="edge16" class="edge">
<title>Node13&#45;&gt;Node15</title>
<path fill="none" stroke="midnightblue" d="M325.48,-56.08C327.07,-48.93 329.36,-38.64 331.35,-29.69"/>
<polygon fill="midnightblue" stroke="midnightblue" points="334.8,-30.27 333.56,-19.75 327.97,-28.75 334.8,-30.27"/>
</g>
<!-- Node16&#45;&gt;Node3 -->
<g id="edge21" class="edge">
<title>Node16&#45;&gt;Node3</title>
<path fill="none" stroke="midnightblue" d="M342.88,-112.48C301.04,-104.33 236.54,-91.35 171.7,-76.19"/>
<polygon fill="midnightblue" stroke="midnightblue" points="172.25,-72.72 161.71,-73.84 170.64,-79.54 172.25,-72.72"/>
</g>
<!-- Node16&#45;&gt;Node4 -->
<g id="edge22" class="edge">
<title>Node16&#45;&gt;Node4</title>
<path fill="none" stroke="midnightblue" d="M358.34,-112.44C325.42,-102.78 271.92,-87.08 237.22,-76.9"/>
<polygon fill="midnightblue" stroke="midnightblue" points="238.12,-73.51 227.53,-74.05 236.14,-80.23 238.12,-73.51"/>
</g>
<!-- Node16&#45;&gt;Node13 -->
<g id="edge24" class="edge">
<title>Node16&#45;&gt;Node13</title>
<path fill="none" stroke="midnightblue" d="M377.22,-112.32C367.66,-104.26 353.22,-92.08 341.72,-82.37"/>
<polygon fill="midnightblue" stroke="midnightblue" points="343.87,-79.61 333.97,-75.83 339.36,-84.96 343.87,-79.61"/>
</g>
<!-- Node16&#45;&gt;Node14 -->
<g id="edge20" class="edge">
<title>Node16&#45;&gt;Node14</title>
<path fill="none" stroke="midnightblue" d="M453.79,-112.67C498.11,-105.59 550.73,-93.71 564.5,-76 579.94,-56.15 552.04,-36.48 527.68,-24.07"/>
<polygon fill="midnightblue" stroke="midnightblue" points="529.13,-20.88 518.61,-19.68 526.08,-27.19 529.13,-20.88"/>
</g>
<!-- Node17 -->
<g id="node17" class="node">
<title>Node17</title>
<g id="a_node17"><a xlink:title=" ">
<polygon fill="white" stroke="#bfbfbf" points="611.5,-56.5 611.5,-75.5 649.5,-75.5 649.5,-56.5 611.5,-56.5"/>
<text text-anchor="middle" x="630.5" y="-63.5" font-family="Helvetica,sans-Serif" font-size="10.00">map</text>
</a>
</g>
</g>
<!-- Node16&#45;&gt;Node17 -->
<g id="edge18" class="edge">
<title>Node16&#45;&gt;Node17</title>
<path fill="none" stroke="midnightblue" d="M430.69,-112.47C473.26,-103.89 540.08,-89.97 597.5,-76 598.77,-75.69 600.06,-75.37 601.36,-75.04"/>
<polygon fill="midnightblue" stroke="midnightblue" points="602.57,-78.34 611.35,-72.41 600.79,-71.57 602.57,-78.34"/>
</g>
<!-- Node18 -->
<g id="node18" class="node">
<title>Node18</title>
<g id="a_node18"><a xlink:title=" ">
<polygon fill="white" stroke="#bfbfbf" points="381.5,-56.5 381.5,-75.5 429.5,-75.5 429.5,-56.5 381.5,-56.5"/>
<text text-anchor="middle" x="405.5" y="-63.5" font-family="Helvetica,sans-Serif" font-size="10.00">mutex</text>
</a>
</g>
</g>
<!-- Node16&#45;&gt;Node18 -->
<g id="edge19" class="edge">
<title>Node16&#45;&gt;Node18</title>
<path fill="none" stroke="midnightblue" d="M390.47,-112.08C392.88,-104.85 396.36,-94.41 399.37,-85.4"/>
<polygon fill="midnightblue" stroke="midnightblue" points="402.74,-86.34 402.58,-75.75 396.1,-84.13 402.74,-86.34"/>
</g>
<!-- Node19 -->
<g id="node19" class="node">
<title>Node19</title>
<g id="a_node19"><a xlink:title=" ">
<polygon fill="white" stroke="#bfbfbf" points="448,-56.5 448,-75.5 555,-75.5 555,-56.5 448,-56.5"/>
<text text-anchor="middle" x="501.5" y="-63.5" font-family="Helvetica,sans-Serif" font-size="10.00">condition_variable</text>
</a>
</g>
</g>
<!-- Node16&#45;&gt;Node19 -->
<g id="edge23" class="edge">
<title>Node16&#45;&gt;Node19</title>
<path fill="none" stroke="midnightblue" d="M405.56,-112.44C424.07,-103.68 453.08,-89.94 474.36,-79.86"/>
<polygon fill="midnightblue" stroke="midnightblue" points="475.98,-82.96 483.52,-75.52 472.99,-76.63 475.98,-82.96"/>
</g>
</g>
</svg>
