<?xml version="1.0" encoding="UTF-8" standalone="no"?>
<!DOCTYPE svg PUBLIC "-//W3C//DTD SVG 1.1//EN"
 "http://www.w3.org/Graphics/SVG/1.1/DTD/svg11.dtd">
<!-- Generated by graphviz version 2.43.0 (0)
 -->
<!-- Title: analysis/inc/live_metric_aggregator.hpp Pages: 1 -->
<svg width="220pt" height="106pt"
 viewBox="0.00 0.00 220.00 106.00" xmlns="http://www.w3.org/2000/svg" xmlns:xlink="http://www.w3.org/1999/xlink">
<g id="graph0" class="graph" transform="scale(1 1) rotate(0) translate(4 102)">
<title>analysis/inc/live_metric_aggregator.hpp</title>
<polygon fill="white" stroke="transparent" points="-4,4 -4,-102 216,-102 216,4 -4,4"/>
<!-- Node1 -->
<g id="node1" class="node">
<title>Node1</title>
<g id="a_node1"><a xlink:title="Declares the LiveMetricAggregator class for real&#45;time container metrics aggregation and dashboard upd...">
<polygon fill="#bfbfbf" stroke="black" points="57,-67.5 57,-97.5 189,-97.5 189,-67.5 57,-67.5"/>
<text text-anchor="start" x="65" y="-85.5" font-family="Helvetica,sans-Serif" font-size="10.00">analysis/inc/live_metric</text>
<text text-anchor="middle" x="123" y="-74.5" font-family="Helvetica,sans-Serif" font-size="10.00">_aggregator.hpp</text>
</a>
</g>
</g>
<!-- Node2 -->
<g id="node2" class="node">
<title>Node2</title>
<g id="a_node2"><a xlink:href="live__metric__aggregator_8cpp.html" target="_top" xlink:title="Implements the LiveMetricAggregator class for real&#45;time container metrics aggregation.">
<polygon fill="white" stroke="black" points="0,-0.5 0,-30.5 132,-30.5 132,-0.5 0,-0.5"/>
<text text-anchor="start" x="8" y="-18.5" font-family="Helvetica,sans-Serif" font-size="10.00">analysis/src/live_metric</text>
<text text-anchor="middle" x="66" y="-7.5" font-family="Helvetica,sans-Serif" font-size="10.00">_aggregator.cpp</text>
</a>
</g>
</g>
<!-- Node1&#45;&gt;Node2 -->
<g id="edge1" class="edge">
<title>Node1&#45;&gt;Node2</title>
<path fill="none" stroke="midnightblue" d="M103.91,-59.74C95.48,-50.12 85.81,-39.09 78.34,-30.58"/>
<polygon fill="midnightblue" stroke="midnightblue" points="101.41,-62.18 110.63,-67.4 106.67,-57.57 101.41,-62.18"/>
</g>
<!-- Node3 -->
<g id="node3" class="node">
<title>Node3</title>
<g id="a_node3"><a xlink:href="main_8cpp.html" target="_top" xlink:title="Entry point for the Container Monitor application.">
<polygon fill="white" stroke="black" points="150,-6 150,-25 212,-25 212,-6 150,-6"/>
<text text-anchor="middle" x="181" y="-13" font-family="Helvetica,sans-Serif" font-size="10.00">main.cpp</text>
</a>
</g>
</g>
<!-- Node1&#45;&gt;Node3 -->
<g id="edge2" class="edge">
<title>Node1&#45;&gt;Node3</title>
<path fill="none" stroke="midnightblue" d="M142.49,-59.66C153.01,-47.86 165.41,-33.97 173.24,-25.19"/>
<polygon fill="midnightblue" stroke="midnightblue" points="139.63,-57.6 135.59,-67.4 144.85,-62.26 139.63,-57.6"/>
</g>
</g>
</svg>
