<?xml version="1.0" encoding="UTF-8" standalone="no"?>
<!DOCTYPE svg PUBLIC "-//W3C//DTD SVG 1.1//EN"
 "http://www.w3.org/Graphics/SVG/1.1/DTD/svg11.dtd">
<!-- Generated by graphviz version 2.43.0 (0)
 -->
<!-- Title: analysis/inc/live_metric_aggregator.hpp Pages: 1 -->
<svg width="236pt" height="95pt"
 viewBox="0.00 0.00 235.50 95.00" xmlns="http://www.w3.org/2000/svg" xmlns:xlink="http://www.w3.org/1999/xlink">
<g id="graph0" class="graph" transform="scale(1 1) rotate(0) translate(4 91)">
<title>analysis/inc/live_metric_aggregator.hpp</title>
<polygon fill="white" stroke="transparent" points="-4,4 -4,-91 231.5,-91 231.5,4 -4,4"/>
<!-- Node1 -->
<g id="node1" class="node">
<title>Node1</title>
<g id="a_node1"><a xlink:title="Declares the LiveMetricAggregator class for real&#45;time container metrics aggregation and dashboard upd...">
<polygon fill="#bfbfbf" stroke="black" points="26,-56.5 26,-86.5 158,-86.5 158,-56.5 26,-56.5"/>
<text text-anchor="start" x="34" y="-74.5" font-family="Helvetica,sans-Serif" font-size="10.00">analysis/inc/live_metric</text>
<text text-anchor="middle" x="92" y="-63.5" font-family="Helvetica,sans-Serif" font-size="10.00">_aggregator.hpp</text>
</a>
</g>
</g>
<!-- Node2 -->
<g id="node2" class="node">
<title>Node2</title>
<g id="a_node2"><a xlink:title=" ">
<polygon fill="white" stroke="#bfbfbf" points="0,-0.5 0,-19.5 50,-19.5 50,-0.5 0,-0.5"/>
<text text-anchor="middle" x="25" y="-7.5" font-family="Helvetica,sans-Serif" font-size="10.00">atomic</text>
</a>
</g>
</g>
<!-- Node1&#45;&gt;Node2 -->
<g id="edge1" class="edge">
<title>Node1&#45;&gt;Node2</title>
<path fill="none" stroke="midnightblue" d="M76.12,-56.4C65.98,-47.4 52.84,-35.72 42.41,-26.47"/>
<polygon fill="midnightblue" stroke="midnightblue" points="44.55,-23.68 34.75,-19.66 39.9,-28.92 44.55,-23.68"/>
</g>
<!-- Node3 -->
<g id="node3" class="node">
<title>Node3</title>
<g id="a_node3"><a xlink:title=" ">
<polygon fill="white" stroke="#bfbfbf" points="68,-0.5 68,-19.5 116,-19.5 116,-0.5 68,-0.5"/>
<text text-anchor="middle" x="92" y="-7.5" font-family="Helvetica,sans-Serif" font-size="10.00">thread</text>
</a>
</g>
</g>
<!-- Node1&#45;&gt;Node3 -->
<g id="edge2" class="edge">
<title>Node1&#45;&gt;Node3</title>
<path fill="none" stroke="midnightblue" d="M92,-56.4C92,-48.47 92,-38.46 92,-29.86"/>
<polygon fill="midnightblue" stroke="midnightblue" points="95.5,-29.66 92,-19.66 88.5,-29.66 95.5,-29.66"/>
</g>
<!-- Node4 -->
<g id="node4" class="node">
<title>Node4</title>
<g id="a_node4"><a xlink:title=" ">
<polygon fill="white" stroke="#bfbfbf" points="134.5,-0.5 134.5,-19.5 227.5,-19.5 227.5,-0.5 134.5,-0.5"/>
<text text-anchor="middle" x="181" y="-7.5" font-family="Helvetica,sans-Serif" font-size="10.00">unordered_map</text>
</a>
</g>
</g>
<!-- Node1&#45;&gt;Node4 -->
<g id="edge3" class="edge">
<title>Node1&#45;&gt;Node4</title>
<path fill="none" stroke="midnightblue" d="M113.09,-56.4C127.09,-47.04 145.41,-34.79 159.49,-25.38"/>
<polygon fill="midnightblue" stroke="midnightblue" points="161.68,-28.13 168.05,-19.66 157.79,-22.31 161.68,-28.13"/>
</g>
</g>
</svg>
