<?xml version="1.0" encoding="UTF-8" standalone="no"?>
<!DOCTYPE svg PUBLIC "-//W3C//DTD SVG 1.1//EN"
 "http://www.w3.org/Graphics/SVG/1.1/DTD/svg11.dtd">
<!-- Generated by graphviz version 2.43.0 (0)
 -->
<!-- Title: utils/inc/logger.hpp Pages: 1 -->
<!--zoomable 106 -->
<svg id="main" version="1.1" xmlns="http://www.w3.org/2000/svg" xmlns:xlink="http://www.w3.org/1999/xlink" xml:space="preserve" onload="init(evt)">
<style type="text/css"><![CDATA[
.edge:hover path { stroke: red; }
.edge:hover polygon { stroke: red; fill: red; }
]]></style>
<script type="text/javascript"><![CDATA[
var edges = document.getElementsByTagName('g');
if (edges && edges.length) {
  for (var i=0;i<edges.length;i++) {
    if (edges[i].id.substr(0,4)=='edge') {
      edges[i].setAttribute('class','edge');
    }
  }
}
]]></script>
        <defs>
                <circle id="rim" cx="0" cy="0" r="7"/>
                <circle id="rim2" cx="0" cy="0" r="3.5"/>
                <g id="zoomPlus">
                        <use xlink:href="#rim" fill="#404040">
                                <set attributeName="fill" to="#808080" begin="zoomplus.mouseover" end="zoomplus.mouseout"/>
                        </use>
                        <path d="M-4,0h8M0,-4v8" fill="none" stroke="white" stroke-width="1.5" pointer-events="none"/>
                </g>
                <g id="zoomMin">
                        <use xlink:href="#rim" fill="#404040">
                                <set attributeName="fill" to="#808080" begin="zoomminus.mouseover" end="zoomminus.mouseout"/>
                        </use>
                        <path d="M-4,0h8" fill="none" stroke="white" stroke-width="1.5" pointer-events="none"/>
                </g>
                <g id="dirArrow">
                        <path fill="none" stroke="white" stroke-width="1.5" d="M0,-3.0v7 M-2.5,-0.5L0,-3.0L2.5,-0.5"/>
                </g>
               <g id="resetDef">
                       <use xlink:href="#rim2" fill="#404040">
                               <set attributeName="fill" to="#808080" begin="reset.mouseover" end="reset.mouseout"/>
                       </use>
               </g>
        </defs>

<script type="text/javascript">
var viewWidth = 1424;
var viewHeight = 106;
var sectionId = 'dynsection-1';
</script>
<script xlink:href="svgpan.js"/>
<svg id="graph" class="graph">
<g id="viewport">
<title>utils/inc/logger.hpp</title>
<polygon fill="white" stroke="transparent" points="-4,4 -4,-102 1419.5,-102 1419.5,4 -4,4"/>
<!-- Node1 -->
<g id="node1" class="node">
<title>Node1</title>
<g id="a_node1"><a xlink:title="Logging macros for the container monitor application.">
<polygon fill="#bfbfbf" stroke="black" points="595.5,-78.5 595.5,-97.5 704.5,-97.5 704.5,-78.5 595.5,-78.5"/>
<text text-anchor="middle" x="650" y="-85.5" font-family="Helvetica,sans-Serif" font-size="10.00">utils/inc/logger.hpp</text>
</a>
</g>
</g>
<!-- Node2 -->
<g id="node2" class="node">
<title>Node2</title>
<g id="a_node2"><a xlink:href="live__metric__aggregator_8cpp.html" target="_top" xlink:title="Implements the LiveMetricAggregator class for real&#45;time container metrics aggregation.">
<polygon fill="white" stroke="black" points="0,-6 0,-36 132,-36 132,-6 0,-6"/>
<text text-anchor="start" x="8" y="-24" font-family="Helvetica,sans-Serif" font-size="10.00">analysis/src/live_metric</text>
<text text-anchor="middle" x="66" y="-13" font-family="Helvetica,sans-Serif" font-size="10.00">_aggregator.cpp</text>
</a>
</g>
</g>
<!-- Node1&#45;&gt;Node2 -->
<g id="edge1" class="edge">
<title>Node1&#45;&gt;Node2</title>
<path fill="none" stroke="midnightblue" d="M585.11,-84.84C487.91,-80.81 299.05,-69.85 141,-42 132.11,-40.43 122.73,-38.32 113.74,-36.05"/>
<polygon fill="midnightblue" stroke="midnightblue" points="585.23,-88.35 595.36,-85.26 585.51,-81.36 585.23,-88.35"/>
</g>
<!-- Node3 -->
<g id="node3" class="node">
<title>Node3</title>
<g id="a_node3"><a xlink:href="sqlite__database_8cpp.html" target="_top" xlink:title="Implements the SQLiteDatabase class for SQLite&#45;based database operations.">
<polygon fill="white" stroke="black" points="150.5,-6 150.5,-36 259.5,-36 259.5,-6 150.5,-6"/>
<text text-anchor="start" x="158.5" y="-24" font-family="Helvetica,sans-Serif" font-size="10.00">database/src/sqlite</text>
<text text-anchor="middle" x="205" y="-13" font-family="Helvetica,sans-Serif" font-size="10.00">_database.cpp</text>
</a>
</g>
</g>
<!-- Node1&#45;&gt;Node3 -->
<g id="edge2" class="edge">
<title>Node1&#45;&gt;Node3</title>
<path fill="none" stroke="midnightblue" d="M584.81,-82.99C508.46,-77.45 378.49,-65.36 269,-42 261.49,-40.4 253.59,-38.29 246.01,-36.05"/>
<polygon fill="midnightblue" stroke="midnightblue" points="585,-86.51 595.22,-83.73 585.49,-79.53 585,-86.51"/>
</g>
<!-- Node4 -->
<g id="node4" class="node">
<title>Node4</title>
<g id="a_node4"><a xlink:href="main_8cpp.html" target="_top" xlink:title="Entry point for the Container Monitor application.">
<polygon fill="white" stroke="black" points="278,-11.5 278,-30.5 340,-30.5 340,-11.5 278,-11.5"/>
<text text-anchor="middle" x="309" y="-18.5" font-family="Helvetica,sans-Serif" font-size="10.00">main.cpp</text>
</a>
</g>
</g>
<!-- Node1&#45;&gt;Node4 -->
<g id="edge3" class="edge">
<title>Node1&#45;&gt;Node4</title>
<path fill="none" stroke="midnightblue" d="M585.27,-83.23C523.4,-78.26 428.11,-66.99 349,-42 340.12,-39.19 330.77,-34.62 323.35,-30.56"/>
<polygon fill="midnightblue" stroke="midnightblue" points="585.05,-86.72 595.28,-84 585.58,-79.74 585.05,-86.72"/>
</g>
<!-- Node5 -->
<g id="node5" class="node">
<title>Node5</title>
<g id="a_node5"><a xlink:href="event__listener_8cpp.html" target="_top" xlink:title="Implements the RuntimeEventListener class for container event monitoring.">
<polygon fill="white" stroke="black" points="358,-6 358,-36 484,-36 484,-6 358,-6"/>
<text text-anchor="start" x="366" y="-24" font-family="Helvetica,sans-Serif" font-size="10.00">monitoring_service</text>
<text text-anchor="middle" x="421" y="-13" font-family="Helvetica,sans-Serif" font-size="10.00">/src/event_listener.cpp</text>
</a>
</g>
</g>
<!-- Node1&#45;&gt;Node5 -->
<g id="edge4" class="edge">
<title>Node1&#45;&gt;Node5</title>
<path fill="none" stroke="midnightblue" d="M609.69,-75.56C570.86,-64.54 512.05,-47.84 470.42,-36.03"/>
<polygon fill="midnightblue" stroke="midnightblue" points="609.01,-79 619.59,-78.37 610.93,-72.27 609.01,-79"/>
</g>
<!-- Node6 -->
<g id="node6" class="node">
<title>Node6</title>
<g id="a_node6"><a xlink:href="event__processor_8cpp.html" target="_top" xlink:title="Implements the EventProcessor class for processing container events and host metrics.">
<polygon fill="white" stroke="black" points="502.5,-6 502.5,-36 639.5,-36 639.5,-6 502.5,-6"/>
<text text-anchor="start" x="510.5" y="-24" font-family="Helvetica,sans-Serif" font-size="10.00">monitoring_service</text>
<text text-anchor="middle" x="571" y="-13" font-family="Helvetica,sans-Serif" font-size="10.00">/src/event_processor.cpp</text>
</a>
</g>
</g>
<!-- Node1&#45;&gt;Node6 -->
<g id="edge5" class="edge">
<title>Node1&#45;&gt;Node6</title>
<path fill="none" stroke="midnightblue" d="M631.45,-71.74C618.34,-60.95 600.9,-46.6 588.12,-36.09"/>
<polygon fill="midnightblue" stroke="midnightblue" points="629.4,-74.58 639.35,-78.23 633.85,-69.18 629.4,-74.58"/>
</g>
<!-- Node7 -->
<g id="node7" class="node">
<title>Node7</title>
<g id="a_node7"><a xlink:href="resource__monitor_8cpp.html" target="_top" xlink:title="Implements the ResourceMonitor class for tracking live containers and managing resource threads.">
<polygon fill="white" stroke="black" points="658,-6 658,-36 800,-36 800,-6 658,-6"/>
<text text-anchor="start" x="666" y="-24" font-family="Helvetica,sans-Serif" font-size="10.00">monitoring_service</text>
<text text-anchor="middle" x="729" y="-13" font-family="Helvetica,sans-Serif" font-size="10.00">/src/resource_monitor.cpp</text>
</a>
</g>
</g>
<!-- Node1&#45;&gt;Node7 -->
<g id="edge6" class="edge">
<title>Node1&#45;&gt;Node7</title>
<path fill="none" stroke="midnightblue" d="M668.55,-71.74C681.66,-60.95 699.1,-46.6 711.88,-36.09"/>
<polygon fill="midnightblue" stroke="midnightblue" points="666.15,-69.18 660.65,-78.23 670.6,-74.58 666.15,-69.18"/>
</g>
<!-- Node8 -->
<g id="node8" class="node">
<title>Node8</title>
<g id="a_node8"><a xlink:href="resource__thread__pool_8cpp.html" target="_top" xlink:title="Implements the ResourceThreadPool class for parallel container resource monitoring.">
<polygon fill="white" stroke="black" points="818,-0.5 818,-41.5 934,-41.5 934,-0.5 818,-0.5"/>
<text text-anchor="start" x="826" y="-29.5" font-family="Helvetica,sans-Serif" font-size="10.00">monitoring_service</text>
<text text-anchor="start" x="826" y="-18.5" font-family="Helvetica,sans-Serif" font-size="10.00">/src/resource_thread</text>
<text text-anchor="middle" x="876" y="-7.5" font-family="Helvetica,sans-Serif" font-size="10.00">_pool.cpp</text>
</a>
</g>
</g>
<!-- Node1&#45;&gt;Node8 -->
<g id="edge7" class="edge">
<title>Node1&#45;&gt;Node8</title>
<path fill="none" stroke="midnightblue" d="M690.74,-75.64C722.89,-66.64 768.86,-53.67 809,-42 811.91,-41.15 814.9,-40.28 817.91,-39.4"/>
<polygon fill="midnightblue" stroke="midnightblue" points="689.5,-72.35 680.82,-78.42 691.39,-79.1 689.5,-72.35"/>
</g>
<!-- Node9 -->
<g id="node9" class="node">
<title>Node9</title>
<g id="a_node9"><a xlink:href="monitor__dashboard_8cpp.html" target="_top" xlink:title="Implements the MonitorDashboard class for ncurses&#45;based container metrics UI.">
<polygon fill="white" stroke="black" points="952.5,-11.5 952.5,-30.5 1113.5,-30.5 1113.5,-11.5 952.5,-11.5"/>
<text text-anchor="middle" x="1033" y="-18.5" font-family="Helvetica,sans-Serif" font-size="10.00">ui/src/monitor_dashboard.cpp</text>
</a>
</g>
</g>
<!-- Node1&#45;&gt;Node9 -->
<g id="edge8" class="edge">
<title>Node1&#45;&gt;Node9</title>
<path fill="none" stroke="midnightblue" d="M714.73,-78.31C774.24,-70.03 864.82,-56.67 943,-42 960.93,-38.63 980.74,-34.3 997.2,-30.53"/>
<polygon fill="midnightblue" stroke="midnightblue" points="714.15,-74.86 704.72,-79.7 715.11,-81.8 714.15,-74.86"/>
</g>
<!-- Node10 -->
<g id="node10" class="node">
<title>Node10</title>
<g id="a_node10"><a xlink:href="config__parser_8cpp.html" target="_top" xlink:title="Implements the ConfigParser class for parsing application configuration files.">
<polygon fill="white" stroke="black" points="1131.5,-11.5 1131.5,-30.5 1274.5,-30.5 1274.5,-11.5 1131.5,-11.5"/>
<text text-anchor="middle" x="1203" y="-18.5" font-family="Helvetica,sans-Serif" font-size="10.00">utils/src/config_parser.cpp</text>
</a>
</g>
</g>
<!-- Node1&#45;&gt;Node10 -->
<g id="edge9" class="edge">
<title>Node1&#45;&gt;Node10</title>
<path fill="none" stroke="midnightblue" d="M714.83,-83.92C806.34,-78.87 978.37,-66.81 1123,-42 1139.79,-39.12 1158.26,-34.6 1173.21,-30.58"/>
<polygon fill="midnightblue" stroke="midnightblue" points="714.41,-80.44 704.62,-84.47 714.79,-87.43 714.41,-80.44"/>
</g>
<!-- Node11 -->
<g id="node11" class="node">
<title>Node11</title>
<g id="a_node11"><a xlink:href="initializer_8cpp.html" target="_top" xlink:title="Implements the Initializer class for application startup routines.">
<polygon fill="white" stroke="black" points="1292.5,-11.5 1292.5,-30.5 1415.5,-30.5 1415.5,-11.5 1292.5,-11.5"/>
<text text-anchor="middle" x="1354" y="-18.5" font-family="Helvetica,sans-Serif" font-size="10.00">utils/src/initializer.cpp</text>
</a>
</g>
</g>
<!-- Node1&#45;&gt;Node11 -->
<g id="edge10" class="edge">
<title>Node1&#45;&gt;Node11</title>
<path fill="none" stroke="midnightblue" d="M714.82,-86.82C830.17,-85.51 1078.3,-78.28 1284,-42 1299.19,-39.32 1315.79,-34.65 1329.02,-30.5"/>
<polygon fill="midnightblue" stroke="midnightblue" points="714.71,-83.32 704.74,-86.92 714.78,-90.32 714.71,-83.32"/>
</g>
</g>
</svg>
        <g id="navigator" transform="translate(0 0)" fill="#404254">
                <rect fill="#f2f5e9" fill-opacity="0.5" stroke="#606060" stroke-width=".5" x="0" y="0" width="60" height="60"/>
                <use id="zoomplus" xlink:href="#zoomPlus" x="17" y="9" onmousedown="handleZoom(evt,'in')"/>
                <use id="zoomminus" xlink:href="#zoomMin" x="42" y="9" onmousedown="handleZoom(evt,'out')"/>
                <use id="reset" xlink:href="#resetDef" x="30" y="36" onmousedown="handleReset()"/>
                <g id="arrowUp" xlink:href="#dirArrow" transform="translate(30 24)" onmousedown="handlePan(0,-1)">
                  <use xlink:href="#rim" fill="#404040">
                        <set attributeName="fill" to="#808080" begin="arrowUp.mouseover" end="arrowUp.mouseout"/>
                  </use>
                  <path fill="none" stroke="white" stroke-width="1.5" d="M0,-3.0v7 M-2.5,-0.5L0,-3.0L2.5,-0.5"/>
                </g>
                <g id="arrowRight" xlink:href="#dirArrow" transform="rotate(90) translate(36 -43)" onmousedown="handlePan(1,0)">
                  <use xlink:href="#rim" fill="#404040">
                        <set attributeName="fill" to="#808080" begin="arrowRight.mouseover" end="arrowRight.mouseout"/>
                  </use>
                  <path fill="none" stroke="white" stroke-width="1.5" d="M0,-3.0v7 M-2.5,-0.5L0,-3.0L2.5,-0.5"/>
                </g>
                <g id="arrowDown" xlink:href="#dirArrow" transform="rotate(180) translate(-30 -48)" onmousedown="handlePan(0,1)">
                  <use xlink:href="#rim" fill="#404040">
                        <set attributeName="fill" to="#808080" begin="arrowDown.mouseover" end="arrowDown.mouseout"/>
                  </use>
                  <path fill="none" stroke="white" stroke-width="1.5" d="M0,-3.0v7 M-2.5,-0.5L0,-3.0L2.5,-0.5"/>
                </g>
                <g id="arrowLeft" xlink:href="#dirArrow" transform="rotate(270) translate(-36 17)" onmousedown="handlePan(-1,0)">
                  <use xlink:href="#rim" fill="#404040">
                        <set attributeName="fill" to="#808080" begin="arrowLeft.mouseover" end="arrowLeft.mouseout"/>
                  </use>
                  <path fill="none" stroke="white" stroke-width="1.5" d="M0,-3.0v7 M-2.5,-0.5L0,-3.0L2.5,-0.5"/>
                </g>
        </g>
        <svg viewBox="0 0 15 15" width="100%" height="30px" preserveAspectRatio="xMaxYMin meet">
         <g id="arrow_out" transform="scale(0.3 0.3)">
          <a xlink:href="logger_8hpp__dep__incl_org.svg" target="_base">
           <rect id="button" ry="5" rx="5" y="6" x="6" height="38" width="38"
                fill="#f2f5e9" fill-opacity="0.5" stroke="#606060" stroke-width="1.0"/>
           <path id="arrow"
             d="M 11.500037,31.436501 C 11.940474,20.09759 22.043105,11.32322 32.158766,21.979434 L 37.068811,17.246167 C 37.068811,17.246167 37.088388,32 37.088388,32 L 22.160133,31.978069 C 22.160133,31.978069 26.997745,27.140456 26.997745,27.140456 C 18.528582,18.264221 13.291696,25.230495 11.500037,31.436501 z"
             style="fill:#404040;"/>
          </a>
         </g>
        </svg>
</svg>
