<?xml version="1.0" encoding="UTF-8" standalone="no"?>
<!DOCTYPE svg PUBLIC "-//W3C//DTD SVG 1.1//EN"
 "http://www.w3.org/Graphics/SVG/1.1/DTD/svg11.dtd">
<!-- Generated by graphviz version 2.43.0 (0)
 -->
<!-- Title: main Pages: 1 -->
<!--zoomable 604 -->
<svg id="main" version="1.1" xmlns="http://www.w3.org/2000/svg" xmlns:xlink="http://www.w3.org/1999/xlink" xml:space="preserve" onload="init(evt)">
<style type="text/css"><![CDATA[
.edge:hover path { stroke: red; }
.edge:hover polygon { stroke: red; fill: red; }
]]></style>
<script type="text/javascript"><![CDATA[
var edges = document.getElementsByTagName('g');
if (edges && edges.length) {
  for (var i=0;i<edges.length;i++) {
    if (edges[i].id.substr(0,4)=='edge') {
      edges[i].setAttribute('class','edge');
    }
  }
}
]]></script>
        <defs>
                <circle id="rim" cx="0" cy="0" r="7"/>
                <circle id="rim2" cx="0" cy="0" r="3.5"/>
                <g id="zoomPlus">
                        <use xlink:href="#rim" fill="#404040">
                                <set attributeName="fill" to="#808080" begin="zoomplus.mouseover" end="zoomplus.mouseout"/>
                        </use>
                        <path d="M-4,0h8M0,-4v8" fill="none" stroke="white" stroke-width="1.5" pointer-events="none"/>
                </g>
                <g id="zoomMin">
                        <use xlink:href="#rim" fill="#404040">
                                <set attributeName="fill" to="#808080" begin="zoomminus.mouseover" end="zoomminus.mouseout"/>
                        </use>
                        <path d="M-4,0h8" fill="none" stroke="white" stroke-width="1.5" pointer-events="none"/>
                </g>
                <g id="dirArrow">
                        <path fill="none" stroke="white" stroke-width="1.5" d="M0,-3.0v7 M-2.5,-0.5L0,-3.0L2.5,-0.5"/>
                </g>
               <g id="resetDef">
                       <use xlink:href="#rim2" fill="#404040">
                               <set attributeName="fill" to="#808080" begin="reset.mouseover" end="reset.mouseout"/>
                       </use>
               </g>
        </defs>

<script type="text/javascript">
var viewWidth = 754;
var viewHeight = 604;
var sectionId = 'dynsection-1';
</script>
<script xlink:href="svgpan.js"/>
<svg id="graph" class="graph">
<g id="viewport">
<title>main</title>
<polygon fill="white" stroke="transparent" points="-4,4 -4,-599.5 750,-599.5 750,4 -4,4"/>
<!-- Node1 -->
<g id="node1" class="node">
<title>Node1</title>
<g id="a_node1"><a xlink:title="Main entry point for the Container Monitor application.">
<polygon fill="#bfbfbf" stroke="black" points="0,-302 0,-321 41,-321 41,-302 0,-302"/>
<text text-anchor="middle" x="20.5" y="-309" font-family="Helvetica,sans-Serif" font-size="10.00">main</text>
</a>
</g>
</g>
<!-- Node2 -->
<g id="node2" class="node">
<title>Node2</title>
<g id="a_node2"><a xlink:href="classSQLiteDatabase.html#a100c68f16b49f70d68c29986cb55f0ae" target="_top" xlink:title="Clears all tables and cached data in the database.">
<polygon fill="white" stroke="black" points="92,-576 92,-595 229,-595 229,-576 92,-576"/>
<text text-anchor="middle" x="160.5" y="-583" font-family="Helvetica,sans-Serif" font-size="10.00">SQLiteDatabase::clearAll</text>
</a>
</g>
</g>
<!-- Node1&#45;&gt;Node2 -->
<g id="edge1" class="edge">
<title>Node1&#45;&gt;Node2</title>
<path fill="none" stroke="midnightblue" d="M22.24,-321.04C25.66,-362.99 41.41,-530.48 77,-566.5 78.85,-568.38 80.85,-570.08 82.97,-571.63"/>
<polygon fill="midnightblue" stroke="midnightblue" points="81.27,-574.69 91.63,-576.88 84.89,-568.71 81.27,-574.69"/>
</g>
<!-- Node3 -->
<g id="node3" class="node">
<title>Node3</title>
<g id="a_node3"><a xlink:href="classSQLiteDatabase.html#a43076982974e84f43c6a9b3ed44782cc" target="_top" xlink:title="Exports all tables to CSV files in the specified directory.">
<polygon fill="white" stroke="black" points="88,-526.5 88,-556.5 233,-556.5 233,-526.5 88,-526.5"/>
<text text-anchor="start" x="96" y="-544.5" font-family="Helvetica,sans-Serif" font-size="10.00">SQLiteDatabase::exportAll</text>
<text text-anchor="middle" x="160.5" y="-533.5" font-family="Helvetica,sans-Serif" font-size="10.00">TablesToCSV</text>
</a>
</g>
</g>
<!-- Node1&#45;&gt;Node3 -->
<g id="edge2" class="edge">
<title>Node1&#45;&gt;Node3</title>
<path fill="none" stroke="midnightblue" d="M21.07,-321.21C20.17,-353.68 21.79,-459.61 77,-516.5 78.41,-517.95 79.9,-519.32 81.45,-520.6"/>
<polygon fill="midnightblue" stroke="midnightblue" points="79.55,-523.54 89.75,-526.41 83.56,-517.81 79.55,-523.54"/>
</g>
<!-- Node4 -->
<g id="node4" class="node">
<title>Node4</title>
<g id="a_node4"><a xlink:href="classInitializer.html#af0811145fb7ee0a6c57e4574179f1831" target="_top" xlink:title="Initializes the glog logger.">
<polygon fill="white" stroke="black" points="102,-488 102,-507 219,-507 219,-488 102,-488"/>
<text text-anchor="middle" x="160.5" y="-495" font-family="Helvetica,sans-Serif" font-size="10.00">Initializer::initLogger</text>
</a>
</g>
</g>
<!-- Node1&#45;&gt;Node4 -->
<g id="edge3" class="edge">
<title>Node1&#45;&gt;Node4</title>
<path fill="none" stroke="midnightblue" d="M21.62,-321.15C22.53,-349.8 29.31,-435.12 77,-478.5 81.46,-482.56 86.6,-485.8 92.1,-488.39"/>
<polygon fill="midnightblue" stroke="midnightblue" points="91.05,-491.73 101.63,-492.15 93.62,-485.22 91.05,-491.73"/>
</g>
<!-- Node5 -->
<g id="node5" class="node">
<title>Node5</title>
<g id="a_node5"><a xlink:href="classInitializer.html#a0816edd9f2d054417497a4d11fdf518b" target="_top" xlink:title="Parses the configuration file and returns a MonitorConfig object.">
<polygon fill="white" stroke="black" points="97.5,-450 97.5,-469 223.5,-469 223.5,-450 97.5,-450"/>
<text text-anchor="middle" x="160.5" y="-457" font-family="Helvetica,sans-Serif" font-size="10.00">Initializer::parseConfig</text>
</a>
</g>
</g>
<!-- Node1&#45;&gt;Node5 -->
<g id="edge4" class="edge">
<title>Node1&#45;&gt;Node5</title>
<path fill="none" stroke="midnightblue" d="M22.66,-321.01C26.12,-345.02 38.63,-408.48 77,-440.5 80.36,-443.31 84.06,-445.72 87.97,-447.79"/>
<polygon fill="midnightblue" stroke="midnightblue" points="86.87,-451.13 97.43,-452.02 89.73,-444.74 86.87,-451.13"/>
</g>
<!-- Node13 -->
<g id="node13" class="node">
<title>Node13</title>
<g id="a_node13"><a xlink:href="classSQLiteDatabase.html#ab604af7f70a195657b4cd2d682c62d4d" target="_top" xlink:title="Sets up the database schema (tables).">
<polygon fill="white" stroke="black" points="77,-412 77,-431 244,-431 244,-412 77,-412"/>
<text text-anchor="middle" x="160.5" y="-419" font-family="Helvetica,sans-Serif" font-size="10.00">SQLiteDatabase::setupSchema</text>
</a>
</g>
</g>
<!-- Node1&#45;&gt;Node13 -->
<g id="edge15" class="edge">
<title>Node1&#45;&gt;Node13</title>
<path fill="none" stroke="midnightblue" d="M24.57,-321.23C31.02,-340.07 47.88,-381.5 77,-402.5 79.68,-404.43 82.53,-406.18 85.49,-407.74"/>
<polygon fill="midnightblue" stroke="midnightblue" points="84.13,-410.97 94.68,-411.94 87.04,-404.6 84.13,-410.97"/>
</g>
<!-- Node14 -->
<g id="node14" class="node">
<title>Node14</title>
<g id="a_node14"><a xlink:href="classInitializer.html#a179c1256b0dbde8f95f26462b50429ff" target="_top" xlink:title="Sets up signal handlers for graceful shutdown.">
<polygon fill="white" stroke="black" points="98,-362.5 98,-392.5 223,-392.5 223,-362.5 98,-362.5"/>
<text text-anchor="start" x="106" y="-380.5" font-family="Helvetica,sans-Serif" font-size="10.00">Initializer::setupSignal</text>
<text text-anchor="middle" x="160.5" y="-369.5" font-family="Helvetica,sans-Serif" font-size="10.00">Handlers</text>
</a>
</g>
</g>
<!-- Node1&#45;&gt;Node14 -->
<g id="edge16" class="edge">
<title>Node1&#45;&gt;Node14</title>
<path fill="none" stroke="midnightblue" d="M32.24,-321.19C42.91,-330.38 60.08,-344.01 77,-352.5 81.56,-354.79 86.38,-356.92 91.29,-358.88"/>
<polygon fill="midnightblue" stroke="midnightblue" points="90.24,-362.22 100.83,-362.45 92.69,-355.67 90.24,-362.22"/>
</g>
<!-- Node15 -->
<g id="node15" class="node">
<title>Node15</title>
<g id="a_node15"><a xlink:href="main_8cpp.html#ada74d681ddd967a0ce403f099ebde2ff" target="_top" xlink:title="Signal handler to set the shutdown flag.">
<polygon fill="white" stroke="black" points="118,-324 118,-343 203,-343 203,-324 118,-324"/>
<text text-anchor="middle" x="160.5" y="-331" font-family="Helvetica,sans-Serif" font-size="10.00">SignalHandler</text>
</a>
</g>
</g>
<!-- Node1&#45;&gt;Node15 -->
<g id="edge17" class="edge">
<title>Node1&#45;&gt;Node15</title>
<path fill="none" stroke="midnightblue" d="M41.27,-314.65C58.61,-317.42 84.59,-321.56 107.78,-325.26"/>
<polygon fill="midnightblue" stroke="midnightblue" points="107.44,-328.74 117.86,-326.86 108.54,-321.83 107.44,-328.74"/>
</g>
<!-- Node16 -->
<g id="node16" class="node">
<title>Node16</title>
<g id="a_node16"><a xlink:href="classLiveMetricAggregator.html#a46372494b789a24c7981620152fe462f" target="_top" xlink:title="Starts the aggregator thread.">
<polygon fill="white" stroke="black" points="99.5,-274.5 99.5,-304.5 221.5,-304.5 221.5,-274.5 99.5,-274.5"/>
<text text-anchor="start" x="107.5" y="-292.5" font-family="Helvetica,sans-Serif" font-size="10.00">LiveMetricAggregator</text>
<text text-anchor="middle" x="160.5" y="-281.5" font-family="Helvetica,sans-Serif" font-size="10.00">::start</text>
</a>
</g>
</g>
<!-- Node1&#45;&gt;Node16 -->
<g id="edge18" class="edge">
<title>Node1&#45;&gt;Node16</title>
<path fill="none" stroke="midnightblue" d="M41.27,-308.35C54.04,-306.31 71.51,-303.53 89.1,-300.72"/>
<polygon fill="midnightblue" stroke="midnightblue" points="90.11,-304.11 99.43,-299.08 89.01,-297.19 90.11,-304.11"/>
</g>
<!-- Node17 -->
<g id="node17" class="node">
<title>Node17</title>
<g id="a_node17"><a xlink:href="classResourceThreadPool.html#ac5891b133ce8911c0d76fb7cb98438e5" target="_top" xlink:title="Starts all worker threads.">
<polygon fill="white" stroke="black" points="102.5,-225.5 102.5,-255.5 218.5,-255.5 218.5,-225.5 102.5,-225.5"/>
<text text-anchor="start" x="110.5" y="-243.5" font-family="Helvetica,sans-Serif" font-size="10.00">ResourceThreadPool</text>
<text text-anchor="middle" x="160.5" y="-232.5" font-family="Helvetica,sans-Serif" font-size="10.00">::start</text>
</a>
</g>
</g>
<!-- Node1&#45;&gt;Node17 -->
<g id="edge19" class="edge">
<title>Node1&#45;&gt;Node17</title>
<path fill="none" stroke="midnightblue" d="M30.85,-301.71C41.23,-291.36 58.92,-275.22 77,-265.5 82.07,-262.78 87.47,-260.31 93,-258.08"/>
<polygon fill="midnightblue" stroke="midnightblue" points="94.25,-261.35 102.38,-254.55 91.79,-254.79 94.25,-261.35"/>
</g>
<!-- Node18 -->
<g id="node18" class="node">
<title>Node18</title>
<g id="a_node18"><a xlink:href="classMonitorDashboard.html#a34c37ef2c6e7e0339bbcfc96d1d0953b" target="_top" xlink:title="Starts the dashboard UI thread.">
<polygon fill="white" stroke="black" points="93,-187 93,-206 228,-206 228,-187 93,-187"/>
<text text-anchor="middle" x="160.5" y="-194" font-family="Helvetica,sans-Serif" font-size="10.00">MonitorDashboard::start</text>
</a>
</g>
</g>
<!-- Node1&#45;&gt;Node18 -->
<g id="edge20" class="edge">
<title>Node1&#45;&gt;Node18</title>
<path fill="none" stroke="midnightblue" d="M24.27,-301.97C30.39,-282.67 46.97,-238.86 77,-216.5 80.17,-214.14 83.58,-212.06 87.14,-210.22"/>
<polygon fill="midnightblue" stroke="midnightblue" points="88.58,-213.41 96.27,-206.12 85.72,-207.02 88.58,-213.41"/>
</g>
<!-- Node19 -->
<g id="node19" class="node">
<title>Node19</title>
<g id="a_node19"><a xlink:href="classLiveMetricAggregator.html#a3a0e4fa127273209077bdcef59ea1f7c" target="_top" xlink:title="Stops the aggregator thread.">
<polygon fill="white" stroke="black" points="99.5,-137.5 99.5,-167.5 221.5,-167.5 221.5,-137.5 99.5,-137.5"/>
<text text-anchor="start" x="107.5" y="-155.5" font-family="Helvetica,sans-Serif" font-size="10.00">LiveMetricAggregator</text>
<text text-anchor="middle" x="160.5" y="-144.5" font-family="Helvetica,sans-Serif" font-size="10.00">::stop</text>
</a>
</g>
</g>
<!-- Node1&#45;&gt;Node19 -->
<g id="edge21" class="edge">
<title>Node1&#45;&gt;Node19</title>
<path fill="none" stroke="midnightblue" d="M22.68,-301.79C26.17,-277.24 38.75,-212.16 77,-177.5 80.92,-173.95 85.33,-170.9 90.02,-168.29"/>
<polygon fill="midnightblue" stroke="midnightblue" points="91.86,-171.28 99.33,-163.77 88.8,-164.99 91.86,-171.28"/>
</g>
<!-- Node20 -->
<g id="node20" class="node">
<title>Node20</title>
<g id="a_node20"><a xlink:href="classResourceThreadPool.html#a3e77793eacec2e53588c114068c494f6" target="_top" xlink:title="Stops all worker threads and flushes buffers.">
<polygon fill="white" stroke="black" points="102.5,-88.5 102.5,-118.5 218.5,-118.5 218.5,-88.5 102.5,-88.5"/>
<text text-anchor="start" x="110.5" y="-106.5" font-family="Helvetica,sans-Serif" font-size="10.00">ResourceThreadPool</text>
<text text-anchor="middle" x="160.5" y="-95.5" font-family="Helvetica,sans-Serif" font-size="10.00">::stop</text>
</a>
</g>
</g>
<!-- Node1&#45;&gt;Node20 -->
<g id="edge22" class="edge">
<title>Node1&#45;&gt;Node20</title>
<path fill="none" stroke="midnightblue" d="M21.4,-301.9C21.61,-271.68 26.5,-177.51 77,-127.5 81.59,-122.95 86.99,-119.26 92.79,-116.26"/>
<polygon fill="midnightblue" stroke="midnightblue" points="94.46,-119.35 102.18,-112.09 91.62,-112.95 94.46,-119.35"/>
</g>
<!-- Node23 -->
<g id="node23" class="node">
<title>Node23</title>
<g id="a_node23"><a xlink:href="classMonitorDashboard.html#a6692a6c13f04901fc194ac66e67a4f19" target="_top" xlink:title="Stops the dashboard UI thread.">
<polygon fill="white" stroke="black" points="93.5,-50 93.5,-69 227.5,-69 227.5,-50 93.5,-50"/>
<text text-anchor="middle" x="160.5" y="-57" font-family="Helvetica,sans-Serif" font-size="10.00">MonitorDashboard::stop</text>
</a>
</g>
</g>
<!-- Node1&#45;&gt;Node23 -->
<g id="edge25" class="edge">
<title>Node1&#45;&gt;Node23</title>
<path fill="none" stroke="midnightblue" d="M22.44,-301.98C26.56,-262.36 44.24,-111.02 77,-78.5 79.27,-76.24 81.76,-74.23 84.4,-72.44"/>
<polygon fill="midnightblue" stroke="midnightblue" points="86.3,-75.39 93.32,-67.45 82.88,-69.28 86.3,-75.39"/>
</g>
<!-- Node24 -->
<g id="node24" class="node">
<title>Node24</title>
<g id="a_node24"><a xlink:href="classInitializer.html#a1e5893655bdf4a4070de1d50424edad8" target="_top" xlink:title="Unlinks the POSIX message queue used for metrics.">
<polygon fill="white" stroke="black" points="89.5,-0.5 89.5,-30.5 231.5,-30.5 231.5,-0.5 89.5,-0.5"/>
<text text-anchor="start" x="97.5" y="-18.5" font-family="Helvetica,sans-Serif" font-size="10.00">Initializer::unlinkMessage</text>
<text text-anchor="middle" x="160.5" y="-7.5" font-family="Helvetica,sans-Serif" font-size="10.00">Queue</text>
</a>
</g>
</g>
<!-- Node1&#45;&gt;Node24 -->
<g id="edge26" class="edge">
<title>Node1&#45;&gt;Node24</title>
<path fill="none" stroke="midnightblue" d="M22.19,-301.72C25.45,-257.92 40.76,-80.25 77,-40.5 78.36,-39.01 79.81,-37.6 81.33,-36.28"/>
<polygon fill="midnightblue" stroke="midnightblue" points="83.46,-39.06 89.48,-30.33 79.34,-33.4 83.46,-39.06"/>
</g>
<!-- Node6 -->
<g id="node6" class="node">
<title>Node6</title>
<g id="a_node6"><a xlink:href="classConfigParser.html#a715ade3c05d0589a4c002d0c2267c3dc" target="_top" xlink:title="Loads configuration parameters from a file.">
<polygon fill="white" stroke="black" points="308.5,-488 308.5,-507 412.5,-507 412.5,-488 308.5,-488"/>
<text text-anchor="middle" x="360.5" y="-495" font-family="Helvetica,sans-Serif" font-size="10.00">ConfigParser::load</text>
</a>
</g>
</g>
<!-- Node5&#45;&gt;Node6 -->
<g id="edge5" class="edge">
<title>Node5&#45;&gt;Node6</title>
<path fill="none" stroke="midnightblue" d="M211.21,-469.04C238.04,-474.19 271.36,-480.58 299.61,-486.01"/>
<polygon fill="midnightblue" stroke="midnightblue" points="299.29,-489.51 309.77,-487.96 300.61,-482.63 299.29,-489.51"/>
</g>
<!-- Node7 -->
<g id="node7" class="node">
<title>Node7</title>
<g id="a_node7"><a xlink:href="classConfigParser.html#af1bfcf1ded3a672012fb3a24c2f41f39" target="_top" xlink:title="Prints the loaded configuration to the log.">
<polygon fill="white" stroke="black" points="292,-450 292,-469 429,-469 429,-450 292,-450"/>
<text text-anchor="middle" x="360.5" y="-457" font-family="Helvetica,sans-Serif" font-size="10.00">ConfigParser::printConfig</text>
</a>
</g>
</g>
<!-- Node5&#45;&gt;Node7 -->
<g id="edge6" class="edge">
<title>Node5&#45;&gt;Node7</title>
<path fill="none" stroke="midnightblue" d="M223.61,-459.5C241.97,-459.5 262.3,-459.5 281.53,-459.5"/>
<polygon fill="midnightblue" stroke="midnightblue" points="281.77,-463 291.77,-459.5 281.77,-456 281.77,-463"/>
</g>
<!-- Node8 -->
<g id="node8" class="node">
<title>Node8</title>
<g id="a_node8"><a xlink:href="classConfigParser.html#a98620e3bc1a71887f39cdb0a8a8acd26" target="_top" xlink:title="Converts loaded parameters to a MonitorConfig struct.">
<polygon fill="white" stroke="black" points="280,-412 280,-431 441,-431 441,-412 280,-412"/>
<text text-anchor="middle" x="360.5" y="-419" font-family="Helvetica,sans-Serif" font-size="10.00">ConfigParser::toMonitorConfig</text>
</a>
</g>
</g>
<!-- Node5&#45;&gt;Node8 -->
<g id="edge7" class="edge">
<title>Node5&#45;&gt;Node8</title>
<path fill="none" stroke="midnightblue" d="M211.21,-449.96C238.04,-444.81 271.36,-438.42 299.61,-432.99"/>
<polygon fill="midnightblue" stroke="midnightblue" points="300.61,-436.37 309.77,-431.04 299.29,-429.49 300.61,-436.37"/>
</g>
<!-- Node9 -->
<g id="node9" class="node">
<title>Node9</title>
<g id="a_node9"><a xlink:href="classConfigParser.html#a5e10151c9663b93869b1bc07db0053e7" target="_top" xlink:title="Gets a string value for a given key.">
<polygon fill="white" stroke="black" points="647,-412 647,-431 746,-431 746,-412 647,-412"/>
<text text-anchor="middle" x="696.5" y="-419" font-family="Helvetica,sans-Serif" font-size="10.00">ConfigParser::get</text>
</a>
</g>
</g>
<!-- Node8&#45;&gt;Node9 -->
<g id="edge8" class="edge">
<title>Node8&#45;&gt;Node9</title>
<path fill="none" stroke="midnightblue" d="M410.01,-431.04C420.38,-433.65 431.17,-436.8 441,-440.5 457.93,-446.88 459.44,-455.15 477,-459.5 534.81,-473.82 552.77,-471.99 611,-459.5 632.17,-454.96 654.43,-444.69 670.79,-435.97"/>
<polygon fill="midnightblue" stroke="midnightblue" points="672.62,-438.96 679.69,-431.07 669.24,-432.83 672.62,-438.96"/>
</g>
<!-- Node10 -->
<g id="node10" class="node">
<title>Node10</title>
<g id="a_node10"><a xlink:href="classConfigParser.html#aaee708b5d56ede07e9109986ef096125" target="_top" xlink:title="Gets a boolean value for a given key.">
<polygon fill="white" stroke="black" points="483.5,-431 483.5,-450 604.5,-450 604.5,-431 483.5,-431"/>
<text text-anchor="middle" x="544" y="-438" font-family="Helvetica,sans-Serif" font-size="10.00">ConfigParser::getBool</text>
</a>
</g>
</g>
<!-- Node8&#45;&gt;Node10 -->
<g id="edge9" class="edge">
<title>Node8&#45;&gt;Node10</title>
<path fill="none" stroke="midnightblue" d="M441.11,-429.83C451.86,-430.96 462.83,-432.11 473.39,-433.21"/>
<polygon fill="midnightblue" stroke="midnightblue" points="473.06,-436.7 483.37,-434.26 473.79,-429.74 473.06,-436.7"/>
</g>
<!-- Node11 -->
<g id="node11" class="node">
<title>Node11</title>
<g id="a_node11"><a xlink:href="classConfigParser.html#a7ecd8fa23a2651c59bae6b865725b59b" target="_top" xlink:title="Gets a double value for a given key.">
<polygon fill="white" stroke="black" points="477,-393 477,-412 611,-412 611,-393 477,-393"/>
<text text-anchor="middle" x="544" y="-400" font-family="Helvetica,sans-Serif" font-size="10.00">ConfigParser::getDouble</text>
</a>
</g>
</g>
<!-- Node8&#45;&gt;Node11 -->
<g id="edge11" class="edge">
<title>Node8&#45;&gt;Node11</title>
<path fill="none" stroke="midnightblue" d="M441.11,-413.17C449.57,-412.28 458.17,-411.38 466.59,-410.5"/>
<polygon fill="midnightblue" stroke="midnightblue" points="467.19,-413.96 476.77,-409.43 466.46,-406.99 467.19,-413.96"/>
</g>
<!-- Node12 -->
<g id="node12" class="node">
<title>Node12</title>
<g id="a_node12"><a xlink:href="classConfigParser.html#ae5d32c782f74de2f881c0ebc5aeaf3a5" target="_top" xlink:title="Gets an integer value for a given key.">
<polygon fill="white" stroke="black" points="488,-355 488,-374 600,-374 600,-355 488,-355"/>
<text text-anchor="middle" x="544" y="-362" font-family="Helvetica,sans-Serif" font-size="10.00">ConfigParser::getInt</text>
</a>
</g>
</g>
<!-- Node8&#45;&gt;Node12 -->
<g id="edge13" class="edge">
<title>Node8&#45;&gt;Node12</title>
<path fill="none" stroke="midnightblue" d="M389.41,-411.99C412.75,-404.12 446.94,-392.77 477,-383.5 484.21,-381.28 491.89,-378.99 499.36,-376.81"/>
<polygon fill="midnightblue" stroke="midnightblue" points="500.38,-380.16 509.01,-374.02 498.43,-373.44 500.38,-380.16"/>
</g>
<!-- Node10&#45;&gt;Node9 -->
<g id="edge10" class="edge">
<title>Node10&#45;&gt;Node9</title>
<path fill="none" stroke="midnightblue" d="M604.91,-432.94C615.37,-431.62 626.23,-430.25 636.65,-428.93"/>
<polygon fill="midnightblue" stroke="midnightblue" points="637.41,-432.36 646.9,-427.64 636.54,-425.42 637.41,-432.36"/>
</g>
<!-- Node11&#45;&gt;Node9 -->
<g id="edge12" class="edge">
<title>Node11&#45;&gt;Node9</title>
<path fill="none" stroke="midnightblue" d="M611.01,-410.83C619.55,-411.91 628.24,-413.01 636.65,-414.07"/>
<polygon fill="midnightblue" stroke="midnightblue" points="636.37,-417.56 646.73,-415.34 637.25,-410.62 636.37,-417.56"/>
</g>
<!-- Node12&#45;&gt;Node9 -->
<g id="edge14" class="edge">
<title>Node12&#45;&gt;Node9</title>
<path fill="none" stroke="midnightblue" d="M581.61,-374.04C591.26,-376.82 601.6,-380.05 611,-383.5 630.01,-390.47 650.75,-399.77 666.93,-407.43"/>
<polygon fill="midnightblue" stroke="midnightblue" points="665.83,-410.78 676.36,-411.95 668.85,-404.47 665.83,-410.78"/>
</g>
<!-- Node21 -->
<g id="node21" class="node">
<title>Node21</title>
<g id="a_node21"><a xlink:href="classResourceThreadPool.html#abc537653319086744ca546aecdbabf46" target="_top" xlink:title="Flushes all metric buffers to the database.">
<polygon fill="white" stroke="black" points="302.5,-88.5 302.5,-118.5 418.5,-118.5 418.5,-88.5 302.5,-88.5"/>
<text text-anchor="start" x="310.5" y="-106.5" font-family="Helvetica,sans-Serif" font-size="10.00">ResourceThreadPool</text>
<text text-anchor="middle" x="360.5" y="-95.5" font-family="Helvetica,sans-Serif" font-size="10.00">::flushAllBuffers</text>
</a>
</g>
</g>
<!-- Node20&#45;&gt;Node21 -->
<g id="edge23" class="edge">
<title>Node20&#45;&gt;Node21</title>
<path fill="none" stroke="midnightblue" d="M218.5,-103.5C241.5,-103.5 268.2,-103.5 292.14,-103.5"/>
<polygon fill="midnightblue" stroke="midnightblue" points="292.21,-107 302.21,-103.5 292.21,-100 292.21,-107"/>
</g>
<!-- Node22 -->
<g id="node22" class="node">
<title>Node22</title>
<g id="a_node22"><a xlink:href="classIDatabaseInterface.html#a199124b634381e618bf28ae09152b41f" target="_top" xlink:title="Insert a batch of metrics for a container.">
<polygon fill="white" stroke="black" points="489,-88.5 489,-118.5 599,-118.5 599,-88.5 489,-88.5"/>
<text text-anchor="start" x="497" y="-106.5" font-family="Helvetica,sans-Serif" font-size="10.00">IDatabaseInterface</text>
<text text-anchor="middle" x="544" y="-95.5" font-family="Helvetica,sans-Serif" font-size="10.00">::insertBatch</text>
</a>
</g>
</g>
<!-- Node21&#45;&gt;Node22 -->
<g id="edge24" class="edge">
<title>Node21&#45;&gt;Node22</title>
<path fill="none" stroke="midnightblue" d="M418.93,-103.5C437.94,-103.5 459.22,-103.5 478.72,-103.5"/>
<polygon fill="midnightblue" stroke="midnightblue" points="478.73,-107 488.73,-103.5 478.73,-100 478.73,-107"/>
</g>
</g>
</svg>
        <g id="navigator" transform="translate(0 0)" fill="#404254">
                <rect fill="#f2f5e9" fill-opacity="0.5" stroke="#606060" stroke-width=".5" x="0" y="0" width="60" height="60"/>
                <use id="zoomplus" xlink:href="#zoomPlus" x="17" y="9" onmousedown="handleZoom(evt,'in')"/>
                <use id="zoomminus" xlink:href="#zoomMin" x="42" y="9" onmousedown="handleZoom(evt,'out')"/>
                <use id="reset" xlink:href="#resetDef" x="30" y="36" onmousedown="handleReset()"/>
                <g id="arrowUp" xlink:href="#dirArrow" transform="translate(30 24)" onmousedown="handlePan(0,-1)">
                  <use xlink:href="#rim" fill="#404040">
                        <set attributeName="fill" to="#808080" begin="arrowUp.mouseover" end="arrowUp.mouseout"/>
                  </use>
                  <path fill="none" stroke="white" stroke-width="1.5" d="M0,-3.0v7 M-2.5,-0.5L0,-3.0L2.5,-0.5"/>
                </g>
                <g id="arrowRight" xlink:href="#dirArrow" transform="rotate(90) translate(36 -43)" onmousedown="handlePan(1,0)">
                  <use xlink:href="#rim" fill="#404040">
                        <set attributeName="fill" to="#808080" begin="arrowRight.mouseover" end="arrowRight.mouseout"/>
                  </use>
                  <path fill="none" stroke="white" stroke-width="1.5" d="M0,-3.0v7 M-2.5,-0.5L0,-3.0L2.5,-0.5"/>
                </g>
                <g id="arrowDown" xlink:href="#dirArrow" transform="rotate(180) translate(-30 -48)" onmousedown="handlePan(0,1)">
                  <use xlink:href="#rim" fill="#404040">
                        <set attributeName="fill" to="#808080" begin="arrowDown.mouseover" end="arrowDown.mouseout"/>
                  </use>
                  <path fill="none" stroke="white" stroke-width="1.5" d="M0,-3.0v7 M-2.5,-0.5L0,-3.0L2.5,-0.5"/>
                </g>
                <g id="arrowLeft" xlink:href="#dirArrow" transform="rotate(270) translate(-36 17)" onmousedown="handlePan(-1,0)">
                  <use xlink:href="#rim" fill="#404040">
                        <set attributeName="fill" to="#808080" begin="arrowLeft.mouseover" end="arrowLeft.mouseout"/>
                  </use>
                  <path fill="none" stroke="white" stroke-width="1.5" d="M0,-3.0v7 M-2.5,-0.5L0,-3.0L2.5,-0.5"/>
                </g>
        </g>
        <svg viewBox="0 0 15 15" width="100%" height="30px" preserveAspectRatio="xMaxYMin meet">
         <g id="arrow_out" transform="scale(0.3 0.3)">
          <a xlink:href="main_8cpp_a0ddf1224851353fc92bfbff6f499fa97_cgraph_org.svg" target="_base">
           <rect id="button" ry="5" rx="5" y="6" x="6" height="38" width="38"
                fill="#f2f5e9" fill-opacity="0.5" stroke="#606060" stroke-width="1.0"/>
           <path id="arrow"
             d="M 11.500037,31.436501 C 11.940474,20.09759 22.043105,11.32322 32.158766,21.979434 L 37.068811,17.246167 C 37.068811,17.246167 37.088388,32 37.088388,32 L 22.160133,31.978069 C 22.160133,31.978069 26.997745,27.140456 26.997745,27.140456 C 18.528582,18.264221 13.291696,25.230495 11.500037,31.436501 z"
             style="fill:#404040;"/>
          </a>
         </g>
        </svg>
</svg>
