<?xml version="1.0" encoding="UTF-8" standalone="no"?>
<!DOCTYPE svg PUBLIC "-//W3C//DTD SVG 1.1//EN"
 "http://www.w3.org/Graphics/SVG/1.1/DTD/svg11.dtd">
<!-- Generated by graphviz version 2.43.0 (0)
 -->
<!-- Title: main.cpp Pages: 1 -->
<svg width="1800pt" height="319pt"
 viewBox="0.00 0.00 1800.19 319.00" xmlns="http://www.w3.org/2000/svg" xmlns:xlink="http://www.w3.org/1999/xlink">
<g id="graph0" class="graph" transform="scale(1 1) rotate(0) translate(4 315)">
<title>main.cpp</title>
<polygon fill="white" stroke="transparent" points="-4,4 -4,-315 1796.19,-315 1796.19,4 -4,4"/>
<!-- Node1 -->
<g id="node1" class="node">
<title>Node1</title>
<g id="a_node1"><a xlink:title="Entry point for the Container Monitor application.">
<polygon fill="#bfbfbf" stroke="black" points="579,-291.5 579,-310.5 641,-310.5 641,-291.5 579,-291.5"/>
<text text-anchor="middle" x="610" y="-298.5" font-family="Helvetica,sans-Serif" font-size="10.00">main.cpp</text>
</a>
</g>
</g>
<!-- Node2 -->
<g id="node2" class="node">
<title>Node2</title>
<g id="a_node2"><a xlink:title=" ">
<polygon fill="white" stroke="#bfbfbf" points="0,-235.5 0,-254.5 60,-254.5 60,-235.5 0,-235.5"/>
<text text-anchor="middle" x="30" y="-242.5" font-family="Helvetica,sans-Serif" font-size="10.00">iostream</text>
</a>
</g>
</g>
<!-- Node1&#45;&gt;Node2 -->
<g id="edge1" class="edge">
<title>Node1&#45;&gt;Node2</title>
<path fill="none" stroke="midnightblue" d="M578.71,-298.97C496.76,-295.94 269.02,-285.38 70.19,-254.97"/>
<polygon fill="midnightblue" stroke="midnightblue" points="70.57,-251.48 60.15,-253.41 69.5,-258.4 70.57,-251.48"/>
</g>
<!-- Node3 -->
<g id="node3" class="node">
<title>Node3</title>
<g id="a_node3"><a xlink:title=" ">
<polygon fill="white" stroke="#bfbfbf" points="78,-235.5 78,-254.5 136,-254.5 136,-235.5 78,-235.5"/>
<text text-anchor="middle" x="107" y="-242.5" font-family="Helvetica,sans-Serif" font-size="10.00">memory</text>
</a>
</g>
</g>
<!-- Node1&#45;&gt;Node3 -->
<g id="edge2" class="edge">
<title>Node1&#45;&gt;Node3</title>
<path fill="none" stroke="midnightblue" d="M578.9,-298.13C504.48,-293.4 310.42,-279.56 150,-255 148.73,-254.81 147.44,-254.6 146.13,-254.38"/>
<polygon fill="midnightblue" stroke="midnightblue" points="146.53,-250.89 136.07,-252.53 145.27,-257.78 146.53,-250.89"/>
</g>
<!-- Node4 -->
<g id="node4" class="node">
<title>Node4</title>
<g id="a_node4"><a xlink:title=" ">
<polygon fill="white" stroke="#bfbfbf" points="526,-118 526,-137 574,-137 574,-118 526,-118"/>
<text text-anchor="middle" x="550" y="-125" font-family="Helvetica,sans-Serif" font-size="10.00">thread</text>
</a>
</g>
</g>
<!-- Node1&#45;&gt;Node4 -->
<g id="edge3" class="edge">
<title>Node1&#45;&gt;Node4</title>
<path fill="none" stroke="midnightblue" d="M606.98,-291.21C601.85,-277.45 590.16,-250.77 572,-235 540.09,-207.29 507.55,-234.08 484,-199 469.17,-176.91 498.1,-155.11 522.23,-141.73"/>
<polygon fill="midnightblue" stroke="midnightblue" points="523.92,-144.79 531.14,-137.03 520.66,-138.6 523.92,-144.79"/>
</g>
<!-- Node5 -->
<g id="node5" class="node">
<title>Node5</title>
<g id="a_node5"><a xlink:title=" ">
<polygon fill="white" stroke="#bfbfbf" points="1708.5,-56.5 1708.5,-75.5 1755.5,-75.5 1755.5,-56.5 1708.5,-56.5"/>
<text text-anchor="middle" x="1732" y="-63.5" font-family="Helvetica,sans-Serif" font-size="10.00">vector</text>
</a>
</g>
</g>
<!-- Node1&#45;&gt;Node5 -->
<g id="edge4" class="edge">
<title>Node1&#45;&gt;Node5</title>
<path fill="none" stroke="midnightblue" d="M641.15,-299.31C742.46,-296.82 1071.69,-286.64 1342,-255 1486.71,-238.06 1525.85,-242.2 1665,-199 1721.98,-181.31 1754.79,-193.22 1787,-143 1794.44,-131.4 1792.9,-124.45 1787,-112 1780.87,-99.07 1769.01,-88.62 1757.86,-81.05"/>
<polygon fill="midnightblue" stroke="midnightblue" points="1759.53,-77.97 1749.2,-75.61 1755.81,-83.9 1759.53,-77.97"/>
</g>
<!-- Node6 -->
<g id="node6" class="node">
<title>Node6</title>
<g id="a_node6"><a xlink:title=" ">
<polygon fill="white" stroke="#bfbfbf" points="668,-118 668,-137 718,-137 718,-118 668,-118"/>
<text text-anchor="middle" x="693" y="-125" font-family="Helvetica,sans-Serif" font-size="10.00">atomic</text>
</a>
</g>
</g>
<!-- Node1&#45;&gt;Node6 -->
<g id="edge5" class="edge">
<title>Node1&#45;&gt;Node6</title>
<path fill="none" stroke="midnightblue" d="M641.26,-295.52C718.2,-283.8 913.23,-249.58 951,-199 956.32,-191.88 956.77,-185.76 951,-179 917.68,-140 771.95,-158.33 723,-143 721.33,-142.48 719.64,-141.88 717.95,-141.22"/>
<polygon fill="midnightblue" stroke="midnightblue" points="719.09,-137.9 708.53,-137.07 716.27,-144.31 719.09,-137.9"/>
</g>
<!-- Node7 -->
<g id="node7" class="node">
<title>Node7</title>
<g id="a_node7"><a xlink:title=" ">
<polygon fill="white" stroke="#bfbfbf" points="277.5,-235.5 277.5,-254.5 328.5,-254.5 328.5,-235.5 277.5,-235.5"/>
<text text-anchor="middle" x="303" y="-242.5" font-family="Helvetica,sans-Serif" font-size="10.00">csignal</text>
</a>
</g>
</g>
<!-- Node1&#45;&gt;Node7 -->
<g id="edge6" class="edge">
<title>Node1&#45;&gt;Node7</title>
<path fill="none" stroke="midnightblue" d="M578.7,-295.83C529.51,-289.07 430.93,-274.65 338.36,-255.14"/>
<polygon fill="midnightblue" stroke="midnightblue" points="339.07,-251.71 328.56,-253.04 337.61,-258.55 339.07,-251.71"/>
</g>
<!-- Node8 -->
<g id="node8" class="node">
<title>Node8</title>
<g id="a_node8"><a xlink:title=" ">
<polygon fill="white" stroke="#bfbfbf" points="346.5,-235.5 346.5,-254.5 393.5,-254.5 393.5,-235.5 346.5,-235.5"/>
<text text-anchor="middle" x="370" y="-242.5" font-family="Helvetica,sans-Serif" font-size="10.00">cerrno</text>
</a>
</g>
</g>
<!-- Node1&#45;&gt;Node8 -->
<g id="edge7" class="edge">
<title>Node1&#45;&gt;Node8</title>
<path fill="none" stroke="midnightblue" d="M578.85,-293.88C539.97,-286.11 471.22,-271.92 403.68,-255.31"/>
<polygon fill="midnightblue" stroke="midnightblue" points="404.27,-251.85 393.72,-252.85 402.59,-258.65 404.27,-251.85"/>
</g>
<!-- Node9 -->
<g id="node9" class="node">
<title>Node9</title>
<g id="a_node9"><a xlink:title=" ">
<polygon fill="white" stroke="#bfbfbf" points="411.5,-235.5 411.5,-254.5 476.5,-254.5 476.5,-235.5 411.5,-235.5"/>
<text text-anchor="middle" x="444" y="-242.5" font-family="Helvetica,sans-Serif" font-size="10.00">mqueue.h</text>
</a>
</g>
</g>
<!-- Node1&#45;&gt;Node9 -->
<g id="edge8" class="edge">
<title>Node1&#45;&gt;Node9</title>
<path fill="none" stroke="midnightblue" d="M583.7,-291.44C555.65,-282.32 511.06,-267.81 479.82,-257.65"/>
<polygon fill="midnightblue" stroke="midnightblue" points="480.77,-254.28 470.18,-254.52 478.61,-260.94 480.77,-254.28"/>
</g>
<!-- Node10 -->
<g id="node10" class="node">
<title>Node10</title>
<g id="a_node10"><a xlink:href="logger_8hpp.html" target="_top" xlink:title="Logging macros for the container monitor application.">
<polygon fill="white" stroke="black" points="495,-235.5 495,-254.5 563,-254.5 563,-235.5 495,-235.5"/>
<text text-anchor="middle" x="529" y="-242.5" font-family="Helvetica,sans-Serif" font-size="10.00">logger.hpp</text>
</a>
</g>
</g>
<!-- Node1&#45;&gt;Node10 -->
<g id="edge9" class="edge">
<title>Node1&#45;&gt;Node10</title>
<path fill="none" stroke="midnightblue" d="M596.99,-291.32C584.47,-282.98 565.32,-270.21 550.53,-260.35"/>
<polygon fill="midnightblue" stroke="midnightblue" points="552.24,-257.29 541.98,-254.65 548.36,-263.11 552.24,-257.29"/>
</g>
<!-- Node12 -->
<g id="node12" class="node">
<title>Node12</title>
<g id="a_node12"><a xlink:href="common_8hpp.html" target="_top" xlink:title="Common data structures, constants, and configuration for container monitoring.">
<polygon fill="white" stroke="black" points="532,-56.5 532,-75.5 612,-75.5 612,-56.5 532,-56.5"/>
<text text-anchor="middle" x="572" y="-63.5" font-family="Helvetica,sans-Serif" font-size="10.00">common.hpp</text>
</a>
</g>
</g>
<!-- Node1&#45;&gt;Node12 -->
<g id="edge11" class="edge">
<title>Node1&#45;&gt;Node12</title>
<path fill="none" stroke="midnightblue" d="M578.93,-299.3C503.19,-297.07 311.34,-288.22 258,-255 232.68,-239.23 229.59,-227.57 221,-199 202.25,-136.6 277.87,-134.56 339,-112 399.67,-89.61 473.55,-77.75 521.62,-71.94"/>
<polygon fill="midnightblue" stroke="midnightblue" points="522.24,-75.39 531.77,-70.75 521.43,-68.44 522.24,-75.39"/>
</g>
<!-- Node16 -->
<g id="node16" class="node">
<title>Node16</title>
<g id="a_node16"><a xlink:href="initializer_8hpp.html" target="_top" xlink:title="Declares the Initializer class for application startup routines.">
<polygon fill="white" stroke="black" points="84.5,-118 84.5,-137 167.5,-137 167.5,-118 84.5,-118"/>
<text text-anchor="middle" x="126" y="-125" font-family="Helvetica,sans-Serif" font-size="10.00">initializer.hpp</text>
</a>
</g>
</g>
<!-- Node1&#45;&gt;Node16 -->
<g id="edge15" class="edge">
<title>Node1&#45;&gt;Node16</title>
<path fill="none" stroke="midnightblue" d="M578.93,-300.47C492.43,-301.2 251.08,-299.15 188,-255 151.21,-229.25 135.3,-175.36 129.24,-146.94"/>
<polygon fill="midnightblue" stroke="midnightblue" points="132.67,-146.24 127.33,-137.1 125.8,-147.58 132.67,-146.24"/>
</g>
<!-- Node17 -->
<g id="node17" class="node">
<title>Node17</title>
<g id="a_node17"><a xlink:href="event__queue_8hpp.html" target="_top" xlink:title="Declares the EventQueue class for thread&#45;safe event management.">
<polygon fill="white" stroke="black" points="1014.5,-118 1014.5,-137 1115.5,-137 1115.5,-118 1014.5,-118"/>
<text text-anchor="middle" x="1065" y="-125" font-family="Helvetica,sans-Serif" font-size="10.00">event_queue.hpp</text>
</a>
</g>
</g>
<!-- Node1&#45;&gt;Node17 -->
<g id="edge17" class="edge">
<title>Node1&#45;&gt;Node17</title>
<path fill="none" stroke="midnightblue" d="M641.17,-298.73C692.24,-295.79 796.22,-286.16 878,-255 921.67,-238.36 928.23,-225.1 967,-199 994.59,-180.42 1025.63,-157.79 1045.25,-143.26"/>
<polygon fill="midnightblue" stroke="midnightblue" points="1047.46,-145.98 1053.4,-137.2 1043.29,-140.36 1047.46,-145.98"/>
</g>
<!-- Node21 -->
<g id="node21" class="node">
<title>Node21</title>
<g id="a_node21"><a xlink:href="config__parser_8hpp.html" target="_top" xlink:title="Declares the ConfigParser class for parsing application configuration files.">
<polygon fill="white" stroke="black" points="230,-179.5 230,-198.5 332,-198.5 332,-179.5 230,-179.5"/>
<text text-anchor="middle" x="281" y="-186.5" font-family="Helvetica,sans-Serif" font-size="10.00">config_parser.hpp</text>
</a>
</g>
</g>
<!-- Node1&#45;&gt;Node21 -->
<g id="edge22" class="edge">
<title>Node1&#45;&gt;Node21</title>
<path fill="none" stroke="midnightblue" d="M578.87,-298.21C498.41,-293.27 288.39,-278.24 268,-255 256.66,-242.07 262.99,-222.07 270.23,-207.67"/>
<polygon fill="midnightblue" stroke="midnightblue" points="273.39,-209.2 275.18,-198.75 267.27,-205.8 273.39,-209.2"/>
</g>
<!-- Node23 -->
<g id="node23" class="node">
<title>Node23</title>
<g id="a_node23"><a xlink:href="event__listener_8hpp.html" target="_top" xlink:title="Declares the RuntimeEventListener class for container event monitoring.">
<polygon fill="white" stroke="black" points="492.5,-179.5 492.5,-198.5 599.5,-198.5 599.5,-179.5 492.5,-179.5"/>
<text text-anchor="middle" x="546" y="-186.5" font-family="Helvetica,sans-Serif" font-size="10.00">event_listener.hpp</text>
</a>
</g>
</g>
<!-- Node1&#45;&gt;Node23 -->
<g id="edge27" class="edge">
<title>Node1&#45;&gt;Node23</title>
<path fill="none" stroke="midnightblue" d="M611.45,-291.38C613.22,-278.32 614.84,-253.1 605,-235 597.84,-221.83 585,-211.34 573.13,-203.81"/>
<polygon fill="midnightblue" stroke="midnightblue" points="574.73,-200.69 564.34,-198.63 571.18,-206.72 574.73,-200.69"/>
</g>
<!-- Node24 -->
<g id="node24" class="node">
<title>Node24</title>
<g id="a_node24"><a xlink:href="event__processor_8hpp.html" target="_top" xlink:title="Declares the EventProcessor class for processing container events and host metrics.">
<polygon fill="white" stroke="black" points="824.5,-179.5 824.5,-198.5 941.5,-198.5 941.5,-179.5 824.5,-179.5"/>
<text text-anchor="middle" x="883" y="-186.5" font-family="Helvetica,sans-Serif" font-size="10.00">event_processor.hpp</text>
</a>
</g>
</g>
<!-- Node1&#45;&gt;Node24 -->
<g id="edge33" class="edge">
<title>Node1&#45;&gt;Node24</title>
<path fill="none" stroke="midnightblue" d="M631.42,-291.37C679.56,-271.97 796.46,-224.87 852.31,-202.37"/>
<polygon fill="midnightblue" stroke="midnightblue" points="853.71,-205.58 861.68,-198.59 851.09,-199.08 853.71,-205.58"/>
</g>
<!-- Node27 -->
<g id="node27" class="node">
<title>Node27</title>
<g id="a_node27"><a xlink:href="resource__monitor_8hpp.html" target="_top" xlink:title="Declares the ResourceMonitor class for tracking live containers and managing resource threads.">
<polygon fill="white" stroke="black" points="1112,-235.5 1112,-254.5 1234,-254.5 1234,-235.5 1112,-235.5"/>
<text text-anchor="middle" x="1173" y="-242.5" font-family="Helvetica,sans-Serif" font-size="10.00">resource_monitor.hpp</text>
</a>
</g>
</g>
<!-- Node1&#45;&gt;Node27 -->
<g id="edge45" class="edge">
<title>Node1&#45;&gt;Node27</title>
<path fill="none" stroke="midnightblue" d="M641.14,-297.43C718.51,-290.97 925.61,-273.29 1098,-255 1099.11,-254.88 1100.23,-254.76 1101.35,-254.64"/>
<polygon fill="midnightblue" stroke="midnightblue" points="1102.07,-258.08 1111.62,-253.5 1101.3,-251.13 1102.07,-258.08"/>
</g>
<!-- Node28 -->
<g id="node28" class="node">
<title>Node28</title>
<g id="a_node28"><a xlink:href="resource__thread__pool_8hpp.html" target="_top" xlink:title="Declares the ResourceThreadPool class for parallel container resource monitoring.">
<polygon fill="white" stroke="black" points="1224.5,-179.5 1224.5,-198.5 1367.5,-198.5 1367.5,-179.5 1224.5,-179.5"/>
<text text-anchor="middle" x="1296" y="-186.5" font-family="Helvetica,sans-Serif" font-size="10.00">resource_thread_pool.hpp</text>
</a>
</g>
</g>
<!-- Node1&#45;&gt;Node28 -->
<g id="edge79" class="edge">
<title>Node1&#45;&gt;Node28</title>
<path fill="none" stroke="midnightblue" d="M641.25,-299.23C761.36,-296.06 1189.28,-282.89 1243,-255 1262.93,-244.65 1278.08,-223.18 1286.98,-207.75"/>
<polygon fill="midnightblue" stroke="midnightblue" points="1290.22,-209.11 1291.91,-198.65 1284.07,-205.77 1290.22,-209.11"/>
</g>
<!-- Node30 -->
<g id="node30" class="node">
<title>Node30</title>
<g id="a_node30"><a xlink:href="sqlite__database_8hpp.html" target="_top" xlink:title="Declares the SQLiteDatabase class for SQLite&#45;based database operations.">
<polygon fill="white" stroke="black" points="1540.5,-179.5 1540.5,-198.5 1655.5,-198.5 1655.5,-179.5 1540.5,-179.5"/>
<text text-anchor="middle" x="1598" y="-186.5" font-family="Helvetica,sans-Serif" font-size="10.00">sqlite_database.hpp</text>
</a>
</g>
</g>
<!-- Node1&#45;&gt;Node30 -->
<g id="edge63" class="edge">
<title>Node1&#45;&gt;Node30</title>
<path fill="none" stroke="midnightblue" d="M641.02,-299.28C735.6,-296.78 1028.56,-286.83 1269,-255 1371.24,-241.46 1489.51,-215.54 1552.68,-200.85"/>
<polygon fill="midnightblue" stroke="midnightblue" points="1553.76,-204.19 1562.7,-198.51 1552.17,-197.38 1553.76,-204.19"/>
</g>
<!-- Node32 -->
<g id="node32" class="node">
<title>Node32</title>
<g id="a_node32"><a xlink:href="monitor__dashboard_8hpp.html" target="_top" xlink:title="Declares the MonitorDashboard class for ncurses&#45;based container metrics UI.">
<polygon fill="white" stroke="black" points="1074,-179.5 1074,-198.5 1206,-198.5 1206,-179.5 1074,-179.5"/>
<text text-anchor="middle" x="1140" y="-186.5" font-family="Helvetica,sans-Serif" font-size="10.00">monitor_dashboard.hpp</text>
</a>
</g>
</g>
<!-- Node1&#45;&gt;Node32 -->
<g id="edge71" class="edge">
<title>Node1&#45;&gt;Node32</title>
<path fill="none" stroke="midnightblue" d="M641.3,-299.2C730.4,-296.55 983.87,-286.38 1060,-255 1086.24,-244.18 1110.68,-221.81 1125.47,-206.36"/>
<polygon fill="midnightblue" stroke="midnightblue" points="1128.43,-208.33 1132.65,-198.61 1123.29,-203.57 1128.43,-208.33"/>
</g>
<!-- Node33 -->
<g id="node33" class="node">
<title>Node33</title>
<g id="a_node33"><a xlink:href="live__metric__aggregator_8hpp.html" target="_top" xlink:title="Declares the LiveMetricAggregator class for real&#45;time container metrics aggregation and dashboard upd...">
<polygon fill="white" stroke="black" points="618,-179.5 618,-198.5 768,-198.5 768,-179.5 618,-179.5"/>
<text text-anchor="middle" x="693" y="-186.5" font-family="Helvetica,sans-Serif" font-size="10.00">live_metric_aggregator.hpp</text>
</a>
</g>
</g>
<!-- Node1&#45;&gt;Node33 -->
<g id="edge80" class="edge">
<title>Node1&#45;&gt;Node33</title>
<path fill="none" stroke="midnightblue" d="M616.51,-291.37C630.27,-273.14 662.5,-230.43 680.42,-206.68"/>
<polygon fill="midnightblue" stroke="midnightblue" points="683.29,-208.68 686.52,-198.59 677.7,-204.47 683.29,-208.68"/>
</g>
<!-- Node11 -->
<g id="node11" class="node">
<title>Node11</title>
<g id="a_node11"><a xlink:title=" ">
<polygon fill="white" stroke="#bfbfbf" points="350,-179.5 350,-198.5 436,-198.5 436,-179.5 350,-179.5"/>
<text text-anchor="middle" x="393" y="-186.5" font-family="Helvetica,sans-Serif" font-size="10.00">glog/logging.h</text>
</a>
</g>
</g>
<!-- Node10&#45;&gt;Node11 -->
<g id="edge10" class="edge">
<title>Node10&#45;&gt;Node11</title>
<path fill="none" stroke="midnightblue" d="M507.45,-235.44C484.97,-226.52 449.51,-212.44 424.02,-202.32"/>
<polygon fill="midnightblue" stroke="midnightblue" points="425.03,-198.95 414.45,-198.52 422.45,-205.46 425.03,-198.95"/>
</g>
<!-- Node13 -->
<g id="node13" class="node">
<title>Node13</title>
<g id="a_node13"><a xlink:title=" ">
<polygon fill="white" stroke="#bfbfbf" points="981,-0.5 981,-19.5 1025,-19.5 1025,-0.5 981,-0.5"/>
<text text-anchor="middle" x="1003" y="-7.5" font-family="Helvetica,sans-Serif" font-size="10.00">string</text>
</a>
</g>
</g>
<!-- Node12&#45;&gt;Node13 -->
<g id="edge12" class="edge">
<title>Node12&#45;&gt;Node13</title>
<path fill="none" stroke="midnightblue" d="M612.07,-58.11C616.76,-57.37 621.48,-56.65 626,-56 753.33,-37.8 905.59,-21.2 970.8,-14.33"/>
<polygon fill="midnightblue" stroke="midnightblue" points="971.28,-17.8 980.86,-13.28 970.55,-10.84 971.28,-17.8"/>
</g>
<!-- Node14 -->
<g id="node14" class="node">
<title>Node14</title>
<g id="a_node14"><a xlink:title=" ">
<polygon fill="white" stroke="#bfbfbf" points="547,-0.5 547,-19.5 597,-19.5 597,-0.5 547,-0.5"/>
<text text-anchor="middle" x="572" y="-7.5" font-family="Helvetica,sans-Serif" font-size="10.00">cstring</text>
</a>
</g>
</g>
<!-- Node12&#45;&gt;Node14 -->
<g id="edge13" class="edge">
<title>Node12&#45;&gt;Node14</title>
<path fill="none" stroke="midnightblue" d="M572,-56.08C572,-49.01 572,-38.86 572,-29.99"/>
<polygon fill="midnightblue" stroke="midnightblue" points="575.5,-29.75 572,-19.75 568.5,-29.75 575.5,-29.75"/>
</g>
<!-- Node15 -->
<g id="node15" class="node">
<title>Node15</title>
<g id="a_node15"><a xlink:title=" ">
<polygon fill="white" stroke="#bfbfbf" points="307.5,-0.5 307.5,-19.5 380.5,-19.5 380.5,-0.5 307.5,-0.5"/>
<text text-anchor="middle" x="344" y="-7.5" font-family="Helvetica,sans-Serif" font-size="10.00">string_view</text>
</a>
</g>
</g>
<!-- Node12&#45;&gt;Node15 -->
<g id="edge14" class="edge">
<title>Node12&#45;&gt;Node15</title>
<path fill="none" stroke="midnightblue" d="M535.87,-56.44C496.35,-47.08 432.9,-32.06 389.89,-21.87"/>
<polygon fill="midnightblue" stroke="midnightblue" points="390.5,-18.42 379.96,-19.52 388.88,-25.23 390.5,-18.42"/>
</g>
<!-- Node16&#45;&gt;Node12 -->
<g id="edge16" class="edge">
<title>Node16&#45;&gt;Node12</title>
<path fill="none" stroke="midnightblue" d="M167.61,-119.84C183.93,-117.3 202.83,-114.42 220,-112 327.35,-96.86 453.43,-81.27 521.78,-73.01"/>
<polygon fill="midnightblue" stroke="midnightblue" points="522.33,-76.46 531.83,-71.79 521.49,-69.52 522.33,-76.46"/>
</g>
<!-- Node17&#45;&gt;Node13 -->
<g id="edge21" class="edge">
<title>Node17&#45;&gt;Node13</title>
<path fill="none" stroke="midnightblue" d="M1064.05,-117.73C1062.25,-103.85 1057.45,-76.32 1046,-56 1039.67,-44.75 1029.88,-34.21 1021.25,-26.15"/>
<polygon fill="midnightblue" stroke="midnightblue" points="1023.57,-23.54 1013.77,-19.51 1018.92,-28.77 1023.57,-23.54"/>
</g>
<!-- Node18 -->
<g id="node18" class="node">
<title>Node18</title>
<g id="a_node18"><a xlink:title=" ">
<polygon fill="white" stroke="#bfbfbf" points="989.5,-56.5 989.5,-75.5 1036.5,-75.5 1036.5,-56.5 989.5,-56.5"/>
<text text-anchor="middle" x="1013" y="-63.5" font-family="Helvetica,sans-Serif" font-size="10.00">queue</text>
</a>
</g>
</g>
<!-- Node17&#45;&gt;Node18 -->
<g id="edge18" class="edge">
<title>Node17&#45;&gt;Node18</title>
<path fill="none" stroke="midnightblue" d="M1057.55,-117.98C1049.67,-108.96 1037.06,-94.52 1027.26,-83.31"/>
<polygon fill="midnightblue" stroke="midnightblue" points="1029.65,-80.74 1020.44,-75.51 1024.38,-85.34 1029.65,-80.74"/>
</g>
<!-- Node19 -->
<g id="node19" class="node">
<title>Node19</title>
<g id="a_node19"><a xlink:title=" ">
<polygon fill="white" stroke="#bfbfbf" points="1279,-56.5 1279,-75.5 1327,-75.5 1327,-56.5 1279,-56.5"/>
<text text-anchor="middle" x="1303" y="-63.5" font-family="Helvetica,sans-Serif" font-size="10.00">mutex</text>
</a>
</g>
</g>
<!-- Node17&#45;&gt;Node19 -->
<g id="edge19" class="edge">
<title>Node17&#45;&gt;Node19</title>
<path fill="none" stroke="midnightblue" d="M1100.99,-117.92C1139.98,-108.56 1204.26,-92.95 1268.91,-76.24"/>
<polygon fill="midnightblue" stroke="midnightblue" points="1270.07,-79.55 1278.87,-73.66 1268.31,-72.78 1270.07,-79.55"/>
</g>
<!-- Node20 -->
<g id="node20" class="node">
<title>Node20</title>
<g id="a_node20"><a xlink:title=" ">
<polygon fill="white" stroke="#bfbfbf" points="1153.5,-56.5 1153.5,-75.5 1260.5,-75.5 1260.5,-56.5 1153.5,-56.5"/>
<text text-anchor="middle" x="1207" y="-63.5" font-family="Helvetica,sans-Serif" font-size="10.00">condition_variable</text>
</a>
</g>
</g>
<!-- Node17&#45;&gt;Node20 -->
<g id="edge20" class="edge">
<title>Node17&#45;&gt;Node20</title>
<path fill="none" stroke="midnightblue" d="M1085.35,-117.98C1109.39,-107.9 1149.6,-91.05 1177.16,-79.5"/>
<polygon fill="midnightblue" stroke="midnightblue" points="1178.82,-82.6 1186.69,-75.51 1176.12,-76.15 1178.82,-82.6"/>
</g>
<!-- Node21&#45;&gt;Node12 -->
<g id="edge26" class="edge">
<title>Node21&#45;&gt;Node12</title>
<path fill="none" stroke="midnightblue" d="M291.29,-179.36C310.46,-163.68 353.49,-130.46 395,-112 435.91,-93.8 485.55,-81.99 521.84,-75.05"/>
<polygon fill="midnightblue" stroke="midnightblue" points="522.5,-78.49 531.7,-73.22 521.23,-71.61 522.5,-78.49"/>
</g>
<!-- Node21&#45;&gt;Node13 -->
<g id="edge23" class="edge">
<title>Node21&#45;&gt;Node13</title>
<path fill="none" stroke="midnightblue" d="M287.85,-179.5C308.14,-155.03 370.91,-84.39 441,-56 538.15,-16.65 866.1,-11.64 970.67,-11.06"/>
<polygon fill="midnightblue" stroke="midnightblue" points="970.93,-14.56 980.91,-11.01 970.9,-7.56 970.93,-14.56"/>
</g>
<!-- Node21&#45;&gt;Node15 -->
<g id="edge24" class="edge">
<title>Node21&#45;&gt;Node15</title>
<path fill="none" stroke="midnightblue" d="M274.9,-179.19C269.25,-170.46 261.24,-156.48 258,-143 248.95,-105.41 237.98,-89.08 258,-56 267.41,-40.46 284.15,-30.02 300.38,-23.15"/>
<polygon fill="midnightblue" stroke="midnightblue" points="301.75,-26.37 309.82,-19.51 299.23,-19.85 301.75,-26.37"/>
</g>
<!-- Node22 -->
<g id="node22" class="node">
<title>Node22</title>
<g id="a_node22"><a xlink:title=" ">
<polygon fill="white" stroke="#bfbfbf" points="414.5,-118 414.5,-137 507.5,-137 507.5,-118 414.5,-118"/>
<text text-anchor="middle" x="461" y="-125" font-family="Helvetica,sans-Serif" font-size="10.00">unordered_map</text>
</a>
</g>
</g>
<!-- Node21&#45;&gt;Node22 -->
<g id="edge25" class="edge">
<title>Node21&#45;&gt;Node22</title>
<path fill="none" stroke="midnightblue" d="M306.79,-179.48C337.93,-169.18 390.48,-151.81 425.45,-140.25"/>
<polygon fill="midnightblue" stroke="midnightblue" points="426.86,-143.47 435.26,-137.01 424.66,-136.82 426.86,-143.47"/>
</g>
<!-- Node23&#45;&gt;Node4 -->
<g id="edge28" class="edge">
<title>Node23&#45;&gt;Node4</title>
<path fill="none" stroke="midnightblue" d="M546.57,-179.48C547.14,-171.08 548.02,-157.98 548.75,-147.16"/>
<polygon fill="midnightblue" stroke="midnightblue" points="552.25,-147.22 549.43,-137.01 545.26,-146.75 552.25,-147.22"/>
</g>
<!-- Node23&#45;&gt;Node6 -->
<g id="edge29" class="edge">
<title>Node23&#45;&gt;Node6</title>
<path fill="none" stroke="midnightblue" d="M567.06,-179.48C592.06,-169.36 633.94,-152.4 662.49,-140.85"/>
<polygon fill="midnightblue" stroke="midnightblue" points="664.02,-144.01 671.98,-137.01 661.39,-137.52 664.02,-144.01"/>
</g>
<!-- Node23&#45;&gt;Node12 -->
<g id="edge31" class="edge">
<title>Node23&#45;&gt;Node12</title>
<path fill="none" stroke="midnightblue" d="M492.78,-179.44C442.13,-168.95 377.43,-147.98 405,-112 419.23,-93.43 478.04,-80.79 521.86,-73.74"/>
<polygon fill="midnightblue" stroke="midnightblue" points="522.46,-77.19 531.8,-72.2 521.39,-70.28 522.46,-77.19"/>
</g>
<!-- Node23&#45;&gt;Node13 -->
<g id="edge30" class="edge">
<title>Node23&#45;&gt;Node13</title>
<path fill="none" stroke="midnightblue" d="M492.28,-181.38C438.88,-172.38 368.49,-152.53 395,-112 458.82,-14.41 854.65,-9.78 970.92,-10.56"/>
<polygon fill="midnightblue" stroke="midnightblue" points="970.94,-14.06 980.97,-10.65 971,-7.06 970.94,-14.06"/>
</g>
<!-- Node23&#45;&gt;Node17 -->
<g id="edge32" class="edge">
<title>Node23&#45;&gt;Node17</title>
<path fill="none" stroke="midnightblue" d="M599.59,-180.15C602.77,-179.75 605.93,-179.36 609,-179 784.53,-158.5 830.64,-171.83 1005,-143 1010.96,-142.01 1017.21,-140.76 1023.32,-139.4"/>
<polygon fill="midnightblue" stroke="midnightblue" points="1024.47,-142.73 1033.42,-137.05 1022.88,-135.91 1024.47,-142.73"/>
</g>
<!-- Node24&#45;&gt;Node4 -->
<g id="edge35" class="edge">
<title>Node24&#45;&gt;Node4</title>
<path fill="none" stroke="midnightblue" d="M824.37,-180.56C751.51,-171.06 631.46,-154.46 588,-143 585.34,-142.3 582.61,-141.47 579.89,-140.58"/>
<polygon fill="midnightblue" stroke="midnightblue" points="580.84,-137.2 570.25,-137.14 578.49,-143.8 580.84,-137.2"/>
</g>
<!-- Node24&#45;&gt;Node6 -->
<g id="edge34" class="edge">
<title>Node24&#45;&gt;Node6</title>
<path fill="none" stroke="midnightblue" d="M852.16,-179.46C821.51,-170.81 773.25,-156.8 732,-143 729.6,-142.2 727.13,-141.34 724.65,-140.47"/>
<polygon fill="midnightblue" stroke="midnightblue" points="725.78,-137.15 715.18,-137.04 723.39,-143.73 725.78,-137.15"/>
</g>
<!-- Node24&#45;&gt;Node12 -->
<g id="edge38" class="edge">
<title>Node24&#45;&gt;Node12</title>
<path fill="none" stroke="midnightblue" d="M824.39,-180.13C753.79,-170.28 642.54,-153.44 626,-143 604.03,-129.13 588.39,-102.78 579.77,-85.05"/>
<polygon fill="midnightblue" stroke="midnightblue" points="582.86,-83.4 575.51,-75.76 576.5,-86.31 582.86,-83.4"/>
</g>
<!-- Node24&#45;&gt;Node13 -->
<g id="edge36" class="edge">
<title>Node24&#45;&gt;Node13</title>
<path fill="none" stroke="midnightblue" d="M824.41,-180.11C761.62,-171.06 669.49,-155.81 659,-143 650.27,-132.34 650.74,-123.03 659,-112 697.03,-61.2 892.73,-27.25 970.79,-15.53"/>
<polygon fill="midnightblue" stroke="midnightblue" points="971.61,-18.95 981,-14.03 970.59,-12.02 971.61,-18.95"/>
</g>
<!-- Node24&#45;&gt;Node17 -->
<g id="edge39" class="edge">
<title>Node24&#45;&gt;Node17</title>
<path fill="none" stroke="midnightblue" d="M909.08,-179.48C940.57,-169.18 993.7,-151.81 1029.06,-140.25"/>
<polygon fill="midnightblue" stroke="midnightblue" points="1030.55,-143.44 1038.97,-137.01 1028.38,-136.79 1030.55,-143.44"/>
</g>
<!-- Node24&#45;&gt;Node22 -->
<g id="edge37" class="edge">
<title>Node24&#45;&gt;Node22</title>
<path fill="none" stroke="midnightblue" d="M824.32,-183.17C751.72,-176.65 624.55,-163.44 517,-143 511.83,-142.02 506.43,-140.83 501.11,-139.56"/>
<polygon fill="midnightblue" stroke="midnightblue" points="501.61,-136.08 491.06,-137.06 499.92,-142.87 501.61,-136.08"/>
</g>
<!-- Node25 -->
<g id="node25" class="node">
<title>Node25</title>
<g id="a_node25"><a xlink:href="database__interface_8hpp.html" target="_top" xlink:title="Declares the abstract interface for database operations in container monitoring.">
<polygon fill="white" stroke="black" points="1400.5,-118 1400.5,-137 1531.5,-137 1531.5,-118 1400.5,-118"/>
<text text-anchor="middle" x="1466" y="-125" font-family="Helvetica,sans-Serif" font-size="10.00">database_interface.hpp</text>
</a>
</g>
</g>
<!-- Node24&#45;&gt;Node25 -->
<g id="edge40" class="edge">
<title>Node24&#45;&gt;Node25</title>
<path fill="none" stroke="midnightblue" d="M941.57,-182.02C1047.91,-171.17 1272.59,-148.24 1390.36,-136.22"/>
<polygon fill="midnightblue" stroke="midnightblue" points="1390.78,-139.69 1400.38,-135.2 1390.07,-132.73 1390.78,-139.69"/>
</g>
<!-- Node25&#45;&gt;Node5 -->
<g id="edge41" class="edge">
<title>Node25&#45;&gt;Node5</title>
<path fill="none" stroke="midnightblue" d="M1504.11,-117.98C1556.15,-106.34 1648.62,-85.65 1698.27,-74.55"/>
<polygon fill="midnightblue" stroke="midnightblue" points="1699.19,-77.93 1708.18,-72.33 1697.66,-71.1 1699.19,-77.93"/>
</g>
<!-- Node25&#45;&gt;Node12 -->
<g id="edge44" class="edge">
<title>Node25&#45;&gt;Node12</title>
<path fill="none" stroke="midnightblue" d="M1400.26,-122.12C1229.38,-110.75 773.98,-80.44 622.09,-70.33"/>
<polygon fill="midnightblue" stroke="midnightblue" points="622.32,-66.84 612.11,-69.67 621.86,-73.83 622.32,-66.84"/>
</g>
<!-- Node25&#45;&gt;Node13 -->
<g id="edge43" class="edge">
<title>Node25&#45;&gt;Node13</title>
<path fill="none" stroke="midnightblue" d="M1462.17,-117.73C1454.9,-102.25 1437.52,-70.39 1412,-56 1347.63,-19.71 1120.15,-12.68 1035.26,-11.33"/>
<polygon fill="midnightblue" stroke="midnightblue" points="1035.22,-7.83 1025.17,-11.18 1035.12,-14.82 1035.22,-7.83"/>
</g>
<!-- Node26 -->
<g id="node26" class="node">
<title>Node26</title>
<g id="a_node26"><a xlink:title=" ">
<polygon fill="white" stroke="#bfbfbf" points="1365,-56.5 1365,-75.5 1403,-75.5 1403,-56.5 1365,-56.5"/>
<text text-anchor="middle" x="1384" y="-63.5" font-family="Helvetica,sans-Serif" font-size="10.00">map</text>
</a>
</g>
</g>
<!-- Node25&#45;&gt;Node26 -->
<g id="edge42" class="edge">
<title>Node25&#45;&gt;Node26</title>
<path fill="none" stroke="midnightblue" d="M1454.25,-117.98C1441.22,-108.52 1419.96,-93.1 1404.24,-81.69"/>
<polygon fill="midnightblue" stroke="midnightblue" points="1405.88,-78.55 1395.73,-75.51 1401.77,-84.21 1405.88,-78.55"/>
</g>
<!-- Node27&#45;&gt;Node4 -->
<g id="edge47" class="edge">
<title>Node27&#45;&gt;Node4</title>
<path fill="none" stroke="midnightblue" d="M1111.96,-242.72C1039.78,-239.76 916.72,-230.11 816,-199 797.39,-193.25 795.41,-185.36 777,-179 697.41,-151.51 672.25,-165.1 591,-143 588.04,-142.19 584.98,-141.28 581.93,-140.31"/>
<polygon fill="midnightblue" stroke="midnightblue" points="582.96,-136.96 572.37,-137.09 580.73,-143.59 582.96,-136.96"/>
</g>
<!-- Node27&#45;&gt;Node6 -->
<g id="edge46" class="edge">
<title>Node27&#45;&gt;Node6</title>
<path fill="none" stroke="midnightblue" d="M1152.41,-235.47C1118.08,-221.59 1046.74,-194.13 984,-179 874.01,-152.48 841.65,-170.87 732,-143 729.02,-142.24 725.94,-141.33 722.9,-140.35"/>
<polygon fill="midnightblue" stroke="midnightblue" points="723.98,-137.02 713.38,-137.01 721.66,-143.62 723.98,-137.02"/>
</g>
<!-- Node27&#45;&gt;Node25 -->
<g id="edge48" class="edge">
<title>Node27&#45;&gt;Node25</title>
<path fill="none" stroke="midnightblue" d="M1234.26,-237.82C1276.04,-231.88 1331.79,-220.48 1377,-199 1405.77,-185.33 1433.67,-160.84 1450.34,-144.62"/>
<polygon fill="midnightblue" stroke="midnightblue" points="1452.97,-146.95 1457.58,-137.41 1448.03,-141.99 1452.97,-146.95"/>
</g>
<!-- Node27&#45;&gt;Node28 -->
<g id="edge49" class="edge">
<title>Node27&#45;&gt;Node28</title>
<path fill="none" stroke="midnightblue" d="M1192.49,-235.44C1212.64,-226.6 1244.32,-212.69 1267.33,-202.59"/>
<polygon fill="midnightblue" stroke="midnightblue" points="1268.85,-205.74 1276.6,-198.52 1266.04,-199.33 1268.85,-205.74"/>
</g>
<!-- Node28&#45;&gt;Node4 -->
<g id="edge51" class="edge">
<title>Node28&#45;&gt;Node4</title>
<path fill="none" stroke="midnightblue" d="M1224.46,-179.87C1221.27,-179.56 1218.1,-179.27 1215,-179 968.32,-157.32 905.43,-167.34 659,-143 633.86,-140.52 605.58,-136.73 584.13,-133.64"/>
<polygon fill="midnightblue" stroke="midnightblue" points="584.59,-130.17 574.19,-132.2 583.58,-137.1 584.59,-130.17"/>
</g>
<!-- Node28&#45;&gt;Node5 -->
<g id="edge50" class="edge">
<title>Node28&#45;&gt;Node5</title>
<path fill="none" stroke="midnightblue" d="M1367.75,-186.35C1433.2,-182.86 1531.66,-172.6 1612,-143 1651.43,-128.47 1691.53,-99.62 1713.94,-81.94"/>
<polygon fill="midnightblue" stroke="midnightblue" points="1716.29,-84.55 1721.89,-75.55 1711.9,-79.09 1716.29,-84.55"/>
</g>
<!-- Node28&#45;&gt;Node6 -->
<g id="edge52" class="edge">
<title>Node28&#45;&gt;Node6</title>
<path fill="none" stroke="midnightblue" d="M1224.46,-179.93C1221.26,-179.61 1218.1,-179.3 1215,-179 1017.48,-160.04 966.66,-169.4 770,-143 756.28,-141.16 741.29,-138.49 728.22,-135.94"/>
<polygon fill="midnightblue" stroke="midnightblue" points="728.7,-132.47 718.21,-133.94 727.33,-139.33 728.7,-132.47"/>
</g>
<!-- Node28&#45;&gt;Node12 -->
<g id="edge59" class="edge">
<title>Node28&#45;&gt;Node12</title>
<path fill="none" stroke="midnightblue" d="M1224.46,-179.96C1221.26,-179.63 1218.1,-179.31 1215,-179 1034.3,-160.97 979.16,-203.66 808,-143 784.76,-134.76 784.58,-121.89 762,-112 716.82,-92.21 661.62,-80.38 622.39,-73.86"/>
<polygon fill="midnightblue" stroke="midnightblue" points="622.7,-70.36 612.27,-72.23 621.59,-77.27 622.7,-70.36"/>
</g>
<!-- Node28&#45;&gt;Node13 -->
<g id="edge55" class="edge">
<title>Node28&#45;&gt;Node13</title>
<path fill="none" stroke="midnightblue" d="M1367.53,-184.74C1431.77,-180.13 1519.24,-169.12 1541,-143 1549.82,-132.41 1548.07,-123.83 1541,-112 1488.53,-24.15 1143.61,-12.63 1035.41,-11.19"/>
<polygon fill="midnightblue" stroke="midnightblue" points="1035.16,-7.68 1025.12,-11.07 1035.08,-14.68 1035.16,-7.68"/>
</g>
<!-- Node28&#45;&gt;Node19 -->
<g id="edge54" class="edge">
<title>Node28&#45;&gt;Node19</title>
<path fill="none" stroke="midnightblue" d="M1296.5,-179.3C1297.63,-159.85 1300.37,-112.49 1301.91,-85.9"/>
<polygon fill="midnightblue" stroke="midnightblue" points="1305.42,-85.81 1302.5,-75.62 1298.43,-85.4 1305.42,-85.81"/>
</g>
<!-- Node28&#45;&gt;Node20 -->
<g id="edge57" class="edge">
<title>Node28&#45;&gt;Node20</title>
<path fill="none" stroke="midnightblue" d="M1289.6,-179.3C1274.91,-159.33 1238.57,-109.92 1219.36,-83.8"/>
<polygon fill="midnightblue" stroke="midnightblue" points="1222.09,-81.6 1213.34,-75.62 1216.45,-85.75 1222.09,-81.6"/>
</g>
<!-- Node28&#45;&gt;Node22 -->
<g id="edge56" class="edge">
<title>Node28&#45;&gt;Node22</title>
<path fill="none" stroke="midnightblue" d="M1224.47,-179.82C1221.27,-179.53 1218.1,-179.25 1215,-179 905.39,-153.84 824.03,-190.17 517,-143 511.15,-142.1 505.02,-140.85 499.06,-139.45"/>
<polygon fill="midnightblue" stroke="midnightblue" points="499.81,-136.03 489.26,-137 498.11,-142.82 499.81,-136.03"/>
</g>
<!-- Node28&#45;&gt;Node25 -->
<g id="edge58" class="edge">
<title>Node28&#45;&gt;Node25</title>
<path fill="none" stroke="midnightblue" d="M1320.36,-179.48C1349.64,-169.22 1398.97,-151.96 1432,-140.4"/>
<polygon fill="midnightblue" stroke="midnightblue" points="1433.41,-143.62 1441.69,-137.01 1431.09,-137.01 1433.41,-143.62"/>
</g>
<!-- Node28&#45;&gt;Node26 -->
<g id="edge53" class="edge">
<title>Node28&#45;&gt;Node26</title>
<path fill="none" stroke="midnightblue" d="M1308.89,-179.23C1320.32,-170.95 1336.87,-157.64 1348,-143 1361.49,-125.25 1371.7,-101.62 1377.74,-85.45"/>
<polygon fill="midnightblue" stroke="midnightblue" points="1381.19,-86.21 1381.24,-75.61 1374.59,-83.86 1381.19,-86.21"/>
</g>
<!-- Node29 -->
<g id="node29" class="node">
<title>Node29</title>
<g id="a_node29"><a xlink:href="container__runtime__factory__interface_8hpp.html" target="_top" xlink:title="Declares the interface for container runtime path factories.">
<polygon fill="white" stroke="black" points="850,-112.5 850,-142.5 996,-142.5 996,-112.5 850,-112.5"/>
<text text-anchor="start" x="858" y="-130.5" font-family="Helvetica,sans-Serif" font-size="10.00">container_runtime_factory</text>
<text text-anchor="middle" x="923" y="-119.5" font-family="Helvetica,sans-Serif" font-size="10.00">_interface.hpp</text>
</a>
</g>
</g>
<!-- Node28&#45;&gt;Node29 -->
<g id="edge60" class="edge">
<title>Node28&#45;&gt;Node29</title>
<path fill="none" stroke="midnightblue" d="M1239,-179.48C1182.65,-170.99 1093.71,-157.38 1006.39,-143.05"/>
<polygon fill="midnightblue" stroke="midnightblue" points="1006.74,-139.56 996.31,-141.38 1005.61,-146.46 1006.74,-139.56"/>
</g>
<!-- Node29&#45;&gt;Node12 -->
<g id="edge62" class="edge">
<title>Node29&#45;&gt;Node12</title>
<path fill="none" stroke="midnightblue" d="M849.85,-114.1C781.66,-102.54 681.8,-85.61 622.21,-75.51"/>
<polygon fill="midnightblue" stroke="midnightblue" points="622.73,-72.05 612.28,-73.83 621.56,-78.95 622.73,-72.05"/>
</g>
<!-- Node29&#45;&gt;Node13 -->
<g id="edge61" class="edge">
<title>Node29&#45;&gt;Node13</title>
<path fill="none" stroke="midnightblue" d="M932.81,-112.34C947.55,-91.05 975.37,-50.89 991.2,-28.03"/>
<polygon fill="midnightblue" stroke="midnightblue" points="994.18,-29.88 997,-19.67 988.42,-25.9 994.18,-29.88"/>
</g>
<!-- Node30&#45;&gt;Node5 -->
<g id="edge67" class="edge">
<title>Node30&#45;&gt;Node5</title>
<path fill="none" stroke="midnightblue" d="M1655.54,-180.64C1700.19,-173.62 1756.81,-161.35 1771,-143 1785.66,-124.04 1766.28,-98.74 1749.99,-82.66"/>
<polygon fill="midnightblue" stroke="midnightblue" points="1752.1,-79.84 1742.4,-75.57 1747.32,-84.95 1752.1,-79.84"/>
</g>
<!-- Node30&#45;&gt;Node12 -->
<g id="edge70" class="edge">
<title>Node30&#45;&gt;Node12</title>
<path fill="none" stroke="midnightblue" d="M1540.3,-185.47C1369.07,-177.84 873.72,-154.86 841,-143 819.19,-135.1 820.22,-121.37 799,-112 741.47,-86.6 669.44,-75.44 622.14,-70.6"/>
<polygon fill="midnightblue" stroke="midnightblue" points="622.43,-67.11 612.14,-69.63 621.76,-74.08 622.43,-67.11"/>
</g>
<!-- Node30&#45;&gt;Node13 -->
<g id="edge68" class="edge">
<title>Node30&#45;&gt;Node13</title>
<path fill="none" stroke="midnightblue" d="M1655.96,-182.03C1705.35,-175.6 1770.85,-163.45 1787,-143 1805,-120.21 1765.56,-56.41 1765,-56 1705.34,-12.71 1173.89,-10.68 1035.71,-10.89"/>
<polygon fill="midnightblue" stroke="midnightblue" points="1035.36,-7.39 1025.37,-10.91 1035.38,-14.39 1035.36,-7.39"/>
</g>
<!-- Node30&#45;&gt;Node19 -->
<g id="edge66" class="edge">
<title>Node30&#45;&gt;Node19</title>
<path fill="none" stroke="midnightblue" d="M1594.13,-179.26C1586.5,-163.12 1567.88,-128.74 1541,-112 1532.38,-106.63 1401.16,-83.73 1337.34,-72.82"/>
<polygon fill="midnightblue" stroke="midnightblue" points="1337.79,-69.34 1327.34,-71.11 1336.61,-76.25 1337.79,-69.34"/>
</g>
<!-- Node30&#45;&gt;Node25 -->
<g id="edge64" class="edge">
<title>Node30&#45;&gt;Node25</title>
<path fill="none" stroke="midnightblue" d="M1579.09,-179.48C1556.84,-169.45 1519.69,-152.7 1494.07,-141.15"/>
<polygon fill="midnightblue" stroke="midnightblue" points="1495.43,-137.93 1484.88,-137.01 1492.56,-144.31 1495.43,-137.93"/>
</g>
<!-- Node30&#45;&gt;Node26 -->
<g id="edge65" class="edge">
<title>Node30&#45;&gt;Node26</title>
<path fill="none" stroke="midnightblue" d="M1597.89,-179.27C1597.19,-163.44 1593.36,-129.99 1574,-112 1550.85,-90.49 1460.61,-76.44 1413.31,-70.39"/>
<polygon fill="midnightblue" stroke="midnightblue" points="1413.44,-66.88 1403.09,-69.13 1412.58,-73.83 1413.44,-66.88"/>
</g>
<!-- Node31 -->
<g id="node31" class="node">
<title>Node31</title>
<g id="a_node31"><a xlink:title=" ">
<polygon fill="white" stroke="#bfbfbf" points="1702.5,-118 1702.5,-137 1761.5,-137 1761.5,-118 1702.5,-118"/>
<text text-anchor="middle" x="1732" y="-125" font-family="Helvetica,sans-Serif" font-size="10.00">sqlite3.h</text>
</a>
</g>
</g>
<!-- Node30&#45;&gt;Node31 -->
<g id="edge69" class="edge">
<title>Node30&#45;&gt;Node31</title>
<path fill="none" stroke="midnightblue" d="M1617.2,-179.48C1639.79,-169.45 1677.5,-152.7 1703.5,-141.15"/>
<polygon fill="midnightblue" stroke="midnightblue" points="1705.12,-144.27 1712.84,-137.01 1702.28,-137.87 1705.12,-144.27"/>
</g>
<!-- Node32&#45;&gt;Node4 -->
<g id="edge76" class="edge">
<title>Node32&#45;&gt;Node4</title>
<path fill="none" stroke="midnightblue" d="M1073.78,-182.63C980.96,-174.91 806.93,-159.75 659,-143 633.9,-140.16 605.62,-136.38 584.15,-133.39"/>
<polygon fill="midnightblue" stroke="midnightblue" points="584.6,-129.92 574.21,-132 583.63,-136.85 584.6,-129.92"/>
</g>
<!-- Node32&#45;&gt;Node6 -->
<g id="edge75" class="edge">
<title>Node32&#45;&gt;Node6</title>
<path fill="none" stroke="midnightblue" d="M1073.66,-182.68C975.19,-174.44 795.18,-157.99 732,-143 729,-142.29 725.92,-141.41 722.87,-140.45"/>
<polygon fill="midnightblue" stroke="midnightblue" points="723.95,-137.11 713.35,-137.14 721.65,-143.73 723.95,-137.11"/>
</g>
<!-- Node32&#45;&gt;Node12 -->
<g id="edge78" class="edge">
<title>Node32&#45;&gt;Node12</title>
<path fill="none" stroke="midnightblue" d="M1073.63,-181.74C974.79,-172.15 797.57,-153.78 770,-143 748.06,-134.42 748.18,-122.32 727,-112 693.59,-95.71 653.19,-84.22 622.01,-76.93"/>
<polygon fill="midnightblue" stroke="midnightblue" points="622.76,-73.51 612.23,-74.71 621.21,-80.34 622.76,-73.51"/>
</g>
<!-- Node32&#45;&gt;Node13 -->
<g id="edge74" class="edge">
<title>Node32&#45;&gt;Node13</title>
<path fill="none" stroke="midnightblue" d="M1140.01,-179.43C1139.66,-164.7 1137.38,-134.05 1125,-112 1102.51,-71.93 1057.4,-41.14 1028.78,-24.58"/>
<polygon fill="midnightblue" stroke="midnightblue" points="1030.19,-21.36 1019.76,-19.52 1026.77,-27.47 1030.19,-21.36"/>
</g>
<!-- Node32&#45;&gt;Node19 -->
<g id="edge73" class="edge">
<title>Node32&#45;&gt;Node19</title>
<path fill="none" stroke="midnightblue" d="M1151.46,-179.49C1178.87,-159.15 1248.47,-107.48 1282.98,-81.86"/>
<polygon fill="midnightblue" stroke="midnightblue" points="1285.39,-84.43 1291.33,-75.66 1281.22,-78.81 1285.39,-84.43"/>
</g>
<!-- Node32&#45;&gt;Node20 -->
<g id="edge77" class="edge">
<title>Node32&#45;&gt;Node20</title>
<path fill="none" stroke="midnightblue" d="M1144.82,-179.3C1155.78,-159.5 1182.76,-110.78 1197.31,-84.49"/>
<polygon fill="midnightblue" stroke="midnightblue" points="1200.44,-86.07 1202.23,-75.62 1194.32,-82.68 1200.44,-86.07"/>
</g>
<!-- Node32&#45;&gt;Node26 -->
<g id="edge72" class="edge">
<title>Node32&#45;&gt;Node26</title>
<path fill="none" stroke="midnightblue" d="M1158.64,-179.36C1177.86,-170.42 1208.63,-155.97 1235,-143 1278.55,-121.59 1328.73,-95.74 1358.33,-80.38"/>
<polygon fill="midnightblue" stroke="midnightblue" points="1360.28,-83.31 1367.54,-75.59 1357.06,-77.1 1360.28,-83.31"/>
</g>
<!-- Node33&#45;&gt;Node4 -->
<g id="edge82" class="edge">
<title>Node33&#45;&gt;Node4</title>
<path fill="none" stroke="midnightblue" d="M672.51,-179.48C648.19,-169.36 607.45,-152.4 579.68,-140.85"/>
<polygon fill="midnightblue" stroke="midnightblue" points="581.03,-137.62 570.45,-137.01 578.34,-144.08 581.03,-137.62"/>
</g>
<!-- Node33&#45;&gt;Node6 -->
<g id="edge81" class="edge">
<title>Node33&#45;&gt;Node6</title>
<path fill="none" stroke="midnightblue" d="M693,-179.48C693,-171.08 693,-157.98 693,-147.16"/>
<polygon fill="midnightblue" stroke="midnightblue" points="696.5,-147.01 693,-137.01 689.5,-147.01 696.5,-147.01"/>
</g>
<!-- Node33&#45;&gt;Node22 -->
<g id="edge83" class="edge">
<title>Node33&#45;&gt;Node22</title>
<path fill="none" stroke="midnightblue" d="M659.58,-179.49C624.17,-170.46 566.63,-155.77 517,-143 512.67,-141.89 508.15,-140.72 503.64,-139.56"/>
<polygon fill="midnightblue" stroke="midnightblue" points="504.42,-136.14 493.86,-137.03 502.67,-142.92 504.42,-136.14"/>
</g>
</g>
</svg>
