<?xml version="1.0" encoding="UTF-8" standalone="no"?>
<!DOCTYPE svg PUBLIC "-//W3C//DTD SVG 1.1//EN"
 "http://www.w3.org/Graphics/SVG/1.1/DTD/svg11.dtd">
<!-- Generated by graphviz version 2.43.0 (0)
 -->
<!-- Title: main.cpp Pages: 1 -->
<svg width="1806pt" height="319pt"
 viewBox="0.00 0.00 1805.82 319.00" xmlns="http://www.w3.org/2000/svg" xmlns:xlink="http://www.w3.org/1999/xlink">
<g id="graph0" class="graph" transform="scale(1 1) rotate(0) translate(4 315)">
<title>main.cpp</title>
<polygon fill="white" stroke="transparent" points="-4,4 -4,-315 1801.82,-315 1801.82,4 -4,4"/>
<!-- Node1 -->
<g id="node1" class="node">
<title>Node1</title>
<g id="a_node1"><a xlink:title="Entry point for the Container Monitor application.">
<polygon fill="#bfbfbf" stroke="black" points="587,-291.5 587,-310.5 649,-310.5 649,-291.5 587,-291.5"/>
<text text-anchor="middle" x="618" y="-298.5" font-family="Helvetica,sans-Serif" font-size="10.00">main.cpp</text>
</a>
</g>
</g>
<!-- Node2 -->
<g id="node2" class="node">
<title>Node2</title>
<g id="a_node2"><a xlink:title=" ">
<polygon fill="white" stroke="#bfbfbf" points="0,-235.5 0,-254.5 60,-254.5 60,-235.5 0,-235.5"/>
<text text-anchor="middle" x="30" y="-242.5" font-family="Helvetica,sans-Serif" font-size="10.00">iostream</text>
</a>
</g>
</g>
<!-- Node1&#45;&gt;Node2 -->
<g id="edge1" class="edge">
<title>Node1&#45;&gt;Node2</title>
<path fill="none" stroke="midnightblue" d="M586.86,-299.03C504.18,-296.12 272.24,-285.76 70.06,-254.94"/>
<polygon fill="midnightblue" stroke="midnightblue" points="70.57,-251.48 60.15,-253.41 69.5,-258.4 70.57,-251.48"/>
</g>
<!-- Node3 -->
<g id="node3" class="node">
<title>Node3</title>
<g id="a_node3"><a xlink:title=" ">
<polygon fill="white" stroke="#bfbfbf" points="78,-235.5 78,-254.5 136,-254.5 136,-235.5 78,-235.5"/>
<text text-anchor="middle" x="107" y="-242.5" font-family="Helvetica,sans-Serif" font-size="10.00">memory</text>
</a>
</g>
</g>
<!-- Node1&#45;&gt;Node3 -->
<g id="edge2" class="edge">
<title>Node1&#45;&gt;Node3</title>
<path fill="none" stroke="midnightblue" d="M586.91,-298.2C511.62,-293.59 313.61,-279.91 150,-255 148.73,-254.81 147.44,-254.6 146.13,-254.38"/>
<polygon fill="midnightblue" stroke="midnightblue" points="146.53,-250.9 136.07,-252.54 145.27,-257.78 146.53,-250.9"/>
</g>
<!-- Node4 -->
<g id="node4" class="node">
<title>Node4</title>
<g id="a_node4"><a xlink:title=" ">
<polygon fill="white" stroke="#bfbfbf" points="526,-118 526,-137 574,-137 574,-118 526,-118"/>
<text text-anchor="middle" x="550" y="-125" font-family="Helvetica,sans-Serif" font-size="10.00">thread</text>
</a>
</g>
</g>
<!-- Node1&#45;&gt;Node4 -->
<g id="edge3" class="edge">
<title>Node1&#45;&gt;Node4</title>
<path fill="none" stroke="midnightblue" d="M615.04,-291.15C609.98,-277.3 598.39,-250.5 580,-235 545.16,-205.63 509.96,-236.45 484,-199 468.84,-177.13 497.85,-155.28 522.09,-141.83"/>
<polygon fill="midnightblue" stroke="midnightblue" points="523.83,-144.87 531.04,-137.1 520.56,-138.68 523.83,-144.87"/>
</g>
<!-- Node5 -->
<g id="node5" class="node">
<title>Node5</title>
<g id="a_node5"><a xlink:title=" ">
<polygon fill="white" stroke="#bfbfbf" points="1525.5,-56.5 1525.5,-75.5 1572.5,-75.5 1572.5,-56.5 1525.5,-56.5"/>
<text text-anchor="middle" x="1549" y="-63.5" font-family="Helvetica,sans-Serif" font-size="10.00">vector</text>
</a>
</g>
</g>
<!-- Node1&#45;&gt;Node5 -->
<g id="edge4" class="edge">
<title>Node1&#45;&gt;Node5</title>
<path fill="none" stroke="midnightblue" d="M649.35,-299.35C749.84,-297 1072.87,-287.27 1338,-255 1476.11,-238.19 1513.1,-240.19 1646,-199 1704.15,-180.98 1737.9,-194.09 1771,-143 1842.21,-33.08 1768.68,-115.64 1582.55,-75.9"/>
<polygon fill="midnightblue" stroke="midnightblue" points="1583.26,-72.47 1572.74,-73.71 1581.74,-79.3 1583.26,-72.47"/>
</g>
<!-- Node6 -->
<g id="node6" class="node">
<title>Node6</title>
<g id="a_node6"><a xlink:title=" ">
<polygon fill="white" stroke="#bfbfbf" points="668,-118 668,-137 718,-137 718,-118 668,-118"/>
<text text-anchor="middle" x="693" y="-125" font-family="Helvetica,sans-Serif" font-size="10.00">atomic</text>
</a>
</g>
</g>
<!-- Node1&#45;&gt;Node6 -->
<g id="edge5" class="edge">
<title>Node1&#45;&gt;Node6</title>
<path fill="none" stroke="midnightblue" d="M649.09,-295.32C724.63,-283.24 914.29,-248.49 951,-199 956.3,-191.86 956.77,-185.76 951,-179 917.68,-140 771.95,-158.33 723,-143 721.33,-142.48 719.64,-141.88 717.95,-141.22"/>
<polygon fill="midnightblue" stroke="midnightblue" points="719.09,-137.9 708.53,-137.07 716.27,-144.31 719.09,-137.9"/>
</g>
<!-- Node7 -->
<g id="node7" class="node">
<title>Node7</title>
<g id="a_node7"><a xlink:title=" ">
<polygon fill="white" stroke="#bfbfbf" points="285.5,-235.5 285.5,-254.5 336.5,-254.5 336.5,-235.5 285.5,-235.5"/>
<text text-anchor="middle" x="311" y="-242.5" font-family="Helvetica,sans-Serif" font-size="10.00">csignal</text>
</a>
</g>
</g>
<!-- Node1&#45;&gt;Node7 -->
<g id="edge6" class="edge">
<title>Node1&#45;&gt;Node7</title>
<path fill="none" stroke="midnightblue" d="M586.7,-295.83C537.51,-289.07 438.93,-274.65 346.36,-255.14"/>
<polygon fill="midnightblue" stroke="midnightblue" points="347.07,-251.71 336.56,-253.04 345.61,-258.55 347.07,-251.71"/>
</g>
<!-- Node8 -->
<g id="node8" class="node">
<title>Node8</title>
<g id="a_node8"><a xlink:title=" ">
<polygon fill="white" stroke="#bfbfbf" points="354.5,-235.5 354.5,-254.5 401.5,-254.5 401.5,-235.5 354.5,-235.5"/>
<text text-anchor="middle" x="378" y="-242.5" font-family="Helvetica,sans-Serif" font-size="10.00">cerrno</text>
</a>
</g>
</g>
<!-- Node1&#45;&gt;Node8 -->
<g id="edge7" class="edge">
<title>Node1&#45;&gt;Node8</title>
<path fill="none" stroke="midnightblue" d="M586.85,-293.88C547.97,-286.11 479.22,-271.92 411.68,-255.31"/>
<polygon fill="midnightblue" stroke="midnightblue" points="412.27,-251.85 401.72,-252.85 410.59,-258.65 412.27,-251.85"/>
</g>
<!-- Node9 -->
<g id="node9" class="node">
<title>Node9</title>
<g id="a_node9"><a xlink:title=" ">
<polygon fill="white" stroke="#bfbfbf" points="419.5,-235.5 419.5,-254.5 484.5,-254.5 484.5,-235.5 419.5,-235.5"/>
<text text-anchor="middle" x="452" y="-242.5" font-family="Helvetica,sans-Serif" font-size="10.00">mqueue.h</text>
</a>
</g>
</g>
<!-- Node1&#45;&gt;Node9 -->
<g id="edge8" class="edge">
<title>Node1&#45;&gt;Node9</title>
<path fill="none" stroke="midnightblue" d="M591.7,-291.44C563.65,-282.32 519.06,-267.81 487.82,-257.65"/>
<polygon fill="midnightblue" stroke="midnightblue" points="488.77,-254.28 478.18,-254.52 486.61,-260.94 488.77,-254.28"/>
</g>
<!-- Node10 -->
<g id="node10" class="node">
<title>Node10</title>
<g id="a_node10"><a xlink:href="logger_8hpp.html" target="_top" xlink:title="Logging macros for the container monitor application.">
<polygon fill="white" stroke="black" points="503,-235.5 503,-254.5 571,-254.5 571,-235.5 503,-235.5"/>
<text text-anchor="middle" x="537" y="-242.5" font-family="Helvetica,sans-Serif" font-size="10.00">logger.hpp</text>
</a>
</g>
</g>
<!-- Node1&#45;&gt;Node10 -->
<g id="edge9" class="edge">
<title>Node1&#45;&gt;Node10</title>
<path fill="none" stroke="midnightblue" d="M604.99,-291.32C592.47,-282.98 573.32,-270.21 558.53,-260.35"/>
<polygon fill="midnightblue" stroke="midnightblue" points="560.24,-257.29 549.98,-254.65 556.36,-263.11 560.24,-257.29"/>
</g>
<!-- Node12 -->
<g id="node12" class="node">
<title>Node12</title>
<g id="a_node12"><a xlink:href="common_8hpp.html" target="_top" xlink:title="Common data structures, constants, and configuration for container monitoring.">
<polygon fill="white" stroke="black" points="532,-56.5 532,-75.5 612,-75.5 612,-56.5 532,-56.5"/>
<text text-anchor="middle" x="572" y="-63.5" font-family="Helvetica,sans-Serif" font-size="10.00">common.hpp</text>
</a>
</g>
</g>
<!-- Node1&#45;&gt;Node12 -->
<g id="edge11" class="edge">
<title>Node1&#45;&gt;Node12</title>
<path fill="none" stroke="midnightblue" d="M586.73,-299.02C510.96,-296.18 319.75,-286.04 265,-255 237.47,-239.39 231.35,-228.91 221,-199 195.81,-126.16 333.13,-114.17 339,-112 399.67,-89.61 473.55,-77.75 521.62,-71.94"/>
<polygon fill="midnightblue" stroke="midnightblue" points="522.24,-75.39 531.77,-70.75 521.43,-68.44 522.24,-75.39"/>
</g>
<!-- Node16 -->
<g id="node16" class="node">
<title>Node16</title>
<g id="a_node16"><a xlink:href="initializer_8hpp.html" target="_top" xlink:title="Declares the Initializer class for application startup routines.">
<polygon fill="white" stroke="black" points="84.5,-118 84.5,-137 167.5,-137 167.5,-118 84.5,-118"/>
<text text-anchor="middle" x="126" y="-125" font-family="Helvetica,sans-Serif" font-size="10.00">initializer.hpp</text>
</a>
</g>
</g>
<!-- Node1&#45;&gt;Node16 -->
<g id="edge15" class="edge">
<title>Node1&#45;&gt;Node16</title>
<path fill="none" stroke="midnightblue" d="M586.97,-300.54C499.39,-301.49 252.46,-300.02 188,-255 151.18,-229.28 135.28,-175.38 129.24,-146.95"/>
<polygon fill="midnightblue" stroke="midnightblue" points="132.67,-146.25 127.32,-137.1 125.79,-147.59 132.67,-146.25"/>
</g>
<!-- Node17 -->
<g id="node17" class="node">
<title>Node17</title>
<g id="a_node17"><a xlink:href="event__queue_8hpp.html" target="_top" xlink:title="Declares the EventQueue class for thread&#45;safe event management.">
<polygon fill="white" stroke="black" points="1014.5,-118 1014.5,-137 1115.5,-137 1115.5,-118 1014.5,-118"/>
<text text-anchor="middle" x="1065" y="-125" font-family="Helvetica,sans-Serif" font-size="10.00">event_queue.hpp</text>
</a>
</g>
</g>
<!-- Node1&#45;&gt;Node17 -->
<g id="edge17" class="edge">
<title>Node1&#45;&gt;Node17</title>
<path fill="none" stroke="midnightblue" d="M649.33,-298.65C699.59,-295.62 800.64,-285.87 880,-255 922.86,-238.33 928.99,-224.88 967,-199 994.49,-180.28 1025.56,-157.68 1045.2,-143.2"/>
<polygon fill="midnightblue" stroke="midnightblue" points="1047.41,-145.92 1053.37,-137.16 1043.25,-140.29 1047.41,-145.92"/>
</g>
<!-- Node21 -->
<g id="node21" class="node">
<title>Node21</title>
<g id="a_node21"><a xlink:href="config__parser_8hpp.html" target="_top" xlink:title="Declares the ConfigParser class for parsing application configuration files.">
<polygon fill="white" stroke="black" points="230,-179.5 230,-198.5 332,-198.5 332,-179.5 230,-179.5"/>
<text text-anchor="middle" x="281" y="-186.5" font-family="Helvetica,sans-Serif" font-size="10.00">config_parser.hpp</text>
</a>
</g>
</g>
<!-- Node1&#45;&gt;Node21 -->
<g id="edge22" class="edge">
<title>Node1&#45;&gt;Node21</title>
<path fill="none" stroke="midnightblue" d="M586.87,-298.21C506.41,-293.27 296.39,-278.24 276,-255 264.95,-242.4 268.35,-222.63 273.19,-208.2"/>
<polygon fill="midnightblue" stroke="midnightblue" points="276.48,-209.41 276.78,-198.82 269.94,-206.91 276.48,-209.41"/>
</g>
<!-- Node23 -->
<g id="node23" class="node">
<title>Node23</title>
<g id="a_node23"><a xlink:href="event__listener_8hpp.html" target="_top" xlink:title="Declares the RuntimeEventListener class for container event monitoring.">
<polygon fill="white" stroke="black" points="492.5,-179.5 492.5,-198.5 599.5,-198.5 599.5,-179.5 492.5,-179.5"/>
<text text-anchor="middle" x="546" y="-186.5" font-family="Helvetica,sans-Serif" font-size="10.00">event_listener.hpp</text>
</a>
</g>
</g>
<!-- Node1&#45;&gt;Node23 -->
<g id="edge27" class="edge">
<title>Node1&#45;&gt;Node23</title>
<path fill="none" stroke="midnightblue" d="M619.59,-291.31C621.53,-278.14 623.38,-252.79 613,-235 604.85,-221.04 590.44,-210.52 577.07,-203.18"/>
<polygon fill="midnightblue" stroke="midnightblue" points="578.56,-200.01 568.06,-198.6 575.39,-206.25 578.56,-200.01"/>
</g>
<!-- Node24 -->
<g id="node24" class="node">
<title>Node24</title>
<g id="a_node24"><a xlink:href="event__processor_8hpp.html" target="_top" xlink:title="Declares the EventProcessor class for processing container events and host metrics.">
<polygon fill="white" stroke="black" points="824.5,-179.5 824.5,-198.5 941.5,-198.5 941.5,-179.5 824.5,-179.5"/>
<text text-anchor="middle" x="883" y="-186.5" font-family="Helvetica,sans-Serif" font-size="10.00">event_processor.hpp</text>
</a>
</g>
</g>
<!-- Node1&#45;&gt;Node24 -->
<g id="edge33" class="edge">
<title>Node1&#45;&gt;Node24</title>
<path fill="none" stroke="midnightblue" d="M638.79,-291.37C685.43,-272.01 798.53,-225.06 852.87,-202.51"/>
<polygon fill="midnightblue" stroke="midnightblue" points="854.41,-205.66 862.3,-198.59 851.72,-199.19 854.41,-205.66"/>
</g>
<!-- Node27 -->
<g id="node27" class="node">
<title>Node27</title>
<g id="a_node27"><a xlink:href="resource__monitor_8hpp.html" target="_top" xlink:title="Declares the ResourceMonitor class for tracking live containers and managing resource threads.">
<polygon fill="white" stroke="black" points="1112,-235.5 1112,-254.5 1234,-254.5 1234,-235.5 1112,-235.5"/>
<text text-anchor="middle" x="1173" y="-242.5" font-family="Helvetica,sans-Serif" font-size="10.00">resource_monitor.hpp</text>
</a>
</g>
</g>
<!-- Node1&#45;&gt;Node27 -->
<g id="edge45" class="edge">
<title>Node1&#45;&gt;Node27</title>
<path fill="none" stroke="midnightblue" d="M649.2,-297.36C725.72,-290.81 928.85,-273.08 1098,-255 1099.11,-254.88 1100.23,-254.76 1101.35,-254.64"/>
<polygon fill="midnightblue" stroke="midnightblue" points="1102.07,-258.08 1111.62,-253.5 1101.29,-251.12 1102.07,-258.08"/>
</g>
<!-- Node28 -->
<g id="node28" class="node">
<title>Node28</title>
<g id="a_node28"><a xlink:href="resource__thread__pool_8hpp.html" target="_top" xlink:title="Declares the ResourceThreadPool class for parallel container resource monitoring.">
<polygon fill="white" stroke="black" points="1224.5,-179.5 1224.5,-198.5 1367.5,-198.5 1367.5,-179.5 1224.5,-179.5"/>
<text text-anchor="middle" x="1296" y="-186.5" font-family="Helvetica,sans-Serif" font-size="10.00">resource_thread_pool.hpp</text>
</a>
</g>
</g>
<!-- Node1&#45;&gt;Node28 -->
<g id="edge79" class="edge">
<title>Node1&#45;&gt;Node28</title>
<path fill="none" stroke="midnightblue" d="M649.26,-299.2C768.41,-295.93 1190.03,-282.53 1243,-255 1262.92,-244.64 1278.08,-223.18 1286.98,-207.74"/>
<polygon fill="midnightblue" stroke="midnightblue" points="1290.22,-209.11 1291.91,-198.65 1284.06,-205.77 1290.22,-209.11"/>
</g>
<!-- Node30 -->
<g id="node30" class="node">
<title>Node30</title>
<g id="a_node30"><a xlink:href="sqlite__database_8hpp.html" target="_top" xlink:title="Declares the SQLiteDatabase class for SQLite&#45;based database operations.">
<polygon fill="white" stroke="black" points="1521.5,-179.5 1521.5,-198.5 1636.5,-198.5 1636.5,-179.5 1521.5,-179.5"/>
<text text-anchor="middle" x="1579" y="-186.5" font-family="Helvetica,sans-Serif" font-size="10.00">sqlite_database.hpp</text>
</a>
</g>
</g>
<!-- Node1&#45;&gt;Node30 -->
<g id="edge63" class="edge">
<title>Node1&#45;&gt;Node30</title>
<path fill="none" stroke="midnightblue" d="M649.33,-299.36C743.51,-297.12 1032.22,-287.85 1269,-255 1365.29,-241.64 1476.41,-215.74 1535.97,-200.99"/>
<polygon fill="midnightblue" stroke="midnightblue" points="1536.92,-204.36 1545.78,-198.54 1535.23,-197.56 1536.92,-204.36"/>
</g>
<!-- Node32 -->
<g id="node32" class="node">
<title>Node32</title>
<g id="a_node32"><a xlink:href="monitor__dashboard_8hpp.html" target="_top" xlink:title="Declares the MonitorDashboard class for ncurses&#45;based container metrics UI.">
<polygon fill="white" stroke="black" points="1074,-179.5 1074,-198.5 1206,-198.5 1206,-179.5 1074,-179.5"/>
<text text-anchor="middle" x="1140" y="-186.5" font-family="Helvetica,sans-Serif" font-size="10.00">monitor_dashboard.hpp</text>
</a>
</g>
</g>
<!-- Node1&#45;&gt;Node32 -->
<g id="edge71" class="edge">
<title>Node1&#45;&gt;Node32</title>
<path fill="none" stroke="midnightblue" d="M649.06,-299.14C736.86,-296.35 985.33,-285.86 1060,-255 1086.23,-244.16 1110.67,-221.8 1125.47,-206.35"/>
<polygon fill="midnightblue" stroke="midnightblue" points="1128.42,-208.32 1132.65,-198.6 1123.28,-203.56 1128.42,-208.32"/>
</g>
<!-- Node33 -->
<g id="node33" class="node">
<title>Node33</title>
<g id="a_node33"><a xlink:href="live__metric__aggregator_8hpp.html" target="_top" xlink:title="Declares the LiveMetricAggregator class for real&#45;time container metrics aggregation and dashboard upd...">
<polygon fill="white" stroke="black" points="618,-179.5 618,-198.5 768,-198.5 768,-179.5 618,-179.5"/>
<text text-anchor="middle" x="693" y="-186.5" font-family="Helvetica,sans-Serif" font-size="10.00">live_metric_aggregator.hpp</text>
</a>
</g>
</g>
<!-- Node1&#45;&gt;Node33 -->
<g id="edge80" class="edge">
<title>Node1&#45;&gt;Node33</title>
<path fill="none" stroke="midnightblue" d="M623.89,-291.37C636.26,-273.22 665.18,-230.8 681.42,-206.99"/>
<polygon fill="midnightblue" stroke="midnightblue" points="684.4,-208.83 687.14,-198.59 678.62,-204.88 684.4,-208.83"/>
</g>
<!-- Node11 -->
<g id="node11" class="node">
<title>Node11</title>
<g id="a_node11"><a xlink:title=" ">
<polygon fill="white" stroke="#bfbfbf" points="350,-179.5 350,-198.5 436,-198.5 436,-179.5 350,-179.5"/>
<text text-anchor="middle" x="393" y="-186.5" font-family="Helvetica,sans-Serif" font-size="10.00">glog/logging.h</text>
</a>
</g>
</g>
<!-- Node10&#45;&gt;Node11 -->
<g id="edge10" class="edge">
<title>Node10&#45;&gt;Node11</title>
<path fill="none" stroke="midnightblue" d="M514.18,-235.44C490.17,-226.44 452.17,-212.19 425.13,-202.05"/>
<polygon fill="midnightblue" stroke="midnightblue" points="426.3,-198.75 415.71,-198.52 423.84,-205.3 426.3,-198.75"/>
</g>
<!-- Node13 -->
<g id="node13" class="node">
<title>Node13</title>
<g id="a_node13"><a xlink:title=" ">
<polygon fill="white" stroke="#bfbfbf" points="981,-0.5 981,-19.5 1025,-19.5 1025,-0.5 981,-0.5"/>
<text text-anchor="middle" x="1003" y="-7.5" font-family="Helvetica,sans-Serif" font-size="10.00">string</text>
</a>
</g>
</g>
<!-- Node12&#45;&gt;Node13 -->
<g id="edge12" class="edge">
<title>Node12&#45;&gt;Node13</title>
<path fill="none" stroke="midnightblue" d="M612.07,-58.11C616.76,-57.37 621.48,-56.65 626,-56 753.33,-37.8 905.59,-21.2 970.8,-14.33"/>
<polygon fill="midnightblue" stroke="midnightblue" points="971.28,-17.8 980.86,-13.28 970.55,-10.84 971.28,-17.8"/>
</g>
<!-- Node14 -->
<g id="node14" class="node">
<title>Node14</title>
<g id="a_node14"><a xlink:title=" ">
<polygon fill="white" stroke="#bfbfbf" points="547,-0.5 547,-19.5 597,-19.5 597,-0.5 547,-0.5"/>
<text text-anchor="middle" x="572" y="-7.5" font-family="Helvetica,sans-Serif" font-size="10.00">cstring</text>
</a>
</g>
</g>
<!-- Node12&#45;&gt;Node14 -->
<g id="edge13" class="edge">
<title>Node12&#45;&gt;Node14</title>
<path fill="none" stroke="midnightblue" d="M572,-56.08C572,-49.01 572,-38.86 572,-29.99"/>
<polygon fill="midnightblue" stroke="midnightblue" points="575.5,-29.75 572,-19.75 568.5,-29.75 575.5,-29.75"/>
</g>
<!-- Node15 -->
<g id="node15" class="node">
<title>Node15</title>
<g id="a_node15"><a xlink:title=" ">
<polygon fill="white" stroke="#bfbfbf" points="307.5,-0.5 307.5,-19.5 380.5,-19.5 380.5,-0.5 307.5,-0.5"/>
<text text-anchor="middle" x="344" y="-7.5" font-family="Helvetica,sans-Serif" font-size="10.00">string_view</text>
</a>
</g>
</g>
<!-- Node12&#45;&gt;Node15 -->
<g id="edge14" class="edge">
<title>Node12&#45;&gt;Node15</title>
<path fill="none" stroke="midnightblue" d="M535.87,-56.44C496.35,-47.08 432.9,-32.06 389.89,-21.87"/>
<polygon fill="midnightblue" stroke="midnightblue" points="390.5,-18.42 379.96,-19.52 388.88,-25.23 390.5,-18.42"/>
</g>
<!-- Node16&#45;&gt;Node12 -->
<g id="edge16" class="edge">
<title>Node16&#45;&gt;Node12</title>
<path fill="none" stroke="midnightblue" d="M167.61,-119.84C183.93,-117.3 202.83,-114.42 220,-112 327.35,-96.86 453.43,-81.27 521.78,-73.01"/>
<polygon fill="midnightblue" stroke="midnightblue" points="522.33,-76.46 531.83,-71.79 521.49,-69.52 522.33,-76.46"/>
</g>
<!-- Node17&#45;&gt;Node13 -->
<g id="edge21" class="edge">
<title>Node17&#45;&gt;Node13</title>
<path fill="none" stroke="midnightblue" d="M1064.05,-117.73C1062.25,-103.85 1057.45,-76.32 1046,-56 1039.67,-44.75 1029.88,-34.21 1021.25,-26.15"/>
<polygon fill="midnightblue" stroke="midnightblue" points="1023.57,-23.54 1013.77,-19.51 1018.92,-28.77 1023.57,-23.54"/>
</g>
<!-- Node18 -->
<g id="node18" class="node">
<title>Node18</title>
<g id="a_node18"><a xlink:title=" ">
<polygon fill="white" stroke="#bfbfbf" points="989.5,-56.5 989.5,-75.5 1036.5,-75.5 1036.5,-56.5 989.5,-56.5"/>
<text text-anchor="middle" x="1013" y="-63.5" font-family="Helvetica,sans-Serif" font-size="10.00">queue</text>
</a>
</g>
</g>
<!-- Node17&#45;&gt;Node18 -->
<g id="edge18" class="edge">
<title>Node17&#45;&gt;Node18</title>
<path fill="none" stroke="midnightblue" d="M1057.55,-117.98C1049.67,-108.96 1037.06,-94.52 1027.26,-83.31"/>
<polygon fill="midnightblue" stroke="midnightblue" points="1029.65,-80.74 1020.44,-75.51 1024.38,-85.34 1029.65,-80.74"/>
</g>
<!-- Node19 -->
<g id="node19" class="node">
<title>Node19</title>
<g id="a_node19"><a xlink:title=" ">
<polygon fill="white" stroke="#bfbfbf" points="1282,-56.5 1282,-75.5 1330,-75.5 1330,-56.5 1282,-56.5"/>
<text text-anchor="middle" x="1306" y="-63.5" font-family="Helvetica,sans-Serif" font-size="10.00">mutex</text>
</a>
</g>
</g>
<!-- Node17&#45;&gt;Node19 -->
<g id="edge19" class="edge">
<title>Node17&#45;&gt;Node19</title>
<path fill="none" stroke="midnightblue" d="M1101.52,-117.96C1141.09,-108.64 1206.32,-93.06 1271.79,-76.26"/>
<polygon fill="midnightblue" stroke="midnightblue" points="1273.06,-79.55 1281.87,-73.66 1271.31,-72.77 1273.06,-79.55"/>
</g>
<!-- Node20 -->
<g id="node20" class="node">
<title>Node20</title>
<g id="a_node20"><a xlink:title=" ">
<polygon fill="white" stroke="#bfbfbf" points="1156.5,-56.5 1156.5,-75.5 1263.5,-75.5 1263.5,-56.5 1156.5,-56.5"/>
<text text-anchor="middle" x="1210" y="-63.5" font-family="Helvetica,sans-Serif" font-size="10.00">condition_variable</text>
</a>
</g>
</g>
<!-- Node17&#45;&gt;Node20 -->
<g id="edge20" class="edge">
<title>Node17&#45;&gt;Node20</title>
<path fill="none" stroke="midnightblue" d="M1085.77,-117.98C1110.43,-107.86 1151.75,-90.9 1179.9,-79.35"/>
<polygon fill="midnightblue" stroke="midnightblue" points="1181.34,-82.54 1189.26,-75.51 1178.68,-76.07 1181.34,-82.54"/>
</g>
<!-- Node21&#45;&gt;Node12 -->
<g id="edge26" class="edge">
<title>Node21&#45;&gt;Node12</title>
<path fill="none" stroke="midnightblue" d="M291.29,-179.36C310.46,-163.68 353.49,-130.46 395,-112 435.91,-93.8 485.55,-81.99 521.84,-75.05"/>
<polygon fill="midnightblue" stroke="midnightblue" points="522.5,-78.49 531.7,-73.22 521.23,-71.61 522.5,-78.49"/>
</g>
<!-- Node21&#45;&gt;Node13 -->
<g id="edge23" class="edge">
<title>Node21&#45;&gt;Node13</title>
<path fill="none" stroke="midnightblue" d="M287.85,-179.5C308.14,-155.03 370.91,-84.39 441,-56 538.15,-16.65 866.1,-11.64 970.67,-11.06"/>
<polygon fill="midnightblue" stroke="midnightblue" points="970.93,-14.56 980.91,-11.01 970.9,-7.56 970.93,-14.56"/>
</g>
<!-- Node21&#45;&gt;Node15 -->
<g id="edge24" class="edge">
<title>Node21&#45;&gt;Node15</title>
<path fill="none" stroke="midnightblue" d="M274.9,-179.19C269.25,-170.46 261.24,-156.48 258,-143 248.95,-105.41 237.98,-89.08 258,-56 267.41,-40.46 284.15,-30.02 300.38,-23.15"/>
<polygon fill="midnightblue" stroke="midnightblue" points="301.75,-26.37 309.82,-19.51 299.23,-19.85 301.75,-26.37"/>
</g>
<!-- Node22 -->
<g id="node22" class="node">
<title>Node22</title>
<g id="a_node22"><a xlink:title=" ">
<polygon fill="white" stroke="#bfbfbf" points="414.5,-118 414.5,-137 507.5,-137 507.5,-118 414.5,-118"/>
<text text-anchor="middle" x="461" y="-125" font-family="Helvetica,sans-Serif" font-size="10.00">unordered_map</text>
</a>
</g>
</g>
<!-- Node21&#45;&gt;Node22 -->
<g id="edge25" class="edge">
<title>Node21&#45;&gt;Node22</title>
<path fill="none" stroke="midnightblue" d="M306.79,-179.48C337.93,-169.18 390.48,-151.81 425.45,-140.25"/>
<polygon fill="midnightblue" stroke="midnightblue" points="426.86,-143.47 435.26,-137.01 424.66,-136.82 426.86,-143.47"/>
</g>
<!-- Node23&#45;&gt;Node4 -->
<g id="edge28" class="edge">
<title>Node23&#45;&gt;Node4</title>
<path fill="none" stroke="midnightblue" d="M546.57,-179.48C547.14,-171.08 548.02,-157.98 548.75,-147.16"/>
<polygon fill="midnightblue" stroke="midnightblue" points="552.25,-147.22 549.43,-137.01 545.26,-146.75 552.25,-147.22"/>
</g>
<!-- Node23&#45;&gt;Node6 -->
<g id="edge29" class="edge">
<title>Node23&#45;&gt;Node6</title>
<path fill="none" stroke="midnightblue" d="M567.06,-179.48C592.06,-169.36 633.94,-152.4 662.49,-140.85"/>
<polygon fill="midnightblue" stroke="midnightblue" points="664.02,-144.01 671.98,-137.01 661.39,-137.52 664.02,-144.01"/>
</g>
<!-- Node23&#45;&gt;Node12 -->
<g id="edge31" class="edge">
<title>Node23&#45;&gt;Node12</title>
<path fill="none" stroke="midnightblue" d="M492.78,-179.44C442.13,-168.95 377.43,-147.98 405,-112 419.23,-93.43 478.04,-80.79 521.86,-73.74"/>
<polygon fill="midnightblue" stroke="midnightblue" points="522.46,-77.19 531.8,-72.2 521.39,-70.28 522.46,-77.19"/>
</g>
<!-- Node23&#45;&gt;Node13 -->
<g id="edge30" class="edge">
<title>Node23&#45;&gt;Node13</title>
<path fill="none" stroke="midnightblue" d="M492.28,-181.38C438.88,-172.38 368.49,-152.53 395,-112 458.82,-14.41 854.65,-9.78 970.92,-10.56"/>
<polygon fill="midnightblue" stroke="midnightblue" points="970.94,-14.06 980.97,-10.65 971,-7.06 970.94,-14.06"/>
</g>
<!-- Node23&#45;&gt;Node17 -->
<g id="edge32" class="edge">
<title>Node23&#45;&gt;Node17</title>
<path fill="none" stroke="midnightblue" d="M599.59,-180.15C602.77,-179.75 605.93,-179.36 609,-179 784.53,-158.5 830.64,-171.83 1005,-143 1010.96,-142.01 1017.21,-140.76 1023.32,-139.4"/>
<polygon fill="midnightblue" stroke="midnightblue" points="1024.47,-142.73 1033.42,-137.05 1022.88,-135.91 1024.47,-142.73"/>
</g>
<!-- Node24&#45;&gt;Node4 -->
<g id="edge35" class="edge">
<title>Node24&#45;&gt;Node4</title>
<path fill="none" stroke="midnightblue" d="M824.37,-180.56C751.51,-171.06 631.46,-154.46 588,-143 585.34,-142.3 582.61,-141.47 579.89,-140.58"/>
<polygon fill="midnightblue" stroke="midnightblue" points="580.84,-137.2 570.25,-137.14 578.49,-143.8 580.84,-137.2"/>
</g>
<!-- Node24&#45;&gt;Node6 -->
<g id="edge34" class="edge">
<title>Node24&#45;&gt;Node6</title>
<path fill="none" stroke="midnightblue" d="M852.16,-179.46C821.51,-170.81 773.25,-156.8 732,-143 729.6,-142.2 727.13,-141.34 724.65,-140.47"/>
<polygon fill="midnightblue" stroke="midnightblue" points="725.78,-137.15 715.18,-137.04 723.39,-143.73 725.78,-137.15"/>
</g>
<!-- Node24&#45;&gt;Node12 -->
<g id="edge38" class="edge">
<title>Node24&#45;&gt;Node12</title>
<path fill="none" stroke="midnightblue" d="M824.39,-180.13C753.79,-170.28 642.54,-153.44 626,-143 604.03,-129.13 588.39,-102.78 579.77,-85.05"/>
<polygon fill="midnightblue" stroke="midnightblue" points="582.86,-83.4 575.51,-75.76 576.5,-86.31 582.86,-83.4"/>
</g>
<!-- Node24&#45;&gt;Node13 -->
<g id="edge36" class="edge">
<title>Node24&#45;&gt;Node13</title>
<path fill="none" stroke="midnightblue" d="M824.41,-180.11C761.62,-171.06 669.49,-155.81 659,-143 650.27,-132.34 650.74,-123.03 659,-112 697.03,-61.2 892.73,-27.25 970.79,-15.53"/>
<polygon fill="midnightblue" stroke="midnightblue" points="971.61,-18.95 981,-14.03 970.59,-12.02 971.61,-18.95"/>
</g>
<!-- Node24&#45;&gt;Node17 -->
<g id="edge39" class="edge">
<title>Node24&#45;&gt;Node17</title>
<path fill="none" stroke="midnightblue" d="M909.08,-179.48C940.57,-169.18 993.7,-151.81 1029.06,-140.25"/>
<polygon fill="midnightblue" stroke="midnightblue" points="1030.55,-143.44 1038.97,-137.01 1028.38,-136.79 1030.55,-143.44"/>
</g>
<!-- Node24&#45;&gt;Node22 -->
<g id="edge37" class="edge">
<title>Node24&#45;&gt;Node22</title>
<path fill="none" stroke="midnightblue" d="M824.32,-183.17C751.72,-176.65 624.55,-163.44 517,-143 511.83,-142.02 506.43,-140.83 501.11,-139.56"/>
<polygon fill="midnightblue" stroke="midnightblue" points="501.61,-136.08 491.06,-137.06 499.92,-142.87 501.61,-136.08"/>
</g>
<!-- Node25 -->
<g id="node25" class="node">
<title>Node25</title>
<g id="a_node25"><a xlink:href="database__interface_8hpp.html" target="_top" xlink:title="Declares the abstract interface for database operations in container monitoring.">
<polygon fill="white" stroke="black" points="1362.5,-118 1362.5,-137 1493.5,-137 1493.5,-118 1362.5,-118"/>
<text text-anchor="middle" x="1428" y="-125" font-family="Helvetica,sans-Serif" font-size="10.00">database_interface.hpp</text>
</a>
</g>
</g>
<!-- Node24&#45;&gt;Node25 -->
<g id="edge40" class="edge">
<title>Node24&#45;&gt;Node25</title>
<path fill="none" stroke="midnightblue" d="M941.58,-181.6C1040.89,-170.76 1242.19,-148.79 1352.13,-136.78"/>
<polygon fill="midnightblue" stroke="midnightblue" points="1352.6,-140.25 1362.16,-135.69 1351.84,-133.29 1352.6,-140.25"/>
</g>
<!-- Node25&#45;&gt;Node5 -->
<g id="edge41" class="edge">
<title>Node25&#45;&gt;Node5</title>
<path fill="none" stroke="midnightblue" d="M1445.34,-117.98C1465.55,-108.03 1499.19,-91.49 1522.64,-79.96"/>
<polygon fill="midnightblue" stroke="midnightblue" points="1524.27,-83.06 1531.7,-75.51 1521.18,-76.78 1524.27,-83.06"/>
</g>
<!-- Node25&#45;&gt;Node12 -->
<g id="edge44" class="edge">
<title>Node25&#45;&gt;Node12</title>
<path fill="none" stroke="midnightblue" d="M1362.25,-121.93C1197.47,-110.48 769.57,-80.73 622.5,-70.51"/>
<polygon fill="midnightblue" stroke="midnightblue" points="622.63,-67.01 612.41,-69.81 622.14,-73.99 622.63,-67.01"/>
</g>
<!-- Node25&#45;&gt;Node13 -->
<g id="edge43" class="edge">
<title>Node25&#45;&gt;Node13</title>
<path fill="none" stroke="midnightblue" d="M1420.18,-117.78C1405.8,-102.38 1373.47,-70.64 1339,-56 1284.53,-32.87 1108.28,-18.31 1035.2,-13.13"/>
<polygon fill="midnightblue" stroke="midnightblue" points="1035.42,-9.64 1025.2,-12.43 1034.93,-16.62 1035.42,-9.64"/>
</g>
<!-- Node26 -->
<g id="node26" class="node">
<title>Node26</title>
<g id="a_node26"><a xlink:title=" ">
<polygon fill="white" stroke="#bfbfbf" points="1591,-56.5 1591,-75.5 1629,-75.5 1629,-56.5 1591,-56.5"/>
<text text-anchor="middle" x="1610" y="-63.5" font-family="Helvetica,sans-Serif" font-size="10.00">map</text>
</a>
</g>
</g>
<!-- Node25&#45;&gt;Node26 -->
<g id="edge42" class="edge">
<title>Node25&#45;&gt;Node26</title>
<path fill="none" stroke="midnightblue" d="M1454.08,-117.98C1487.8,-106.95 1546.35,-87.81 1581.31,-76.38"/>
<polygon fill="midnightblue" stroke="midnightblue" points="1582.51,-79.67 1590.92,-73.24 1580.33,-73.02 1582.51,-79.67"/>
</g>
<!-- Node27&#45;&gt;Node4 -->
<g id="edge47" class="edge">
<title>Node27&#45;&gt;Node4</title>
<path fill="none" stroke="midnightblue" d="M1111.96,-242.72C1039.78,-239.76 916.72,-230.11 816,-199 797.39,-193.25 795.41,-185.36 777,-179 697.41,-151.51 672.25,-165.1 591,-143 588.04,-142.19 584.98,-141.28 581.93,-140.31"/>
<polygon fill="midnightblue" stroke="midnightblue" points="582.96,-136.96 572.37,-137.09 580.73,-143.59 582.96,-136.96"/>
</g>
<!-- Node27&#45;&gt;Node6 -->
<g id="edge46" class="edge">
<title>Node27&#45;&gt;Node6</title>
<path fill="none" stroke="midnightblue" d="M1152.41,-235.47C1118.08,-221.59 1046.74,-194.13 984,-179 874.01,-152.48 841.65,-170.87 732,-143 729.02,-142.24 725.94,-141.33 722.9,-140.35"/>
<polygon fill="midnightblue" stroke="midnightblue" points="723.98,-137.02 713.38,-137.01 721.66,-143.62 723.98,-137.02"/>
</g>
<!-- Node27&#45;&gt;Node25 -->
<g id="edge48" class="edge">
<title>Node27&#45;&gt;Node25</title>
<path fill="none" stroke="midnightblue" d="M1234.09,-241.86C1277.11,-237.78 1334.4,-226.96 1377,-199 1396.87,-185.96 1411.58,-162.32 1419.97,-146.03"/>
<polygon fill="midnightblue" stroke="midnightblue" points="1423.13,-147.52 1424.36,-137 1416.84,-144.46 1423.13,-147.52"/>
</g>
<!-- Node27&#45;&gt;Node28 -->
<g id="edge49" class="edge">
<title>Node27&#45;&gt;Node28</title>
<path fill="none" stroke="midnightblue" d="M1192.49,-235.44C1212.64,-226.6 1244.32,-212.69 1267.33,-202.59"/>
<polygon fill="midnightblue" stroke="midnightblue" points="1268.85,-205.74 1276.6,-198.52 1266.04,-199.33 1268.85,-205.74"/>
</g>
<!-- Node28&#45;&gt;Node4 -->
<g id="edge51" class="edge">
<title>Node28&#45;&gt;Node4</title>
<path fill="none" stroke="midnightblue" d="M1224.46,-179.87C1221.27,-179.56 1218.1,-179.27 1215,-179 968.32,-157.32 905.43,-167.34 659,-143 633.86,-140.52 605.58,-136.73 584.13,-133.64"/>
<polygon fill="midnightblue" stroke="midnightblue" points="584.59,-130.17 574.19,-132.2 583.58,-137.1 584.59,-130.17"/>
</g>
<!-- Node28&#45;&gt;Node5 -->
<g id="edge50" class="edge">
<title>Node28&#45;&gt;Node5</title>
<path fill="none" stroke="midnightblue" d="M1367.82,-186.32C1410.51,-182.13 1463.8,-171 1503,-143 1522.95,-128.75 1535.87,-102.88 1542.79,-85.33"/>
<polygon fill="midnightblue" stroke="midnightblue" points="1546.18,-86.24 1546.33,-75.65 1539.61,-83.83 1546.18,-86.24"/>
</g>
<!-- Node28&#45;&gt;Node6 -->
<g id="edge52" class="edge">
<title>Node28&#45;&gt;Node6</title>
<path fill="none" stroke="midnightblue" d="M1224.46,-179.93C1221.26,-179.61 1218.1,-179.3 1215,-179 1017.48,-160.04 966.66,-169.4 770,-143 756.28,-141.16 741.29,-138.49 728.22,-135.94"/>
<polygon fill="midnightblue" stroke="midnightblue" points="728.7,-132.47 718.21,-133.94 727.33,-139.33 728.7,-132.47"/>
</g>
<!-- Node28&#45;&gt;Node12 -->
<g id="edge59" class="edge">
<title>Node28&#45;&gt;Node12</title>
<path fill="none" stroke="midnightblue" d="M1224.46,-179.96C1221.26,-179.63 1218.1,-179.31 1215,-179 1034.3,-160.97 979.16,-203.66 808,-143 784.76,-134.76 784.58,-121.89 762,-112 716.82,-92.21 661.62,-80.38 622.39,-73.86"/>
<polygon fill="midnightblue" stroke="midnightblue" points="622.7,-70.36 612.27,-72.23 621.59,-77.27 622.7,-70.36"/>
</g>
<!-- Node28&#45;&gt;Node13 -->
<g id="edge55" class="edge">
<title>Node28&#45;&gt;Node13</title>
<path fill="none" stroke="midnightblue" d="M1367.94,-183.92C1490.91,-174.49 1720.65,-144.71 1638,-56 1596.64,-11.6 1158.89,-10.26 1035.32,-10.78"/>
<polygon fill="midnightblue" stroke="midnightblue" points="1034.99,-7.28 1025.01,-10.83 1035.02,-14.28 1034.99,-7.28"/>
</g>
<!-- Node28&#45;&gt;Node19 -->
<g id="edge54" class="edge">
<title>Node28&#45;&gt;Node19</title>
<path fill="none" stroke="midnightblue" d="M1296.72,-179.3C1298.33,-159.85 1302.24,-112.49 1304.44,-85.9"/>
<polygon fill="midnightblue" stroke="midnightblue" points="1307.95,-85.88 1305.29,-75.62 1300.98,-85.3 1307.95,-85.88"/>
</g>
<!-- Node28&#45;&gt;Node20 -->
<g id="edge57" class="edge">
<title>Node28&#45;&gt;Node20</title>
<path fill="none" stroke="midnightblue" d="M1289.82,-179.3C1275.62,-159.33 1240.51,-109.92 1221.94,-83.8"/>
<polygon fill="midnightblue" stroke="midnightblue" points="1224.78,-81.75 1216.13,-75.62 1219.07,-85.8 1224.78,-81.75"/>
</g>
<!-- Node28&#45;&gt;Node22 -->
<g id="edge56" class="edge">
<title>Node28&#45;&gt;Node22</title>
<path fill="none" stroke="midnightblue" d="M1224.47,-179.82C1221.27,-179.53 1218.1,-179.25 1215,-179 905.39,-153.84 824.03,-190.17 517,-143 511.15,-142.1 505.02,-140.85 499.06,-139.45"/>
<polygon fill="midnightblue" stroke="midnightblue" points="499.81,-136.03 489.26,-137 498.11,-142.82 499.81,-136.03"/>
</g>
<!-- Node28&#45;&gt;Node25 -->
<g id="edge58" class="edge">
<title>Node28&#45;&gt;Node25</title>
<path fill="none" stroke="midnightblue" d="M1314.91,-179.48C1337.16,-169.45 1374.31,-152.7 1399.93,-141.15"/>
<polygon fill="midnightblue" stroke="midnightblue" points="1401.44,-144.31 1409.12,-137.01 1398.57,-137.93 1401.44,-144.31"/>
</g>
<!-- Node28&#45;&gt;Node26 -->
<g id="edge53" class="edge">
<title>Node28&#45;&gt;Node26</title>
<path fill="none" stroke="midnightblue" d="M1367.74,-184.69C1415.89,-180.02 1479.5,-168.96 1530,-143 1557.86,-128.68 1582.76,-101.65 1597.12,-83.99"/>
<polygon fill="midnightblue" stroke="midnightblue" points="1600.2,-85.74 1603.63,-75.72 1594.7,-81.41 1600.2,-85.74"/>
</g>
<!-- Node29 -->
<g id="node29" class="node">
<title>Node29</title>
<g id="a_node29"><a xlink:href="container__runtime__factory__interface_8hpp.html" target="_top" xlink:title="Declares the interface for container runtime path factories.">
<polygon fill="white" stroke="black" points="850,-112.5 850,-142.5 996,-142.5 996,-112.5 850,-112.5"/>
<text text-anchor="start" x="858" y="-130.5" font-family="Helvetica,sans-Serif" font-size="10.00">container_runtime_factory</text>
<text text-anchor="middle" x="923" y="-119.5" font-family="Helvetica,sans-Serif" font-size="10.00">_interface.hpp</text>
</a>
</g>
</g>
<!-- Node28&#45;&gt;Node29 -->
<g id="edge60" class="edge">
<title>Node28&#45;&gt;Node29</title>
<path fill="none" stroke="midnightblue" d="M1239,-179.48C1182.65,-170.99 1093.71,-157.38 1006.39,-143.05"/>
<polygon fill="midnightblue" stroke="midnightblue" points="1006.74,-139.56 996.31,-141.38 1005.61,-146.46 1006.74,-139.56"/>
</g>
<!-- Node29&#45;&gt;Node12 -->
<g id="edge62" class="edge">
<title>Node29&#45;&gt;Node12</title>
<path fill="none" stroke="midnightblue" d="M849.85,-114.1C781.66,-102.54 681.8,-85.61 622.21,-75.51"/>
<polygon fill="midnightblue" stroke="midnightblue" points="622.73,-72.05 612.28,-73.83 621.56,-78.95 622.73,-72.05"/>
</g>
<!-- Node29&#45;&gt;Node13 -->
<g id="edge61" class="edge">
<title>Node29&#45;&gt;Node13</title>
<path fill="none" stroke="midnightblue" d="M932.81,-112.34C947.55,-91.05 975.37,-50.89 991.2,-28.03"/>
<polygon fill="midnightblue" stroke="midnightblue" points="994.18,-29.88 997,-19.67 988.42,-25.9 994.18,-29.88"/>
</g>
<!-- Node30&#45;&gt;Node5 -->
<g id="edge67" class="edge">
<title>Node30&#45;&gt;Node5</title>
<path fill="none" stroke="midnightblue" d="M1579.64,-179.35C1580.44,-165.02 1580.95,-135.59 1574,-112 1571.13,-102.26 1565.89,-92.31 1560.94,-84.25"/>
<polygon fill="midnightblue" stroke="midnightblue" points="1563.82,-82.25 1555.43,-75.78 1557.95,-86.07 1563.82,-82.25"/>
</g>
<!-- Node30&#45;&gt;Node12 -->
<g id="edge70" class="edge">
<title>Node30&#45;&gt;Node12</title>
<path fill="none" stroke="midnightblue" d="M1521.26,-185.37C1352.97,-177.61 872.8,-154.55 841,-143 819.19,-135.08 820.22,-121.37 799,-112 741.47,-86.6 669.44,-75.44 622.14,-70.6"/>
<polygon fill="midnightblue" stroke="midnightblue" points="622.43,-67.11 612.14,-69.63 621.76,-74.08 622.43,-67.11"/>
</g>
<!-- Node30&#45;&gt;Node13 -->
<g id="edge68" class="edge">
<title>Node30&#45;&gt;Node13</title>
<path fill="none" stroke="midnightblue" d="M1636.53,-187.09C1710.63,-183.65 1825.67,-169.25 1788,-112 1753.42,-59.45 1719.14,-70.81 1658,-56 1537.8,-26.88 1150.75,-14.79 1035.6,-11.79"/>
<polygon fill="midnightblue" stroke="midnightblue" points="1035.41,-8.28 1025.33,-11.52 1035.24,-15.28 1035.41,-8.28"/>
</g>
<!-- Node30&#45;&gt;Node19 -->
<g id="edge66" class="edge">
<title>Node30&#45;&gt;Node19</title>
<path fill="none" stroke="midnightblue" d="M1573,-179.37C1561.43,-163.42 1534.35,-129.33 1503,-112 1450.89,-83.19 1381.28,-72.8 1340.29,-69.07"/>
<polygon fill="midnightblue" stroke="midnightblue" points="1340.52,-65.58 1330.26,-68.24 1339.94,-72.56 1340.52,-65.58"/>
</g>
<!-- Node30&#45;&gt;Node25 -->
<g id="edge64" class="edge">
<title>Node30&#45;&gt;Node25</title>
<path fill="none" stroke="midnightblue" d="M1557.37,-179.48C1531.58,-169.31 1488.29,-152.26 1458.96,-140.7"/>
<polygon fill="midnightblue" stroke="midnightblue" points="1460.18,-137.42 1449.59,-137.01 1457.62,-143.93 1460.18,-137.42"/>
</g>
<!-- Node30&#45;&gt;Node26 -->
<g id="edge65" class="edge">
<title>Node30&#45;&gt;Node26</title>
<path fill="none" stroke="midnightblue" d="M1636.89,-182.28C1687.18,-175.98 1754.46,-163.86 1771,-143 1808.52,-95.67 1694.96,-76.31 1639.1,-69.8"/>
<polygon fill="midnightblue" stroke="midnightblue" points="1639.39,-66.31 1629.07,-68.7 1638.63,-73.27 1639.39,-66.31"/>
</g>
<!-- Node31 -->
<g id="node31" class="node">
<title>Node31</title>
<g id="a_node31"><a xlink:title=" ">
<polygon fill="white" stroke="#bfbfbf" points="1702.5,-118 1702.5,-137 1761.5,-137 1761.5,-118 1702.5,-118"/>
<text text-anchor="middle" x="1732" y="-125" font-family="Helvetica,sans-Serif" font-size="10.00">sqlite3.h</text>
</a>
</g>
</g>
<!-- Node30&#45;&gt;Node31 -->
<g id="edge69" class="edge">
<title>Node30&#45;&gt;Node31</title>
<path fill="none" stroke="midnightblue" d="M1600.92,-179.48C1627.05,-169.31 1670.91,-152.26 1700.63,-140.7"/>
<polygon fill="midnightblue" stroke="midnightblue" points="1702.07,-143.9 1710.12,-137.01 1699.53,-137.37 1702.07,-143.9"/>
</g>
<!-- Node32&#45;&gt;Node4 -->
<g id="edge76" class="edge">
<title>Node32&#45;&gt;Node4</title>
<path fill="none" stroke="midnightblue" d="M1073.78,-182.63C980.96,-174.91 806.93,-159.75 659,-143 633.9,-140.16 605.62,-136.38 584.15,-133.39"/>
<polygon fill="midnightblue" stroke="midnightblue" points="584.6,-129.92 574.21,-132 583.63,-136.85 584.6,-129.92"/>
</g>
<!-- Node32&#45;&gt;Node5 -->
<g id="edge72" class="edge">
<title>Node32&#45;&gt;Node5</title>
<path fill="none" stroke="midnightblue" d="M1161.6,-179.4C1199.92,-164.35 1282.47,-132.88 1354,-112 1409.91,-95.68 1476.21,-81.44 1515.32,-73.55"/>
<polygon fill="midnightblue" stroke="midnightblue" points="1516.24,-76.94 1525.36,-71.54 1514.87,-70.07 1516.24,-76.94"/>
</g>
<!-- Node32&#45;&gt;Node6 -->
<g id="edge75" class="edge">
<title>Node32&#45;&gt;Node6</title>
<path fill="none" stroke="midnightblue" d="M1073.66,-182.68C975.19,-174.44 795.18,-157.99 732,-143 729,-142.29 725.92,-141.41 722.87,-140.45"/>
<polygon fill="midnightblue" stroke="midnightblue" points="723.95,-137.11 713.35,-137.14 721.65,-143.73 723.95,-137.11"/>
</g>
<!-- Node32&#45;&gt;Node12 -->
<g id="edge78" class="edge">
<title>Node32&#45;&gt;Node12</title>
<path fill="none" stroke="midnightblue" d="M1073.63,-181.74C974.79,-172.15 797.57,-153.78 770,-143 748.06,-134.42 748.18,-122.32 727,-112 693.59,-95.71 653.19,-84.22 622.01,-76.93"/>
<polygon fill="midnightblue" stroke="midnightblue" points="622.76,-73.51 612.23,-74.71 621.21,-80.34 622.76,-73.51"/>
</g>
<!-- Node32&#45;&gt;Node13 -->
<g id="edge74" class="edge">
<title>Node32&#45;&gt;Node13</title>
<path fill="none" stroke="midnightblue" d="M1140.01,-179.43C1139.66,-164.7 1137.38,-134.05 1125,-112 1102.51,-71.93 1057.4,-41.14 1028.78,-24.58"/>
<polygon fill="midnightblue" stroke="midnightblue" points="1030.19,-21.36 1019.76,-19.52 1026.77,-27.47 1030.19,-21.36"/>
</g>
<!-- Node32&#45;&gt;Node19 -->
<g id="edge73" class="edge">
<title>Node32&#45;&gt;Node19</title>
<path fill="none" stroke="midnightblue" d="M1151.67,-179.49C1179.58,-159.15 1250.47,-107.48 1285.61,-81.86"/>
<polygon fill="midnightblue" stroke="midnightblue" points="1288.1,-84.38 1294.12,-75.66 1283.98,-78.72 1288.1,-84.38"/>
</g>
<!-- Node32&#45;&gt;Node20 -->
<g id="edge77" class="edge">
<title>Node32&#45;&gt;Node20</title>
<path fill="none" stroke="midnightblue" d="M1145.03,-179.3C1156.49,-159.5 1184.67,-110.78 1199.88,-84.49"/>
<polygon fill="midnightblue" stroke="midnightblue" points="1203.03,-86.03 1205.01,-75.62 1196.97,-82.53 1203.03,-86.03"/>
</g>
<!-- Node33&#45;&gt;Node4 -->
<g id="edge82" class="edge">
<title>Node33&#45;&gt;Node4</title>
<path fill="none" stroke="midnightblue" d="M672.51,-179.48C648.19,-169.36 607.45,-152.4 579.68,-140.85"/>
<polygon fill="midnightblue" stroke="midnightblue" points="581.03,-137.62 570.45,-137.01 578.34,-144.08 581.03,-137.62"/>
</g>
<!-- Node33&#45;&gt;Node6 -->
<g id="edge81" class="edge">
<title>Node33&#45;&gt;Node6</title>
<path fill="none" stroke="midnightblue" d="M693,-179.48C693,-171.08 693,-157.98 693,-147.16"/>
<polygon fill="midnightblue" stroke="midnightblue" points="696.5,-147.01 693,-137.01 689.5,-147.01 696.5,-147.01"/>
</g>
<!-- Node33&#45;&gt;Node22 -->
<g id="edge83" class="edge">
<title>Node33&#45;&gt;Node22</title>
<path fill="none" stroke="midnightblue" d="M659.58,-179.49C624.17,-170.46 566.63,-155.77 517,-143 512.67,-141.89 508.15,-140.72 503.64,-139.56"/>
<polygon fill="midnightblue" stroke="midnightblue" points="504.42,-136.14 493.86,-137.03 502.67,-142.92 504.42,-136.14"/>
</g>
</g>
</svg>
