<?xml version="1.0" encoding="UTF-8" standalone="no"?>
<!DOCTYPE svg PUBLIC "-//W3C//DTD SVG 1.1//EN"
 "http://www.w3.org/Graphics/SVG/1.1/DTD/svg11.dtd">
<!-- Generated by graphviz version 2.43.0 (0)
 -->
<!-- Title: ui/src/monitor_dashboard.cpp Pages: 1 -->
<svg width="727pt" height="196pt"
 viewBox="0.00 0.00 727.00 196.00" xmlns="http://www.w3.org/2000/svg" xmlns:xlink="http://www.w3.org/1999/xlink">
<g id="graph0" class="graph" transform="scale(1 1) rotate(0) translate(4 192)">
<title>ui/src/monitor_dashboard.cpp</title>
<polygon fill="white" stroke="transparent" points="-4,4 -4,-192 723,-192 723,4 -4,4"/>
<!-- Node1 -->
<g id="node1" class="node">
<title>Node1</title>
<g id="a_node1"><a xlink:title="Implements the MonitorDashboard class for ncurses&#45;based container metrics UI.">
<polygon fill="#bfbfbf" stroke="black" points="402.5,-168.5 402.5,-187.5 563.5,-187.5 563.5,-168.5 402.5,-168.5"/>
<text text-anchor="middle" x="483" y="-175.5" font-family="Helvetica,sans-Serif" font-size="10.00">ui/src/monitor_dashboard.cpp</text>
</a>
</g>
</g>
<!-- Node2 -->
<g id="node2" class="node">
<title>Node2</title>
<g id="a_node2"><a xlink:href="monitor__dashboard_8hpp.html" target="_top" xlink:title="Declares the MonitorDashboard class for ncurses&#45;based container metrics UI.">
<polygon fill="white" stroke="black" points="152,-112.5 152,-131.5 284,-131.5 284,-112.5 152,-112.5"/>
<text text-anchor="middle" x="218" y="-119.5" font-family="Helvetica,sans-Serif" font-size="10.00">monitor_dashboard.hpp</text>
</a>
</g>
</g>
<!-- Node1&#45;&gt;Node2 -->
<g id="edge1" class="edge">
<title>Node1&#45;&gt;Node2</title>
<path fill="none" stroke="midnightblue" d="M441.01,-168.44C394.59,-158.98 319.77,-143.74 269.76,-133.55"/>
<polygon fill="midnightblue" stroke="midnightblue" points="270.29,-130.08 259.79,-131.52 268.89,-136.94 270.29,-130.08"/>
</g>
<!-- Node9 -->
<g id="node9" class="node">
<title>Node9</title>
<g id="a_node9"><a xlink:href="common_8hpp.html" target="_top" xlink:title="Common data structures, constants, and configuration for container monitoring.">
<polygon fill="white" stroke="black" points="420,-56.5 420,-75.5 500,-75.5 500,-56.5 420,-56.5"/>
<text text-anchor="middle" x="460" y="-63.5" font-family="Helvetica,sans-Serif" font-size="10.00">common.hpp</text>
</a>
</g>
</g>
<!-- Node1&#45;&gt;Node9 -->
<g id="edge17" class="edge">
<title>Node1&#45;&gt;Node9</title>
<path fill="none" stroke="midnightblue" d="M454.63,-168.49C437.25,-161.65 416.4,-150.13 406,-132 394.91,-112.67 416,-93.39 434.99,-80.91"/>
<polygon fill="midnightblue" stroke="midnightblue" points="437.04,-83.75 443.71,-75.51 433.36,-77.79 437.04,-83.75"/>
</g>
<!-- Node12 -->
<g id="node12" class="node">
<title>Node12</title>
<g id="a_node12"><a xlink:title=" ">
<polygon fill="white" stroke="#bfbfbf" points="414.5,-112.5 414.5,-131.5 477.5,-131.5 477.5,-112.5 414.5,-112.5"/>
<text text-anchor="middle" x="446" y="-119.5" font-family="Helvetica,sans-Serif" font-size="10.00">ncurses.h</text>
</a>
</g>
</g>
<!-- Node1&#45;&gt;Node12 -->
<g id="edge12" class="edge">
<title>Node1&#45;&gt;Node12</title>
<path fill="none" stroke="midnightblue" d="M476.89,-168.08C471.72,-160.53 464.15,-149.49 457.81,-140.23"/>
<polygon fill="midnightblue" stroke="midnightblue" points="460.54,-138.02 452,-131.75 454.76,-141.98 460.54,-138.02"/>
</g>
<!-- Node13 -->
<g id="node13" class="node">
<title>Node13</title>
<g id="a_node13"><a xlink:title=" ">
<polygon fill="white" stroke="#bfbfbf" points="496,-112.5 496,-131.5 546,-131.5 546,-112.5 496,-112.5"/>
<text text-anchor="middle" x="521" y="-119.5" font-family="Helvetica,sans-Serif" font-size="10.00">chrono</text>
</a>
</g>
</g>
<!-- Node1&#45;&gt;Node13 -->
<g id="edge13" class="edge">
<title>Node1&#45;&gt;Node13</title>
<path fill="none" stroke="midnightblue" d="M489.27,-168.08C494.64,-160.46 502.52,-149.26 509.08,-139.94"/>
<polygon fill="midnightblue" stroke="midnightblue" points="511.95,-141.94 514.84,-131.75 506.22,-137.91 511.95,-141.94"/>
</g>
<!-- Node14 -->
<g id="node14" class="node">
<title>Node14</title>
<g id="a_node14"><a xlink:title=" ">
<polygon fill="white" stroke="#bfbfbf" points="564,-112.5 564,-131.5 624,-131.5 624,-112.5 564,-112.5"/>
<text text-anchor="middle" x="594" y="-119.5" font-family="Helvetica,sans-Serif" font-size="10.00">iostream</text>
</a>
</g>
</g>
<!-- Node1&#45;&gt;Node14 -->
<g id="edge14" class="edge">
<title>Node1&#45;&gt;Node14</title>
<path fill="none" stroke="midnightblue" d="M500.83,-168.32C518.72,-159.62 546.48,-146.12 567.05,-136.11"/>
<polygon fill="midnightblue" stroke="midnightblue" points="568.75,-139.18 576.21,-131.65 565.69,-132.88 568.75,-139.18"/>
</g>
<!-- Node15 -->
<g id="node15" class="node">
<title>Node15</title>
<g id="a_node15"><a xlink:href="logger_8hpp.html" target="_top" xlink:title="Logging macros for the container monitor application.">
<polygon fill="white" stroke="black" points="642,-112.5 642,-131.5 710,-131.5 710,-112.5 642,-112.5"/>
<text text-anchor="middle" x="676" y="-119.5" font-family="Helvetica,sans-Serif" font-size="10.00">logger.hpp</text>
</a>
</g>
</g>
<!-- Node1&#45;&gt;Node15 -->
<g id="edge15" class="edge">
<title>Node1&#45;&gt;Node15</title>
<path fill="none" stroke="midnightblue" d="M513.58,-168.44C546.61,-159.2 599.39,-144.44 635.77,-134.26"/>
<polygon fill="midnightblue" stroke="midnightblue" points="636.87,-137.58 645.56,-131.52 634.99,-130.84 636.87,-137.58"/>
</g>
<!-- Node3 -->
<g id="node3" class="node">
<title>Node3</title>
<g id="a_node3"><a xlink:title=" ">
<polygon fill="white" stroke="#bfbfbf" points="0,-56.5 0,-75.5 38,-75.5 38,-56.5 0,-56.5"/>
<text text-anchor="middle" x="19" y="-63.5" font-family="Helvetica,sans-Serif" font-size="10.00">map</text>
</a>
</g>
</g>
<!-- Node2&#45;&gt;Node3 -->
<g id="edge2" class="edge">
<title>Node2&#45;&gt;Node3</title>
<path fill="none" stroke="midnightblue" d="M183.46,-112.49C150.84,-104.33 100.35,-91.36 48.03,-76.19"/>
<polygon fill="midnightblue" stroke="midnightblue" points="48.82,-72.78 38.24,-73.33 46.86,-79.5 48.82,-72.78"/>
</g>
<!-- Node4 -->
<g id="node4" class="node">
<title>Node4</title>
<g id="a_node4"><a xlink:title=" ">
<polygon fill="white" stroke="#bfbfbf" points="56,-56.5 56,-75.5 104,-75.5 104,-56.5 56,-56.5"/>
<text text-anchor="middle" x="80" y="-63.5" font-family="Helvetica,sans-Serif" font-size="10.00">mutex</text>
</a>
</g>
</g>
<!-- Node2&#45;&gt;Node4 -->
<g id="edge3" class="edge">
<title>Node2&#45;&gt;Node4</title>
<path fill="none" stroke="midnightblue" d="M196.13,-112.44C173.22,-103.48 137.02,-89.31 111.13,-79.18"/>
<polygon fill="midnightblue" stroke="midnightblue" points="112.35,-75.9 101.76,-75.52 109.8,-82.42 112.35,-75.9"/>
</g>
<!-- Node5 -->
<g id="node5" class="node">
<title>Node5</title>
<g id="a_node5"><a xlink:title=" ">
<polygon fill="white" stroke="#bfbfbf" points="242,-0.5 242,-19.5 286,-19.5 286,-0.5 242,-0.5"/>
<text text-anchor="middle" x="264" y="-7.5" font-family="Helvetica,sans-Serif" font-size="10.00">string</text>
</a>
</g>
</g>
<!-- Node2&#45;&gt;Node5 -->
<g id="edge4" class="edge">
<title>Node2&#45;&gt;Node5</title>
<path fill="none" stroke="midnightblue" d="M196.91,-112.45C171.81,-100.98 135.17,-79.34 151,-56 168.89,-29.62 204.98,-18.7 231.58,-14.19"/>
<polygon fill="midnightblue" stroke="midnightblue" points="232.22,-17.63 241.6,-12.7 231.2,-10.7 232.22,-17.63"/>
</g>
<!-- Node6 -->
<g id="node6" class="node">
<title>Node6</title>
<g id="a_node6"><a xlink:title=" ">
<polygon fill="white" stroke="#bfbfbf" points="160,-56.5 160,-75.5 210,-75.5 210,-56.5 160,-56.5"/>
<text text-anchor="middle" x="185" y="-63.5" font-family="Helvetica,sans-Serif" font-size="10.00">atomic</text>
</a>
</g>
</g>
<!-- Node2&#45;&gt;Node6 -->
<g id="edge5" class="edge">
<title>Node2&#45;&gt;Node6</title>
<path fill="none" stroke="midnightblue" d="M212.55,-112.08C207.99,-104.61 201.33,-93.72 195.71,-84.52"/>
<polygon fill="midnightblue" stroke="midnightblue" points="198.55,-82.46 190.35,-75.75 192.58,-86.11 198.55,-82.46"/>
</g>
<!-- Node7 -->
<g id="node7" class="node">
<title>Node7</title>
<g id="a_node7"><a xlink:title=" ">
<polygon fill="white" stroke="#bfbfbf" points="228,-56.5 228,-75.5 276,-75.5 276,-56.5 228,-56.5"/>
<text text-anchor="middle" x="252" y="-63.5" font-family="Helvetica,sans-Serif" font-size="10.00">thread</text>
</a>
</g>
</g>
<!-- Node2&#45;&gt;Node7 -->
<g id="edge6" class="edge">
<title>Node2&#45;&gt;Node7</title>
<path fill="none" stroke="midnightblue" d="M223.61,-112.08C228.37,-104.53 235.32,-93.49 241.15,-84.23"/>
<polygon fill="midnightblue" stroke="midnightblue" points="244.12,-86.08 246.49,-75.75 238.2,-82.35 244.12,-86.08"/>
</g>
<!-- Node8 -->
<g id="node8" class="node">
<title>Node8</title>
<g id="a_node8"><a xlink:title=" ">
<polygon fill="white" stroke="#bfbfbf" points="294.5,-56.5 294.5,-75.5 401.5,-75.5 401.5,-56.5 294.5,-56.5"/>
<text text-anchor="middle" x="348" y="-63.5" font-family="Helvetica,sans-Serif" font-size="10.00">condition_variable</text>
</a>
</g>
</g>
<!-- Node2&#45;&gt;Node8 -->
<g id="edge7" class="edge">
<title>Node2&#45;&gt;Node8</title>
<path fill="none" stroke="midnightblue" d="M238.6,-112.44C259.99,-103.56 293.68,-89.56 318.02,-79.45"/>
<polygon fill="midnightblue" stroke="midnightblue" points="319.61,-82.58 327.5,-75.52 316.92,-76.12 319.61,-82.58"/>
</g>
<!-- Node2&#45;&gt;Node9 -->
<g id="edge8" class="edge">
<title>Node2&#45;&gt;Node9</title>
<path fill="none" stroke="midnightblue" d="M256.35,-112.44C298.47,-103.04 366.21,-87.93 411.87,-77.74"/>
<polygon fill="midnightblue" stroke="midnightblue" points="412.84,-81.11 421.83,-75.52 411.31,-74.28 412.84,-81.11"/>
</g>
<!-- Node9&#45;&gt;Node5 -->
<g id="edge9" class="edge">
<title>Node9&#45;&gt;Node5</title>
<path fill="none" stroke="midnightblue" d="M428.94,-56.44C392.54,-46.41 332.51,-29.88 295.79,-19.76"/>
<polygon fill="midnightblue" stroke="midnightblue" points="296.66,-16.37 286.09,-17.09 294.8,-23.12 296.66,-16.37"/>
</g>
<!-- Node10 -->
<g id="node10" class="node">
<title>Node10</title>
<g id="a_node10"><a xlink:title=" ">
<polygon fill="white" stroke="#bfbfbf" points="395,-0.5 395,-19.5 445,-19.5 445,-0.5 395,-0.5"/>
<text text-anchor="middle" x="420" y="-7.5" font-family="Helvetica,sans-Serif" font-size="10.00">cstring</text>
</a>
</g>
</g>
<!-- Node9&#45;&gt;Node10 -->
<g id="edge10" class="edge">
<title>Node9&#45;&gt;Node10</title>
<path fill="none" stroke="midnightblue" d="M453.39,-56.08C447.74,-48.46 439.46,-37.26 432.55,-27.94"/>
<polygon fill="midnightblue" stroke="midnightblue" points="435.25,-25.7 426.48,-19.75 429.62,-29.87 435.25,-25.7"/>
</g>
<!-- Node11 -->
<g id="node11" class="node">
<title>Node11</title>
<g id="a_node11"><a xlink:title=" ">
<polygon fill="white" stroke="#bfbfbf" points="463.5,-0.5 463.5,-19.5 536.5,-19.5 536.5,-0.5 463.5,-0.5"/>
<text text-anchor="middle" x="500" y="-7.5" font-family="Helvetica,sans-Serif" font-size="10.00">string_view</text>
</a>
</g>
</g>
<!-- Node9&#45;&gt;Node11 -->
<g id="edge11" class="edge">
<title>Node9&#45;&gt;Node11</title>
<path fill="none" stroke="midnightblue" d="M466.61,-56.08C472.26,-48.46 480.54,-37.26 487.45,-27.94"/>
<polygon fill="midnightblue" stroke="midnightblue" points="490.38,-29.87 493.52,-19.75 484.75,-25.7 490.38,-29.87"/>
</g>
<!-- Node16 -->
<g id="node16" class="node">
<title>Node16</title>
<g id="a_node16"><a xlink:title=" ">
<polygon fill="white" stroke="#bfbfbf" points="633,-56.5 633,-75.5 719,-75.5 719,-56.5 633,-56.5"/>
<text text-anchor="middle" x="676" y="-63.5" font-family="Helvetica,sans-Serif" font-size="10.00">glog/logging.h</text>
</a>
</g>
</g>
<!-- Node15&#45;&gt;Node16 -->
<g id="edge16" class="edge">
<title>Node15&#45;&gt;Node16</title>
<path fill="none" stroke="midnightblue" d="M676,-112.08C676,-105.01 676,-94.86 676,-85.99"/>
<polygon fill="midnightblue" stroke="midnightblue" points="679.5,-85.75 676,-75.75 672.5,-85.75 679.5,-85.75"/>
</g>
</g>
</svg>
