<?xml version="1.0" encoding="UTF-8" standalone="no"?>
<!DOCTYPE svg PUBLIC "-//W3C//DTD SVG 1.1//EN"
 "http://www.w3.org/Graphics/SVG/1.1/DTD/svg11.dtd">
<!-- Generated by graphviz version 2.43.0 (0)
 -->
<!-- Title: ui/src/monitor_dashboard.cpp Pages: 1 -->
<svg width="819pt" height="196pt"
 viewBox="0.00 0.00 818.50 196.00" xmlns="http://www.w3.org/2000/svg" xmlns:xlink="http://www.w3.org/1999/xlink">
<g id="graph0" class="graph" transform="scale(1 1) rotate(0) translate(4 192)">
<title>ui/src/monitor_dashboard.cpp</title>
<polygon fill="white" stroke="transparent" points="-4,4 -4,-192 814.5,-192 814.5,4 -4,4"/>
<!-- Node1 -->
<g id="node1" class="node">
<title>Node1</title>
<g id="a_node1"><a xlink:title="Implements the MonitorDashboard class for ncurses&#45;based container metrics UI.">
<polygon fill="#bfbfbf" stroke="black" points="450,-168.5 450,-187.5 611,-187.5 611,-168.5 450,-168.5"/>
<text text-anchor="middle" x="530.5" y="-175.5" font-family="Helvetica,sans-Serif" font-size="10.00">ui/src/monitor_dashboard.cpp</text>
</a>
</g>
</g>
<!-- Node2 -->
<g id="node2" class="node">
<title>Node2</title>
<g id="a_node2"><a xlink:href="monitor__dashboard_8hpp.html" target="_top" xlink:title="Declares the MonitorDashboard class for ncurses&#45;based container metrics UI.">
<polygon fill="white" stroke="black" points="161.5,-112.5 161.5,-131.5 293.5,-131.5 293.5,-112.5 161.5,-112.5"/>
<text text-anchor="middle" x="227.5" y="-119.5" font-family="Helvetica,sans-Serif" font-size="10.00">monitor_dashboard.hpp</text>
</a>
</g>
</g>
<!-- Node1&#45;&gt;Node2 -->
<g id="edge1" class="edge">
<title>Node1&#45;&gt;Node2</title>
<path fill="none" stroke="midnightblue" d="M482.49,-168.44C428.97,-158.9 342.43,-143.48 285.26,-133.29"/>
<polygon fill="midnightblue" stroke="midnightblue" points="285.75,-129.83 275.29,-131.52 284.52,-136.72 285.75,-129.83"/>
</g>
<!-- Node9 -->
<g id="node9" class="node">
<title>Node9</title>
<g id="a_node9"><a xlink:href="common_8hpp.html" target="_top" xlink:title="Common data structures, constants, and configuration for container monitoring.">
<polygon fill="white" stroke="black" points="429.5,-56.5 429.5,-75.5 509.5,-75.5 509.5,-56.5 429.5,-56.5"/>
<text text-anchor="middle" x="469.5" y="-63.5" font-family="Helvetica,sans-Serif" font-size="10.00">common.hpp</text>
</a>
</g>
</g>
<!-- Node1&#45;&gt;Node9 -->
<g id="edge18" class="edge">
<title>Node1&#45;&gt;Node9</title>
<path fill="none" stroke="midnightblue" d="M472.72,-168.45C451.06,-162.12 428.55,-151.12 415.5,-132 402.81,-113.4 424.75,-93.74 444.35,-80.97"/>
<polygon fill="midnightblue" stroke="midnightblue" points="446.38,-83.84 453.06,-75.62 442.71,-77.87 446.38,-83.84"/>
</g>
<!-- Node12 -->
<g id="node12" class="node">
<title>Node12</title>
<g id="a_node12"><a xlink:title=" ">
<polygon fill="white" stroke="#bfbfbf" points="424,-112.5 424,-131.5 487,-131.5 487,-112.5 424,-112.5"/>
<text text-anchor="middle" x="455.5" y="-119.5" font-family="Helvetica,sans-Serif" font-size="10.00">ncurses.h</text>
</a>
</g>
</g>
<!-- Node1&#45;&gt;Node12 -->
<g id="edge12" class="edge">
<title>Node1&#45;&gt;Node12</title>
<path fill="none" stroke="midnightblue" d="M518.45,-168.32C507.04,-160.11 489.67,-147.6 476.07,-137.81"/>
<polygon fill="midnightblue" stroke="midnightblue" points="477.93,-134.84 467.77,-131.83 473.84,-140.52 477.93,-134.84"/>
</g>
<!-- Node13 -->
<g id="node13" class="node">
<title>Node13</title>
<g id="a_node13"><a xlink:title=" ">
<polygon fill="white" stroke="#bfbfbf" points="505.5,-112.5 505.5,-131.5 555.5,-131.5 555.5,-112.5 505.5,-112.5"/>
<text text-anchor="middle" x="530.5" y="-119.5" font-family="Helvetica,sans-Serif" font-size="10.00">chrono</text>
</a>
</g>
</g>
<!-- Node1&#45;&gt;Node13 -->
<g id="edge13" class="edge">
<title>Node1&#45;&gt;Node13</title>
<path fill="none" stroke="midnightblue" d="M530.5,-168.08C530.5,-161.01 530.5,-150.86 530.5,-141.99"/>
<polygon fill="midnightblue" stroke="midnightblue" points="534,-141.75 530.5,-131.75 527,-141.75 534,-141.75"/>
</g>
<!-- Node14 -->
<g id="node14" class="node">
<title>Node14</title>
<g id="a_node14"><a xlink:title=" ">
<polygon fill="white" stroke="#bfbfbf" points="573.5,-112.5 573.5,-131.5 633.5,-131.5 633.5,-112.5 573.5,-112.5"/>
<text text-anchor="middle" x="603.5" y="-119.5" font-family="Helvetica,sans-Serif" font-size="10.00">iostream</text>
</a>
</g>
</g>
<!-- Node1&#45;&gt;Node14 -->
<g id="edge14" class="edge">
<title>Node1&#45;&gt;Node14</title>
<path fill="none" stroke="midnightblue" d="M542.23,-168.32C553.34,-160.11 570.24,-147.6 583.48,-137.81"/>
<polygon fill="midnightblue" stroke="midnightblue" points="585.6,-140.59 591.56,-131.83 581.44,-134.97 585.6,-140.59"/>
</g>
<!-- Node15 -->
<g id="node15" class="node">
<title>Node15</title>
<g id="a_node15"><a xlink:title=" ">
<polygon fill="white" stroke="#bfbfbf" points="651.5,-112.5 651.5,-131.5 715.5,-131.5 715.5,-112.5 651.5,-112.5"/>
<text text-anchor="middle" x="683.5" y="-119.5" font-family="Helvetica,sans-Serif" font-size="10.00">algorithm</text>
</a>
</g>
</g>
<!-- Node1&#45;&gt;Node15 -->
<g id="edge15" class="edge">
<title>Node1&#45;&gt;Node15</title>
<path fill="none" stroke="midnightblue" d="M554.74,-168.44C580.37,-159.4 620.99,-145.06 649.74,-134.92"/>
<polygon fill="midnightblue" stroke="midnightblue" points="651.11,-138.15 659.37,-131.52 648.78,-131.54 651.11,-138.15"/>
</g>
<!-- Node16 -->
<g id="node16" class="node">
<title>Node16</title>
<g id="a_node16"><a xlink:href="logger_8hpp.html" target="_top" xlink:title="Logging macros for the container monitor application.">
<polygon fill="white" stroke="black" points="733.5,-112.5 733.5,-131.5 801.5,-131.5 801.5,-112.5 733.5,-112.5"/>
<text text-anchor="middle" x="767.5" y="-119.5" font-family="Helvetica,sans-Serif" font-size="10.00">logger.hpp</text>
</a>
</g>
</g>
<!-- Node1&#45;&gt;Node16 -->
<g id="edge16" class="edge">
<title>Node1&#45;&gt;Node16</title>
<path fill="none" stroke="midnightblue" d="M568.05,-168.44C610.19,-158.84 678.49,-143.28 723.2,-133.09"/>
<polygon fill="midnightblue" stroke="midnightblue" points="724.23,-136.45 733.2,-130.82 722.67,-129.62 724.23,-136.45"/>
</g>
<!-- Node3 -->
<g id="node3" class="node">
<title>Node3</title>
<g id="a_node3"><a xlink:title=" ">
<polygon fill="white" stroke="#bfbfbf" points="0,-56.5 0,-75.5 47,-75.5 47,-56.5 0,-56.5"/>
<text text-anchor="middle" x="23.5" y="-63.5" font-family="Helvetica,sans-Serif" font-size="10.00">vector</text>
</a>
</g>
</g>
<!-- Node2&#45;&gt;Node3 -->
<g id="edge2" class="edge">
<title>Node2&#45;&gt;Node3</title>
<path fill="none" stroke="midnightblue" d="M194.7,-112.46C162.2,-103.98 110.78,-90.51 57,-76.12"/>
<polygon fill="midnightblue" stroke="midnightblue" points="57.85,-72.72 47.29,-73.51 56.04,-79.48 57.85,-72.72"/>
</g>
<!-- Node4 -->
<g id="node4" class="node">
<title>Node4</title>
<g id="a_node4"><a xlink:title=" ">
<polygon fill="white" stroke="#bfbfbf" points="65.5,-56.5 65.5,-75.5 113.5,-75.5 113.5,-56.5 65.5,-56.5"/>
<text text-anchor="middle" x="89.5" y="-63.5" font-family="Helvetica,sans-Serif" font-size="10.00">mutex</text>
</a>
</g>
</g>
<!-- Node2&#45;&gt;Node4 -->
<g id="edge3" class="edge">
<title>Node2&#45;&gt;Node4</title>
<path fill="none" stroke="midnightblue" d="M205.63,-112.44C182.72,-103.48 146.52,-89.31 120.63,-79.18"/>
<polygon fill="midnightblue" stroke="midnightblue" points="121.85,-75.9 111.26,-75.52 119.3,-82.42 121.85,-75.9"/>
</g>
<!-- Node5 -->
<g id="node5" class="node">
<title>Node5</title>
<g id="a_node5"><a xlink:title=" ">
<polygon fill="white" stroke="#bfbfbf" points="251.5,-0.5 251.5,-19.5 295.5,-19.5 295.5,-0.5 251.5,-0.5"/>
<text text-anchor="middle" x="273.5" y="-7.5" font-family="Helvetica,sans-Serif" font-size="10.00">string</text>
</a>
</g>
</g>
<!-- Node2&#45;&gt;Node5 -->
<g id="edge4" class="edge">
<title>Node2&#45;&gt;Node5</title>
<path fill="none" stroke="midnightblue" d="M206.41,-112.45C181.31,-100.98 144.67,-79.34 160.5,-56 178.39,-29.62 214.48,-18.7 241.08,-14.19"/>
<polygon fill="midnightblue" stroke="midnightblue" points="241.72,-17.63 251.1,-12.7 240.7,-10.7 241.72,-17.63"/>
</g>
<!-- Node6 -->
<g id="node6" class="node">
<title>Node6</title>
<g id="a_node6"><a xlink:title=" ">
<polygon fill="white" stroke="#bfbfbf" points="169.5,-56.5 169.5,-75.5 219.5,-75.5 219.5,-56.5 169.5,-56.5"/>
<text text-anchor="middle" x="194.5" y="-63.5" font-family="Helvetica,sans-Serif" font-size="10.00">atomic</text>
</a>
</g>
</g>
<!-- Node2&#45;&gt;Node6 -->
<g id="edge5" class="edge">
<title>Node2&#45;&gt;Node6</title>
<path fill="none" stroke="midnightblue" d="M222.05,-112.08C217.49,-104.61 210.83,-93.72 205.21,-84.52"/>
<polygon fill="midnightblue" stroke="midnightblue" points="208.05,-82.46 199.85,-75.75 202.08,-86.11 208.05,-82.46"/>
</g>
<!-- Node7 -->
<g id="node7" class="node">
<title>Node7</title>
<g id="a_node7"><a xlink:title=" ">
<polygon fill="white" stroke="#bfbfbf" points="237.5,-56.5 237.5,-75.5 285.5,-75.5 285.5,-56.5 237.5,-56.5"/>
<text text-anchor="middle" x="261.5" y="-63.5" font-family="Helvetica,sans-Serif" font-size="10.00">thread</text>
</a>
</g>
</g>
<!-- Node2&#45;&gt;Node7 -->
<g id="edge6" class="edge">
<title>Node2&#45;&gt;Node7</title>
<path fill="none" stroke="midnightblue" d="M233.11,-112.08C237.87,-104.53 244.82,-93.49 250.65,-84.23"/>
<polygon fill="midnightblue" stroke="midnightblue" points="253.62,-86.08 255.99,-75.75 247.7,-82.35 253.62,-86.08"/>
</g>
<!-- Node8 -->
<g id="node8" class="node">
<title>Node8</title>
<g id="a_node8"><a xlink:title=" ">
<polygon fill="white" stroke="#bfbfbf" points="304,-56.5 304,-75.5 411,-75.5 411,-56.5 304,-56.5"/>
<text text-anchor="middle" x="357.5" y="-63.5" font-family="Helvetica,sans-Serif" font-size="10.00">condition_variable</text>
</a>
</g>
</g>
<!-- Node2&#45;&gt;Node8 -->
<g id="edge7" class="edge">
<title>Node2&#45;&gt;Node8</title>
<path fill="none" stroke="midnightblue" d="M248.1,-112.44C269.49,-103.56 303.18,-89.56 327.52,-79.45"/>
<polygon fill="midnightblue" stroke="midnightblue" points="329.11,-82.58 337,-75.52 326.42,-76.12 329.11,-82.58"/>
</g>
<!-- Node2&#45;&gt;Node9 -->
<g id="edge8" class="edge">
<title>Node2&#45;&gt;Node9</title>
<path fill="none" stroke="midnightblue" d="M265.85,-112.44C307.97,-103.04 375.71,-87.93 421.37,-77.74"/>
<polygon fill="midnightblue" stroke="midnightblue" points="422.34,-81.11 431.33,-75.52 420.81,-74.28 422.34,-81.11"/>
</g>
<!-- Node9&#45;&gt;Node5 -->
<g id="edge9" class="edge">
<title>Node9&#45;&gt;Node5</title>
<path fill="none" stroke="midnightblue" d="M438.44,-56.44C402.04,-46.41 342.01,-29.88 305.29,-19.76"/>
<polygon fill="midnightblue" stroke="midnightblue" points="306.16,-16.37 295.59,-17.09 304.3,-23.12 306.16,-16.37"/>
</g>
<!-- Node10 -->
<g id="node10" class="node">
<title>Node10</title>
<g id="a_node10"><a xlink:title=" ">
<polygon fill="white" stroke="#bfbfbf" points="404.5,-0.5 404.5,-19.5 454.5,-19.5 454.5,-0.5 404.5,-0.5"/>
<text text-anchor="middle" x="429.5" y="-7.5" font-family="Helvetica,sans-Serif" font-size="10.00">cstring</text>
</a>
</g>
</g>
<!-- Node9&#45;&gt;Node10 -->
<g id="edge10" class="edge">
<title>Node9&#45;&gt;Node10</title>
<path fill="none" stroke="midnightblue" d="M462.89,-56.08C457.24,-48.46 448.96,-37.26 442.05,-27.94"/>
<polygon fill="midnightblue" stroke="midnightblue" points="444.75,-25.7 435.98,-19.75 439.12,-29.87 444.75,-25.7"/>
</g>
<!-- Node11 -->
<g id="node11" class="node">
<title>Node11</title>
<g id="a_node11"><a xlink:title=" ">
<polygon fill="white" stroke="#bfbfbf" points="473,-0.5 473,-19.5 546,-19.5 546,-0.5 473,-0.5"/>
<text text-anchor="middle" x="509.5" y="-7.5" font-family="Helvetica,sans-Serif" font-size="10.00">string_view</text>
</a>
</g>
</g>
<!-- Node9&#45;&gt;Node11 -->
<g id="edge11" class="edge">
<title>Node9&#45;&gt;Node11</title>
<path fill="none" stroke="midnightblue" d="M476.11,-56.08C481.76,-48.46 490.04,-37.26 496.95,-27.94"/>
<polygon fill="midnightblue" stroke="midnightblue" points="499.88,-29.87 503.02,-19.75 494.25,-25.7 499.88,-29.87"/>
</g>
<!-- Node17 -->
<g id="node17" class="node">
<title>Node17</title>
<g id="a_node17"><a xlink:title=" ">
<polygon fill="white" stroke="#bfbfbf" points="724.5,-56.5 724.5,-75.5 810.5,-75.5 810.5,-56.5 724.5,-56.5"/>
<text text-anchor="middle" x="767.5" y="-63.5" font-family="Helvetica,sans-Serif" font-size="10.00">glog/logging.h</text>
</a>
</g>
</g>
<!-- Node16&#45;&gt;Node17 -->
<g id="edge17" class="edge">
<title>Node16&#45;&gt;Node17</title>
<path fill="none" stroke="midnightblue" d="M767.5,-112.08C767.5,-105.01 767.5,-94.86 767.5,-85.99"/>
<polygon fill="midnightblue" stroke="midnightblue" points="771,-85.75 767.5,-75.75 764,-85.75 771,-85.75"/>
</g>
</g>
</svg>
