<?xml version="1.0" encoding="UTF-8" standalone="no"?>
<!DOCTYPE svg PUBLIC "-//W3C//DTD SVG 1.1//EN"
 "http://www.w3.org/Graphics/SVG/1.1/DTD/svg11.dtd">
<!-- Generated by graphviz version 2.43.0 (0)
 -->
<!-- Title: monitoring_service/inc/resource_thread_pool.hpp Pages: 1 -->
<svg width="888pt" height="229pt"
 viewBox="0.00 0.00 888.00 229.00" xmlns="http://www.w3.org/2000/svg" xmlns:xlink="http://www.w3.org/1999/xlink">
<g id="graph0" class="graph" transform="scale(1 1) rotate(0) translate(4 225)">
<title>monitoring_service/inc/resource_thread_pool.hpp</title>
<polygon fill="white" stroke="transparent" points="-4,4 -4,-225 884,-225 884,4 -4,4"/>
<!-- Node1 -->
<g id="node1" class="node">
<title>Node1</title>
<g id="a_node1"><a xlink:title="Declares the ResourceThreadPool class for parallel container resource monitoring.">
<polygon fill="#bfbfbf" stroke="black" points="375.5,-179.5 375.5,-220.5 491.5,-220.5 491.5,-179.5 375.5,-179.5"/>
<text text-anchor="start" x="383.5" y="-208.5" font-family="Helvetica,sans-Serif" font-size="10.00">monitoring_service</text>
<text text-anchor="start" x="383.5" y="-197.5" font-family="Helvetica,sans-Serif" font-size="10.00">/inc/resource_thread</text>
<text text-anchor="middle" x="433.5" y="-186.5" font-family="Helvetica,sans-Serif" font-size="10.00">_pool.hpp</text>
</a>
</g>
</g>
<!-- Node2 -->
<g id="node2" class="node">
<title>Node2</title>
<g id="a_node2"><a xlink:title=" ">
<polygon fill="white" stroke="#bfbfbf" points="0,-56.5 0,-75.5 47,-75.5 47,-56.5 0,-56.5"/>
<text text-anchor="middle" x="23.5" y="-63.5" font-family="Helvetica,sans-Serif" font-size="10.00">vector</text>
</a>
</g>
</g>
<!-- Node1&#45;&gt;Node2 -->
<g id="edge1" class="edge">
<title>Node1&#45;&gt;Node2</title>
<path fill="none" stroke="midnightblue" d="M375.46,-197.4C281.63,-193.7 102.22,-181.64 53.5,-143 35.91,-129.05 28.61,-103.31 25.59,-85.68"/>
<polygon fill="midnightblue" stroke="midnightblue" points="29.04,-85.12 24.19,-75.7 22.11,-86.09 29.04,-85.12"/>
</g>
<!-- Node3 -->
<g id="node3" class="node">
<title>Node3</title>
<g id="a_node3"><a xlink:title=" ">
<polygon fill="white" stroke="#bfbfbf" points="461.5,-118 461.5,-137 509.5,-137 509.5,-118 461.5,-118"/>
<text text-anchor="middle" x="485.5" y="-125" font-family="Helvetica,sans-Serif" font-size="10.00">thread</text>
</a>
</g>
</g>
<!-- Node1&#45;&gt;Node3 -->
<g id="edge2" class="edge">
<title>Node1&#45;&gt;Node3</title>
<path fill="none" stroke="midnightblue" d="M447.98,-179.36C455.89,-168.65 465.57,-155.52 473.12,-145.29"/>
<polygon fill="midnightblue" stroke="midnightblue" points="475.98,-147.3 479.1,-137.17 470.35,-143.14 475.98,-147.3"/>
</g>
<!-- Node4 -->
<g id="node4" class="node">
<title>Node4</title>
<g id="a_node4"><a xlink:title=" ">
<polygon fill="white" stroke="#bfbfbf" points="527.5,-118 527.5,-137 577.5,-137 577.5,-118 527.5,-118"/>
<text text-anchor="middle" x="552.5" y="-125" font-family="Helvetica,sans-Serif" font-size="10.00">atomic</text>
</a>
</g>
</g>
<!-- Node1&#45;&gt;Node4 -->
<g id="edge3" class="edge">
<title>Node1&#45;&gt;Node4</title>
<path fill="none" stroke="midnightblue" d="M466.65,-179.36C486.56,-167.57 511.41,-152.85 529.24,-142.28"/>
<polygon fill="midnightblue" stroke="midnightblue" points="531.04,-145.28 537.86,-137.17 527.47,-139.26 531.04,-145.28"/>
</g>
<!-- Node5 -->
<g id="node5" class="node">
<title>Node5</title>
<g id="a_node5"><a xlink:title=" ">
<polygon fill="white" stroke="#bfbfbf" points="100.5,-56.5 100.5,-75.5 138.5,-75.5 138.5,-56.5 100.5,-56.5"/>
<text text-anchor="middle" x="119.5" y="-63.5" font-family="Helvetica,sans-Serif" font-size="10.00">map</text>
</a>
</g>
</g>
<!-- Node1&#45;&gt;Node5 -->
<g id="edge4" class="edge">
<title>Node1&#45;&gt;Node5</title>
<path fill="none" stroke="midnightblue" d="M375.45,-199.05C281.39,-197.75 102.17,-189.11 62.5,-143 53.51,-132.56 56.49,-124.4 62.5,-112 68.9,-98.8 81.25,-88.3 92.83,-80.78"/>
<polygon fill="midnightblue" stroke="midnightblue" points="94.66,-83.77 101.42,-75.61 91.05,-77.77 94.66,-83.77"/>
</g>
<!-- Node6 -->
<g id="node6" class="node">
<title>Node6</title>
<g id="a_node6"><a xlink:title=" ">
<polygon fill="white" stroke="#bfbfbf" points="595.5,-118 595.5,-137 643.5,-137 643.5,-118 595.5,-118"/>
<text text-anchor="middle" x="619.5" y="-125" font-family="Helvetica,sans-Serif" font-size="10.00">mutex</text>
</a>
</g>
</g>
<!-- Node1&#45;&gt;Node6 -->
<g id="edge5" class="edge">
<title>Node1&#45;&gt;Node6</title>
<path fill="none" stroke="midnightblue" d="M489.42,-179.49C518.53,-169.09 554.62,-155.83 586.5,-143 587.92,-142.43 589.36,-141.84 590.82,-141.23"/>
<polygon fill="midnightblue" stroke="midnightblue" points="592.57,-144.29 600.39,-137.14 589.82,-137.85 592.57,-144.29"/>
</g>
<!-- Node7 -->
<g id="node7" class="node">
<title>Node7</title>
<g id="a_node7"><a xlink:title=" ">
<polygon fill="white" stroke="#bfbfbf" points="223.5,-0.5 223.5,-19.5 267.5,-19.5 267.5,-0.5 223.5,-0.5"/>
<text text-anchor="middle" x="245.5" y="-7.5" font-family="Helvetica,sans-Serif" font-size="10.00">string</text>
</a>
</g>
</g>
<!-- Node1&#45;&gt;Node7 -->
<g id="edge6" class="edge">
<title>Node1&#45;&gt;Node7</title>
<path fill="none" stroke="midnightblue" d="M375.38,-197.95C333.56,-193.81 279.58,-180.79 250.5,-143 225.06,-109.93 233.25,-57.2 240.12,-29.45"/>
<polygon fill="midnightblue" stroke="midnightblue" points="243.58,-30.09 242.8,-19.52 236.82,-28.27 243.58,-30.09"/>
</g>
<!-- Node8 -->
<g id="node8" class="node">
<title>Node8</title>
<g id="a_node8"><a xlink:title=" ">
<polygon fill="white" stroke="#bfbfbf" points="662,-118 662,-137 755,-137 755,-118 662,-118"/>
<text text-anchor="middle" x="708.5" y="-125" font-family="Helvetica,sans-Serif" font-size="10.00">unordered_map</text>
</a>
</g>
</g>
<!-- Node1&#45;&gt;Node8 -->
<g id="edge7" class="edge">
<title>Node1&#45;&gt;Node8</title>
<path fill="none" stroke="midnightblue" d="M491.61,-184.19C535.75,-172.93 597.96,-157.03 652.5,-143 656.83,-141.89 661.35,-140.72 665.86,-139.56"/>
<polygon fill="midnightblue" stroke="midnightblue" points="666.83,-142.92 675.64,-137.03 665.08,-136.14 666.83,-142.92"/>
</g>
<!-- Node9 -->
<g id="node9" class="node">
<title>Node9</title>
<g id="a_node9"><a xlink:title=" ">
<polygon fill="white" stroke="#bfbfbf" points="773,-118 773,-137 880,-137 880,-118 773,-118"/>
<text text-anchor="middle" x="826.5" y="-125" font-family="Helvetica,sans-Serif" font-size="10.00">condition_variable</text>
</a>
</g>
</g>
<!-- Node1&#45;&gt;Node9 -->
<g id="edge8" class="edge">
<title>Node1&#45;&gt;Node9</title>
<path fill="none" stroke="midnightblue" d="M491.7,-190.27C557.97,-180.08 669.37,-162.15 764.5,-143 770.19,-141.85 776.16,-140.57 782.05,-139.25"/>
<polygon fill="midnightblue" stroke="midnightblue" points="782.86,-142.65 791.82,-137.01 781.3,-135.83 782.86,-142.65"/>
</g>
<!-- Node10 -->
<g id="node10" class="node">
<title>Node10</title>
<g id="a_node10"><a xlink:href="database__interface_8hpp.html" target="_top" xlink:title="Declares the abstract interface for database operations in container monitoring.">
<polygon fill="white" stroke="black" points="72,-118 72,-137 203,-137 203,-118 72,-118"/>
<text text-anchor="middle" x="137.5" y="-125" font-family="Helvetica,sans-Serif" font-size="10.00">database_interface.hpp</text>
</a>
</g>
</g>
<!-- Node1&#45;&gt;Node10 -->
<g id="edge9" class="edge">
<title>Node1&#45;&gt;Node10</title>
<path fill="none" stroke="midnightblue" d="M375.37,-185.16C319.18,-171.77 235.17,-151.76 183.49,-139.45"/>
<polygon fill="midnightblue" stroke="midnightblue" points="184.14,-136.01 173.6,-137.1 182.52,-142.82 184.14,-136.01"/>
</g>
<!-- Node11 -->
<g id="node11" class="node">
<title>Node11</title>
<g id="a_node11"><a xlink:href="common_8hpp.html" target="_top" xlink:title="Common data structures, constants, and configuration for container monitoring.">
<polygon fill="white" stroke="black" points="297.5,-56.5 297.5,-75.5 377.5,-75.5 377.5,-56.5 297.5,-56.5"/>
<text text-anchor="middle" x="337.5" y="-63.5" font-family="Helvetica,sans-Serif" font-size="10.00">common.hpp</text>
</a>
</g>
</g>
<!-- Node1&#45;&gt;Node11 -->
<g id="edge17" class="edge">
<title>Node1&#45;&gt;Node11</title>
<path fill="none" stroke="midnightblue" d="M433.59,-179.2C432.73,-160.27 428.86,-131.76 414.5,-112 403.95,-97.48 387.16,-86.88 371.95,-79.63"/>
<polygon fill="midnightblue" stroke="midnightblue" points="373.31,-76.41 362.75,-75.54 370.47,-82.8 373.31,-76.41"/>
</g>
<!-- Node14 -->
<g id="node14" class="node">
<title>Node14</title>
<g id="a_node14"><a xlink:href="container__runtime__factory__interface_8hpp.html" target="_top" xlink:title="Declares the interface for container runtime path factories.">
<polygon fill="white" stroke="black" points="259.5,-112.5 259.5,-142.5 405.5,-142.5 405.5,-112.5 259.5,-112.5"/>
<text text-anchor="start" x="267.5" y="-130.5" font-family="Helvetica,sans-Serif" font-size="10.00">container_runtime_factory</text>
<text text-anchor="middle" x="332.5" y="-119.5" font-family="Helvetica,sans-Serif" font-size="10.00">_interface.hpp</text>
</a>
</g>
</g>
<!-- Node1&#45;&gt;Node14 -->
<g id="edge18" class="edge">
<title>Node1&#45;&gt;Node14</title>
<path fill="none" stroke="midnightblue" d="M405.37,-179.36C391.54,-169.71 374.91,-158.11 361.04,-148.42"/>
<polygon fill="midnightblue" stroke="midnightblue" points="363,-145.52 352.8,-142.67 359,-151.26 363,-145.52"/>
</g>
<!-- Node10&#45;&gt;Node2 -->
<g id="edge10" class="edge">
<title>Node10&#45;&gt;Node2</title>
<path fill="none" stroke="midnightblue" d="M121.17,-117.98C102.29,-108.12 70.99,-91.79 48.92,-80.27"/>
<polygon fill="midnightblue" stroke="midnightblue" points="50.29,-77.03 39.8,-75.51 47.05,-83.24 50.29,-77.03"/>
</g>
<!-- Node10&#45;&gt;Node5 -->
<g id="edge11" class="edge">
<title>Node10&#45;&gt;Node5</title>
<path fill="none" stroke="midnightblue" d="M134.92,-117.98C132.35,-109.49 128.33,-96.2 125.04,-85.32"/>
<polygon fill="midnightblue" stroke="midnightblue" points="128.32,-84.07 122.07,-75.51 121.62,-86.09 128.32,-84.07"/>
</g>
<!-- Node10&#45;&gt;Node7 -->
<g id="edge12" class="edge">
<title>Node10&#45;&gt;Node7</title>
<path fill="none" stroke="midnightblue" d="M145.62,-117.82C163.6,-98.59 207.03,-52.14 230.25,-27.31"/>
<polygon fill="midnightblue" stroke="midnightblue" points="233.01,-29.48 237.29,-19.78 227.9,-24.7 233.01,-29.48"/>
</g>
<!-- Node10&#45;&gt;Node11 -->
<g id="edge13" class="edge">
<title>Node10&#45;&gt;Node11</title>
<path fill="none" stroke="midnightblue" d="M166.16,-117.98C201.06,-107.59 260.15,-90.01 299,-78.45"/>
<polygon fill="midnightblue" stroke="midnightblue" points="300.31,-81.72 308.9,-75.51 298.32,-75.01 300.31,-81.72"/>
</g>
<!-- Node11&#45;&gt;Node7 -->
<g id="edge14" class="edge">
<title>Node11&#45;&gt;Node7</title>
<path fill="none" stroke="midnightblue" d="M322.72,-56.32C308.23,-47.82 285.93,-34.73 269.01,-24.8"/>
<polygon fill="midnightblue" stroke="midnightblue" points="270.64,-21.7 260.24,-19.65 267.1,-27.74 270.64,-21.7"/>
</g>
<!-- Node12 -->
<g id="node12" class="node">
<title>Node12</title>
<g id="a_node12"><a xlink:title=" ">
<polygon fill="white" stroke="#bfbfbf" points="384.5,-0.5 384.5,-19.5 434.5,-19.5 434.5,-0.5 384.5,-0.5"/>
<text text-anchor="middle" x="409.5" y="-7.5" font-family="Helvetica,sans-Serif" font-size="10.00">cstring</text>
</a>
</g>
</g>
<!-- Node11&#45;&gt;Node12 -->
<g id="edge15" class="edge">
<title>Node11&#45;&gt;Node12</title>
<path fill="none" stroke="midnightblue" d="M349.07,-56.32C359.92,-48.18 376.38,-35.84 389.38,-26.09"/>
<polygon fill="midnightblue" stroke="midnightblue" points="391.82,-28.63 397.72,-19.83 387.62,-23.03 391.82,-28.63"/>
</g>
<!-- Node13 -->
<g id="node13" class="node">
<title>Node13</title>
<g id="a_node13"><a xlink:title=" ">
<polygon fill="white" stroke="#bfbfbf" points="293,-0.5 293,-19.5 366,-19.5 366,-0.5 293,-0.5"/>
<text text-anchor="middle" x="329.5" y="-7.5" font-family="Helvetica,sans-Serif" font-size="10.00">string_view</text>
</a>
</g>
</g>
<!-- Node11&#45;&gt;Node13 -->
<g id="edge16" class="edge">
<title>Node11&#45;&gt;Node13</title>
<path fill="none" stroke="midnightblue" d="M336.18,-56.08C335.12,-48.93 333.59,-38.64 332.27,-29.69"/>
<polygon fill="midnightblue" stroke="midnightblue" points="335.72,-29.13 330.8,-19.75 328.8,-30.16 335.72,-29.13"/>
</g>
<!-- Node14&#45;&gt;Node7 -->
<g id="edge19" class="edge">
<title>Node14&#45;&gt;Node7</title>
<path fill="none" stroke="midnightblue" d="M319.27,-112.34C310.25,-102.45 298.22,-88.77 288.5,-76 276.63,-60.41 264.43,-41.65 256.07,-28.3"/>
<polygon fill="midnightblue" stroke="midnightblue" points="258.96,-26.32 250.72,-19.66 253.01,-30.01 258.96,-26.32"/>
</g>
<!-- Node14&#45;&gt;Node11 -->
<g id="edge20" class="edge">
<title>Node14&#45;&gt;Node11</title>
<path fill="none" stroke="midnightblue" d="M333.68,-112.4C334.35,-104.47 335.19,-94.46 335.92,-85.86"/>
<polygon fill="midnightblue" stroke="midnightblue" points="339.42,-85.92 336.77,-75.66 332.45,-85.33 339.42,-85.92"/>
</g>
</g>
</svg>
