<?xml version="1.0" encoding="UTF-8" standalone="no"?>
<!DOCTYPE svg PUBLIC "-//W3C//DTD SVG 1.1//EN"
 "http://www.w3.org/Graphics/SVG/1.1/DTD/svg11.dtd">
<!-- Generated by graphviz version 2.43.0 (0)
 -->
<!-- Title: monitoring_service/inc/resource_thread_pool.hpp Pages: 1 -->
<svg width="343pt" height="195pt"
 viewBox="0.00 0.00 343.00 195.00" xmlns="http://www.w3.org/2000/svg" xmlns:xlink="http://www.w3.org/1999/xlink">
<g id="graph0" class="graph" transform="scale(1 1) rotate(0) translate(4 191)">
<title>monitoring_service/inc/resource_thread_pool.hpp</title>
<polygon fill="white" stroke="transparent" points="-4,4 -4,-191 339,-191 339,4 -4,4"/>
<!-- Node1 -->
<g id="node1" class="node">
<title>Node1</title>
<g id="a_node1"><a xlink:title="Declares the ResourceThreadPool class for parallel container resource monitoring.">
<polygon fill="#bfbfbf" stroke="black" points="83,-145.5 83,-186.5 199,-186.5 199,-145.5 83,-145.5"/>
<text text-anchor="start" x="91" y="-174.5" font-family="Helvetica,sans-Serif" font-size="10.00">monitoring_service</text>
<text text-anchor="start" x="91" y="-163.5" font-family="Helvetica,sans-Serif" font-size="10.00">/inc/resource_thread</text>
<text text-anchor="middle" x="141" y="-152.5" font-family="Helvetica,sans-Serif" font-size="10.00">_pool.hpp</text>
</a>
</g>
</g>
<!-- Node2 -->
<g id="node2" class="node">
<title>Node2</title>
<g id="a_node2"><a xlink:href="main_8cpp.html" target="_top" xlink:title="Entry point for the Container Monitor application.">
<polygon fill="white" stroke="black" points="0,-6 0,-25 62,-25 62,-6 0,-6"/>
<text text-anchor="middle" x="31" y="-13" font-family="Helvetica,sans-Serif" font-size="10.00">main.cpp</text>
</a>
</g>
</g>
<!-- Node1&#45;&gt;Node2 -->
<g id="edge1" class="edge">
<title>Node1&#45;&gt;Node2</title>
<path fill="none" stroke="midnightblue" d="M73.31,-152.27C49.15,-144.12 24.37,-130.78 10,-109 -7.69,-82.2 13.75,-42.56 24.98,-25.19"/>
<polygon fill="midnightblue" stroke="midnightblue" points="72.28,-155.62 82.87,-155.25 74.37,-148.94 72.28,-155.62"/>
</g>
<!-- Node3 -->
<g id="node3" class="node">
<title>Node3</title>
<g id="a_node3"><a xlink:href="resource__monitor_8hpp.html" target="_top" xlink:title="Declares the ResourceMonitor class for tracking live containers and managing resource threads.">
<polygon fill="white" stroke="black" points="19.5,-73 19.5,-103 162.5,-103 162.5,-73 19.5,-73"/>
<text text-anchor="start" x="27.5" y="-91" font-family="Helvetica,sans-Serif" font-size="10.00">monitoring_service</text>
<text text-anchor="middle" x="91" y="-80" font-family="Helvetica,sans-Serif" font-size="10.00">/inc/resource_monitor.hpp</text>
</a>
</g>
</g>
<!-- Node1&#45;&gt;Node3 -->
<g id="edge2" class="edge">
<title>Node1&#45;&gt;Node3</title>
<path fill="none" stroke="midnightblue" d="M122.57,-136.98C115.01,-125.5 106.6,-112.71 100.36,-103.23"/>
<polygon fill="midnightblue" stroke="midnightblue" points="119.7,-139 128.12,-145.43 125.55,-135.15 119.7,-139"/>
</g>
<!-- Node4 -->
<g id="node4" class="node">
<title>Node4</title>
<g id="a_node4"><a xlink:href="resource__monitor_8cpp.html" target="_top" xlink:title="Implements the ResourceMonitor class for tracking live containers and managing resource threads.">
<polygon fill="white" stroke="black" points="100,-0.5 100,-30.5 242,-30.5 242,-0.5 100,-0.5"/>
<text text-anchor="start" x="108" y="-18.5" font-family="Helvetica,sans-Serif" font-size="10.00">monitoring_service</text>
<text text-anchor="middle" x="171" y="-7.5" font-family="Helvetica,sans-Serif" font-size="10.00">/src/resource_monitor.cpp</text>
</a>
</g>
</g>
<!-- Node1&#45;&gt;Node4 -->
<g id="edge5" class="edge">
<title>Node1&#45;&gt;Node4</title>
<path fill="none" stroke="midnightblue" d="M160.35,-136.57C165.11,-128.07 169.55,-118.48 172,-109 178.99,-81.94 176.02,-48.93 173.39,-30.56"/>
<polygon fill="midnightblue" stroke="midnightblue" points="157.25,-134.93 155.13,-145.31 163.26,-138.52 157.25,-134.93"/>
</g>
<!-- Node5 -->
<g id="node5" class="node">
<title>Node5</title>
<g id="a_node5"><a xlink:href="resource__thread__pool_8cpp.html" target="_top" xlink:title="Implements the ResourceThreadPool class for parallel container resource monitoring.">
<polygon fill="white" stroke="black" points="219,-67.5 219,-108.5 335,-108.5 335,-67.5 219,-67.5"/>
<text text-anchor="start" x="227" y="-96.5" font-family="Helvetica,sans-Serif" font-size="10.00">monitoring_service</text>
<text text-anchor="start" x="227" y="-85.5" font-family="Helvetica,sans-Serif" font-size="10.00">/src/resource_thread</text>
<text text-anchor="middle" x="277" y="-74.5" font-family="Helvetica,sans-Serif" font-size="10.00">_pool.cpp</text>
</a>
</g>
</g>
<!-- Node1&#45;&gt;Node5 -->
<g id="edge6" class="edge">
<title>Node1&#45;&gt;Node5</title>
<path fill="none" stroke="midnightblue" d="M184.87,-140.49C203.39,-130.13 224.66,-118.25 242.1,-108.51"/>
<polygon fill="midnightblue" stroke="midnightblue" points="183.05,-137.49 176.02,-145.43 186.46,-143.61 183.05,-137.49"/>
</g>
<!-- Node3&#45;&gt;Node2 -->
<g id="edge3" class="edge">
<title>Node3&#45;&gt;Node2</title>
<path fill="none" stroke="midnightblue" d="M72.18,-64.88C60.82,-51.54 46.96,-35.26 38.57,-25.39"/>
<polygon fill="midnightblue" stroke="midnightblue" points="69.71,-67.39 78.86,-72.73 75.04,-62.85 69.71,-67.39"/>
</g>
<!-- Node3&#45;&gt;Node4 -->
<g id="edge4" class="edge">
<title>Node3&#45;&gt;Node4</title>
<path fill="none" stroke="midnightblue" d="M114.87,-65.96C127.87,-54.5 143.61,-40.64 155.11,-30.5"/>
<polygon fill="midnightblue" stroke="midnightblue" points="112.38,-63.5 107.19,-72.73 117.01,-68.75 112.38,-63.5"/>
</g>
</g>
</svg>
