<?xml version="1.0" encoding="UTF-8" standalone="no"?>
<!DOCTYPE svg PUBLIC "-//W3C//DTD SVG 1.1//EN"
 "http://www.w3.org/Graphics/SVG/1.1/DTD/svg11.dtd">
<!-- Generated by graphviz version 2.43.0 (0)
 -->
<!-- Title: monitoring_service/src/resource_thread_pool.cpp Pages: 1 -->
<svg width="1647pt" height="285pt"
 viewBox="0.00 0.00 1646.50 285.00" xmlns="http://www.w3.org/2000/svg" xmlns:xlink="http://www.w3.org/1999/xlink">
<g id="graph0" class="graph" transform="scale(1 1) rotate(0) translate(4 281)">
<title>monitoring_service/src/resource_thread_pool.cpp</title>
<polygon fill="white" stroke="transparent" points="-4,4 -4,-281 1642.5,-281 1642.5,4 -4,4"/>
<!-- Node1 -->
<g id="node1" class="node">
<title>Node1</title>
<g id="a_node1"><a xlink:title="Implements the ResourceThreadPool class for parallel container resource monitoring.">
<polygon fill="#bfbfbf" stroke="black" points="1085.5,-235.5 1085.5,-276.5 1201.5,-276.5 1201.5,-235.5 1085.5,-235.5"/>
<text text-anchor="start" x="1093.5" y="-264.5" font-family="Helvetica,sans-Serif" font-size="10.00">monitoring_service</text>
<text text-anchor="start" x="1093.5" y="-253.5" font-family="Helvetica,sans-Serif" font-size="10.00">/src/resource_thread</text>
<text text-anchor="middle" x="1143.5" y="-242.5" font-family="Helvetica,sans-Serif" font-size="10.00">_pool.cpp</text>
</a>
</g>
</g>
<!-- Node2 -->
<g id="node2" class="node">
<title>Node2</title>
<g id="a_node2"><a xlink:href="resource__thread__pool_8hpp.html" target="_top" xlink:title="Declares the ResourceThreadPool class for parallel container resource monitoring.">
<polygon fill="white" stroke="black" points="383,-179.5 383,-198.5 526,-198.5 526,-179.5 383,-179.5"/>
<text text-anchor="middle" x="454.5" y="-186.5" font-family="Helvetica,sans-Serif" font-size="10.00">resource_thread_pool.hpp</text>
</a>
</g>
</g>
<!-- Node1&#45;&gt;Node2 -->
<g id="edge1" class="edge">
<title>Node1&#45;&gt;Node2</title>
<path fill="none" stroke="midnightblue" d="M1085.35,-249.51C962.78,-237.95 677.62,-211.05 536.54,-197.74"/>
<polygon fill="midnightblue" stroke="midnightblue" points="536.51,-194.22 526.23,-196.77 535.86,-201.19 536.51,-194.22"/>
</g>
<!-- Node3 -->
<g id="node3" class="node">
<title>Node3</title>
<g id="a_node3"><a xlink:title=" ">
<polygon fill="white" stroke="#bfbfbf" points="0,-56.5 0,-75.5 47,-75.5 47,-56.5 0,-56.5"/>
<text text-anchor="middle" x="23.5" y="-63.5" font-family="Helvetica,sans-Serif" font-size="10.00">vector</text>
</a>
</g>
</g>
<!-- Node1&#45;&gt;Node3 -->
<g id="edge25" class="edge">
<title>Node1&#45;&gt;Node3</title>
<path fill="none" stroke="midnightblue" d="M1085.31,-253.63C884.1,-248.62 225.15,-230.02 135.5,-199 94.48,-184.81 82.77,-176.77 55.5,-143 41.76,-125.99 33.03,-102.22 28.21,-85.81"/>
<polygon fill="midnightblue" stroke="midnightblue" points="31.49,-84.54 25.49,-75.81 24.74,-86.37 31.49,-84.54"/>
</g>
<!-- Node6 -->
<g id="node6" class="node">
<title>Node6</title>
<g id="a_node6"><a xlink:title=" ">
<polygon fill="white" stroke="#bfbfbf" points="80.5,-56.5 80.5,-75.5 118.5,-75.5 118.5,-56.5 80.5,-56.5"/>
<text text-anchor="middle" x="99.5" y="-63.5" font-family="Helvetica,sans-Serif" font-size="10.00">map</text>
</a>
</g>
</g>
<!-- Node1&#45;&gt;Node6 -->
<g id="edge22" class="edge">
<title>Node1&#45;&gt;Node6</title>
<path fill="none" stroke="midnightblue" d="M1085.28,-253.32C956.45,-249.03 637.74,-235.36 373.5,-199 249.93,-182 177.41,-239.6 98.5,-143 85.49,-127.07 88.69,-102.37 93.19,-85.48"/>
<polygon fill="midnightblue" stroke="midnightblue" points="96.61,-86.26 96.17,-75.68 89.91,-84.22 96.61,-86.26"/>
</g>
<!-- Node7 -->
<g id="node7" class="node">
<title>Node7</title>
<g id="a_node7"><a xlink:title=" ">
<polygon fill="white" stroke="#bfbfbf" points="613.5,-118 613.5,-137 661.5,-137 661.5,-118 613.5,-118"/>
<text text-anchor="middle" x="637.5" y="-125" font-family="Helvetica,sans-Serif" font-size="10.00">mutex</text>
</a>
</g>
</g>
<!-- Node1&#45;&gt;Node7 -->
<g id="edge24" class="edge">
<title>Node1&#45;&gt;Node7</title>
<path fill="none" stroke="midnightblue" d="M1085.33,-244.99C995.05,-228.63 816.42,-192.9 670.5,-143 668.63,-142.36 666.73,-141.66 664.82,-140.92"/>
<polygon fill="midnightblue" stroke="midnightblue" points="666.02,-137.63 655.44,-137.04 663.34,-144.1 666.02,-137.63"/>
</g>
<!-- Node9 -->
<g id="node9" class="node">
<title>Node9</title>
<g id="a_node9"><a xlink:title=" ">
<polygon fill="white" stroke="#bfbfbf" points="680,-118 680,-137 773,-137 773,-118 680,-118"/>
<text text-anchor="middle" x="726.5" y="-125" font-family="Helvetica,sans-Serif" font-size="10.00">unordered_map</text>
</a>
</g>
</g>
<!-- Node1&#45;&gt;Node9 -->
<g id="edge30" class="edge">
<title>Node1&#45;&gt;Node9</title>
<path fill="none" stroke="midnightblue" d="M1085.08,-237.28C998.16,-210.91 837.23,-162.09 764.24,-139.95"/>
<polygon fill="midnightblue" stroke="midnightblue" points="765.13,-136.56 754.54,-137.01 763.1,-143.26 765.13,-136.56"/>
</g>
<!-- Node12 -->
<g id="node12" class="node">
<title>Node12</title>
<g id="a_node12"><a xlink:href="common_8hpp.html" target="_top" xlink:title="Common data structures, constants, and configuration for container monitoring.">
<polygon fill="white" stroke="black" points="950.5,-56.5 950.5,-75.5 1030.5,-75.5 1030.5,-56.5 950.5,-56.5"/>
<text text-anchor="middle" x="990.5" y="-63.5" font-family="Helvetica,sans-Serif" font-size="10.00">common.hpp</text>
</a>
</g>
</g>
<!-- Node1&#45;&gt;Node12 -->
<g id="edge31" class="edge">
<title>Node1&#45;&gt;Node12</title>
<path fill="none" stroke="midnightblue" d="M1157.37,-235.2C1176.4,-205.34 1205.18,-148.44 1176.5,-112 1159.91,-90.92 1090.22,-78.52 1041.03,-72.25"/>
<polygon fill="midnightblue" stroke="midnightblue" points="1041.23,-68.75 1030.87,-71 1040.37,-75.69 1041.23,-68.75"/>
</g>
<!-- Node13 -->
<g id="node13" class="node">
<title>Node13</title>
<g id="a_node13"><a xlink:title=" ">
<polygon fill="white" stroke="#bfbfbf" points="1116.5,-0.5 1116.5,-19.5 1166.5,-19.5 1166.5,-0.5 1116.5,-0.5"/>
<text text-anchor="middle" x="1141.5" y="-7.5" font-family="Helvetica,sans-Serif" font-size="10.00">cstring</text>
</a>
</g>
</g>
<!-- Node1&#45;&gt;Node13 -->
<g id="edge27" class="edge">
<title>Node1&#45;&gt;Node13</title>
<path fill="none" stroke="midnightblue" d="M1168.06,-235.28C1178.24,-225.56 1188.96,-212.93 1194.5,-199 1208.78,-163.06 1204.9,-149.51 1195.5,-112 1187.49,-80.01 1167.19,-47.08 1153.89,-27.85"/>
<polygon fill="midnightblue" stroke="midnightblue" points="1156.65,-25.7 1148.01,-19.58 1150.95,-29.75 1156.65,-25.7"/>
</g>
<!-- Node16 -->
<g id="node16" class="node">
<title>Node16</title>
<g id="a_node16"><a xlink:title=" ">
<polygon fill="white" stroke="#bfbfbf" points="1262,-179.5 1262,-198.5 1309,-198.5 1309,-179.5 1262,-179.5"/>
<text text-anchor="middle" x="1285.5" y="-186.5" font-family="Helvetica,sans-Serif" font-size="10.00">cmath</text>
</a>
</g>
</g>
<!-- Node1&#45;&gt;Node16 -->
<g id="edge23" class="edge">
<title>Node1&#45;&gt;Node16</title>
<path fill="none" stroke="midnightblue" d="M1186.1,-235.5C1209.13,-224.96 1236.93,-212.23 1257.27,-202.92"/>
<polygon fill="midnightblue" stroke="midnightblue" points="1258.96,-206 1266.6,-198.65 1256.05,-199.63 1258.96,-206"/>
</g>
<!-- Node17 -->
<g id="node17" class="node">
<title>Node17</title>
<g id="a_node17"><a xlink:title=" ">
<polygon fill="white" stroke="#bfbfbf" points="1327.5,-179.5 1327.5,-198.5 1377.5,-198.5 1377.5,-179.5 1327.5,-179.5"/>
<text text-anchor="middle" x="1352.5" y="-186.5" font-family="Helvetica,sans-Serif" font-size="10.00">chrono</text>
</a>
</g>
</g>
<!-- Node1&#45;&gt;Node17 -->
<g id="edge26" class="edge">
<title>Node1&#45;&gt;Node17</title>
<path fill="none" stroke="midnightblue" d="M1201.72,-236.89C1238.99,-225.3 1286.11,-210.65 1317.67,-200.83"/>
<polygon fill="midnightblue" stroke="midnightblue" points="1318.82,-204.14 1327.33,-197.83 1316.74,-197.46 1318.82,-204.14"/>
</g>
<!-- Node18 -->
<g id="node18" class="node">
<title>Node18</title>
<g id="a_node18"><a xlink:title=" ">
<polygon fill="white" stroke="#bfbfbf" points="1396,-179.5 1396,-198.5 1461,-198.5 1461,-179.5 1396,-179.5"/>
<text text-anchor="middle" x="1428.5" y="-186.5" font-family="Helvetica,sans-Serif" font-size="10.00">mqueue.h</text>
</a>
</g>
</g>
<!-- Node1&#45;&gt;Node18 -->
<g id="edge28" class="edge">
<title>Node1&#45;&gt;Node18</title>
<path fill="none" stroke="midnightblue" d="M1201.52,-241.77C1256.22,-229.29 1336.91,-210.89 1385.9,-199.72"/>
<polygon fill="midnightblue" stroke="midnightblue" points="1386.88,-203.08 1395.85,-197.45 1385.33,-196.26 1386.88,-203.08"/>
</g>
<!-- Node19 -->
<g id="node19" class="node">
<title>Node19</title>
<g id="a_node19"><a xlink:title=" ">
<polygon fill="white" stroke="#bfbfbf" points="1479.5,-179.5 1479.5,-198.5 1543.5,-198.5 1543.5,-179.5 1479.5,-179.5"/>
<text text-anchor="middle" x="1511.5" y="-186.5" font-family="Helvetica,sans-Serif" font-size="10.00">algorithm</text>
</a>
</g>
</g>
<!-- Node1&#45;&gt;Node19 -->
<g id="edge29" class="edge">
<title>Node1&#45;&gt;Node19</title>
<path fill="none" stroke="midnightblue" d="M1201.54,-245.9C1264.91,-235.77 1369.64,-218.48 1469.36,-199.15"/>
<polygon fill="midnightblue" stroke="midnightblue" points="1470.15,-202.56 1479.3,-197.22 1468.82,-195.69 1470.15,-202.56"/>
</g>
<!-- Node20 -->
<g id="node20" class="node">
<title>Node20</title>
<g id="a_node20"><a xlink:href="logger_8hpp.html" target="_top" xlink:title="Logging macros for the container monitor application.">
<polygon fill="white" stroke="black" points="1561.5,-179.5 1561.5,-198.5 1629.5,-198.5 1629.5,-179.5 1561.5,-179.5"/>
<text text-anchor="middle" x="1595.5" y="-186.5" font-family="Helvetica,sans-Serif" font-size="10.00">logger.hpp</text>
</a>
</g>
</g>
<!-- Node1&#45;&gt;Node20 -->
<g id="edge32" class="edge">
<title>Node1&#45;&gt;Node20</title>
<path fill="none" stroke="midnightblue" d="M1201.61,-248.35C1279.06,-239.19 1420.61,-221.45 1551.1,-199.14"/>
<polygon fill="midnightblue" stroke="midnightblue" points="1552.01,-202.54 1561.27,-197.39 1550.82,-195.64 1552.01,-202.54"/>
</g>
<!-- Node22 -->
<g id="node22" class="node">
<title>Node22</title>
<g id="a_node22"><a xlink:href="metrics__reader_8hpp.html" target="_top" xlink:title="Declares the MetricsReader class for reading container and host metrics.">
<polygon fill="white" stroke="black" points="955.5,-118 955.5,-137 1065.5,-137 1065.5,-118 955.5,-118"/>
<text text-anchor="middle" x="1010.5" y="-125" font-family="Helvetica,sans-Serif" font-size="10.00">metrics_reader.hpp</text>
</a>
</g>
</g>
<!-- Node1&#45;&gt;Node22 -->
<g id="edge34" class="edge">
<title>Node1&#45;&gt;Node22</title>
<path fill="none" stroke="midnightblue" d="M1085.26,-246.61C1056.43,-239.19 1024.12,-225.24 1006.5,-199 996.27,-183.77 999.37,-162.25 1003.71,-147"/>
<polygon fill="midnightblue" stroke="midnightblue" points="1007.14,-147.78 1006.91,-137.18 1000.48,-145.6 1007.14,-147.78"/>
</g>
<!-- Node23 -->
<g id="node23" class="node">
<title>Node23</title>
<g id="a_node23"><a xlink:href="docker__cgroup__v1__path_8hpp.html" target="_top" xlink:title="Declares the DockerCgroupV1PathFactory for Docker cgroup v1 resource paths.">
<polygon fill="white" stroke="black" points="1015.5,-179.5 1015.5,-198.5 1167.5,-198.5 1167.5,-179.5 1015.5,-179.5"/>
<text text-anchor="middle" x="1091.5" y="-186.5" font-family="Helvetica,sans-Serif" font-size="10.00">docker_cgroup_v1_path.hpp</text>
</a>
</g>
</g>
<!-- Node1&#45;&gt;Node23 -->
<g id="edge37" class="edge">
<title>Node1&#45;&gt;Node23</title>
<path fill="none" stroke="midnightblue" d="M1127.9,-235.5C1120.54,-226.3 1111.85,-215.44 1104.81,-206.63"/>
<polygon fill="midnightblue" stroke="midnightblue" points="1107.4,-204.27 1098.42,-198.65 1101.94,-208.65 1107.4,-204.27"/>
</g>
<!-- Node2&#45;&gt;Node3 -->
<g id="edge2" class="edge">
<title>Node2&#45;&gt;Node3</title>
<path fill="none" stroke="midnightblue" d="M382.89,-184.47C293.67,-179.13 147.02,-166.97 98.5,-143 71.33,-129.57 48.27,-102.3 35.16,-84.34"/>
<polygon fill="midnightblue" stroke="midnightblue" points="37.85,-82.09 29.24,-75.92 32.12,-86.11 37.85,-82.09"/>
</g>
<!-- Node4 -->
<g id="node4" class="node">
<title>Node4</title>
<g id="a_node4"><a xlink:title=" ">
<polygon fill="white" stroke="#bfbfbf" points="315.5,-118 315.5,-137 363.5,-137 363.5,-118 315.5,-118"/>
<text text-anchor="middle" x="339.5" y="-125" font-family="Helvetica,sans-Serif" font-size="10.00">thread</text>
</a>
</g>
</g>
<!-- Node2&#45;&gt;Node4 -->
<g id="edge3" class="edge">
<title>Node2&#45;&gt;Node4</title>
<path fill="none" stroke="midnightblue" d="M438.02,-179.48C418.89,-169.58 387.13,-153.14 364.85,-141.62"/>
<polygon fill="midnightblue" stroke="midnightblue" points="366.44,-138.5 355.95,-137.01 363.22,-144.71 366.44,-138.5"/>
</g>
<!-- Node5 -->
<g id="node5" class="node">
<title>Node5</title>
<g id="a_node5"><a xlink:title=" ">
<polygon fill="white" stroke="#bfbfbf" points="381.5,-118 381.5,-137 431.5,-137 431.5,-118 381.5,-118"/>
<text text-anchor="middle" x="406.5" y="-125" font-family="Helvetica,sans-Serif" font-size="10.00">atomic</text>
</a>
</g>
</g>
<!-- Node2&#45;&gt;Node5 -->
<g id="edge4" class="edge">
<title>Node2&#45;&gt;Node5</title>
<path fill="none" stroke="midnightblue" d="M447.62,-179.48C440.35,-170.46 428.7,-156.02 419.66,-144.81"/>
<polygon fill="midnightblue" stroke="midnightblue" points="422.37,-142.59 413.36,-137.01 416.92,-146.99 422.37,-142.59"/>
</g>
<!-- Node2&#45;&gt;Node6 -->
<g id="edge5" class="edge">
<title>Node2&#45;&gt;Node6</title>
<path fill="none" stroke="midnightblue" d="M382.66,-187.56C295.75,-185.5 156.34,-176.83 118.5,-143 102.53,-128.72 99.02,-103.25 98.68,-85.76"/>
<polygon fill="midnightblue" stroke="midnightblue" points="102.18,-85.66 98.82,-75.61 95.18,-85.56 102.18,-85.66"/>
</g>
<!-- Node2&#45;&gt;Node7 -->
<g id="edge6" class="edge">
<title>Node2&#45;&gt;Node7</title>
<path fill="none" stroke="midnightblue" d="M483.84,-179.49C513.26,-170.82 559.76,-156.73 599.5,-143 601.75,-142.22 604.07,-141.4 606.4,-140.55"/>
<polygon fill="midnightblue" stroke="midnightblue" points="607.73,-143.79 615.88,-137.02 605.29,-137.23 607.73,-143.79"/>
</g>
<!-- Node8 -->
<g id="node8" class="node">
<title>Node8</title>
<g id="a_node8"><a xlink:title=" ">
<polygon fill="white" stroke="#bfbfbf" points="842.5,-0.5 842.5,-19.5 886.5,-19.5 886.5,-0.5 842.5,-0.5"/>
<text text-anchor="middle" x="864.5" y="-7.5" font-family="Helvetica,sans-Serif" font-size="10.00">string</text>
</a>
</g>
</g>
<!-- Node2&#45;&gt;Node8 -->
<g id="edge7" class="edge">
<title>Node2&#45;&gt;Node8</title>
<path fill="none" stroke="midnightblue" d="M397.65,-179.41C344.15,-168.94 276.41,-148.02 306.5,-112 374.52,-30.56 723.66,-14.66 832.24,-11.67"/>
<polygon fill="midnightblue" stroke="midnightblue" points="832.36,-15.17 842.26,-11.41 832.18,-8.17 832.36,-15.17"/>
</g>
<!-- Node2&#45;&gt;Node9 -->
<g id="edge8" class="edge">
<title>Node2&#45;&gt;Node9</title>
<path fill="none" stroke="midnightblue" d="M498.49,-179.48C542.23,-170.85 611.19,-156.85 670.5,-143 675.15,-141.92 679.99,-140.73 684.81,-139.53"/>
<polygon fill="midnightblue" stroke="midnightblue" points="685.75,-142.9 694.58,-137.05 684.03,-136.12 685.75,-142.9"/>
</g>
<!-- Node10 -->
<g id="node10" class="node">
<title>Node10</title>
<g id="a_node10"><a xlink:title=" ">
<polygon fill="white" stroke="#bfbfbf" points="450,-118 450,-137 557,-137 557,-118 450,-118"/>
<text text-anchor="middle" x="503.5" y="-125" font-family="Helvetica,sans-Serif" font-size="10.00">condition_variable</text>
</a>
</g>
</g>
<!-- Node2&#45;&gt;Node10 -->
<g id="edge9" class="edge">
<title>Node2&#45;&gt;Node10</title>
<path fill="none" stroke="midnightblue" d="M461.52,-179.48C468.94,-170.46 480.83,-156.02 490.07,-144.81"/>
<polygon fill="midnightblue" stroke="midnightblue" points="492.84,-146.95 496.49,-137.01 487.43,-142.5 492.84,-146.95"/>
</g>
<!-- Node11 -->
<g id="node11" class="node">
<title>Node11</title>
<g id="a_node11"><a xlink:href="database__interface_8hpp.html" target="_top" xlink:title="Declares the abstract interface for database operations in container monitoring.">
<polygon fill="white" stroke="black" points="128,-118 128,-137 259,-137 259,-118 128,-118"/>
<text text-anchor="middle" x="193.5" y="-125" font-family="Helvetica,sans-Serif" font-size="10.00">database_interface.hpp</text>
</a>
</g>
</g>
<!-- Node2&#45;&gt;Node11 -->
<g id="edge10" class="edge">
<title>Node2&#45;&gt;Node11</title>
<path fill="none" stroke="midnightblue" d="M417.11,-179.48C370.69,-168.89 291.48,-150.84 240.86,-139.3"/>
<polygon fill="midnightblue" stroke="midnightblue" points="241.35,-135.82 230.83,-137.01 239.8,-142.64 241.35,-135.82"/>
</g>
<!-- Node2&#45;&gt;Node12 -->
<g id="edge18" class="edge">
<title>Node2&#45;&gt;Node12</title>
<path fill="none" stroke="midnightblue" d="M481.52,-179.49C504.64,-171.64 538.38,-158.83 565.5,-143 584.62,-131.84 584.05,-120.5 604.5,-112 664.04,-87.26 849.84,-74.38 940.18,-69.44"/>
<polygon fill="midnightblue" stroke="midnightblue" points="940.39,-72.93 950.19,-68.9 940.01,-65.94 940.39,-72.93"/>
</g>
<!-- Node15 -->
<g id="node15" class="node">
<title>Node15</title>
<g id="a_node15"><a xlink:href="container__runtime__factory__interface_8hpp.html" target="_top" xlink:title="Declares the interface for container runtime path factories.">
<polygon fill="white" stroke="black" points="791.5,-112.5 791.5,-142.5 937.5,-142.5 937.5,-112.5 791.5,-112.5"/>
<text text-anchor="start" x="799.5" y="-130.5" font-family="Helvetica,sans-Serif" font-size="10.00">container_runtime_factory</text>
<text text-anchor="middle" x="864.5" y="-119.5" font-family="Helvetica,sans-Serif" font-size="10.00">_interface.hpp</text>
</a>
</g>
</g>
<!-- Node2&#45;&gt;Node15 -->
<g id="edge19" class="edge">
<title>Node2&#45;&gt;Node15</title>
<path fill="none" stroke="midnightblue" d="M521.61,-179.49C585.59,-171.21 684.89,-157.93 781.28,-143"/>
<polygon fill="midnightblue" stroke="midnightblue" points="781.86,-146.45 791.2,-141.45 780.78,-139.53 781.86,-146.45"/>
</g>
<!-- Node11&#45;&gt;Node3 -->
<g id="edge11" class="edge">
<title>Node11&#45;&gt;Node3</title>
<path fill="none" stroke="midnightblue" d="M169.14,-117.98C139.69,-107.67 89.97,-90.26 56.94,-78.7"/>
<polygon fill="midnightblue" stroke="midnightblue" points="57.86,-75.32 47.26,-75.32 55.55,-81.92 57.86,-75.32"/>
</g>
<!-- Node11&#45;&gt;Node6 -->
<g id="edge12" class="edge">
<title>Node11&#45;&gt;Node6</title>
<path fill="none" stroke="midnightblue" d="M180.03,-117.98C164.82,-108.34 139.81,-92.52 121.7,-81.05"/>
<polygon fill="midnightblue" stroke="midnightblue" points="123.26,-77.9 112.94,-75.51 119.52,-83.81 123.26,-77.9"/>
</g>
<!-- Node11&#45;&gt;Node8 -->
<g id="edge13" class="edge">
<title>Node11&#45;&gt;Node8</title>
<path fill="none" stroke="midnightblue" d="M200.05,-117.83C212.42,-102.22 240.92,-69.74 273.5,-56 375.48,-12.98 723.36,-10.49 831.89,-10.79"/>
<polygon fill="midnightblue" stroke="midnightblue" points="832.19,-14.29 842.21,-10.82 832.22,-7.29 832.19,-14.29"/>
</g>
<!-- Node11&#45;&gt;Node12 -->
<g id="edge14" class="edge">
<title>Node11&#45;&gt;Node12</title>
<path fill="none" stroke="midnightblue" d="M254.41,-117.98C271.26,-115.82 289.57,-113.64 306.5,-112 543.12,-89.06 826.95,-74.52 940.24,-69.24"/>
<polygon fill="midnightblue" stroke="midnightblue" points="940.51,-72.73 950.34,-68.77 940.19,-65.74 940.51,-72.73"/>
</g>
<!-- Node12&#45;&gt;Node8 -->
<g id="edge15" class="edge">
<title>Node12&#45;&gt;Node8</title>
<path fill="none" stroke="midnightblue" d="M970.53,-56.44C949.89,-47.6 917.44,-33.69 893.87,-23.59"/>
<polygon fill="midnightblue" stroke="midnightblue" points="894.94,-20.24 884.37,-19.52 892.18,-26.67 894.94,-20.24"/>
</g>
<!-- Node12&#45;&gt;Node13 -->
<g id="edge16" class="edge">
<title>Node12&#45;&gt;Node13</title>
<path fill="none" stroke="midnightblue" d="M1014.43,-56.44C1039.72,-47.4 1079.8,-33.06 1108.18,-22.92"/>
<polygon fill="midnightblue" stroke="midnightblue" points="1109.45,-26.18 1117.69,-19.52 1107.09,-19.59 1109.45,-26.18"/>
</g>
<!-- Node14 -->
<g id="node14" class="node">
<title>Node14</title>
<g id="a_node14"><a xlink:title=" ">
<polygon fill="white" stroke="#bfbfbf" points="954,-0.5 954,-19.5 1027,-19.5 1027,-0.5 954,-0.5"/>
<text text-anchor="middle" x="990.5" y="-7.5" font-family="Helvetica,sans-Serif" font-size="10.00">string_view</text>
</a>
</g>
</g>
<!-- Node12&#45;&gt;Node14 -->
<g id="edge17" class="edge">
<title>Node12&#45;&gt;Node14</title>
<path fill="none" stroke="midnightblue" d="M990.5,-56.08C990.5,-49.01 990.5,-38.86 990.5,-29.99"/>
<polygon fill="midnightblue" stroke="midnightblue" points="994,-29.75 990.5,-19.75 987,-29.75 994,-29.75"/>
</g>
<!-- Node15&#45;&gt;Node8 -->
<g id="edge20" class="edge">
<title>Node15&#45;&gt;Node8</title>
<path fill="none" stroke="midnightblue" d="M864.5,-112.34C864.5,-91.62 864.5,-53.02 864.5,-29.9"/>
<polygon fill="midnightblue" stroke="midnightblue" points="868,-29.67 864.5,-19.67 861,-29.67 868,-29.67"/>
</g>
<!-- Node15&#45;&gt;Node12 -->
<g id="edge21" class="edge">
<title>Node15&#45;&gt;Node12</title>
<path fill="none" stroke="midnightblue" d="M894.36,-112.4C915.12,-102.59 942.6,-89.62 962.86,-80.05"/>
<polygon fill="midnightblue" stroke="midnightblue" points="964.62,-83.09 972.17,-75.66 961.63,-76.76 964.62,-83.09"/>
</g>
<!-- Node21 -->
<g id="node21" class="node">
<title>Node21</title>
<g id="a_node21"><a xlink:title=" ">
<polygon fill="white" stroke="#bfbfbf" points="1552.5,-118 1552.5,-137 1638.5,-137 1638.5,-118 1552.5,-118"/>
<text text-anchor="middle" x="1595.5" y="-125" font-family="Helvetica,sans-Serif" font-size="10.00">glog/logging.h</text>
</a>
</g>
</g>
<!-- Node20&#45;&gt;Node21 -->
<g id="edge33" class="edge">
<title>Node20&#45;&gt;Node21</title>
<path fill="none" stroke="midnightblue" d="M1595.5,-179.48C1595.5,-171.08 1595.5,-157.98 1595.5,-147.16"/>
<polygon fill="midnightblue" stroke="midnightblue" points="1599,-147.01 1595.5,-137.01 1592,-147.01 1599,-147.01"/>
</g>
<!-- Node22&#45;&gt;Node8 -->
<g id="edge35" class="edge">
<title>Node22&#45;&gt;Node8</title>
<path fill="none" stroke="midnightblue" d="M998.35,-117.99C984.41,-108.15 960.99,-91.33 941.5,-76 920.62,-59.57 897.41,-39.76 881.99,-26.36"/>
<polygon fill="midnightblue" stroke="midnightblue" points="884.12,-23.58 874.29,-19.64 879.52,-28.85 884.12,-23.58"/>
</g>
<!-- Node22&#45;&gt;Node12 -->
<g id="edge36" class="edge">
<title>Node22&#45;&gt;Node12</title>
<path fill="none" stroke="midnightblue" d="M1007.63,-117.98C1004.78,-109.49 1000.32,-96.2 996.66,-85.32"/>
<polygon fill="midnightblue" stroke="midnightblue" points="999.86,-83.87 993.36,-75.51 993.23,-86.1 999.86,-83.87"/>
</g>
<!-- Node23&#45;&gt;Node12 -->
<g id="edge39" class="edge">
<title>Node23&#45;&gt;Node12</title>
<path fill="none" stroke="midnightblue" d="M1091.79,-179.05C1091.84,-163.74 1089.87,-132.24 1074.5,-112 1063.12,-97.02 1045.29,-86.47 1028.97,-79.37"/>
<polygon fill="midnightblue" stroke="midnightblue" points="1030.18,-76.09 1019.6,-75.58 1027.56,-82.58 1030.18,-76.09"/>
</g>
<!-- Node23&#45;&gt;Node15 -->
<g id="edge40" class="edge">
<title>Node23&#45;&gt;Node15</title>
<path fill="none" stroke="midnightblue" d="M1058.98,-179.48C1024.86,-170.53 970.36,-156.25 927.73,-145.07"/>
<polygon fill="midnightblue" stroke="midnightblue" points="928.56,-141.67 918,-142.52 926.79,-148.44 928.56,-141.67"/>
</g>
<!-- Node24 -->
<g id="node24" class="node">
<title>Node24</title>
<g id="a_node24"><a xlink:title=" ">
<polygon fill="white" stroke="#bfbfbf" points="1121.5,-118 1121.5,-137 1167.5,-137 1167.5,-118 1121.5,-118"/>
<text text-anchor="middle" x="1144.5" y="-125" font-family="Helvetica,sans-Serif" font-size="10.00">cstdio</text>
</a>
</g>
</g>
<!-- Node23&#45;&gt;Node24 -->
<g id="edge38" class="edge">
<title>Node23&#45;&gt;Node24</title>
<path fill="none" stroke="midnightblue" d="M1099.09,-179.48C1107.2,-170.37 1120.23,-155.74 1130.26,-144.48"/>
<polygon fill="midnightblue" stroke="midnightblue" points="1132.88,-146.8 1136.92,-137.01 1127.66,-142.15 1132.88,-146.8"/>
</g>
</g>
</svg>
