<?xml version="1.0" encoding="UTF-8" standalone="no"?>
<!DOCTYPE svg PUBLIC "-//W3C//DTD SVG 1.1//EN"
 "http://www.w3.org/Graphics/SVG/1.1/DTD/svg11.dtd">
<!-- Generated by graphviz version 2.43.0 (0)
 -->
<!-- Title: monitoring_service/src/resource_monitor.cpp Pages: 1 -->
<!--zoomable 330 -->
<svg id="main" version="1.1" xmlns="http://www.w3.org/2000/svg" xmlns:xlink="http://www.w3.org/1999/xlink" xml:space="preserve" onload="init(evt)">
<style type="text/css"><![CDATA[
.edge:hover path { stroke: red; }
.edge:hover polygon { stroke: red; fill: red; }
]]></style>
<script type="text/javascript"><![CDATA[
var edges = document.getElementsByTagName('g');
if (edges && edges.length) {
  for (var i=0;i<edges.length;i++) {
    if (edges[i].id.substr(0,4)=='edge') {
      edges[i].setAttribute('class','edge');
    }
  }
}
]]></script>
        <defs>
                <circle id="rim" cx="0" cy="0" r="7"/>
                <circle id="rim2" cx="0" cy="0" r="3.5"/>
                <g id="zoomPlus">
                        <use xlink:href="#rim" fill="#404040">
                                <set attributeName="fill" to="#808080" begin="zoomplus.mouseover" end="zoomplus.mouseout"/>
                        </use>
                        <path d="M-4,0h8M0,-4v8" fill="none" stroke="white" stroke-width="1.5" pointer-events="none"/>
                </g>
                <g id="zoomMin">
                        <use xlink:href="#rim" fill="#404040">
                                <set attributeName="fill" to="#808080" begin="zoomminus.mouseover" end="zoomminus.mouseout"/>
                        </use>
                        <path d="M-4,0h8" fill="none" stroke="white" stroke-width="1.5" pointer-events="none"/>
                </g>
                <g id="dirArrow">
                        <path fill="none" stroke="white" stroke-width="1.5" d="M0,-3.0v7 M-2.5,-0.5L0,-3.0L2.5,-0.5"/>
                </g>
               <g id="resetDef">
                       <use xlink:href="#rim2" fill="#404040">
                               <set attributeName="fill" to="#808080" begin="reset.mouseover" end="reset.mouseout"/>
                       </use>
               </g>
        </defs>

<script type="text/javascript">
var viewWidth = 893;
var viewHeight = 330;
var sectionId = 'dynsection-0';
</script>
<script xlink:href="svgpan.js"/>
<svg id="graph" class="graph">
<g id="viewport">
<title>monitoring_service/src/resource_monitor.cpp</title>
<polygon fill="white" stroke="transparent" points="-4,4 -4,-326 888.5,-326 888.5,4 -4,4"/>
<!-- Node1 -->
<g id="node1" class="node">
<title>Node1</title>
<g id="a_node1"><a xlink:title="Implements the ResourceMonitor class for tracking live containers and managing resource threads.">
<polygon fill="#bfbfbf" stroke="black" points="239,-291.5 239,-321.5 381,-321.5 381,-291.5 239,-291.5"/>
<text text-anchor="start" x="247" y="-309.5" font-family="Helvetica,sans-Serif" font-size="10.00">monitoring_service</text>
<text text-anchor="middle" x="310" y="-298.5" font-family="Helvetica,sans-Serif" font-size="10.00">/src/resource_monitor.cpp</text>
</a>
</g>
</g>
<!-- Node2 -->
<g id="node2" class="node">
<title>Node2</title>
<g id="a_node2"><a xlink:href="resource__monitor_8hpp.html" target="_top" xlink:title="Declares the ResourceMonitor class for tracking live containers and managing resource threads.">
<polygon fill="white" stroke="black" points="138,-235.5 138,-254.5 260,-254.5 260,-235.5 138,-235.5"/>
<text text-anchor="middle" x="199" y="-242.5" font-family="Helvetica,sans-Serif" font-size="10.00">resource_monitor.hpp</text>
</a>
</g>
</g>
<!-- Node1&#45;&gt;Node2 -->
<g id="edge1" class="edge">
<title>Node1&#45;&gt;Node2</title>
<path fill="none" stroke="midnightblue" d="M283.69,-291.4C265.74,-281.77 242.08,-269.09 224.33,-259.58"/>
<polygon fill="midnightblue" stroke="midnightblue" points="225.62,-256.3 215.15,-254.66 222.31,-262.47 225.62,-256.3"/>
</g>
<!-- Node4 -->
<g id="node4" class="node">
<title>Node4</title>
<g id="a_node4"><a xlink:title=" ">
<polygon fill="white" stroke="#bfbfbf" points="0,-118 0,-137 48,-137 48,-118 0,-118"/>
<text text-anchor="middle" x="24" y="-125" font-family="Helvetica,sans-Serif" font-size="10.00">thread</text>
</a>
</g>
</g>
<!-- Node1&#45;&gt;Node4 -->
<g id="edge27" class="edge">
<title>Node1&#45;&gt;Node4</title>
<path fill="none" stroke="midnightblue" d="M238.84,-295.91C203.68,-288.72 161.85,-276.29 129,-255 84.84,-226.38 49.83,-173.38 33.69,-145.95"/>
<polygon fill="midnightblue" stroke="midnightblue" points="36.63,-144.03 28.62,-137.1 30.55,-147.51 36.63,-144.03"/>
</g>
<!-- Node12 -->
<g id="node12" class="node">
<title>Node12</title>
<g id="a_node12"><a xlink:href="resource__thread__pool_8hpp.html" target="_top" xlink:title="Declares the ResourceThreadPool class for parallel container resource monitoring.">
<polygon fill="white" stroke="black" points="260.5,-179.5 260.5,-198.5 403.5,-198.5 403.5,-179.5 260.5,-179.5"/>
<text text-anchor="middle" x="332" y="-186.5" font-family="Helvetica,sans-Serif" font-size="10.00">resource_thread_pool.hpp</text>
</a>
</g>
</g>
<!-- Node1&#45;&gt;Node12 -->
<g id="edge31" class="edge">
<title>Node1&#45;&gt;Node12</title>
<path fill="none" stroke="midnightblue" d="M307.02,-291.47C304.51,-277.05 302.05,-254.09 307,-235 309.55,-225.18 314.75,-215.21 319.76,-207.17"/>
<polygon fill="midnightblue" stroke="midnightblue" points="322.75,-208.99 325.37,-198.73 316.92,-205.11 322.75,-208.99"/>
</g>
<!-- Node17 -->
<g id="node17" class="node">
<title>Node17</title>
<g id="a_node17"><a xlink:title=" ">
<polygon fill="white" stroke="#bfbfbf" points="316,-235.5 316,-254.5 348,-254.5 348,-235.5 316,-235.5"/>
<text text-anchor="middle" x="332" y="-242.5" font-family="Helvetica,sans-Serif" font-size="10.00">set</text>
</a>
</g>
</g>
<!-- Node1&#45;&gt;Node17 -->
<g id="edge26" class="edge">
<title>Node1&#45;&gt;Node17</title>
<path fill="none" stroke="midnightblue" d="M315.21,-291.4C318.21,-283.29 322.01,-273.01 325.24,-264.28"/>
<polygon fill="midnightblue" stroke="midnightblue" points="328.61,-265.25 328.8,-254.66 322.05,-262.82 328.61,-265.25"/>
</g>
<!-- Node18 -->
<g id="node18" class="node">
<title>Node18</title>
<g id="a_node18"><a xlink:title=" ">
<polygon fill="white" stroke="#bfbfbf" points="366,-235.5 366,-254.5 416,-254.5 416,-235.5 366,-235.5"/>
<text text-anchor="middle" x="391" y="-242.5" font-family="Helvetica,sans-Serif" font-size="10.00">chrono</text>
</a>
</g>
</g>
<!-- Node1&#45;&gt;Node18 -->
<g id="edge28" class="edge">
<title>Node1&#45;&gt;Node18</title>
<path fill="none" stroke="midnightblue" d="M329.2,-291.4C341.82,-282.13 358.29,-270.03 371.06,-260.65"/>
<polygon fill="midnightblue" stroke="midnightblue" points="373.23,-263.4 379.21,-254.66 369.08,-257.76 373.23,-263.4"/>
</g>
<!-- Node19 -->
<g id="node19" class="node">
<title>Node19</title>
<g id="a_node19"><a xlink:href="logger_8hpp.html" target="_top" xlink:title="Logging macros for the container monitor application.">
<polygon fill="white" stroke="black" points="434,-235.5 434,-254.5 502,-254.5 502,-235.5 434,-235.5"/>
<text text-anchor="middle" x="468" y="-242.5" font-family="Helvetica,sans-Serif" font-size="10.00">logger.hpp</text>
</a>
</g>
</g>
<!-- Node1&#45;&gt;Node19 -->
<g id="edge29" class="edge">
<title>Node1&#45;&gt;Node19</title>
<path fill="none" stroke="midnightblue" d="M347.44,-291.4C374.19,-281.33 409.82,-267.91 435.4,-258.28"/>
<polygon fill="midnightblue" stroke="midnightblue" points="436.88,-261.46 445.01,-254.66 434.42,-254.91 436.88,-261.46"/>
</g>
<!-- Node3 -->
<g id="node3" class="node">
<title>Node3</title>
<g id="a_node3"><a xlink:title=" ">
<polygon fill="white" stroke="#bfbfbf" points="66,-118 66,-137 116,-137 116,-118 66,-118"/>
<text text-anchor="middle" x="91" y="-125" font-family="Helvetica,sans-Serif" font-size="10.00">atomic</text>
</a>
</g>
</g>
<!-- Node2&#45;&gt;Node3 -->
<g id="edge2" class="edge">
<title>Node2&#45;&gt;Node3</title>
<path fill="none" stroke="midnightblue" d="M190.88,-235.32C172.9,-216.09 129.47,-169.64 106.25,-144.81"/>
<polygon fill="midnightblue" stroke="midnightblue" points="108.6,-142.2 99.21,-137.28 103.49,-146.98 108.6,-142.2"/>
</g>
<!-- Node2&#45;&gt;Node4 -->
<g id="edge3" class="edge">
<title>Node2&#45;&gt;Node4</title>
<path fill="none" stroke="midnightblue" d="M185.85,-235.32C155.95,-215.59 82.64,-167.2 45.83,-142.91"/>
<polygon fill="midnightblue" stroke="midnightblue" points="47.58,-139.87 37.31,-137.28 43.72,-145.71 47.58,-139.87"/>
</g>
<!-- Node5 -->
<g id="node5" class="node">
<title>Node5</title>
<g id="a_node5"><a xlink:href="database__interface_8hpp.html" target="_top" xlink:title="Declares the abstract interface for database operations in container monitoring.">
<polygon fill="white" stroke="black" points="172.5,-118 172.5,-137 303.5,-137 303.5,-118 172.5,-118"/>
<text text-anchor="middle" x="238" y="-125" font-family="Helvetica,sans-Serif" font-size="10.00">database_interface.hpp</text>
</a>
</g>
</g>
<!-- Node2&#45;&gt;Node5 -->
<g id="edge4" class="edge">
<title>Node2&#45;&gt;Node5</title>
<path fill="none" stroke="midnightblue" d="M201.93,-235.32C208.26,-216.59 223.3,-172.05 231.82,-146.79"/>
<polygon fill="midnightblue" stroke="midnightblue" points="235.15,-147.88 235.03,-137.28 228.52,-145.64 235.15,-147.88"/>
</g>
<!-- Node2&#45;&gt;Node12 -->
<g id="edge12" class="edge">
<title>Node2&#45;&gt;Node12</title>
<path fill="none" stroke="midnightblue" d="M220.07,-235.44C242.06,-226.52 276.73,-212.44 301.66,-202.32"/>
<polygon fill="midnightblue" stroke="midnightblue" points="303.08,-205.52 311.02,-198.52 300.44,-199.04 303.08,-205.52"/>
</g>
<!-- Node6 -->
<g id="node6" class="node">
<title>Node6</title>
<g id="a_node6"><a xlink:title=" ">
<polygon fill="white" stroke="#bfbfbf" points="287.5,-56.5 287.5,-75.5 334.5,-75.5 334.5,-56.5 287.5,-56.5"/>
<text text-anchor="middle" x="311" y="-63.5" font-family="Helvetica,sans-Serif" font-size="10.00">vector</text>
</a>
</g>
</g>
<!-- Node5&#45;&gt;Node6 -->
<g id="edge5" class="edge">
<title>Node5&#45;&gt;Node6</title>
<path fill="none" stroke="midnightblue" d="M248.46,-117.98C259.95,-108.61 278.63,-93.38 292.59,-82.01"/>
<polygon fill="midnightblue" stroke="midnightblue" points="295.02,-84.54 300.56,-75.51 290.6,-79.11 295.02,-84.54"/>
</g>
<!-- Node7 -->
<g id="node7" class="node">
<title>Node7</title>
<g id="a_node7"><a xlink:title=" ">
<polygon fill="white" stroke="#bfbfbf" points="142,-56.5 142,-75.5 180,-75.5 180,-56.5 142,-56.5"/>
<text text-anchor="middle" x="161" y="-63.5" font-family="Helvetica,sans-Serif" font-size="10.00">map</text>
</a>
</g>
</g>
<!-- Node5&#45;&gt;Node7 -->
<g id="edge6" class="edge">
<title>Node5&#45;&gt;Node7</title>
<path fill="none" stroke="midnightblue" d="M226.97,-117.98C214.73,-108.52 194.77,-93.1 180.01,-81.69"/>
<polygon fill="midnightblue" stroke="midnightblue" points="182.06,-78.85 172.01,-75.51 177.78,-84.39 182.06,-78.85"/>
</g>
<!-- Node8 -->
<g id="node8" class="node">
<title>Node8</title>
<g id="a_node8"><a xlink:title=" ">
<polygon fill="white" stroke="#bfbfbf" points="362,-0.5 362,-19.5 406,-19.5 406,-0.5 362,-0.5"/>
<text text-anchor="middle" x="384" y="-7.5" font-family="Helvetica,sans-Serif" font-size="10.00">string</text>
</a>
</g>
</g>
<!-- Node5&#45;&gt;Node8 -->
<g id="edge7" class="edge">
<title>Node5&#45;&gt;Node8</title>
<path fill="none" stroke="midnightblue" d="M240.79,-117.95C245.94,-103.37 258.25,-73.61 278,-56 299.09,-37.19 329.21,-25.44 351.95,-18.68"/>
<polygon fill="midnightblue" stroke="midnightblue" points="353.14,-21.98 361.83,-15.92 351.25,-15.24 353.14,-21.98"/>
</g>
<!-- Node9 -->
<g id="node9" class="node">
<title>Node9</title>
<g id="a_node9"><a xlink:href="common_8hpp.html" target="_top" xlink:title="Common data structures, constants, and configuration for container monitoring.">
<polygon fill="white" stroke="black" points="436,-56.5 436,-75.5 516,-75.5 516,-56.5 436,-56.5"/>
<text text-anchor="middle" x="476" y="-63.5" font-family="Helvetica,sans-Serif" font-size="10.00">common.hpp</text>
</a>
</g>
</g>
<!-- Node5&#45;&gt;Node9 -->
<g id="edge8" class="edge">
<title>Node5&#45;&gt;Node9</title>
<path fill="none" stroke="midnightblue" d="M272.1,-117.98C314.25,-107.44 386.05,-89.49 432.23,-77.94"/>
<polygon fill="midnightblue" stroke="midnightblue" points="433.11,-81.33 441.96,-75.51 431.41,-74.54 433.11,-81.33"/>
</g>
<!-- Node9&#45;&gt;Node8 -->
<g id="edge9" class="edge">
<title>Node9&#45;&gt;Node8</title>
<path fill="none" stroke="midnightblue" d="M461.22,-56.32C446.73,-47.82 424.43,-34.73 407.51,-24.8"/>
<polygon fill="midnightblue" stroke="midnightblue" points="409.14,-21.7 398.74,-19.65 405.6,-27.74 409.14,-21.7"/>
</g>
<!-- Node10 -->
<g id="node10" class="node">
<title>Node10</title>
<g id="a_node10"><a xlink:title=" ">
<polygon fill="white" stroke="#bfbfbf" points="523,-0.5 523,-19.5 573,-19.5 573,-0.5 523,-0.5"/>
<text text-anchor="middle" x="548" y="-7.5" font-family="Helvetica,sans-Serif" font-size="10.00">cstring</text>
</a>
</g>
</g>
<!-- Node9&#45;&gt;Node10 -->
<g id="edge10" class="edge">
<title>Node9&#45;&gt;Node10</title>
<path fill="none" stroke="midnightblue" d="M487.57,-56.32C498.42,-48.18 514.88,-35.84 527.88,-26.09"/>
<polygon fill="midnightblue" stroke="midnightblue" points="530.32,-28.63 536.22,-19.83 526.12,-23.03 530.32,-28.63"/>
</g>
<!-- Node11 -->
<g id="node11" class="node">
<title>Node11</title>
<g id="a_node11"><a xlink:title=" ">
<polygon fill="white" stroke="#bfbfbf" points="431.5,-0.5 431.5,-19.5 504.5,-19.5 504.5,-0.5 431.5,-0.5"/>
<text text-anchor="middle" x="468" y="-7.5" font-family="Helvetica,sans-Serif" font-size="10.00">string_view</text>
</a>
</g>
</g>
<!-- Node9&#45;&gt;Node11 -->
<g id="edge11" class="edge">
<title>Node9&#45;&gt;Node11</title>
<path fill="none" stroke="midnightblue" d="M474.68,-56.08C473.62,-48.93 472.09,-38.64 470.77,-29.69"/>
<polygon fill="midnightblue" stroke="midnightblue" points="474.22,-29.13 469.3,-19.75 467.3,-30.16 474.22,-29.13"/>
</g>
<!-- Node12&#45;&gt;Node3 -->
<g id="edge15" class="edge">
<title>Node12&#45;&gt;Node3</title>
<path fill="none" stroke="midnightblue" d="M285,-179.42C243.76,-171.45 182.37,-158.49 130,-143 127.36,-142.22 124.65,-141.35 121.94,-140.44"/>
<polygon fill="midnightblue" stroke="midnightblue" points="122.87,-137.06 112.28,-137.01 120.53,-143.65 122.87,-137.06"/>
</g>
<!-- Node12&#45;&gt;Node4 -->
<g id="edge14" class="edge">
<title>Node12&#45;&gt;Node4</title>
<path fill="none" stroke="midnightblue" d="M260.24,-181.26C204.1,-174.8 124.49,-163 57,-143 54.86,-142.36 52.67,-141.62 50.49,-140.82"/>
<polygon fill="midnightblue" stroke="midnightblue" points="51.74,-137.55 41.16,-137.02 49.1,-144.03 51.74,-137.55"/>
</g>
<!-- Node12&#45;&gt;Node5 -->
<g id="edge21" class="edge">
<title>Node12&#45;&gt;Node5</title>
<path fill="none" stroke="midnightblue" d="M318.53,-179.48C303.32,-169.84 278.31,-154.02 260.2,-142.55"/>
<polygon fill="midnightblue" stroke="midnightblue" points="261.76,-139.4 251.44,-137.01 258.02,-145.31 261.76,-139.4"/>
</g>
<!-- Node12&#45;&gt;Node6 -->
<g id="edge13" class="edge">
<title>Node12&#45;&gt;Node6</title>
<path fill="none" stroke="midnightblue" d="M330.49,-179.3C327.1,-159.76 318.82,-112.06 314.22,-85.55"/>
<polygon fill="midnightblue" stroke="midnightblue" points="317.66,-84.88 312.5,-75.62 310.76,-86.07 317.66,-84.88"/>
</g>
<!-- Node12&#45;&gt;Node7 -->
<g id="edge16" class="edge">
<title>Node12&#45;&gt;Node7</title>
<path fill="none" stroke="midnightblue" d="M270.6,-179.47C227.97,-172.17 176.5,-160.1 163,-143 150.25,-126.86 152.28,-102.2 155.83,-85.38"/>
<polygon fill="midnightblue" stroke="midnightblue" points="159.23,-86.17 158.23,-75.63 152.44,-84.5 159.23,-86.17"/>
</g>
<!-- Node12&#45;&gt;Node8 -->
<g id="edge18" class="edge">
<title>Node12&#45;&gt;Node8</title>
<path fill="none" stroke="midnightblue" d="M334.51,-179.46C342.48,-152.31 367.4,-67.51 378.53,-29.62"/>
<polygon fill="midnightblue" stroke="midnightblue" points="381.93,-30.45 381.39,-19.87 375.22,-28.48 381.93,-30.45"/>
</g>
<!-- Node12&#45;&gt;Node9 -->
<g id="edge22" class="edge">
<title>Node12&#45;&gt;Node9</title>
<path fill="none" stroke="midnightblue" d="M400.71,-179.49C483.34,-168.92 611.91,-151.29 619,-143 649.65,-107.17 578.78,-85.67 526.25,-75.1"/>
<polygon fill="midnightblue" stroke="midnightblue" points="526.83,-71.65 516.35,-73.19 525.51,-78.52 526.83,-71.65"/>
</g>
<!-- Node13 -->
<g id="node13" class="node">
<title>Node13</title>
<g id="a_node13"><a xlink:title=" ">
<polygon fill="white" stroke="#bfbfbf" points="562,-118 562,-137 610,-137 610,-118 562,-118"/>
<text text-anchor="middle" x="586" y="-125" font-family="Helvetica,sans-Serif" font-size="10.00">mutex</text>
</a>
</g>
</g>
<!-- Node12&#45;&gt;Node13 -->
<g id="edge17" class="edge">
<title>Node12&#45;&gt;Node13</title>
<path fill="none" stroke="midnightblue" d="M391.03,-179.49C436.05,-172.17 499.26,-160.06 553,-143 554.92,-142.39 556.89,-141.7 558.85,-140.97"/>
<polygon fill="midnightblue" stroke="midnightblue" points="560.53,-144.06 568.46,-137.04 557.88,-137.58 560.53,-144.06"/>
</g>
<!-- Node14 -->
<g id="node14" class="node">
<title>Node14</title>
<g id="a_node14"><a xlink:title=" ">
<polygon fill="white" stroke="#bfbfbf" points="666.5,-118 666.5,-137 759.5,-137 759.5,-118 666.5,-118"/>
<text text-anchor="middle" x="713" y="-125" font-family="Helvetica,sans-Serif" font-size="10.00">unordered_map</text>
</a>
</g>
</g>
<!-- Node12&#45;&gt;Node14 -->
<g id="edge19" class="edge">
<title>Node12&#45;&gt;Node14</title>
<path fill="none" stroke="midnightblue" d="M403.8,-179.85C468.87,-172.01 567.24,-159 652,-143 657.76,-141.91 663.79,-140.64 669.72,-139.31"/>
<polygon fill="midnightblue" stroke="midnightblue" points="670.6,-142.7 679.56,-137.04 669.03,-135.88 670.6,-142.7"/>
</g>
<!-- Node15 -->
<g id="node15" class="node">
<title>Node15</title>
<g id="a_node15"><a xlink:title=" ">
<polygon fill="white" stroke="#bfbfbf" points="777.5,-118 777.5,-137 884.5,-137 884.5,-118 777.5,-118"/>
<text text-anchor="middle" x="831" y="-125" font-family="Helvetica,sans-Serif" font-size="10.00">condition_variable</text>
</a>
</g>
</g>
<!-- Node12&#45;&gt;Node15 -->
<g id="edge20" class="edge">
<title>Node12&#45;&gt;Node15</title>
<path fill="none" stroke="midnightblue" d="M403.94,-180.27C408.02,-179.84 412.06,-179.41 416,-179 572.85,-162.6 613.46,-169.01 769,-143 775.22,-141.96 781.76,-140.66 788.15,-139.27"/>
<polygon fill="midnightblue" stroke="midnightblue" points="789.04,-142.66 798.02,-137.04 787.49,-135.83 789.04,-142.66"/>
</g>
<!-- Node16 -->
<g id="node16" class="node">
<title>Node16</title>
<g id="a_node16"><a xlink:href="container__runtime__factory__interface_8hpp.html" target="_top" xlink:title="Declares the interface for container runtime path factories.">
<polygon fill="white" stroke="black" points="398,-112.5 398,-142.5 544,-142.5 544,-112.5 398,-112.5"/>
<text text-anchor="start" x="406" y="-130.5" font-family="Helvetica,sans-Serif" font-size="10.00">container_runtime_factory</text>
<text text-anchor="middle" x="471" y="-119.5" font-family="Helvetica,sans-Serif" font-size="10.00">_interface.hpp</text>
</a>
</g>
</g>
<!-- Node12&#45;&gt;Node16 -->
<g id="edge23" class="edge">
<title>Node12&#45;&gt;Node16</title>
<path fill="none" stroke="midnightblue" d="M351.92,-179.48C371.88,-170.93 403.25,-157.5 428.78,-146.57"/>
<polygon fill="midnightblue" stroke="midnightblue" points="430.42,-149.68 438.24,-142.52 427.67,-143.24 430.42,-149.68"/>
</g>
<!-- Node16&#45;&gt;Node8 -->
<g id="edge24" class="edge">
<title>Node16&#45;&gt;Node8</title>
<path fill="none" stroke="midnightblue" d="M457.77,-112.34C448.75,-102.45 436.72,-88.77 427,-76 415.13,-60.41 402.93,-41.65 394.57,-28.3"/>
<polygon fill="midnightblue" stroke="midnightblue" points="397.46,-26.32 389.22,-19.66 391.51,-30.01 397.46,-26.32"/>
</g>
<!-- Node16&#45;&gt;Node9 -->
<g id="edge25" class="edge">
<title>Node16&#45;&gt;Node9</title>
<path fill="none" stroke="midnightblue" d="M472.18,-112.4C472.85,-104.47 473.69,-94.46 474.42,-85.86"/>
<polygon fill="midnightblue" stroke="midnightblue" points="477.92,-85.92 475.27,-75.66 470.95,-85.33 477.92,-85.92"/>
</g>
<!-- Node20 -->
<g id="node20" class="node">
<title>Node20</title>
<g id="a_node20"><a xlink:title=" ">
<polygon fill="white" stroke="#bfbfbf" points="425,-179.5 425,-198.5 511,-198.5 511,-179.5 425,-179.5"/>
<text text-anchor="middle" x="468" y="-186.5" font-family="Helvetica,sans-Serif" font-size="10.00">glog/logging.h</text>
</a>
</g>
</g>
<!-- Node19&#45;&gt;Node20 -->
<g id="edge30" class="edge">
<title>Node19&#45;&gt;Node20</title>
<path fill="none" stroke="midnightblue" d="M468,-235.08C468,-228.01 468,-217.86 468,-208.99"/>
<polygon fill="midnightblue" stroke="midnightblue" points="471.5,-208.75 468,-198.75 464.5,-208.75 471.5,-208.75"/>
</g>
</g>
</svg>
        <g id="navigator" transform="translate(0 0)" fill="#404254">
                <rect fill="#f2f5e9" fill-opacity="0.5" stroke="#606060" stroke-width=".5" x="0" y="0" width="60" height="60"/>
                <use id="zoomplus" xlink:href="#zoomPlus" x="17" y="9" onmousedown="handleZoom(evt,'in')"/>
                <use id="zoomminus" xlink:href="#zoomMin" x="42" y="9" onmousedown="handleZoom(evt,'out')"/>
                <use id="reset" xlink:href="#resetDef" x="30" y="36" onmousedown="handleReset()"/>
                <g id="arrowUp" xlink:href="#dirArrow" transform="translate(30 24)" onmousedown="handlePan(0,-1)">
                  <use xlink:href="#rim" fill="#404040">
                        <set attributeName="fill" to="#808080" begin="arrowUp.mouseover" end="arrowUp.mouseout"/>
                  </use>
                  <path fill="none" stroke="white" stroke-width="1.5" d="M0,-3.0v7 M-2.5,-0.5L0,-3.0L2.5,-0.5"/>
                </g>
                <g id="arrowRight" xlink:href="#dirArrow" transform="rotate(90) translate(36 -43)" onmousedown="handlePan(1,0)">
                  <use xlink:href="#rim" fill="#404040">
                        <set attributeName="fill" to="#808080" begin="arrowRight.mouseover" end="arrowRight.mouseout"/>
                  </use>
                  <path fill="none" stroke="white" stroke-width="1.5" d="M0,-3.0v7 M-2.5,-0.5L0,-3.0L2.5,-0.5"/>
                </g>
                <g id="arrowDown" xlink:href="#dirArrow" transform="rotate(180) translate(-30 -48)" onmousedown="handlePan(0,1)">
                  <use xlink:href="#rim" fill="#404040">
                        <set attributeName="fill" to="#808080" begin="arrowDown.mouseover" end="arrowDown.mouseout"/>
                  </use>
                  <path fill="none" stroke="white" stroke-width="1.5" d="M0,-3.0v7 M-2.5,-0.5L0,-3.0L2.5,-0.5"/>
                </g>
                <g id="arrowLeft" xlink:href="#dirArrow" transform="rotate(270) translate(-36 17)" onmousedown="handlePan(-1,0)">
                  <use xlink:href="#rim" fill="#404040">
                        <set attributeName="fill" to="#808080" begin="arrowLeft.mouseover" end="arrowLeft.mouseout"/>
                  </use>
                  <path fill="none" stroke="white" stroke-width="1.5" d="M0,-3.0v7 M-2.5,-0.5L0,-3.0L2.5,-0.5"/>
                </g>
        </g>
        <svg viewBox="0 0 15 15" width="100%" height="30px" preserveAspectRatio="xMaxYMin meet">
         <g id="arrow_out" transform="scale(0.3 0.3)">
          <a xlink:href="resource__monitor_8cpp__incl_org.svg" target="_base">
           <rect id="button" ry="5" rx="5" y="6" x="6" height="38" width="38"
                fill="#f2f5e9" fill-opacity="0.5" stroke="#606060" stroke-width="1.0"/>
           <path id="arrow"
             d="M 11.500037,31.436501 C 11.940474,20.09759 22.043105,11.32322 32.158766,21.979434 L 37.068811,17.246167 C 37.068811,17.246167 37.088388,32 37.088388,32 L 22.160133,31.978069 C 22.160133,31.978069 26.997745,27.140456 26.997745,27.140456 C 18.528582,18.264221 13.291696,25.230495 11.500037,31.436501 z"
             style="fill:#404040;"/>
          </a>
         </g>
        </svg>
</svg>
