<?xml version="1.0" encoding="UTF-8" standalone="no"?>
<!DOCTYPE svg PUBLIC "-//W3C//DTD SVG 1.1//EN"
 "http://www.w3.org/Graphics/SVG/1.1/DTD/svg11.dtd">
<!-- Generated by graphviz version 2.43.0 (0)
 -->
<!-- Title: monitoring_service/inc/resource_monitor.hpp Pages: 1 -->
<svg width="828pt" height="274pt"
 viewBox="0.00 0.00 828.28 274.00" xmlns="http://www.w3.org/2000/svg" xmlns:xlink="http://www.w3.org/1999/xlink">
<g id="graph0" class="graph" transform="scale(1 1) rotate(0) translate(4 270)">
<title>monitoring_service/inc/resource_monitor.hpp</title>
<polygon fill="white" stroke="transparent" points="-4,4 -4,-270 824.28,-270 824.28,4 -4,4"/>
<!-- Node1 -->
<g id="node1" class="node">
<title>Node1</title>
<g id="a_node1"><a xlink:title="Declares the ResourceMonitor class for tracking live containers and managing resource threads.">
<polygon fill="#bfbfbf" stroke="black" points="151.5,-235.5 151.5,-265.5 294.5,-265.5 294.5,-235.5 151.5,-235.5"/>
<text text-anchor="start" x="159.5" y="-253.5" font-family="Helvetica,sans-Serif" font-size="10.00">monitoring_service</text>
<text text-anchor="middle" x="223" y="-242.5" font-family="Helvetica,sans-Serif" font-size="10.00">/inc/resource_monitor.hpp</text>
</a>
</g>
</g>
<!-- Node2 -->
<g id="node2" class="node">
<title>Node2</title>
<g id="a_node2"><a xlink:title=" ">
<polygon fill="white" stroke="#bfbfbf" points="0,-118 0,-137 50,-137 50,-118 0,-118"/>
<text text-anchor="middle" x="25" y="-125" font-family="Helvetica,sans-Serif" font-size="10.00">atomic</text>
</a>
</g>
</g>
<!-- Node1&#45;&gt;Node2 -->
<g id="edge1" class="edge">
<title>Node1&#45;&gt;Node2</title>
<path fill="none" stroke="midnightblue" d="M199.9,-235.38C161.72,-212.05 85.9,-165.71 47.87,-142.47"/>
<polygon fill="midnightblue" stroke="midnightblue" points="49.42,-139.32 39.06,-137.09 45.77,-145.29 49.42,-139.32"/>
</g>
<!-- Node3 -->
<g id="node3" class="node">
<title>Node3</title>
<g id="a_node3"><a xlink:title=" ">
<polygon fill="white" stroke="#bfbfbf" points="68,-118 68,-137 116,-137 116,-118 68,-118"/>
<text text-anchor="middle" x="92" y="-125" font-family="Helvetica,sans-Serif" font-size="10.00">thread</text>
</a>
</g>
</g>
<!-- Node1&#45;&gt;Node3 -->
<g id="edge2" class="edge">
<title>Node1&#45;&gt;Node3</title>
<path fill="none" stroke="midnightblue" d="M207.72,-235.38C182.99,-212.54 134.4,-167.67 108.76,-143.98"/>
<polygon fill="midnightblue" stroke="midnightblue" points="111.02,-141.31 101.3,-137.09 106.27,-146.45 111.02,-141.31"/>
</g>
<!-- Node4 -->
<g id="node4" class="node">
<title>Node4</title>
<g id="a_node4"><a xlink:href="database__interface_8hpp.html" target="_top" xlink:title="Declares the abstract interface for database operations in container monitoring.">
<polygon fill="white" stroke="black" points="336.5,-118 336.5,-137 467.5,-137 467.5,-118 336.5,-118"/>
<text text-anchor="middle" x="402" y="-125" font-family="Helvetica,sans-Serif" font-size="10.00">database_interface.hpp</text>
</a>
</g>
</g>
<!-- Node1&#45;&gt;Node4 -->
<g id="edge3" class="edge">
<title>Node1&#45;&gt;Node4</title>
<path fill="none" stroke="midnightblue" d="M243.88,-235.38C278.26,-212.15 346.37,-166.11 380.89,-142.77"/>
<polygon fill="midnightblue" stroke="midnightblue" points="382.96,-145.59 389.29,-137.09 379.04,-139.79 382.96,-145.59"/>
</g>
<!-- Node11 -->
<g id="node11" class="node">
<title>Node11</title>
<g id="a_node11"><a xlink:href="resource__thread__pool_8hpp.html" target="_top" xlink:title="Declares the ResourceThreadPool class for parallel container resource monitoring.">
<polygon fill="white" stroke="black" points="384.5,-179.5 384.5,-198.5 527.5,-198.5 527.5,-179.5 384.5,-179.5"/>
<text text-anchor="middle" x="456" y="-186.5" font-family="Helvetica,sans-Serif" font-size="10.00">resource_thread_pool.hpp</text>
</a>
</g>
</g>
<!-- Node1&#45;&gt;Node11 -->
<g id="edge11" class="edge">
<title>Node1&#45;&gt;Node11</title>
<path fill="none" stroke="midnightblue" d="M277.92,-235.47C319.17,-224.94 374.88,-210.72 412.93,-201"/>
<polygon fill="midnightblue" stroke="midnightblue" points="413.87,-204.37 422.69,-198.51 412.13,-197.59 413.87,-204.37"/>
</g>
<!-- Node5 -->
<g id="node5" class="node">
<title>Node5</title>
<g id="a_node5"><a xlink:title=" ">
<polygon fill="white" stroke="#bfbfbf" points="504.5,-56.5 504.5,-75.5 551.5,-75.5 551.5,-56.5 504.5,-56.5"/>
<text text-anchor="middle" x="528" y="-63.5" font-family="Helvetica,sans-Serif" font-size="10.00">vector</text>
</a>
</g>
</g>
<!-- Node4&#45;&gt;Node5 -->
<g id="edge4" class="edge">
<title>Node4&#45;&gt;Node5</title>
<path fill="none" stroke="midnightblue" d="M420.05,-117.98C441.2,-107.99 476.44,-91.35 500.88,-79.81"/>
<polygon fill="midnightblue" stroke="midnightblue" points="502.43,-82.94 509.98,-75.51 499.44,-76.61 502.43,-82.94"/>
</g>
<!-- Node6 -->
<g id="node6" class="node">
<title>Node6</title>
<g id="a_node6"><a xlink:title=" ">
<polygon fill="white" stroke="#bfbfbf" points="729,-56.5 729,-75.5 767,-75.5 767,-56.5 729,-56.5"/>
<text text-anchor="middle" x="748" y="-63.5" font-family="Helvetica,sans-Serif" font-size="10.00">map</text>
</a>
</g>
</g>
<!-- Node4&#45;&gt;Node6 -->
<g id="edge5" class="edge">
<title>Node4&#45;&gt;Node6</title>
<path fill="none" stroke="midnightblue" d="M445.19,-117.95C455.6,-115.94 466.69,-113.85 477,-112 564.9,-96.21 669.21,-79.44 718.89,-71.58"/>
<polygon fill="midnightblue" stroke="midnightblue" points="719.58,-75.01 728.91,-69.99 718.49,-68.09 719.58,-75.01"/>
</g>
<!-- Node7 -->
<g id="node7" class="node">
<title>Node7</title>
<g id="a_node7"><a xlink:title=" ">
<polygon fill="white" stroke="#bfbfbf" points="368,-0.5 368,-19.5 412,-19.5 412,-0.5 368,-0.5"/>
<text text-anchor="middle" x="390" y="-7.5" font-family="Helvetica,sans-Serif" font-size="10.00">string</text>
</a>
</g>
</g>
<!-- Node4&#45;&gt;Node7 -->
<g id="edge6" class="edge">
<title>Node4&#45;&gt;Node7</title>
<path fill="none" stroke="midnightblue" d="M401.1,-117.82C399.17,-99.26 394.61,-55.34 391.97,-29.97"/>
<polygon fill="midnightblue" stroke="midnightblue" points="395.43,-29.37 390.91,-19.78 388.46,-30.09 395.43,-29.37"/>
</g>
<!-- Node8 -->
<g id="node8" class="node">
<title>Node8</title>
<g id="a_node8"><a xlink:href="common_8hpp.html" target="_top" xlink:title="Common data structures, constants, and configuration for container monitoring.">
<polygon fill="white" stroke="black" points="212,-56.5 212,-75.5 292,-75.5 292,-56.5 212,-56.5"/>
<text text-anchor="middle" x="252" y="-63.5" font-family="Helvetica,sans-Serif" font-size="10.00">common.hpp</text>
</a>
</g>
</g>
<!-- Node4&#45;&gt;Node8 -->
<g id="edge7" class="edge">
<title>Node4&#45;&gt;Node8</title>
<path fill="none" stroke="midnightblue" d="M380.51,-117.98C354.89,-107.81 311.89,-90.76 282.76,-79.2"/>
<polygon fill="midnightblue" stroke="midnightblue" points="284.04,-75.94 273.45,-75.51 281.46,-82.45 284.04,-75.94"/>
</g>
<!-- Node8&#45;&gt;Node7 -->
<g id="edge8" class="edge">
<title>Node8&#45;&gt;Node7</title>
<path fill="none" stroke="midnightblue" d="M273.87,-56.44C296.78,-47.48 332.98,-33.31 358.87,-23.18"/>
<polygon fill="midnightblue" stroke="midnightblue" points="360.2,-26.42 368.24,-19.52 357.65,-19.9 360.2,-26.42"/>
</g>
<!-- Node9 -->
<g id="node9" class="node">
<title>Node9</title>
<g id="a_node9"><a xlink:title=" ">
<polygon fill="white" stroke="#bfbfbf" points="288,-0.5 288,-19.5 338,-19.5 338,-0.5 288,-0.5"/>
<text text-anchor="middle" x="313" y="-7.5" font-family="Helvetica,sans-Serif" font-size="10.00">cstring</text>
</a>
</g>
</g>
<!-- Node8&#45;&gt;Node9 -->
<g id="edge9" class="edge">
<title>Node8&#45;&gt;Node9</title>
<path fill="none" stroke="midnightblue" d="M261.8,-56.32C270.82,-48.34 284.41,-36.31 295.32,-26.65"/>
<polygon fill="midnightblue" stroke="midnightblue" points="297.85,-29.08 303.02,-19.83 293.21,-23.84 297.85,-29.08"/>
</g>
<!-- Node10 -->
<g id="node10" class="node">
<title>Node10</title>
<g id="a_node10"><a xlink:title=" ">
<polygon fill="white" stroke="#bfbfbf" points="196.5,-0.5 196.5,-19.5 269.5,-19.5 269.5,-0.5 196.5,-0.5"/>
<text text-anchor="middle" x="233" y="-7.5" font-family="Helvetica,sans-Serif" font-size="10.00">string_view</text>
</a>
</g>
</g>
<!-- Node8&#45;&gt;Node10 -->
<g id="edge10" class="edge">
<title>Node8&#45;&gt;Node10</title>
<path fill="none" stroke="midnightblue" d="M248.86,-56.08C246.32,-48.85 242.64,-38.41 239.47,-29.4"/>
<polygon fill="midnightblue" stroke="midnightblue" points="242.7,-28.02 236.08,-19.75 236.1,-30.35 242.7,-28.02"/>
</g>
<!-- Node11&#45;&gt;Node2 -->
<g id="edge14" class="edge">
<title>Node11&#45;&gt;Node2</title>
<path fill="none" stroke="midnightblue" d="M384.22,-186.1C303.81,-182.55 170.17,-172.33 59,-143 56.64,-142.38 54.24,-141.62 51.85,-140.78"/>
<polygon fill="midnightblue" stroke="midnightblue" points="52.89,-137.43 42.3,-137.02 50.33,-143.95 52.89,-137.43"/>
</g>
<!-- Node11&#45;&gt;Node3 -->
<g id="edge13" class="edge">
<title>Node11&#45;&gt;Node3</title>
<path fill="none" stroke="midnightblue" d="M384.19,-182.81C317.53,-176.88 215.92,-165.02 130,-143 127.18,-142.28 124.28,-141.41 121.4,-140.47"/>
<polygon fill="midnightblue" stroke="midnightblue" points="122.43,-137.12 111.84,-137.04 120.08,-143.71 122.43,-137.12"/>
</g>
<!-- Node11&#45;&gt;Node4 -->
<g id="edge20" class="edge">
<title>Node11&#45;&gt;Node4</title>
<path fill="none" stroke="midnightblue" d="M448.26,-179.48C440,-170.37 426.72,-155.74 416.51,-144.48"/>
<polygon fill="midnightblue" stroke="midnightblue" points="419.03,-142.06 409.72,-137.01 413.85,-146.77 419.03,-142.06"/>
</g>
<!-- Node11&#45;&gt;Node5 -->
<g id="edge12" class="edge">
<title>Node11&#45;&gt;Node5</title>
<path fill="none" stroke="midnightblue" d="M527.77,-188.54C613.09,-187.46 747.98,-179.78 780,-143 841.38,-72.5 643.76,-66.14 561.86,-66.43"/>
<polygon fill="midnightblue" stroke="midnightblue" points="561.54,-62.94 551.57,-66.51 561.59,-69.94 561.54,-62.94"/>
</g>
<!-- Node11&#45;&gt;Node6 -->
<g id="edge15" class="edge">
<title>Node11&#45;&gt;Node6</title>
<path fill="none" stroke="midnightblue" d="M527.62,-183.58C622.88,-176.96 781.4,-163.06 799,-143 816.22,-123.37 790.31,-97.62 769.55,-81.7"/>
<polygon fill="midnightblue" stroke="midnightblue" points="771.52,-78.81 761.39,-75.72 767.39,-84.45 771.52,-78.81"/>
</g>
<!-- Node11&#45;&gt;Node7 -->
<g id="edge17" class="edge">
<title>Node11&#45;&gt;Node7</title>
<path fill="none" stroke="midnightblue" d="M527.6,-184.03C626.88,-177.79 796.32,-164.16 815,-143 824.12,-132.67 819.13,-125.15 815,-112 805.92,-83.06 802.03,-71.57 776,-56 716.58,-20.44 504.25,-12.97 422.45,-11.41"/>
<polygon fill="midnightblue" stroke="midnightblue" points="422.31,-7.91 412.25,-11.23 422.19,-14.91 422.31,-7.91"/>
</g>
<!-- Node11&#45;&gt;Node8 -->
<g id="edge21" class="edge">
<title>Node11&#45;&gt;Node8</title>
<path fill="none" stroke="midnightblue" d="M384.18,-187.28C306.8,-184.8 190.94,-175.56 163,-143 154.03,-132.54 155.78,-123.74 163,-112 172.55,-96.47 189.31,-86.1 205.73,-79.27"/>
<polygon fill="midnightblue" stroke="midnightblue" points="207.18,-82.46 215.3,-75.65 204.71,-75.92 207.18,-82.46"/>
</g>
<!-- Node12 -->
<g id="node12" class="node">
<title>Node12</title>
<g id="a_node12"><a xlink:title=" ">
<polygon fill="white" stroke="#bfbfbf" points="486,-118 486,-137 534,-137 534,-118 486,-118"/>
<text text-anchor="middle" x="510" y="-125" font-family="Helvetica,sans-Serif" font-size="10.00">mutex</text>
</a>
</g>
</g>
<!-- Node11&#45;&gt;Node12 -->
<g id="edge16" class="edge">
<title>Node11&#45;&gt;Node12</title>
<path fill="none" stroke="midnightblue" d="M463.74,-179.48C472,-170.37 485.28,-155.74 495.49,-144.48"/>
<polygon fill="midnightblue" stroke="midnightblue" points="498.15,-146.77 502.28,-137.01 492.97,-142.06 498.15,-146.77"/>
</g>
<!-- Node13 -->
<g id="node13" class="node">
<title>Node13</title>
<g id="a_node13"><a xlink:title=" ">
<polygon fill="white" stroke="#bfbfbf" points="552.5,-118 552.5,-137 645.5,-137 645.5,-118 552.5,-118"/>
<text text-anchor="middle" x="599" y="-125" font-family="Helvetica,sans-Serif" font-size="10.00">unordered_map</text>
</a>
</g>
</g>
<!-- Node11&#45;&gt;Node13 -->
<g id="edge18" class="edge">
<title>Node11&#45;&gt;Node13</title>
<path fill="none" stroke="midnightblue" d="M476.49,-179.48C500.81,-169.36 541.55,-152.4 569.32,-140.85"/>
<polygon fill="midnightblue" stroke="midnightblue" points="570.66,-144.08 578.55,-137.01 567.97,-137.62 570.66,-144.08"/>
</g>
<!-- Node14 -->
<g id="node14" class="node">
<title>Node14</title>
<g id="a_node14"><a xlink:title=" ">
<polygon fill="white" stroke="#bfbfbf" points="663.5,-118 663.5,-137 770.5,-137 770.5,-118 663.5,-118"/>
<text text-anchor="middle" x="717" y="-125" font-family="Helvetica,sans-Serif" font-size="10.00">condition_variable</text>
</a>
</g>
</g>
<!-- Node11&#45;&gt;Node14 -->
<g id="edge19" class="edge">
<title>Node11&#45;&gt;Node14</title>
<path fill="none" stroke="midnightblue" d="M493.6,-179.49C533.43,-170.46 598.16,-155.77 654,-143 659.27,-141.8 664.78,-140.53 670.26,-139.27"/>
<polygon fill="midnightblue" stroke="midnightblue" points="671.06,-142.68 680.03,-137.03 669.5,-135.86 671.06,-142.68"/>
</g>
<!-- Node15 -->
<g id="node15" class="node">
<title>Node15</title>
<g id="a_node15"><a xlink:href="container__runtime__factory__interface_8hpp.html" target="_top" xlink:title="Declares the interface for container runtime path factories.">
<polygon fill="white" stroke="black" points="172,-112.5 172,-142.5 318,-142.5 318,-112.5 172,-112.5"/>
<text text-anchor="start" x="180" y="-130.5" font-family="Helvetica,sans-Serif" font-size="10.00">container_runtime_factory</text>
<text text-anchor="middle" x="245" y="-119.5" font-family="Helvetica,sans-Serif" font-size="10.00">_interface.hpp</text>
</a>
</g>
</g>
<!-- Node11&#45;&gt;Node15 -->
<g id="edge22" class="edge">
<title>Node11&#45;&gt;Node15</title>
<path fill="none" stroke="midnightblue" d="M425.77,-179.48C394.25,-170.59 344.04,-156.43 304.53,-145.29"/>
<polygon fill="midnightblue" stroke="midnightblue" points="305.3,-141.87 294.73,-142.52 303.4,-148.61 305.3,-141.87"/>
</g>
<!-- Node15&#45;&gt;Node7 -->
<g id="edge23" class="edge">
<title>Node15&#45;&gt;Node7</title>
<path fill="none" stroke="midnightblue" d="M262.78,-112.34C290.33,-90.39 343.09,-48.37 371.23,-25.95"/>
<polygon fill="midnightblue" stroke="midnightblue" points="373.48,-28.64 379.12,-19.67 369.11,-23.16 373.48,-28.64"/>
</g>
<!-- Node15&#45;&gt;Node8 -->
<g id="edge24" class="edge">
<title>Node15&#45;&gt;Node8</title>
<path fill="none" stroke="midnightblue" d="M246.66,-112.4C247.59,-104.47 248.77,-94.46 249.78,-85.86"/>
<polygon fill="midnightblue" stroke="midnightblue" points="253.29,-86 250.98,-75.66 246.34,-85.18 253.29,-86"/>
</g>
</g>
</svg>
