<?xml version="1.0" encoding="UTF-8" standalone="no"?>
<!DOCTYPE svg PUBLIC "-//W3C//DTD SVG 1.1//EN"
 "http://www.w3.org/Graphics/SVG/1.1/DTD/svg11.dtd">
<!-- Generated by graphviz version 2.43.0 (0)
 -->
<!-- Title: database/inc/sqlite_database.hpp Pages: 1 -->
<svg width="198pt" height="106pt"
 viewBox="0.00 0.00 197.50 106.00" xmlns="http://www.w3.org/2000/svg" xmlns:xlink="http://www.w3.org/1999/xlink">
<g id="graph0" class="graph" transform="scale(1 1) rotate(0) translate(4 102)">
<title>database/inc/sqlite_database.hpp</title>
<polygon fill="white" stroke="transparent" points="-4,4 -4,-102 193.5,-102 193.5,4 -4,4"/>
<!-- Node1 -->
<g id="node1" class="node">
<title>Node1</title>
<g id="a_node1"><a xlink:title="Declares the SQLiteDatabase class for SQLite&#45;based database operations.">
<polygon fill="#bfbfbf" stroke="black" points="52,-67.5 52,-97.5 161,-97.5 161,-67.5 52,-67.5"/>
<text text-anchor="start" x="60" y="-85.5" font-family="Helvetica,sans-Serif" font-size="10.00">database/inc/sqlite</text>
<text text-anchor="middle" x="106.5" y="-74.5" font-family="Helvetica,sans-Serif" font-size="10.00">_database.hpp</text>
</a>
</g>
</g>
<!-- Node2 -->
<g id="node2" class="node">
<title>Node2</title>
<g id="a_node2"><a xlink:href="sqlite__database_8cpp.html" target="_top" xlink:title="Implements the SQLiteDatabase class for SQLite&#45;based database operations.">
<polygon fill="white" stroke="black" points="0,-0.5 0,-30.5 109,-30.5 109,-0.5 0,-0.5"/>
<text text-anchor="start" x="8" y="-18.5" font-family="Helvetica,sans-Serif" font-size="10.00">database/src/sqlite</text>
<text text-anchor="middle" x="54.5" y="-7.5" font-family="Helvetica,sans-Serif" font-size="10.00">_database.cpp</text>
</a>
</g>
</g>
<!-- Node1&#45;&gt;Node2 -->
<g id="edge1" class="edge">
<title>Node1&#45;&gt;Node2</title>
<path fill="none" stroke="midnightblue" d="M88.86,-59.45C81.22,-49.9 72.5,-39 65.76,-30.58"/>
<polygon fill="midnightblue" stroke="midnightblue" points="86.24,-61.77 95.22,-67.4 91.7,-57.4 86.24,-61.77"/>
</g>
<!-- Node3 -->
<g id="node3" class="node">
<title>Node3</title>
<g id="a_node3"><a xlink:href="main_8cpp.html" target="_top" xlink:title="Entry point for the Container Monitor application.">
<polygon fill="white" stroke="black" points="127.5,-6 127.5,-25 189.5,-25 189.5,-6 127.5,-6"/>
<text text-anchor="middle" x="158.5" y="-13" font-family="Helvetica,sans-Serif" font-size="10.00">main.cpp</text>
</a>
</g>
</g>
<!-- Node1&#45;&gt;Node3 -->
<g id="edge2" class="edge">
<title>Node1&#45;&gt;Node3</title>
<path fill="none" stroke="midnightblue" d="M124.25,-59.32C133.62,-47.6 144.59,-33.88 151.54,-25.19"/>
<polygon fill="midnightblue" stroke="midnightblue" points="121.3,-57.4 117.78,-67.4 126.76,-61.77 121.3,-57.4"/>
</g>
</g>
</svg>
