<?xml version="1.0" encoding="UTF-8" standalone="no"?>
<!DOCTYPE svg PUBLIC "-//W3C//DTD SVG 1.1//EN"
 "http://www.w3.org/Graphics/SVG/1.1/DTD/svg11.dtd">
<!-- Generated by graphviz version 2.43.0 (0)
 -->
<!-- Title: database/inc/sqlite_database.hpp Pages: 1 -->
<svg width="431pt" height="207pt"
 viewBox="0.00 0.00 431.00 207.00" xmlns="http://www.w3.org/2000/svg" xmlns:xlink="http://www.w3.org/1999/xlink">
<g id="graph0" class="graph" transform="scale(1 1) rotate(0) translate(4 203)">
<title>database/inc/sqlite_database.hpp</title>
<polygon fill="white" stroke="transparent" points="-4,4 -4,-203 427,-203 427,4 -4,4"/>
<!-- Node1 -->
<g id="node1" class="node">
<title>Node1</title>
<g id="a_node1"><a xlink:title="Declares the SQLiteDatabase class for SQLite&#45;based database operations.">
<polygon fill="#bfbfbf" stroke="black" points="177,-168.5 177,-198.5 286,-198.5 286,-168.5 177,-168.5"/>
<text text-anchor="start" x="185" y="-186.5" font-family="Helvetica,sans-Serif" font-size="10.00">database/inc/sqlite</text>
<text text-anchor="middle" x="231.5" y="-175.5" font-family="Helvetica,sans-Serif" font-size="10.00">_database.hpp</text>
</a>
</g>
</g>
<!-- Node2 -->
<g id="node2" class="node">
<title>Node2</title>
<g id="a_node2"><a xlink:href="database__interface_8hpp.html" target="_top" xlink:title="Declares the abstract interface for database operations in container monitoring.">
<polygon fill="white" stroke="black" points="72,-112.5 72,-131.5 203,-131.5 203,-112.5 72,-112.5"/>
<text text-anchor="middle" x="137.5" y="-119.5" font-family="Helvetica,sans-Serif" font-size="10.00">database_interface.hpp</text>
</a>
</g>
</g>
<!-- Node1&#45;&gt;Node2 -->
<g id="edge1" class="edge">
<title>Node1&#45;&gt;Node2</title>
<path fill="none" stroke="midnightblue" d="M209.22,-168.4C194.3,-158.95 174.72,-146.56 159.79,-137.11"/>
<polygon fill="midnightblue" stroke="midnightblue" points="161.5,-134.05 151.18,-131.66 157.76,-139.96 161.5,-134.05"/>
</g>
<!-- Node3 -->
<g id="node3" class="node">
<title>Node3</title>
<g id="a_node3"><a xlink:title=" ">
<polygon fill="white" stroke="#bfbfbf" points="0,-56.5 0,-75.5 47,-75.5 47,-56.5 0,-56.5"/>
<text text-anchor="middle" x="23.5" y="-63.5" font-family="Helvetica,sans-Serif" font-size="10.00">vector</text>
</a>
</g>
</g>
<!-- Node1&#45;&gt;Node3 -->
<g id="edge11" class="edge">
<title>Node1&#45;&gt;Node3</title>
<path fill="none" stroke="midnightblue" d="M176.86,-178.64C138.75,-173.37 88.79,-160.99 54.5,-132 40.35,-120.04 32.19,-100.14 27.83,-85.5"/>
<polygon fill="midnightblue" stroke="midnightblue" points="31.14,-84.33 25.2,-75.55 24.38,-86.12 31.14,-84.33"/>
</g>
<!-- Node4 -->
<g id="node4" class="node">
<title>Node4</title>
<g id="a_node4"><a xlink:title=" ">
<polygon fill="white" stroke="#bfbfbf" points="100.5,-56.5 100.5,-75.5 138.5,-75.5 138.5,-56.5 100.5,-56.5"/>
<text text-anchor="middle" x="119.5" y="-63.5" font-family="Helvetica,sans-Serif" font-size="10.00">map</text>
</a>
</g>
</g>
<!-- Node1&#45;&gt;Node4 -->
<g id="edge9" class="edge">
<title>Node1&#45;&gt;Node4</title>
<path fill="none" stroke="midnightblue" d="M176.67,-182.16C137.98,-178.68 88.57,-167 62.5,-132 48.61,-113.36 72.39,-93.48 93.34,-80.69"/>
<polygon fill="midnightblue" stroke="midnightblue" points="95.13,-83.7 102.03,-75.66 91.62,-77.64 95.13,-83.7"/>
</g>
<!-- Node5 -->
<g id="node5" class="node">
<title>Node5</title>
<g id="a_node5"><a xlink:title=" ">
<polygon fill="white" stroke="#bfbfbf" points="209.5,-0.5 209.5,-19.5 253.5,-19.5 253.5,-0.5 209.5,-0.5"/>
<text text-anchor="middle" x="231.5" y="-7.5" font-family="Helvetica,sans-Serif" font-size="10.00">string</text>
</a>
</g>
</g>
<!-- Node1&#45;&gt;Node5 -->
<g id="edge12" class="edge">
<title>Node1&#45;&gt;Node5</title>
<path fill="none" stroke="midnightblue" d="M231.5,-168.47C231.5,-137.7 231.5,-64.33 231.5,-29.7"/>
<polygon fill="midnightblue" stroke="midnightblue" points="235,-29.56 231.5,-19.56 228,-29.56 235,-29.56"/>
</g>
<!-- Node6 -->
<g id="node6" class="node">
<title>Node6</title>
<g id="a_node6"><a xlink:href="common_8hpp.html" target="_top" xlink:title="Common data structures, constants, and configuration for container monitoring.">
<polygon fill="white" stroke="black" points="259.5,-56.5 259.5,-75.5 339.5,-75.5 339.5,-56.5 259.5,-56.5"/>
<text text-anchor="middle" x="299.5" y="-63.5" font-family="Helvetica,sans-Serif" font-size="10.00">common.hpp</text>
</a>
</g>
</g>
<!-- Node1&#45;&gt;Node6 -->
<g id="edge14" class="edge">
<title>Node1&#45;&gt;Node6</title>
<path fill="none" stroke="midnightblue" d="M239.84,-168.34C252.31,-147.15 275.81,-107.24 289.29,-84.34"/>
<polygon fill="midnightblue" stroke="midnightblue" points="292.34,-86.06 294.4,-75.67 286.31,-82.51 292.34,-86.06"/>
</g>
<!-- Node9 -->
<g id="node9" class="node">
<title>Node9</title>
<g id="a_node9"><a xlink:title=" ">
<polygon fill="white" stroke="#bfbfbf" points="297.5,-112.5 297.5,-131.5 345.5,-131.5 345.5,-112.5 297.5,-112.5"/>
<text text-anchor="middle" x="321.5" y="-119.5" font-family="Helvetica,sans-Serif" font-size="10.00">mutex</text>
</a>
</g>
</g>
<!-- Node1&#45;&gt;Node9 -->
<g id="edge10" class="edge">
<title>Node1&#45;&gt;Node9</title>
<path fill="none" stroke="midnightblue" d="M252.83,-168.4C266.99,-159.04 285.51,-146.79 299.75,-137.38"/>
<polygon fill="midnightblue" stroke="midnightblue" points="301.99,-140.09 308.4,-131.66 298.13,-134.25 301.99,-140.09"/>
</g>
<!-- Node10 -->
<g id="node10" class="node">
<title>Node10</title>
<g id="a_node10"><a xlink:title=" ">
<polygon fill="white" stroke="#bfbfbf" points="364,-112.5 364,-131.5 423,-131.5 423,-112.5 364,-112.5"/>
<text text-anchor="middle" x="393.5" y="-119.5" font-family="Helvetica,sans-Serif" font-size="10.00">sqlite3.h</text>
</a>
</g>
</g>
<!-- Node1&#45;&gt;Node10 -->
<g id="edge13" class="edge">
<title>Node1&#45;&gt;Node10</title>
<path fill="none" stroke="midnightblue" d="M269.89,-168.4C297.44,-158.28 334.17,-144.79 360.42,-135.15"/>
<polygon fill="midnightblue" stroke="midnightblue" points="361.75,-138.39 369.93,-131.66 359.33,-131.82 361.75,-138.39"/>
</g>
<!-- Node2&#45;&gt;Node3 -->
<g id="edge2" class="edge">
<title>Node2&#45;&gt;Node3</title>
<path fill="none" stroke="midnightblue" d="M119.44,-112.44C100.93,-103.68 71.92,-89.94 50.64,-79.86"/>
<polygon fill="midnightblue" stroke="midnightblue" points="52.01,-76.63 41.48,-75.52 49.02,-82.96 52.01,-76.63"/>
</g>
<!-- Node2&#45;&gt;Node4 -->
<g id="edge3" class="edge">
<title>Node2&#45;&gt;Node4</title>
<path fill="none" stroke="midnightblue" d="M134.53,-112.08C132.12,-104.85 128.64,-94.41 125.63,-85.4"/>
<polygon fill="midnightblue" stroke="midnightblue" points="128.9,-84.13 122.42,-75.75 122.26,-86.34 128.9,-84.13"/>
</g>
<!-- Node2&#45;&gt;Node5 -->
<g id="edge4" class="edge">
<title>Node2&#45;&gt;Node5</title>
<path fill="none" stroke="midnightblue" d="M144.88,-112.37C160.53,-94.05 197.28,-51.05 217.52,-27.36"/>
<polygon fill="midnightblue" stroke="midnightblue" points="220.32,-29.47 224.16,-19.59 215,-24.92 220.32,-29.47"/>
</g>
<!-- Node2&#45;&gt;Node6 -->
<g id="edge5" class="edge">
<title>Node2&#45;&gt;Node6</title>
<path fill="none" stroke="midnightblue" d="M163.17,-112.44C190.42,-103.36 233.68,-88.94 264.15,-78.78"/>
<polygon fill="midnightblue" stroke="midnightblue" points="265.57,-82 273.95,-75.52 263.36,-75.36 265.57,-82"/>
</g>
<!-- Node6&#45;&gt;Node5 -->
<g id="edge6" class="edge">
<title>Node6&#45;&gt;Node5</title>
<path fill="none" stroke="midnightblue" d="M288.57,-56.32C278.33,-48.18 262.78,-35.84 250.5,-26.09"/>
<polygon fill="midnightblue" stroke="midnightblue" points="252.63,-23.31 242.62,-19.83 248.28,-28.79 252.63,-23.31"/>
</g>
<!-- Node7 -->
<g id="node7" class="node">
<title>Node7</title>
<g id="a_node7"><a xlink:title=" ">
<polygon fill="white" stroke="#bfbfbf" points="272.5,-0.5 272.5,-19.5 322.5,-19.5 322.5,-0.5 272.5,-0.5"/>
<text text-anchor="middle" x="297.5" y="-7.5" font-family="Helvetica,sans-Serif" font-size="10.00">cstring</text>
</a>
</g>
</g>
<!-- Node6&#45;&gt;Node7 -->
<g id="edge7" class="edge">
<title>Node6&#45;&gt;Node7</title>
<path fill="none" stroke="midnightblue" d="M299.17,-56.08C298.91,-49.01 298.53,-38.86 298.2,-29.99"/>
<polygon fill="midnightblue" stroke="midnightblue" points="301.69,-29.61 297.82,-19.75 294.7,-29.87 301.69,-29.61"/>
</g>
<!-- Node8 -->
<g id="node8" class="node">
<title>Node8</title>
<g id="a_node8"><a xlink:title=" ">
<polygon fill="white" stroke="#bfbfbf" points="341,-0.5 341,-19.5 414,-19.5 414,-0.5 341,-0.5"/>
<text text-anchor="middle" x="377.5" y="-7.5" font-family="Helvetica,sans-Serif" font-size="10.00">string_view</text>
</a>
</g>
</g>
<!-- Node6&#45;&gt;Node8 -->
<g id="edge8" class="edge">
<title>Node6&#45;&gt;Node8</title>
<path fill="none" stroke="midnightblue" d="M312.03,-56.32C324.09,-47.98 342.53,-35.21 356.77,-25.35"/>
<polygon fill="midnightblue" stroke="midnightblue" points="358.77,-28.22 365,-19.65 354.78,-22.47 358.77,-28.22"/>
</g>
</g>
</svg>
