<?xml version="1.0" encoding="UTF-8" standalone="no"?>
<!DOCTYPE svg PUBLIC "-//W3C//DTD SVG 1.1//EN"
 "http://www.w3.org/Graphics/SVG/1.1/DTD/svg11.dtd">
<!-- Generated by graphviz version 2.43.0 (0)
 -->
<!-- Title: database/src/sqlite_database.cpp Pages: 1 -->
<svg width="613pt" height="263pt"
 viewBox="0.00 0.00 612.52 263.00" xmlns="http://www.w3.org/2000/svg" xmlns:xlink="http://www.w3.org/1999/xlink">
<g id="graph0" class="graph" transform="scale(1 1) rotate(0) translate(4 259)">
<title>database/src/sqlite_database.cpp</title>
<polygon fill="white" stroke="transparent" points="-4,4 -4,-259 608.52,-259 608.52,4 -4,4"/>
<!-- Node1 -->
<g id="node1" class="node">
<title>Node1</title>
<g id="a_node1"><a xlink:title="Implements the SQLiteDatabase class for SQLite&#45;based database operations.">
<polygon fill="#bfbfbf" stroke="black" points="341.02,-224.5 341.02,-254.5 450.02,-254.5 450.02,-224.5 341.02,-224.5"/>
<text text-anchor="start" x="349.02" y="-242.5" font-family="Helvetica,sans-Serif" font-size="10.00">database/src/sqlite</text>
<text text-anchor="middle" x="395.52" y="-231.5" font-family="Helvetica,sans-Serif" font-size="10.00">_database.cpp</text>
</a>
</g>
</g>
<!-- Node2 -->
<g id="node2" class="node">
<title>Node2</title>
<g id="a_node2"><a xlink:href="sqlite__database_8hpp.html" target="_top" xlink:title="Declares the SQLiteDatabase class for SQLite&#45;based database operations.">
<polygon fill="white" stroke="black" points="156.02,-168.5 156.02,-187.5 271.02,-187.5 271.02,-168.5 156.02,-168.5"/>
<text text-anchor="middle" x="213.52" y="-175.5" font-family="Helvetica,sans-Serif" font-size="10.00">sqlite_database.hpp</text>
</a>
</g>
</g>
<!-- Node1&#45;&gt;Node2 -->
<g id="edge1" class="edge">
<title>Node1&#45;&gt;Node2</title>
<path fill="none" stroke="midnightblue" d="M352.39,-224.4C320.94,-214.12 278.83,-200.35 249.25,-190.68"/>
<polygon fill="midnightblue" stroke="midnightblue" points="250.33,-187.35 239.74,-187.57 248.15,-194.01 250.33,-187.35"/>
</g>
<!-- Node12 -->
<g id="node12" class="node">
<title>Node12</title>
<g id="a_node12"><a xlink:title=" ">
<polygon fill="white" stroke="#bfbfbf" points="289.52,-168.5 289.52,-187.5 349.52,-187.5 349.52,-168.5 289.52,-168.5"/>
<text text-anchor="middle" x="319.52" y="-175.5" font-family="Helvetica,sans-Serif" font-size="10.00">iostream</text>
</a>
</g>
</g>
<!-- Node1&#45;&gt;Node12 -->
<g id="edge16" class="edge">
<title>Node1&#45;&gt;Node12</title>
<path fill="none" stroke="midnightblue" d="M377.51,-224.4C365.78,-215.22 350.5,-203.26 338.57,-193.92"/>
<polygon fill="midnightblue" stroke="midnightblue" points="340.61,-191.07 330.58,-187.66 336.29,-196.58 340.61,-191.07"/>
</g>
<!-- Node13 -->
<g id="node13" class="node">
<title>Node13</title>
<g id="a_node13"><a xlink:title=" ">
<polygon fill="white" stroke="#bfbfbf" points="368.02,-168.5 368.02,-187.5 423.02,-187.5 423.02,-168.5 368.02,-168.5"/>
<text text-anchor="middle" x="395.52" y="-175.5" font-family="Helvetica,sans-Serif" font-size="10.00">fstream</text>
</a>
</g>
</g>
<!-- Node1&#45;&gt;Node13 -->
<g id="edge17" class="edge">
<title>Node1&#45;&gt;Node13</title>
<path fill="none" stroke="midnightblue" d="M395.52,-224.4C395.52,-216.47 395.52,-206.46 395.52,-197.86"/>
<polygon fill="midnightblue" stroke="midnightblue" points="399.02,-197.66 395.52,-187.66 392.02,-197.66 399.02,-197.66"/>
</g>
<!-- Node14 -->
<g id="node14" class="node">
<title>Node14</title>
<g id="a_node14"><a xlink:title=" ">
<polygon fill="white" stroke="#bfbfbf" points="441.52,-168.5 441.52,-187.5 509.52,-187.5 509.52,-168.5 441.52,-168.5"/>
<text text-anchor="middle" x="475.52" y="-175.5" font-family="Helvetica,sans-Serif" font-size="10.00">filesystem</text>
</a>
</g>
</g>
<!-- Node1&#45;&gt;Node14 -->
<g id="edge18" class="edge">
<title>Node1&#45;&gt;Node14</title>
<path fill="none" stroke="midnightblue" d="M414.48,-224.4C426.94,-215.13 443.22,-203.03 455.83,-193.65"/>
<polygon fill="midnightblue" stroke="midnightblue" points="457.94,-196.43 463.88,-187.66 453.77,-190.82 457.94,-196.43"/>
</g>
<!-- Node15 -->
<g id="node15" class="node">
<title>Node15</title>
<g id="a_node15"><a xlink:href="logger_8hpp.html" target="_top" xlink:title="Logging macros for the container monitor application.">
<polygon fill="white" stroke="black" points="527.52,-168.5 527.52,-187.5 595.52,-187.5 595.52,-168.5 527.52,-168.5"/>
<text text-anchor="middle" x="561.52" y="-175.5" font-family="Helvetica,sans-Serif" font-size="10.00">logger.hpp</text>
</a>
</g>
</g>
<!-- Node1&#45;&gt;Node15 -->
<g id="edge19" class="edge">
<title>Node1&#45;&gt;Node15</title>
<path fill="none" stroke="midnightblue" d="M434.86,-224.4C463.08,-214.28 500.73,-200.79 527.62,-191.15"/>
<polygon fill="midnightblue" stroke="midnightblue" points="529.13,-194.33 537.36,-187.66 526.77,-187.74 529.13,-194.33"/>
</g>
<!-- Node3 -->
<g id="node3" class="node">
<title>Node3</title>
<g id="a_node3"><a xlink:href="database__interface_8hpp.html" target="_top" xlink:title="Declares the abstract interface for database operations in container monitoring.">
<polygon fill="white" stroke="black" points="40.02,-112.5 40.02,-131.5 171.02,-131.5 171.02,-112.5 40.02,-112.5"/>
<text text-anchor="middle" x="105.52" y="-119.5" font-family="Helvetica,sans-Serif" font-size="10.00">database_interface.hpp</text>
</a>
</g>
</g>
<!-- Node2&#45;&gt;Node3 -->
<g id="edge2" class="edge">
<title>Node2&#45;&gt;Node3</title>
<path fill="none" stroke="midnightblue" d="M196.17,-168.32C178.85,-159.66 152,-146.24 132.02,-136.25"/>
<polygon fill="midnightblue" stroke="midnightblue" points="133.34,-133 122.83,-131.65 130.21,-139.26 133.34,-133"/>
</g>
<!-- Node4 -->
<g id="node4" class="node">
<title>Node4</title>
<g id="a_node4"><a xlink:title=" ">
<polygon fill="white" stroke="#bfbfbf" points="124.02,-56.5 124.02,-75.5 171.02,-75.5 171.02,-56.5 124.02,-56.5"/>
<text text-anchor="middle" x="147.52" y="-63.5" font-family="Helvetica,sans-Serif" font-size="10.00">vector</text>
</a>
</g>
</g>
<!-- Node2&#45;&gt;Node4 -->
<g id="edge12" class="edge">
<title>Node2&#45;&gt;Node4</title>
<path fill="none" stroke="midnightblue" d="M256.79,-168.43C296.31,-158.61 345.47,-140.17 323.52,-112 285.12,-62.73 247.6,-89.78 181.29,-75.9"/>
<polygon fill="midnightblue" stroke="midnightblue" points="181.83,-72.43 171.3,-73.54 180.23,-79.25 181.83,-72.43"/>
</g>
<!-- Node5 -->
<g id="node5" class="node">
<title>Node5</title>
<g id="a_node5"><a xlink:title=" ">
<polygon fill="white" stroke="#bfbfbf" points="20.52,-56.5 20.52,-75.5 58.52,-75.5 58.52,-56.5 20.52,-56.5"/>
<text text-anchor="middle" x="39.52" y="-63.5" font-family="Helvetica,sans-Serif" font-size="10.00">map</text>
</a>
</g>
</g>
<!-- Node2&#45;&gt;Node5 -->
<g id="edge10" class="edge">
<title>Node2&#45;&gt;Node5</title>
<path fill="none" stroke="midnightblue" d="M155.98,-170.57C108.31,-163.92 45.96,-151.7 30.52,-132 20.11,-118.72 24.75,-99.06 30.52,-84.84"/>
<polygon fill="midnightblue" stroke="midnightblue" points="33.76,-86.17 34.71,-75.62 27.39,-83.27 33.76,-86.17"/>
</g>
<!-- Node6 -->
<g id="node6" class="node">
<title>Node6</title>
<g id="a_node6"><a xlink:title=" ">
<polygon fill="white" stroke="#bfbfbf" points="73.52,-0.5 73.52,-19.5 117.52,-19.5 117.52,-0.5 73.52,-0.5"/>
<text text-anchor="middle" x="95.52" y="-7.5" font-family="Helvetica,sans-Serif" font-size="10.00">string</text>
</a>
</g>
</g>
<!-- Node2&#45;&gt;Node6 -->
<g id="edge13" class="edge">
<title>Node2&#45;&gt;Node6</title>
<path fill="none" stroke="midnightblue" d="M155.59,-170.62C105.62,-163.88 38.7,-151.5 20.52,-132 -2.68,-107.13 -5.95,-85.18 11.52,-56 22.76,-37.23 44.8,-25.84 63.48,-19.22"/>
<polygon fill="midnightblue" stroke="midnightblue" points="64.71,-22.5 73.15,-16.1 62.56,-15.84 64.71,-22.5"/>
</g>
<!-- Node7 -->
<g id="node7" class="node">
<title>Node7</title>
<g id="a_node7"><a xlink:href="common_8hpp.html" target="_top" xlink:title="Common data structures, constants, and configuration for container monitoring.">
<polygon fill="white" stroke="black" points="189.52,-56.5 189.52,-75.5 269.52,-75.5 269.52,-56.5 189.52,-56.5"/>
<text text-anchor="middle" x="229.52" y="-63.5" font-family="Helvetica,sans-Serif" font-size="10.00">common.hpp</text>
</a>
</g>
</g>
<!-- Node2&#45;&gt;Node7 -->
<g id="edge15" class="edge">
<title>Node2&#45;&gt;Node7</title>
<path fill="none" stroke="midnightblue" d="M260.78,-168.46C298.13,-160.64 345.84,-147.88 357.52,-132 381.19,-99.8 324.97,-82.43 279.67,-73.95"/>
<polygon fill="midnightblue" stroke="midnightblue" points="280.07,-70.47 269.62,-72.18 278.86,-77.36 280.07,-70.47"/>
</g>
<!-- Node10 -->
<g id="node10" class="node">
<title>Node10</title>
<g id="a_node10"><a xlink:title=" ">
<polygon fill="white" stroke="#bfbfbf" points="189.52,-112.5 189.52,-131.5 237.52,-131.5 237.52,-112.5 189.52,-112.5"/>
<text text-anchor="middle" x="213.52" y="-119.5" font-family="Helvetica,sans-Serif" font-size="10.00">mutex</text>
</a>
</g>
</g>
<!-- Node2&#45;&gt;Node10 -->
<g id="edge11" class="edge">
<title>Node2&#45;&gt;Node10</title>
<path fill="none" stroke="midnightblue" d="M213.52,-168.08C213.52,-161.01 213.52,-150.86 213.52,-141.99"/>
<polygon fill="midnightblue" stroke="midnightblue" points="217.02,-141.75 213.52,-131.75 210.02,-141.75 217.02,-141.75"/>
</g>
<!-- Node11 -->
<g id="node11" class="node">
<title>Node11</title>
<g id="a_node11"><a xlink:title=" ">
<polygon fill="white" stroke="#bfbfbf" points="256.02,-112.5 256.02,-131.5 315.02,-131.5 315.02,-112.5 256.02,-112.5"/>
<text text-anchor="middle" x="285.52" y="-119.5" font-family="Helvetica,sans-Serif" font-size="10.00">sqlite3.h</text>
</a>
</g>
</g>
<!-- Node2&#45;&gt;Node11 -->
<g id="edge14" class="edge">
<title>Node2&#45;&gt;Node11</title>
<path fill="none" stroke="midnightblue" d="M225.09,-168.32C235.94,-160.18 252.4,-147.84 265.4,-138.09"/>
<polygon fill="midnightblue" stroke="midnightblue" points="267.84,-140.63 273.74,-131.83 263.64,-135.03 267.84,-140.63"/>
</g>
<!-- Node3&#45;&gt;Node4 -->
<g id="edge3" class="edge">
<title>Node3&#45;&gt;Node4</title>
<path fill="none" stroke="midnightblue" d="M112.45,-112.08C118.45,-104.38 127.27,-93.03 134.57,-83.65"/>
<polygon fill="midnightblue" stroke="midnightblue" points="137.34,-85.79 140.71,-75.75 131.81,-81.5 137.34,-85.79"/>
</g>
<!-- Node3&#45;&gt;Node5 -->
<g id="edge4" class="edge">
<title>Node3&#45;&gt;Node5</title>
<path fill="none" stroke="midnightblue" d="M94.91,-112.32C85.06,-104.26 70.17,-92.08 58.3,-82.37"/>
<polygon fill="midnightblue" stroke="midnightblue" points="60.27,-79.46 50.32,-75.83 55.84,-84.88 60.27,-79.46"/>
</g>
<!-- Node3&#45;&gt;Node6 -->
<g id="edge5" class="edge">
<title>Node3&#45;&gt;Node6</title>
<path fill="none" stroke="midnightblue" d="M104.73,-112.37C103.12,-94.62 99.4,-53.67 97.21,-29.6"/>
<polygon fill="midnightblue" stroke="midnightblue" points="100.69,-29.23 96.3,-19.59 93.72,-29.87 100.69,-29.23"/>
</g>
<!-- Node3&#45;&gt;Node7 -->
<g id="edge6" class="edge">
<title>Node3&#45;&gt;Node7</title>
<path fill="none" stroke="midnightblue" d="M125.17,-112.44C145.48,-103.6 177.42,-89.69 200.62,-79.59"/>
<polygon fill="midnightblue" stroke="midnightblue" points="202.19,-82.72 209.96,-75.52 199.4,-76.3 202.19,-82.72"/>
</g>
<!-- Node7&#45;&gt;Node6 -->
<g id="edge7" class="edge">
<title>Node7&#45;&gt;Node6</title>
<path fill="none" stroke="midnightblue" d="M208.29,-56.44C186.14,-47.52 151.2,-33.44 126.08,-23.32"/>
<polygon fill="midnightblue" stroke="midnightblue" points="127.24,-20.01 116.65,-19.52 124.62,-26.5 127.24,-20.01"/>
</g>
<!-- Node8 -->
<g id="node8" class="node">
<title>Node8</title>
<g id="a_node8"><a xlink:title=" ">
<polygon fill="white" stroke="#bfbfbf" points="255.52,-0.5 255.52,-19.5 305.52,-19.5 305.52,-0.5 255.52,-0.5"/>
<text text-anchor="middle" x="280.52" y="-7.5" font-family="Helvetica,sans-Serif" font-size="10.00">cstring</text>
</a>
</g>
</g>
<!-- Node7&#45;&gt;Node8 -->
<g id="edge8" class="edge">
<title>Node7&#45;&gt;Node8</title>
<path fill="none" stroke="midnightblue" d="M237.94,-56.08C245.37,-48.22 256.37,-36.57 265.33,-27.08"/>
<polygon fill="midnightblue" stroke="midnightblue" points="267.93,-29.42 272.25,-19.75 262.84,-24.62 267.93,-29.42"/>
</g>
<!-- Node9 -->
<g id="node9" class="node">
<title>Node9</title>
<g id="a_node9"><a xlink:title=" ">
<polygon fill="white" stroke="#bfbfbf" points="164.02,-0.5 164.02,-19.5 237.02,-19.5 237.02,-0.5 164.02,-0.5"/>
<text text-anchor="middle" x="200.52" y="-7.5" font-family="Helvetica,sans-Serif" font-size="10.00">string_view</text>
</a>
</g>
</g>
<!-- Node7&#45;&gt;Node9 -->
<g id="edge9" class="edge">
<title>Node7&#45;&gt;Node9</title>
<path fill="none" stroke="midnightblue" d="M224.73,-56.08C220.76,-48.69 214.99,-37.95 210.08,-28.81"/>
<polygon fill="midnightblue" stroke="midnightblue" points="213.03,-26.91 205.22,-19.75 206.87,-30.22 213.03,-26.91"/>
</g>
<!-- Node16 -->
<g id="node16" class="node">
<title>Node16</title>
<g id="a_node16"><a xlink:title=" ">
<polygon fill="white" stroke="#bfbfbf" points="518.52,-112.5 518.52,-131.5 604.52,-131.5 604.52,-112.5 518.52,-112.5"/>
<text text-anchor="middle" x="561.52" y="-119.5" font-family="Helvetica,sans-Serif" font-size="10.00">glog/logging.h</text>
</a>
</g>
</g>
<!-- Node15&#45;&gt;Node16 -->
<g id="edge20" class="edge">
<title>Node15&#45;&gt;Node16</title>
<path fill="none" stroke="midnightblue" d="M561.52,-168.08C561.52,-161.01 561.52,-150.86 561.52,-141.99"/>
<polygon fill="midnightblue" stroke="midnightblue" points="565.02,-141.75 561.52,-131.75 558.02,-141.75 565.02,-141.75"/>
</g>
</g>
</svg>
