<?xml version="1.0" encoding="UTF-8" standalone="no"?>
<!DOCTYPE svg PUBLIC "-//W3C//DTD SVG 1.1//EN"
 "http://www.w3.org/Graphics/SVG/1.1/DTD/svg11.dtd">
<!-- Generated by graphviz version 2.43.0 (0)
 -->
<!-- Title: ContainerMetricsEntry Pages: 1 -->
<svg width="284pt" height="310pt"
 viewBox="0.00 0.00 283.50 310.00" xmlns="http://www.w3.org/2000/svg" xmlns:xlink="http://www.w3.org/1999/xlink">
<g id="graph0" class="graph" transform="scale(1 1) rotate(0) translate(4 306)">
<title>ContainerMetricsEntry</title>
<polygon fill="white" stroke="transparent" points="-4,4 -4,-306 279.5,-306 279.5,4 -4,4"/>
<!-- Node1 -->
<g id="node1" class="node">
<title>Node1</title>
<g id="a_node1"><a xlink:title="Holds container ID, metrics, and timestamp for dashboard display.">
<polygon fill="#bfbfbf" stroke="black" points="76,-0.5 76,-57.5 201,-57.5 201,-0.5 76,-0.5"/>
<text text-anchor="middle" x="138.5" y="-45.5" font-family="Helvetica,sans-Serif" font-size="10.00">ContainerMetricsEntry</text>
<polyline fill="none" stroke="black" points="76,-38.5 201,-38.5 "/>
<text text-anchor="start" x="84" y="-26.5" font-family="Helvetica,sans-Serif" font-size="10.00">+ timestamp</text>
<polyline fill="none" stroke="black" points="76,-19.5 201,-19.5 "/>
<text text-anchor="middle" x="138.5" y="-7.5" font-family="Helvetica,sans-Serif" font-size="10.00"> </text>
</a>
</g>
</g>
<!-- Node2 -->
<g id="node2" class="node">
<title>Node2</title>
<g id="a_node2"><a xlink:href="structContainerMaxMetricsMsg.html" target="_top" xlink:title="Message structure for POSIX message queue, containing max metrics for a container.">
<polygon fill="white" stroke="black" points="0,-105.5 0,-195.5 173,-195.5 173,-105.5 0,-105.5"/>
<text text-anchor="middle" x="86.5" y="-183.5" font-family="Helvetica,sans-Serif" font-size="10.00">ContainerMaxMetricsMsg</text>
<polyline fill="none" stroke="black" points="0,-176.5 173,-176.5 "/>
<text text-anchor="start" x="8" y="-164.5" font-family="Helvetica,sans-Serif" font-size="10.00">+ max_cpu_usage_percent</text>
<text text-anchor="start" x="8" y="-153.5" font-family="Helvetica,sans-Serif" font-size="10.00">+ max_memory_usage_percent</text>
<text text-anchor="start" x="8" y="-142.5" font-family="Helvetica,sans-Serif" font-size="10.00">+ max_pids_percent</text>
<text text-anchor="start" x="8" y="-131.5" font-family="Helvetica,sans-Serif" font-size="10.00">+ container_id</text>
<polyline fill="none" stroke="black" points="0,-124.5 173,-124.5 "/>
<text text-anchor="middle" x="86.5" y="-112.5" font-family="Helvetica,sans-Serif" font-size="10.00"> </text>
</a>
</g>
</g>
<!-- Node2&#45;&gt;Node1 -->
<g id="edge1" class="edge">
<title>Node2&#45;&gt;Node1</title>
<path fill="none" stroke="#404040" d="M105.72,-105.34C110.92,-93.37 116.52,-80.51 121.59,-68.86"/>
<polygon fill="none" stroke="#404040" points="121.66,-68.69 120.39,-61.59 126.45,-57.69 127.73,-64.79 121.66,-68.69"/>
<text text-anchor="middle" x="141" y="-79" font-family="Helvetica,sans-Serif" font-size="10.00"> +metrics</text>
</g>
<!-- Node3 -->
<g id="node3" class="node">
<title>Node3</title>
<g id="a_node3"><a xlink:title="STL class.">
<polygon fill="white" stroke="#bfbfbf" points="191,-122 191,-179 256,-179 256,-122 191,-122"/>
<text text-anchor="middle" x="223.5" y="-167" font-family="Helvetica,sans-Serif" font-size="10.00">std::string</text>
<polyline fill="none" stroke="#bfbfbf" points="191,-160 256,-160 "/>
<text text-anchor="middle" x="223.5" y="-148" font-family="Helvetica,sans-Serif" font-size="10.00"> </text>
<polyline fill="none" stroke="#bfbfbf" points="191,-141 256,-141 "/>
<text text-anchor="middle" x="223.5" y="-129" font-family="Helvetica,sans-Serif" font-size="10.00"> </text>
</a>
</g>
</g>
<!-- Node3&#45;&gt;Node1 -->
<g id="edge2" class="edge">
<title>Node3&#45;&gt;Node1</title>
<path fill="none" stroke="#404040" d="M203.79,-121.78C192.31,-105.65 177.68,-85.08 165.18,-67.51"/>
<polygon fill="none" stroke="#404040" points="165.06,-67.34 158.33,-64.77 158.11,-57.57 164.84,-60.14 165.06,-67.34"/>
<text text-anchor="middle" x="213.5" y="-79" font-family="Helvetica,sans-Serif" font-size="10.00"> +container_id</text>
</g>
<!-- Node4 -->
<g id="node4" class="node">
<title>Node4</title>
<g id="a_node4"><a xlink:title="STL class.">
<polygon fill="white" stroke="#bfbfbf" points="171.5,-233.5 171.5,-301.5 275.5,-301.5 275.5,-233.5 171.5,-233.5"/>
<text text-anchor="start" x="179.5" y="-289.5" font-family="Helvetica,sans-Serif" font-size="10.00">std::basic_string&lt;</text>
<text text-anchor="middle" x="223.5" y="-278.5" font-family="Helvetica,sans-Serif" font-size="10.00"> char &gt;</text>
<polyline fill="none" stroke="#bfbfbf" points="171.5,-271.5 275.5,-271.5 "/>
<text text-anchor="middle" x="223.5" y="-259.5" font-family="Helvetica,sans-Serif" font-size="10.00"> </text>
<polyline fill="none" stroke="#bfbfbf" points="171.5,-252.5 275.5,-252.5 "/>
<text text-anchor="middle" x="223.5" y="-240.5" font-family="Helvetica,sans-Serif" font-size="10.00"> </text>
</a>
</g>
</g>
<!-- Node4&#45;&gt;Node3 -->
<g id="edge3" class="edge">
<title>Node4&#45;&gt;Node3</title>
<path fill="none" stroke="midnightblue" d="M223.5,-222.87C223.5,-208.23 223.5,-192.33 223.5,-179.25"/>
<polygon fill="none" stroke="midnightblue" points="220,-223.24 223.5,-233.24 227,-223.24 220,-223.24"/>
</g>
</g>
</svg>
