<?xml version="1.0" encoding="UTF-8" standalone="no"?>
<!DOCTYPE svg PUBLIC "-//W3C//DTD SVG 1.1//EN"
 "http://www.w3.org/Graphics/SVG/1.1/DTD/svg11.dtd">
<!-- Generated by graphviz version 2.43.0 (0)
 -->
<!-- Title: ContainerResourcePaths Pages: 1 -->
<svg width="156pt" height="299pt"
 viewBox="0.00 0.00 155.50 299.00" xmlns="http://www.w3.org/2000/svg" xmlns:xlink="http://www.w3.org/1999/xlink">
<g id="graph0" class="graph" transform="scale(1 1) rotate(0) translate(4 295)">
<title>ContainerResourcePaths</title>
<polygon fill="white" stroke="transparent" points="-4,4 -4,-295 151.5,-295 151.5,4 -4,4"/>
<!-- Node1 -->
<g id="node1" class="node">
<title>Node1</title>
<g id="a_node1"><a xlink:title="Holds file paths for container resource usage.">
<polygon fill="#bfbfbf" stroke="black" points="0,-0.5 0,-57.5 135,-57.5 135,-0.5 0,-0.5"/>
<text text-anchor="middle" x="67.5" y="-45.5" font-family="Helvetica,sans-Serif" font-size="10.00">ContainerResourcePaths</text>
<polyline fill="none" stroke="black" points="0,-38.5 135,-38.5 "/>
<text text-anchor="middle" x="67.5" y="-26.5" font-family="Helvetica,sans-Serif" font-size="10.00"> </text>
<polyline fill="none" stroke="black" points="0,-19.5 135,-19.5 "/>
<text text-anchor="middle" x="67.5" y="-7.5" font-family="Helvetica,sans-Serif" font-size="10.00"> </text>
</a>
</g>
</g>
<!-- Node2 -->
<g id="node2" class="node">
<title>Node2</title>
<g id="a_node2"><a xlink:title="STL class.">
<polygon fill="white" stroke="#bfbfbf" points="35,-127.5 35,-184.5 100,-184.5 100,-127.5 35,-127.5"/>
<text text-anchor="middle" x="67.5" y="-172.5" font-family="Helvetica,sans-Serif" font-size="10.00">std::string</text>
<polyline fill="none" stroke="#bfbfbf" points="35,-165.5 100,-165.5 "/>
<text text-anchor="middle" x="67.5" y="-153.5" font-family="Helvetica,sans-Serif" font-size="10.00"> </text>
<polyline fill="none" stroke="#bfbfbf" points="35,-146.5 100,-146.5 "/>
<text text-anchor="middle" x="67.5" y="-134.5" font-family="Helvetica,sans-Serif" font-size="10.00"> </text>
</a>
</g>
</g>
<!-- Node2&#45;&gt;Node1 -->
<g id="edge1" class="edge">
<title>Node2&#45;&gt;Node1</title>
<path fill="none" stroke="#404040" d="M67.5,-127.26C67.5,-110.35 67.5,-88.46 67.5,-69.73"/>
<polygon fill="none" stroke="#404040" points="67.5,-69.66 63.5,-63.66 67.5,-57.66 71.5,-63.66 67.5,-69.66"/>
<text text-anchor="middle" x="107.5" y="-101" font-family="Helvetica,sans-Serif" font-size="10.00"> +memory_path</text>
<text text-anchor="middle" x="107.5" y="-90" font-family="Helvetica,sans-Serif" font-size="10.00">+pids_path</text>
<text text-anchor="middle" x="107.5" y="-79" font-family="Helvetica,sans-Serif" font-size="10.00">+cpu_path</text>
</g>
<!-- Node3 -->
<g id="node3" class="node">
<title>Node3</title>
<g id="a_node3"><a xlink:title="STL class.">
<polygon fill="white" stroke="#bfbfbf" points="15.5,-222.5 15.5,-290.5 119.5,-290.5 119.5,-222.5 15.5,-222.5"/>
<text text-anchor="start" x="23.5" y="-278.5" font-family="Helvetica,sans-Serif" font-size="10.00">std::basic_string&lt;</text>
<text text-anchor="middle" x="67.5" y="-267.5" font-family="Helvetica,sans-Serif" font-size="10.00"> char &gt;</text>
<polyline fill="none" stroke="#bfbfbf" points="15.5,-260.5 119.5,-260.5 "/>
<text text-anchor="middle" x="67.5" y="-248.5" font-family="Helvetica,sans-Serif" font-size="10.00"> </text>
<polyline fill="none" stroke="#bfbfbf" points="15.5,-241.5 119.5,-241.5 "/>
<text text-anchor="middle" x="67.5" y="-229.5" font-family="Helvetica,sans-Serif" font-size="10.00"> </text>
</a>
</g>
</g>
<!-- Node3&#45;&gt;Node2 -->
<g id="edge2" class="edge">
<title>Node3&#45;&gt;Node2</title>
<path fill="none" stroke="midnightblue" d="M67.5,-212.38C67.5,-202.94 67.5,-193.2 67.5,-184.57"/>
<polygon fill="none" stroke="midnightblue" points="64,-212.43 67.5,-222.43 71,-212.43 64,-212.43"/>
</g>
</g>
</svg>
