<?xml version="1.0" encoding="UTF-8" standalone="no"?>
<!DOCTYPE svg PUBLIC "-//W3C//DTD SVG 1.1//EN"
 "http://www.w3.org/Graphics/SVG/1.1/DTD/svg11.dtd">
<!-- Generated by graphviz version 2.43.0 (0)
 -->
<!-- Title: ContainerEventInfo Pages: 1 -->
<svg width="120pt" height="332pt"
 viewBox="0.00 0.00 120.00 332.00" xmlns="http://www.w3.org/2000/svg" xmlns:xlink="http://www.w3.org/1999/xlink">
<g id="graph0" class="graph" transform="scale(1 1) rotate(0) translate(4 328)">
<title>ContainerEventInfo</title>
<polygon fill="white" stroke="transparent" points="-4,4 -4,-328 116,-328 116,4 -4,4"/>
<!-- Node1 -->
<g id="node1" class="node">
<title>Node1</title>
<g id="a_node1"><a xlink:title="Holds parsed information from a container event.">
<polygon fill="#bfbfbf" stroke="black" points="0,-0.5 0,-57.5 110,-57.5 110,-0.5 0,-0.5"/>
<text text-anchor="middle" x="55" y="-45.5" font-family="Helvetica,sans-Serif" font-size="10.00">ContainerEventInfo</text>
<polyline fill="none" stroke="black" points="0,-38.5 110,-38.5 "/>
<text text-anchor="start" x="8" y="-26.5" font-family="Helvetica,sans-Serif" font-size="10.00">+ timeNano</text>
<polyline fill="none" stroke="black" points="0,-19.5 110,-19.5 "/>
<text text-anchor="middle" x="55" y="-7.5" font-family="Helvetica,sans-Serif" font-size="10.00"> </text>
</a>
</g>
</g>
<!-- Node2 -->
<g id="node2" class="node">
<title>Node2</title>
<g id="a_node2"><a xlink:title="STL class.">
<polygon fill="white" stroke="#bfbfbf" points="22.5,-160.5 22.5,-217.5 87.5,-217.5 87.5,-160.5 22.5,-160.5"/>
<text text-anchor="middle" x="55" y="-205.5" font-family="Helvetica,sans-Serif" font-size="10.00">std::string</text>
<polyline fill="none" stroke="#bfbfbf" points="22.5,-198.5 87.5,-198.5 "/>
<text text-anchor="middle" x="55" y="-186.5" font-family="Helvetica,sans-Serif" font-size="10.00"> </text>
<polyline fill="none" stroke="#bfbfbf" points="22.5,-179.5 87.5,-179.5 "/>
<text text-anchor="middle" x="55" y="-167.5" font-family="Helvetica,sans-Serif" font-size="10.00"> </text>
</a>
</g>
</g>
<!-- Node2&#45;&gt;Node1 -->
<g id="edge1" class="edge">
<title>Node2&#45;&gt;Node1</title>
<path fill="none" stroke="#404040" d="M55,-160.48C55,-135.48 55,-98.31 55,-70.03"/>
<polygon fill="none" stroke="#404040" points="55,-69.74 51,-63.74 55,-57.74 59,-63.74 55,-69.74"/>
<text text-anchor="middle" x="83.5" y="-134" font-family="Helvetica,sans-Serif" font-size="10.00"> +cpus</text>
<text text-anchor="middle" x="83.5" y="-123" font-family="Helvetica,sans-Serif" font-size="10.00">+id</text>
<text text-anchor="middle" x="83.5" y="-112" font-family="Helvetica,sans-Serif" font-size="10.00">+name</text>
<text text-anchor="middle" x="83.5" y="-101" font-family="Helvetica,sans-Serif" font-size="10.00">+status</text>
<text text-anchor="middle" x="83.5" y="-90" font-family="Helvetica,sans-Serif" font-size="10.00">+memory</text>
<text text-anchor="middle" x="83.5" y="-79" font-family="Helvetica,sans-Serif" font-size="10.00">+pids_limit</text>
</g>
<!-- Node3 -->
<g id="node3" class="node">
<title>Node3</title>
<g id="a_node3"><a xlink:title="STL class.">
<polygon fill="white" stroke="#bfbfbf" points="3,-255.5 3,-323.5 107,-323.5 107,-255.5 3,-255.5"/>
<text text-anchor="start" x="11" y="-311.5" font-family="Helvetica,sans-Serif" font-size="10.00">std::basic_string&lt;</text>
<text text-anchor="middle" x="55" y="-300.5" font-family="Helvetica,sans-Serif" font-size="10.00"> char &gt;</text>
<polyline fill="none" stroke="#bfbfbf" points="3,-293.5 107,-293.5 "/>
<text text-anchor="middle" x="55" y="-281.5" font-family="Helvetica,sans-Serif" font-size="10.00"> </text>
<polyline fill="none" stroke="#bfbfbf" points="3,-274.5 107,-274.5 "/>
<text text-anchor="middle" x="55" y="-262.5" font-family="Helvetica,sans-Serif" font-size="10.00"> </text>
</a>
</g>
</g>
<!-- Node3&#45;&gt;Node2 -->
<g id="edge2" class="edge">
<title>Node3&#45;&gt;Node2</title>
<path fill="none" stroke="midnightblue" d="M55,-245.38C55,-235.94 55,-226.2 55,-217.57"/>
<polygon fill="none" stroke="midnightblue" points="51.5,-245.43 55,-255.43 58.5,-245.43 51.5,-245.43"/>
</g>
</g>
</svg>
