<?xml version="1.0" encoding="UTF-8" standalone="no"?>
<!DOCTYPE svg PUBLIC "-//W3C//DTD SVG 1.1//EN"
 "http://www.w3.org/Graphics/SVG/1.1/DTD/svg11.dtd">
<!-- Generated by graphviz version 2.43.0 (0)
 -->
<!-- Title: MonitorConfig Pages: 1 -->
<svg width="197pt" height="431pt"
 viewBox="0.00 0.00 196.50 431.00" xmlns="http://www.w3.org/2000/svg" xmlns:xlink="http://www.w3.org/1999/xlink">
<g id="graph0" class="graph" transform="scale(1 1) rotate(0) translate(4 427)">
<title>MonitorConfig</title>
<polygon fill="white" stroke="transparent" points="-4,4 -4,-427 192.5,-427 192.5,4 -4,4"/>
<!-- Node1 -->
<g id="node1" class="node">
<title>Node1</title>
<g id="a_node1"><a xlink:title="Holds configuration parameters for the container monitor application.">
<polygon fill="#bfbfbf" stroke="black" points="0,-0.5 0,-156.5 183,-156.5 183,-0.5 0,-0.5"/>
<text text-anchor="middle" x="91.5" y="-144.5" font-family="Helvetica,sans-Serif" font-size="10.00">MonitorConfig</text>
<polyline fill="none" stroke="black" points="0,-137.5 183,-137.5 "/>
<text text-anchor="start" x="8" y="-125.5" font-family="Helvetica,sans-Serif" font-size="10.00">+ resource_sampling_interval_ms</text>
<text text-anchor="start" x="8" y="-114.5" font-family="Helvetica,sans-Serif" font-size="10.00">+ container_event_refresh</text>
<text text-anchor="start" x="8" y="-103.5" font-family="Helvetica,sans-Serif" font-size="10.00">_interval_ms</text>
<text text-anchor="start" x="8" y="-92.5" font-family="Helvetica,sans-Serif" font-size="10.00">+ ui_enabled</text>
<text text-anchor="start" x="8" y="-81.5" font-family="Helvetica,sans-Serif" font-size="10.00">+ batch_size</text>
<text text-anchor="start" x="8" y="-70.5" font-family="Helvetica,sans-Serif" font-size="10.00">+ alert_warning</text>
<text text-anchor="start" x="8" y="-59.5" font-family="Helvetica,sans-Serif" font-size="10.00">+ alert_critical</text>
<text text-anchor="start" x="8" y="-48.5" font-family="Helvetica,sans-Serif" font-size="10.00">+ thread_count</text>
<text text-anchor="start" x="8" y="-37.5" font-family="Helvetica,sans-Serif" font-size="10.00">+ thread_capacity</text>
<text text-anchor="start" x="8" y="-26.5" font-family="Helvetica,sans-Serif" font-size="10.00">+ ui_refresh_interval_ms</text>
<polyline fill="none" stroke="black" points="0,-19.5 183,-19.5 "/>
<text text-anchor="middle" x="91.5" y="-7.5" font-family="Helvetica,sans-Serif" font-size="10.00"> </text>
</a>
</g>
</g>
<!-- Node2 -->
<g id="node2" class="node">
<title>Node2</title>
<g id="a_node2"><a xlink:title="STL class.">
<polygon fill="white" stroke="#bfbfbf" points="59,-259.5 59,-316.5 124,-316.5 124,-259.5 59,-259.5"/>
<text text-anchor="middle" x="91.5" y="-304.5" font-family="Helvetica,sans-Serif" font-size="10.00">std::string</text>
<polyline fill="none" stroke="#bfbfbf" points="59,-297.5 124,-297.5 "/>
<text text-anchor="middle" x="91.5" y="-285.5" font-family="Helvetica,sans-Serif" font-size="10.00"> </text>
<polyline fill="none" stroke="#bfbfbf" points="59,-278.5 124,-278.5 "/>
<text text-anchor="middle" x="91.5" y="-266.5" font-family="Helvetica,sans-Serif" font-size="10.00"> </text>
</a>
</g>
</g>
<!-- Node2&#45;&gt;Node1 -->
<g id="edge1" class="edge">
<title>Node2&#45;&gt;Node1</title>
<path fill="none" stroke="#404040" d="M91.5,-259.45C91.5,-236.28 91.5,-201.81 91.5,-169.23"/>
<polygon fill="none" stroke="#404040" points="91.5,-168.86 87.5,-162.86 91.5,-156.86 95.5,-162.86 91.5,-168.86"/>
<text text-anchor="start" x="91.5" y="-233" font-family="Helvetica,sans-Serif" font-size="10.00"> +file_export_folder</text>
<text text-anchor="middle" x="140" y="-222" font-family="Helvetica,sans-Serif" font-size="10.00">_path</text>
<text text-anchor="middle" x="140" y="-211" font-family="Helvetica,sans-Serif" font-size="10.00">+database</text>
<text text-anchor="middle" x="140" y="-200" font-family="Helvetica,sans-Serif" font-size="10.00">+cgroup</text>
<text text-anchor="middle" x="140" y="-189" font-family="Helvetica,sans-Serif" font-size="10.00">+runtime</text>
<text text-anchor="middle" x="140" y="-178" font-family="Helvetica,sans-Serif" font-size="10.00">+db_path</text>
</g>
<!-- Node3 -->
<g id="node3" class="node">
<title>Node3</title>
<g id="a_node3"><a xlink:title="STL class.">
<polygon fill="white" stroke="#bfbfbf" points="39.5,-354.5 39.5,-422.5 143.5,-422.5 143.5,-354.5 39.5,-354.5"/>
<text text-anchor="start" x="47.5" y="-410.5" font-family="Helvetica,sans-Serif" font-size="10.00">std::basic_string&lt;</text>
<text text-anchor="middle" x="91.5" y="-399.5" font-family="Helvetica,sans-Serif" font-size="10.00"> char &gt;</text>
<polyline fill="none" stroke="#bfbfbf" points="39.5,-392.5 143.5,-392.5 "/>
<text text-anchor="middle" x="91.5" y="-380.5" font-family="Helvetica,sans-Serif" font-size="10.00"> </text>
<polyline fill="none" stroke="#bfbfbf" points="39.5,-373.5 143.5,-373.5 "/>
<text text-anchor="middle" x="91.5" y="-361.5" font-family="Helvetica,sans-Serif" font-size="10.00"> </text>
</a>
</g>
</g>
<!-- Node3&#45;&gt;Node2 -->
<g id="edge2" class="edge">
<title>Node3&#45;&gt;Node2</title>
<path fill="none" stroke="midnightblue" d="M91.5,-344.38C91.5,-334.94 91.5,-325.2 91.5,-316.57"/>
<polygon fill="none" stroke="midnightblue" points="88,-344.43 91.5,-354.43 95,-344.43 88,-344.43"/>
</g>
</g>
</svg>
